solid ASCII
  facet normal 0.000000e+00 0.000000e+00 -1.000000e+00
    outer loop
      vertex   2.500000e+02 1.600000e+01 1.000000e+01
      vertex   2.350000e+02 1.600000e+01 1.000000e+01
      vertex   2.500000e+02 8.400000e+01 1.000000e+01
    endloop
  endfacet
  facet normal -0.000000e+00 0.000000e+00 -1.000000e+00
    outer loop
      vertex   2.500000e+02 8.400000e+01 1.000000e+01
      vertex   2.350000e+02 1.600000e+01 1.000000e+01
      vertex   2.350000e+02 8.400000e+01 1.000000e+01
    endloop
  endfacet
  facet normal 1.000000e+00 0.000000e+00 -0.000000e+00
    outer loop
      vertex   2.500000e+02 8.400000e+01 1.000000e+01
      vertex   2.500000e+02 8.400000e+01 4.000000e+02
      vertex   2.500000e+02 1.600000e+01 1.000000e+01
    endloop
  endfacet
  facet normal 1.000000e+00 0.000000e+00 0.000000e+00
    outer loop
      vertex   2.500000e+02 1.600000e+01 1.000000e+01
      vertex   2.500000e+02 8.400000e+01 4.000000e+02
      vertex   2.500000e+02 1.600000e+01 4.000000e+02
    endloop
  endfacet
  facet normal -1.000000e+00 0.000000e+00 -0.000000e+00
    outer loop
      vertex   2.350000e+02 1.600000e+01 4.000000e+02
      vertex   2.350000e+02 8.400000e+01 4.000000e+02
      vertex   2.350000e+02 1.600000e+01 1.000000e+01
    endloop
  endfacet
  facet normal -1.000000e+00 0.000000e+00 0.000000e+00
    outer loop
      vertex   2.350000e+02 1.600000e+01 1.000000e+01
      vertex   2.350000e+02 8.400000e+01 4.000000e+02
      vertex   2.350000e+02 8.400000e+01 1.000000e+01
    endloop
  endfacet
  facet normal 0.000000e+00 1.000000e+00 0.000000e+00
    outer loop
      vertex   2.500000e+02 8.400000e+01 4.000000e+02
      vertex   2.500000e+02 8.400000e+01 1.000000e+01
      vertex   2.350000e+02 8.400000e+01 4.000000e+02
    endloop
  endfacet
  facet normal 0.000000e+00 1.000000e+00 0.000000e+00
    outer loop
      vertex   2.350000e+02 8.400000e+01 4.000000e+02
      vertex   2.500000e+02 8.400000e+01 1.000000e+01
      vertex   2.350000e+02 8.400000e+01 1.000000e+01
    endloop
  endfacet
  facet normal 0.000000e+00 -1.000000e+00 9.109522e-18
    outer loop
      vertex   2.350000e+02 1.600000e+01 4.000000e+02
      vertex   2.350000e+02 1.600000e+01 1.000000e+01
      vertex   2.500000e+02 1.600000e+01 4.000000e+02
    endloop
  endfacet
  facet normal 0.000000e+00 -1.000000e+00 9.109522e-18
    outer loop
      vertex   2.500000e+02 1.600000e+01 4.000000e+02
      vertex   2.350000e+02 1.600000e+01 1.000000e+01
      vertex   2.500000e+02 1.600000e+01 1.000000e+01
    endloop
  endfacet
  facet normal 0.000000e+00 0.000000e+00 1.000000e+00
    outer loop
      vertex   2.500000e+02 8.400000e+01 4.000000e+02
      vertex   2.350000e+02 8.400000e+01 4.000000e+02
      vertex   2.500000e+02 1.600000e+01 4.000000e+02
    endloop
  endfacet
  facet normal 0.000000e+00 0.000000e+00 1.000000e+00
    outer loop
      vertex   2.500000e+02 1.600000e+01 4.000000e+02
      vertex   2.350000e+02 8.400000e+01 4.000000e+02
      vertex   2.350000e+02 1.600000e+01 4.000000e+02
    endloop
  endfacet
endsolid
