solid Exported from Blender-2.83.0
facet normal -0.274734 0.961520 0.000000
outer loop
vertex -4.823151 13.662290 307.894470
vertex 17.695274 20.096462 401.125366
vertex 17.695274 20.096462 288.596191
endloop
endfacet
facet normal 0.000000 0.000000 1.000000
outer loop
vertex 61.093246 -0.803858 401.125366
vertex 61.093246 13.662290 401.125366
vertex -4.823151 -0.803858 401.125366
endloop
endfacet
facet normal 0.000000 -1.000000 0.000000
outer loop
vertex 61.093246 -0.803858 401.125366
vertex -4.823151 -0.803858 401.125366
vertex 51.440651 -0.803858 288.596191
endloop
endfacet
facet normal -0.000000 0.000000 1.000000
outer loop
vertex -4.823151 -0.803858 401.125366
vertex 61.093246 13.662290 401.125366
vertex 17.695274 20.096462 401.125366
endloop
endfacet
facet normal 0.000000 0.000000 -1.000000
outer loop
vertex 51.440651 -0.803858 288.596191
vertex 16.088657 18.486385 288.596191
vertex 49.827583 20.096462 288.596191
endloop
endfacet
facet normal 0.000000 -1.000000 0.000000
outer loop
vertex 51.440651 -0.803858 288.596191
vertex -4.823151 -0.803858 401.125366
vertex -4.823151 -0.803858 307.894470
endloop
endfacet
facet normal -0.678187 0.000000 -0.734890
outer loop
vertex 16.088657 18.486385 288.596191
vertex -4.823151 -0.803858 307.894470
vertex -4.823151 13.662290 307.894470
endloop
endfacet
facet normal -1.000000 0.000000 0.000000
outer loop
vertex -4.823151 -0.803858 307.894470
vertex -4.823151 -0.803858 401.125366
vertex -4.823151 13.662290 307.894470
endloop
endfacet
facet normal 1.000000 0.000000 0.000000
outer loop
vertex 61.093246 13.662290 401.125366
vertex 61.093246 -0.803858 401.125366
vertex 61.093246 13.662290 307.894470
endloop
endfacet
facet normal 0.871261 0.067243 -0.486193
outer loop
vertex 51.440651 -0.803858 288.596191
vertex 49.827583 20.096462 288.596191
vertex 61.093246 13.662290 307.894470
endloop
endfacet
facet normal 0.495944 0.868354 0.000000
outer loop
vertex 49.827583 20.096462 288.596191
vertex 61.093246 13.662290 401.125366
vertex 61.093246 13.662290 307.894470
endloop
endfacet
facet normal 0.000001 0.000000 1.000000
outer loop
vertex -4.823151 -0.803858 401.125366
vertex 17.695274 20.096462 401.125366
vertex -4.823151 13.662290 401.125366
endloop
endfacet
facet normal -0.274734 0.961520 0.000000
outer loop
vertex 17.695274 20.096462 401.125366
vertex -4.823151 13.662290 307.894470
vertex -4.823151 13.662290 401.125366
endloop
endfacet
facet normal -1.000000 0.000000 0.000000
outer loop
vertex -4.823151 13.662290 307.894470
vertex -4.823151 -0.803858 401.125366
vertex -4.823151 13.662290 401.125366
endloop
endfacet
facet normal 0.000000 0.000000 1.000000
outer loop
vertex 17.695274 20.096462 401.125366
vertex 61.093246 13.662290 401.125366
vertex 49.827583 20.096462 401.125366
endloop
endfacet
facet normal 0.495944 0.868354 0.000000
outer loop
vertex 61.093246 13.662290 401.125366
vertex 49.827583 20.096462 288.596191
vertex 49.827583 20.096462 401.125366
endloop
endfacet
facet normal 0.000000 1.000000 0.000000
outer loop
vertex 49.827583 20.096462 288.596191
vertex 17.695274 20.096462 401.125366
vertex 49.827583 20.096462 401.125366
endloop
endfacet
facet normal 0.000000 0.000000 -1.000000
outer loop
vertex 16.088657 18.486385 288.596191
vertex 51.440651 -0.803858 288.596191
vertex 16.088657 -0.803858 288.596191
endloop
endfacet
facet normal -0.678187 0.000000 -0.734890
outer loop
vertex -4.823151 -0.803858 307.894470
vertex 16.088657 18.486385 288.596191
vertex 16.088657 -0.803858 288.596191
endloop
endfacet
facet normal 0.000000 -1.000000 -0.000000
outer loop
vertex 51.440651 -0.803858 288.596191
vertex -4.823151 -0.803858 307.894470
vertex 16.088657 -0.803858 288.596191
endloop
endfacet
facet normal 0.000000 -1.000000 0.000000
outer loop
vertex 61.093246 -0.803858 401.125366
vertex 51.440651 -0.803858 288.596191
vertex 61.093246 -0.803858 307.894470
endloop
endfacet
facet normal 1.000000 0.000000 0.000000
outer loop
vertex 61.093246 13.662290 307.894470
vertex 61.093246 -0.803858 401.125366
vertex 61.093246 -0.803858 307.894470
endloop
endfacet
facet normal 0.894363 0.000000 -0.447342
outer loop
vertex 51.440651 -0.803858 288.596191
vertex 61.093246 13.662290 307.894470
vertex 61.093246 -0.803858 307.894470
endloop
endfacet
facet normal 0.000000 0.000000 -1.000000
outer loop
vertex 49.827583 20.096462 288.596191
vertex 16.088657 18.486385 288.596191
vertex 17.695274 20.096462 288.596191
endloop
endfacet
facet normal 0.000000 1.000000 0.000000
outer loop
vertex 17.695274 20.096462 401.125366
vertex 49.827583 20.096462 288.596191
vertex 17.695274 20.096462 288.596191
endloop
endfacet
facet normal -0.609536 0.608225 -0.508456
outer loop
vertex 16.088657 18.486385 288.596191
vertex -4.823151 13.662290 307.894470
vertex 17.695274 20.096462 288.596191
endloop
endfacet
endsolid Exported from Blender-2.83.0
