solid Exported from Blender-2.83.0
facet normal 0.000000 -1.000000 0.000000
outer loop
vertex -191.311707 63.504822 63.508129
vertex -151.131226 63.504822 94.045624
vertex -186.483673 63.504822 94.045624
endloop
endfacet
facet normal 0.000000 1.000000 0.000000
outer loop
vertex -207.388245 81.189713 63.508129
vertex -151.131226 81.189713 94.045624
vertex -151.131226 81.189713 34.571739
endloop
endfacet
facet normal 0.000000 -1.000000 0.000000
outer loop
vertex -191.311707 63.504822 63.508129
vertex -186.483673 63.504822 34.571739
vertex -151.131226 63.504822 34.571739
endloop
endfacet
facet normal 0.000000 0.000000 -1.000000
outer loop
vertex -186.483673 63.504822 34.571739
vertex -151.131226 81.189713 34.571739
vertex -151.131226 63.504822 34.571739
endloop
endfacet
facet normal 0.000000 1.000000 0.000000
outer loop
vertex -151.131226 81.189713 34.571739
vertex -151.131226 81.189713 94.045624
vertex -133.454987 81.189713 63.508129
endloop
endfacet
facet normal 0.853375 0.000000 -0.521297
outer loop
vertex -151.131226 63.504822 34.571739
vertex -151.131226 81.189713 34.571739
vertex -133.454987 81.189713 63.508129
endloop
endfacet
facet normal 0.000000 1.000000 0.000000
outer loop
vertex -151.131226 81.189713 94.045624
vertex -207.388245 81.189713 63.508129
vertex -207.388245 81.189713 92.432869
endloop
endfacet
facet normal -1.000000 0.000000 0.000000
outer loop
vertex -207.388245 81.189713 63.508129
vertex -207.388245 66.721199 92.432869
vertex -207.388245 81.189713 92.432869
endloop
endfacet
facet normal -0.810599 0.000000 -0.585602
outer loop
vertex -186.483673 63.504822 34.571739
vertex -207.388245 81.189713 63.508129
vertex -186.483673 81.189713 34.571739
endloop
endfacet
facet normal 0.000000 1.000000 0.000000
outer loop
vertex -207.388245 81.189713 63.508129
vertex -151.131226 81.189713 34.571739
vertex -186.483673 81.189713 34.571739
endloop
endfacet
facet normal 0.000000 0.000000 -1.000000
outer loop
vertex -151.131226 81.189713 34.571739
vertex -186.483673 63.504822 34.571739
vertex -186.483673 81.189713 34.571739
endloop
endfacet
facet normal 0.090861 0.000000 0.995864
outer loop
vertex -133.454987 66.721199 92.432869
vertex -151.131226 81.189713 94.045624
vertex -151.131226 63.504822 94.045624
endloop
endfacet
facet normal 0.000000 -1.000000 0.000000
outer loop
vertex -191.311707 63.504822 63.508129
vertex -151.131226 63.504822 34.571739
vertex -151.131226 63.504822 94.045624
endloop
endfacet
facet normal 0.179021 -0.983845 0.000000
outer loop
vertex -151.131226 63.504822 34.571739
vertex -133.454987 66.721199 92.432869
vertex -151.131226 63.504822 94.045624
endloop
endfacet
facet normal -0.196074 -0.980043 -0.032715
outer loop
vertex -186.483673 63.504822 34.571739
vertex -191.311707 63.504822 63.508129
vertex -207.388245 66.721199 63.508129
endloop
endfacet
facet normal -0.810598 0.000000 -0.585602
outer loop
vertex -207.388245 81.189713 63.508129
vertex -186.483673 63.504822 34.571739
vertex -207.388245 66.721199 63.508129
endloop
endfacet
facet normal -0.196179 -0.980568 0.000000
outer loop
vertex -191.311707 63.504822 63.508129
vertex -207.388245 66.721199 92.432869
vertex -207.388245 66.721199 63.508129
endloop
endfacet
facet normal -1.000000 0.000000 0.000000
outer loop
vertex -207.388245 66.721199 92.432869
vertex -207.388245 81.189713 63.508129
vertex -207.388245 66.721199 63.508129
endloop
endfacet
facet normal 0.179021 -0.983845 0.000000
outer loop
vertex -133.454987 66.721199 92.432869
vertex -151.131226 63.504822 34.571739
vertex -133.454987 66.721199 63.508129
endloop
endfacet
facet normal 1.000000 0.000000 0.000000
outer loop
vertex -133.454987 81.189713 63.508129
vertex -133.454987 66.721199 92.432869
vertex -133.454987 66.721199 63.508129
endloop
endfacet
facet normal 0.853375 0.000000 -0.521297
outer loop
vertex -151.131226 63.504822 34.571739
vertex -133.454987 81.189713 63.508129
vertex -133.454987 66.721199 63.508129
endloop
endfacet
facet normal 0.090861 0.000000 0.995864
outer loop
vertex -151.131226 81.189713 94.045624
vertex -133.454987 66.721199 92.432869
vertex -133.454987 81.189713 92.432869
endloop
endfacet
facet normal 1.000000 0.000000 0.000000
outer loop
vertex -133.454987 66.721199 92.432869
vertex -133.454987 81.189713 63.508129
vertex -133.454987 81.189713 92.432869
endloop
endfacet
facet normal 0.000000 1.000000 0.000000
outer loop
vertex -133.454987 81.189713 63.508129
vertex -151.131226 81.189713 94.045624
vertex -133.454987 81.189713 92.432869
endloop
endfacet
facet normal -0.153859 -0.987793 0.024325
outer loop
vertex -207.388245 66.721199 92.432869
vertex -191.311707 63.504822 63.508129
vertex -186.483673 63.504822 94.045624
endloop
endfacet
facet normal -0.028609 0.057190 0.997953
outer loop
vertex -151.131226 81.189713 94.045624
vertex -207.388245 81.189713 92.432869
vertex -186.483673 63.504822 94.045624
endloop
endfacet
facet normal -0.076919 0.000000 0.997037
outer loop
vertex -207.388245 81.189713 92.432869
vertex -207.388245 66.721199 92.432869
vertex -186.483673 63.504822 94.045624
endloop
endfacet
facet normal 0.000000 0.000000 1.000000
outer loop
vertex -151.131226 63.504822 94.045624
vertex -151.131226 81.189713 94.045624
vertex -186.483673 63.504822 94.045624
endloop
endfacet
endsolid Exported from Blender-2.83.0
