solid Exported from Blender-2.83.0
facet normal 0.701114 -0.701573 0.127414
outer loop
vertex 114.141937 55.468750 110.128616
vertex 128.617371 66.722931 92.443573
vertex 118.969025 60.292690 110.128616
endloop
endfacet
facet normal 0.000000 1.000000 0.000000
outer loop
vertex 118.969025 81.189713 110.128616
vertex 128.617371 81.189713 92.443573
vertex 83.607269 81.189713 34.565918
endloop
endfacet
facet normal 0.000000 1.000000 -0.000000
outer loop
vertex 118.969025 81.189713 110.128616
vertex 83.607269 81.189713 34.565918
vertex 69.131836 81.189713 92.443573
endloop
endfacet
facet normal 0.000000 0.000000 1.000000
outer loop
vertex 114.141937 55.468750 110.128616
vertex 118.969025 81.189713 110.128616
vertex 88.434357 55.468750 110.128616
endloop
endfacet
facet normal 0.000000 -1.000000 0.000000
outer loop
vertex 114.141937 55.468750 34.565918
vertex 114.141937 55.468750 110.128616
vertex 88.434357 55.468750 110.128616
endloop
endfacet
facet normal 0.000000 1.000000 0.000000
outer loop
vertex 83.607269 81.189713 34.565918
vertex 128.617371 81.189713 92.443573
vertex 118.969025 81.189713 34.565918
endloop
endfacet
facet normal 0.000000 0.000000 -1.000000
outer loop
vertex 114.141937 55.468750 34.565918
vertex 83.607269 81.189713 34.565918
vertex 118.969025 81.189713 34.565918
endloop
endfacet
facet normal 0.000000 0.000000 -1.000000
outer loop
vertex 83.607269 81.189713 34.565918
vertex 114.141937 55.468750 34.565918
vertex 88.434357 55.468750 34.565918
endloop
endfacet
facet normal -0.503683 -0.863888 0.000000
outer loop
vertex 88.434357 55.468750 110.128616
vertex 69.131836 66.722931 63.515839
vertex 88.434357 55.468750 34.565918
endloop
endfacet
facet normal 0.000000 -1.000000 0.000000
outer loop
vertex 114.141937 55.468750 34.565918
vertex 88.434357 55.468750 110.128616
vertex 88.434357 55.468750 34.565918
endloop
endfacet
facet normal 0.613788 -0.789471 0.000000
outer loop
vertex 114.141937 55.468750 110.128616
vertex 114.141937 55.468750 34.565918
vertex 128.617371 66.722931 63.515839
endloop
endfacet
facet normal 0.000000 1.000000 0.000000
outer loop
vertex 118.969025 81.189713 110.128616
vertex 69.131836 81.189713 92.443573
vertex 83.607269 81.189713 110.128616
endloop
endfacet
facet normal 0.000000 0.000000 1.000000
outer loop
vertex 88.434357 55.468750 110.128616
vertex 118.969025 81.189713 110.128616
vertex 83.607269 81.189713 110.128616
endloop
endfacet
facet normal -1.000000 0.000000 0.000000
outer loop
vertex 69.131836 81.189713 92.443573
vertex 69.131836 66.722931 63.515839
vertex 69.131836 66.722931 92.443573
endloop
endfacet
facet normal -0.503683 -0.863888 0.000000
outer loop
vertex 69.131836 66.722931 63.515839
vertex 88.434357 55.468750 110.128616
vertex 69.131836 66.722931 92.443573
endloop
endfacet
facet normal -0.773832 0.000000 0.633391
outer loop
vertex 83.607269 81.189713 110.128616
vertex 69.131836 81.189713 92.443573
vertex 69.131836 66.722931 92.443573
endloop
endfacet
facet normal 0.877855 0.000000 0.478927
outer loop
vertex 128.617371 81.189713 92.443573
vertex 118.969025 81.189713 110.128616
vertex 128.617371 66.722931 92.443573
endloop
endfacet
facet normal 1.000000 0.000000 0.000000
outer loop
vertex 128.617371 66.722931 63.515839
vertex 128.617371 81.189713 92.443573
vertex 128.617371 66.722931 92.443573
endloop
endfacet
facet normal 0.613788 -0.789471 0.000000
outer loop
vertex 114.141937 55.468750 110.128616
vertex 128.617371 66.722931 63.515839
vertex 128.617371 66.722931 92.443573
endloop
endfacet
facet normal -0.894421 0.000000 -0.447225
outer loop
vertex 83.607269 81.189713 34.565918
vertex 69.131836 66.722931 63.515839
vertex 69.131836 81.189713 63.515839
endloop
endfacet
facet normal 0.000000 1.000000 0.000000
outer loop
vertex 69.131836 81.189713 92.443573
vertex 83.607269 81.189713 34.565918
vertex 69.131836 81.189713 63.515839
endloop
endfacet
facet normal -1.000000 0.000000 0.000000
outer loop
vertex 69.131836 66.722931 63.515839
vertex 69.131836 81.189713 92.443573
vertex 69.131836 81.189713 63.515839
endloop
endfacet
facet normal 0.000000 1.000000 0.000000
outer loop
vertex 118.969025 81.189713 34.565918
vertex 128.617371 81.189713 92.443573
vertex 128.617371 81.189713 63.515839
endloop
endfacet
facet normal 1.000000 0.000000 0.000000
outer loop
vertex 128.617371 81.189713 92.443573
vertex 128.617371 66.722931 63.515839
vertex 128.617371 81.189713 63.515839
endloop
endfacet
facet normal 0.948699 0.000000 -0.316180
outer loop
vertex 128.617371 66.722931 63.515839
vertex 118.969025 81.189713 34.565918
vertex 128.617371 81.189713 63.515839
endloop
endfacet
facet normal 0.000001 0.000000 -1.000000
outer loop
vertex 114.141937 55.468750 34.565918
vertex 118.969025 81.189713 34.565918
vertex 118.969025 60.292690 34.565918
endloop
endfacet
facet normal 0.704710 -0.705169 -0.078234
outer loop
vertex 128.617371 66.722931 63.515839
vertex 114.141937 55.468750 34.565918
vertex 118.969025 60.292690 34.565918
endloop
endfacet
facet normal 0.948699 0.000000 -0.316180
outer loop
vertex 118.969025 81.189713 34.565918
vertex 128.617371 66.722931 63.515839
vertex 118.969025 60.292690 34.565918
endloop
endfacet
facet normal -0.894421 0.000000 -0.447225
outer loop
vertex 69.131836 66.722931 63.515839
vertex 83.607269 81.189713 34.565918
vertex 83.607269 60.292690 34.565918
endloop
endfacet
facet normal -0.000001 0.000000 -1.000000
outer loop
vertex 83.607269 81.189713 34.565918
vertex 88.434357 55.468750 34.565918
vertex 83.607269 60.292690 34.565918
endloop
endfacet
facet normal -0.693634 -0.694085 -0.192661
outer loop
vertex 88.434357 55.468750 34.565918
vertex 69.131836 66.722931 63.515839
vertex 83.607269 60.292690 34.565918
endloop
endfacet
facet normal 0.000000 0.000000 1.000000
outer loop
vertex 88.434357 55.468750 110.128616
vertex 83.607269 81.189713 110.128616
vertex 83.607269 60.292690 110.128616
endloop
endfacet
facet normal -0.672971 -0.673411 0.305986
outer loop
vertex 69.131836 66.722931 92.443573
vertex 88.434357 55.468750 110.128616
vertex 83.607269 60.292690 110.128616
endloop
endfacet
facet normal -0.773832 0.000000 0.633391
outer loop
vertex 83.607269 81.189713 110.128616
vertex 69.131836 66.722931 92.443573
vertex 83.607269 60.292690 110.128616
endloop
endfacet
facet normal 0.000001 0.000000 1.000000
outer loop
vertex 118.969025 81.189713 110.128616
vertex 114.141937 55.468750 110.128616
vertex 118.969025 60.292690 110.128616
endloop
endfacet
facet normal 0.877855 0.000000 0.478927
outer loop
vertex 128.617371 66.722931 92.443573
vertex 118.969025 81.189713 110.128616
vertex 118.969025 60.292690 110.128616
endloop
endfacet
endsolid Exported from Blender-2.83.0
