solid Exported from Blender-2.83.0
facet normal 1.000000 0.000000 0.000000
outer loop
vertex 51.446945 -0.803858 63.504822
vertex 51.446945 -0.803858 32.958199
vertex 51.446945 18.486385 32.958199
endloop
endfacet
facet normal 0.000000 -1.000000 0.000000
outer loop
vertex 16.077171 -0.803858 63.504822
vertex 16.077171 -0.803858 32.958199
vertex 51.446945 -0.803858 32.958199
endloop
endfacet
facet normal 0.000000 0.000000 -1.000000
outer loop
vertex 51.446945 -0.803858 32.958199
vertex 16.077171 -0.803858 32.958199
vertex 17.687092 20.096462 32.958199
endloop
endfacet
facet normal 0.000000 0.000000 1.000000
outer loop
vertex 49.837025 20.096462 63.504822
vertex 16.077171 -0.803858 63.504822
vertex 51.446945 -0.803858 63.504822
endloop
endfacet
facet normal 0.000000 -1.000000 0.000000
outer loop
vertex 16.077171 -0.803858 63.504822
vertex 51.446945 -0.803858 32.958199
vertex 51.446945 -0.803858 63.504822
endloop
endfacet
facet normal -0.000000 0.000000 1.000000
outer loop
vertex 16.077171 -0.803858 63.504822
vertex 49.837025 20.096462 63.504822
vertex 16.077171 18.486385 63.504822
endloop
endfacet
facet normal -1.000000 0.000000 0.000000
outer loop
vertex 16.077171 -0.803858 32.958199
vertex 16.077171 -0.803858 63.504822
vertex 16.077171 18.486385 63.504822
endloop
endfacet
facet normal -0.047578 0.997612 0.050075
outer loop
vertex 49.837025 20.096462 63.504822
vertex 17.687092 20.096462 32.958199
vertex 16.077171 18.486385 63.504822
endloop
endfacet
facet normal -0.995876 0.076711 -0.048443
outer loop
vertex 17.687092 20.096462 32.958199
vertex 16.077171 -0.803858 32.958199
vertex 16.077171 18.486385 63.504822
endloop
endfacet
facet normal 0.047578 0.997612 -0.050075
outer loop
vertex 17.687092 20.096462 32.958199
vertex 49.837025 20.096462 63.504822
vertex 51.446945 18.486385 32.958199
endloop
endfacet
facet normal -0.000000 0.000000 -1.000000
outer loop
vertex 51.446945 -0.803858 32.958199
vertex 17.687092 20.096462 32.958199
vertex 51.446945 18.486385 32.958199
endloop
endfacet
facet normal 0.995876 0.076711 0.048443
outer loop
vertex 49.837025 20.096462 63.504822
vertex 51.446945 -0.803858 63.504822
vertex 51.446945 18.486385 32.958199
endloop
endfacet
endsolid Exported from Blender-2.83.0
