solid Exported from Blender-2.83.0
facet normal 0.000000 -1.000000 0.000000
outer loop
vertex -151.134216 -0.803858 298.231506
vertex -139.871384 -0.803858 246.794617
vertex -139.871384 -0.803858 274.106293
endloop
endfacet
facet normal 0.887705 0.068218 0.455330
outer loop
vertex -139.871384 13.662290 274.106293
vertex -152.740356 20.096462 298.231506
vertex -151.134216 -0.803858 298.231506
endloop
endfacet
facet normal 0.000000 -1.000000 0.000000
outer loop
vertex -207.395493 -0.803858 246.794617
vertex -151.134216 -0.803858 225.898376
vertex -151.134216 -0.803858 298.231506
endloop
endfacet
facet normal 0.000001 0.000000 1.000000
outer loop
vertex -151.134216 -0.803858 298.231506
vertex -152.740356 20.096462 298.231506
vertex -186.489197 18.486385 298.231506
endloop
endfacet
facet normal 0.447196 0.894436 0.000000
outer loop
vertex -152.740356 20.096462 298.231506
vertex -139.871384 13.662290 274.106293
vertex -152.740356 20.096462 225.898376
endloop
endfacet
facet normal 0.000000 1.000000 0.000000
outer loop
vertex -184.883057 20.096462 225.898376
vertex -152.740356 20.096462 298.231506
vertex -152.740356 20.096462 225.898376
endloop
endfacet
facet normal 0.000000 0.000000 -1.000000
outer loop
vertex -151.134216 -0.803858 225.898376
vertex -184.883057 20.096462 225.898376
vertex -152.740356 20.096462 225.898376
endloop
endfacet
facet normal 0.000000 -1.000000 -0.000000
outer loop
vertex -207.395493 -0.803858 246.794617
vertex -151.134216 -0.803858 298.231506
vertex -186.489197 -0.803858 298.231506
endloop
endfacet
facet normal 0.000000 0.000000 1.000000
outer loop
vertex -151.134216 -0.803858 298.231506
vertex -186.489197 18.486385 298.231506
vertex -186.489197 -0.803858 298.231506
endloop
endfacet
facet normal -0.755724 0.000000 0.654890
outer loop
vertex -186.489197 -0.803858 298.231506
vertex -186.489197 18.486385 298.231506
vertex -207.395493 13.662290 274.106293
endloop
endfacet
facet normal 0.000000 -1.000000 0.000000
outer loop
vertex -151.134216 -0.803858 298.231506
vertex -151.134216 -0.803858 225.898376
vertex -139.871384 -0.803858 246.794617
endloop
endfacet
facet normal 0.000000 -1.000000 0.000000
outer loop
vertex -151.134216 -0.803858 225.898376
vertex -207.395493 -0.803858 246.794617
vertex -186.489197 -0.803858 225.898376
endloop
endfacet
facet normal 0.000000 0.000000 -1.000000
outer loop
vertex -184.883057 20.096462 225.898376
vertex -151.134216 -0.803858 225.898376
vertex -186.489197 -0.803858 225.898376
endloop
endfacet
facet normal -1.000000 0.000000 0.000000
outer loop
vertex -207.395493 -0.803858 246.794617
vertex -207.395493 13.662290 274.106293
vertex -207.395493 13.662290 246.794617
endloop
endfacet
facet normal -0.274802 0.961501 0.000000
outer loop
vertex -207.395493 13.662290 274.106293
vertex -184.883057 20.096462 225.898376
vertex -207.395493 13.662290 246.794617
endloop
endfacet
facet normal -0.706937 0.000000 -0.707277
outer loop
vertex -186.489197 -0.803858 225.898376
vertex -207.395493 -0.803858 246.794617
vertex -207.395493 13.662290 246.794617
endloop
endfacet
facet normal -0.687428 0.052826 -0.724329
outer loop
vertex -184.883057 20.096462 225.898376
vertex -186.489197 -0.803858 225.898376
vertex -207.395493 13.662290 246.794617
endloop
endfacet
facet normal 0.000000 -1.000000 0.000000
outer loop
vertex -207.395493 -0.803858 246.794617
vertex -186.489197 -0.803858 298.231506
vertex -207.395493 -0.803858 274.106293
endloop
endfacet
facet normal -0.755723 0.000000 0.654891
outer loop
vertex -186.489197 -0.803858 298.231506
vertex -207.395493 13.662290 274.106293
vertex -207.395493 -0.803858 274.106293
endloop
endfacet
facet normal -1.000000 0.000000 0.000000
outer loop
vertex -207.395493 13.662290 274.106293
vertex -207.395493 -0.803858 246.794617
vertex -207.395493 -0.803858 274.106293
endloop
endfacet
facet normal 0.000000 1.000000 0.000000
outer loop
vertex -152.740356 20.096462 298.231506
vertex -184.883057 20.096462 225.898376
vertex -184.883057 20.096462 298.231506
endloop
endfacet
facet normal 0.000000 0.000000 1.000000
outer loop
vertex -186.489197 18.486385 298.231506
vertex -152.740356 20.096462 298.231506
vertex -184.883057 20.096462 298.231506
endloop
endfacet
facet normal -0.640163 0.638606 0.427053
outer loop
vertex -207.395493 13.662290 274.106293
vertex -186.489197 18.486385 298.231506
vertex -184.883057 20.096462 298.231506
endloop
endfacet
facet normal -0.274802 0.961501 0.000000
outer loop
vertex -184.883057 20.096462 225.898376
vertex -207.395493 13.662290 274.106293
vertex -184.883057 20.096462 298.231506
endloop
endfacet
facet normal 0.447195 0.894436 0.000000
outer loop
vertex -152.740356 20.096462 225.898376
vertex -139.871384 13.662290 274.106293
vertex -139.871384 13.662290 246.794617
endloop
endfacet
facet normal 0.858569 0.065978 -0.508435
outer loop
vertex -151.134216 -0.803858 225.898376
vertex -152.740356 20.096462 225.898376
vertex -139.871384 13.662290 246.794617
endloop
endfacet
facet normal 1.000000 0.000000 0.000000
outer loop
vertex -139.871384 13.662290 274.106293
vertex -139.871384 -0.803858 246.794617
vertex -139.871384 13.662290 246.794617
endloop
endfacet
facet normal 0.880277 0.000000 -0.474459
outer loop
vertex -139.871384 -0.803858 246.794617
vertex -151.134216 -0.803858 225.898376
vertex -139.871384 13.662290 246.794617
endloop
endfacet
facet normal 0.906120 0.000000 0.423022
outer loop
vertex -139.871384 13.662290 274.106293
vertex -151.134216 -0.803858 298.231506
vertex -139.871384 -0.803858 274.106293
endloop
endfacet
facet normal 1.000000 0.000000 0.000000
outer loop
vertex -139.871384 -0.803858 246.794617
vertex -139.871384 13.662290 274.106293
vertex -139.871384 -0.803858 274.106293
endloop
endfacet
endsolid Exported from Blender-2.83.0
