solid Exported from Blender-2.83.0
facet normal 0.000000 -1.000000 0.000000
outer loop
vertex -16.079372 -0.803858 298.231506
vertex -4.823151 -0.803858 246.794617
vertex -4.823151 -0.803858 274.106293
endloop
endfacet
facet normal 0.887804 0.068226 0.455137
outer loop
vertex -4.823151 13.662290 274.106293
vertex -17.685516 20.096462 298.231506
vertex -16.079372 -0.803858 298.231506
endloop
endfacet
facet normal 0.000000 -1.000000 0.000000
outer loop
vertex -72.347267 -0.803858 246.794617
vertex -16.079372 -0.803858 225.898376
vertex -16.079372 -0.803858 298.231506
endloop
endfacet
facet normal 0.000001 0.000000 1.000000
outer loop
vertex -16.079372 -0.803858 298.231506
vertex -17.685516 20.096462 298.231506
vertex -51.434357 18.486385 298.231506
endloop
endfacet
facet normal 0.447380 0.894344 0.000000
outer loop
vertex -17.685516 20.096462 298.231506
vertex -4.823151 13.662290 274.106293
vertex -17.685516 20.096462 225.898376
endloop
endfacet
facet normal 0.000000 1.000000 0.000000
outer loop
vertex -49.834824 20.096462 225.898376
vertex -17.685516 20.096462 298.231506
vertex -17.685516 20.096462 225.898376
endloop
endfacet
facet normal 0.000000 0.000000 -1.000000
outer loop
vertex -16.079372 -0.803858 225.898376
vertex -49.834824 20.096462 225.898376
vertex -17.685516 20.096462 225.898376
endloop
endfacet
facet normal 0.000000 -1.000000 -0.000000
outer loop
vertex -72.347267 -0.803858 246.794617
vertex -16.079372 -0.803858 298.231506
vertex -51.434357 -0.803858 298.231506
endloop
endfacet
facet normal 0.000000 0.000000 1.000000
outer loop
vertex -16.079372 -0.803858 298.231506
vertex -51.434357 18.486385 298.231506
vertex -51.434357 -0.803858 298.231506
endloop
endfacet
facet normal -0.755622 0.000000 0.655008
outer loop
vertex -51.434357 -0.803858 298.231506
vertex -51.434357 18.486385 298.231506
vertex -72.347267 13.662290 274.106293
endloop
endfacet
facet normal 0.000000 -1.000000 0.000000
outer loop
vertex -16.079372 -0.803858 298.231506
vertex -16.079372 -0.803858 225.898376
vertex -4.823151 -0.803858 246.794617
endloop
endfacet
facet normal 0.000000 -1.000000 0.000000
outer loop
vertex -16.079372 -0.803858 225.898376
vertex -72.347267 -0.803858 246.794617
vertex -51.434357 -0.803858 225.898376
endloop
endfacet
facet normal 0.000000 0.000000 -1.000000
outer loop
vertex -49.834824 20.096462 225.898376
vertex -16.079372 -0.803858 225.898376
vertex -51.434357 -0.803858 225.898376
endloop
endfacet
facet normal -1.000000 0.000000 0.000000
outer loop
vertex -72.347267 -0.803858 246.794617
vertex -72.347267 13.662290 274.106293
vertex -72.347267 13.662290 246.794617
endloop
endfacet
facet normal -0.274802 0.961501 0.000000
outer loop
vertex -72.347267 13.662290 274.106293
vertex -49.834824 20.096462 225.898376
vertex -72.347267 13.662290 246.794617
endloop
endfacet
facet normal -0.706825 0.000000 -0.707389
outer loop
vertex -51.434357 -0.803858 225.898376
vertex -72.347267 -0.803858 246.794617
vertex -72.347267 13.662290 246.794617
endloop
endfacet
facet normal -0.687402 0.052608 -0.724369
outer loop
vertex -49.834824 20.096462 225.898376
vertex -51.434357 -0.803858 225.898376
vertex -72.347267 13.662290 246.794617
endloop
endfacet
facet normal 0.000000 -1.000000 0.000000
outer loop
vertex -72.347267 -0.803858 246.794617
vertex -51.434357 -0.803858 298.231506
vertex -72.347267 -0.803858 274.106293
endloop
endfacet
facet normal -0.755621 0.000000 0.655010
outer loop
vertex -51.434357 -0.803858 298.231506
vertex -72.347267 13.662290 274.106293
vertex -72.347267 -0.803858 274.106293
endloop
endfacet
facet normal -1.000000 0.000000 0.000000
outer loop
vertex -72.347267 13.662290 274.106293
vertex -72.347267 -0.803858 246.794617
vertex -72.347267 -0.803858 274.106293
endloop
endfacet
facet normal 0.000000 1.000000 0.000000
outer loop
vertex -17.685516 20.096462 298.231506
vertex -49.834824 20.096462 225.898376
vertex -49.834824 20.096462 298.231506
endloop
endfacet
facet normal 0.000000 0.000000 1.000000
outer loop
vertex -51.434357 18.486385 298.231506
vertex -17.685516 20.096462 298.231506
vertex -49.834824 20.096462 298.231506
endloop
endfacet
facet normal -0.641048 0.636849 0.428347
outer loop
vertex -72.347267 13.662290 274.106293
vertex -51.434357 18.486385 298.231506
vertex -49.834824 20.096462 298.231506
endloop
endfacet
facet normal -0.274802 0.961501 0.000000
outer loop
vertex -49.834824 20.096462 225.898376
vertex -72.347267 13.662290 274.106293
vertex -49.834824 20.096462 298.231506
endloop
endfacet
facet normal 0.447380 0.894344 0.000000
outer loop
vertex -17.685516 20.096462 225.898376
vertex -4.823151 13.662290 274.106293
vertex -4.823151 13.662290 246.794617
endloop
endfacet
facet normal 0.858688 0.065988 -0.508233
outer loop
vertex -16.079372 -0.803858 225.898376
vertex -17.685516 20.096462 225.898376
vertex -4.823151 13.662290 246.794617
endloop
endfacet
facet normal 1.000000 0.000000 0.000000
outer loop
vertex -4.823151 13.662290 274.106293
vertex -4.823151 -0.803858 246.794617
vertex -4.823151 13.662290 246.794617
endloop
endfacet
facet normal 0.880394 0.000000 -0.474244
outer loop
vertex -4.823151 -0.803858 246.794617
vertex -16.079372 -0.803858 225.898376
vertex -4.823151 13.662290 246.794617
endloop
endfacet
facet normal 0.906215 0.000000 0.422818
outer loop
vertex -4.823151 13.662290 274.106293
vertex -16.079372 -0.803858 298.231506
vertex -4.823151 -0.803858 274.106293
endloop
endfacet
facet normal 1.000000 0.000000 0.000000
outer loop
vertex -4.823151 -0.803858 246.794617
vertex -4.823151 13.662290 274.106293
vertex -4.823151 -0.803858 274.106293
endloop
endfacet
endsolid Exported from Blender-2.83.0
