solid Exported from Blender-2.83.0
facet normal 0.000000 1.000000 -0.000004
outer loop
vertex 65.916397 81.187820 368.974854
vertex 118.960510 81.187820 362.543976
vertex 83.608521 81.187820 362.543976
endloop
endfacet
facet normal 0.000000 -1.000000 0.000000
outer loop
vertex 81.995453 61.898994 368.974854
vertex 83.608521 61.898994 362.543976
vertex 120.567131 61.898994 401.121613
endloop
endfacet
facet normal -0.000000 0.000000 1.000000
outer loop
vertex 131.832794 81.187820 401.121613
vertex 65.916397 66.723564 401.121613
vertex 120.567131 61.898994 401.121613
endloop
endfacet
facet normal 0.000000 1.000000 0.000000
outer loop
vertex 65.916397 81.187820 368.974854
vertex 131.832794 81.187820 401.121613
vertex 118.960510 81.187820 362.543976
endloop
endfacet
facet normal 0.000000 1.000000 0.000000
outer loop
vertex 131.832794 81.187820 401.121613
vertex 65.916397 81.187820 368.974854
vertex 65.916397 81.187820 401.121613
endloop
endfacet
facet normal 0.000000 0.000000 1.000000
outer loop
vertex 65.916397 66.723564 401.121613
vertex 131.832794 81.187820 401.121613
vertex 65.916397 81.187820 401.121613
endloop
endfacet
facet normal -1.000000 0.000000 0.000000
outer loop
vertex 65.916397 81.187820 368.974854
vertex 65.916397 66.723564 401.121613
vertex 65.916397 81.187820 401.121613
endloop
endfacet
facet normal 0.000000 -1.000000 0.000000
outer loop
vertex 120.567131 61.898994 401.121613
vertex 83.608521 61.898994 362.543976
vertex 118.960510 61.898994 362.543976
endloop
endfacet
facet normal 0.357435 -0.933819 -0.014886
outer loop
vertex 131.832794 66.723564 368.974854
vertex 120.567131 61.898994 401.121613
vertex 118.960510 61.898994 362.543976
endloop
endfacet
facet normal 0.000000 0.000000 -1.000000
outer loop
vertex 83.608521 61.898994 362.543976
vertex 118.960510 81.187820 362.543976
vertex 118.960510 61.898994 362.543976
endloop
endfacet
facet normal 0.446917 0.000000 -0.894575
outer loop
vertex 118.960510 81.187820 362.543976
vertex 131.832794 66.723564 368.974854
vertex 118.960510 61.898994 362.543976
endloop
endfacet
facet normal -0.286652 -0.955333 -0.071900
outer loop
vertex 83.608521 61.898994 362.543976
vertex 81.995453 61.898994 368.974854
vertex 65.916397 66.723564 368.974854
endloop
endfacet
facet normal -0.341621 0.000000 -0.939838
outer loop
vertex 65.916397 81.187820 368.974854
vertex 83.608521 61.898994 362.543976
vertex 65.916397 66.723564 368.974854
endloop
endfacet
facet normal -1.000000 0.000000 0.000000
outer loop
vertex 65.916397 66.723564 401.121613
vertex 65.916397 81.187820 368.974854
vertex 65.916397 66.723564 368.974854
endloop
endfacet
facet normal -0.287394 -0.957812 0.000000
outer loop
vertex 81.995453 61.898994 368.974854
vertex 65.916397 66.723564 401.121613
vertex 65.916397 66.723564 368.974854
endloop
endfacet
facet normal 1.000000 0.000000 0.000000
outer loop
vertex 131.832794 81.187820 401.121613
vertex 131.832794 66.723564 368.974854
vertex 131.832794 81.187820 368.974854
endloop
endfacet
facet normal 0.000000 1.000000 0.000000
outer loop
vertex 118.960510 81.187820 362.543976
vertex 131.832794 81.187820 401.121613
vertex 131.832794 81.187820 368.974854
endloop
endfacet
facet normal 0.446924 0.000000 -0.894572
outer loop
vertex 131.832794 66.723564 368.974854
vertex 118.960510 81.187820 362.543976
vertex 131.832794 81.187820 368.974854
endloop
endfacet
facet normal -0.287394 -0.957812 0.000000
outer loop
vertex 65.916397 66.723564 401.121613
vertex 81.995453 61.898994 368.974854
vertex 81.995453 61.898994 401.121613
endloop
endfacet
facet normal 0.000000 -1.000000 0.000000
outer loop
vertex 81.995453 61.898994 368.974854
vertex 120.567131 61.898994 401.121613
vertex 81.995453 61.898994 401.121613
endloop
endfacet
facet normal 0.000000 0.000000 1.000000
outer loop
vertex 120.567131 61.898994 401.121613
vertex 65.916397 66.723564 401.121613
vertex 81.995453 61.898994 401.121613
endloop
endfacet
facet normal 1.000000 0.000000 0.000000
outer loop
vertex 131.832794 66.723564 368.974854
vertex 131.832794 81.187820 401.121613
vertex 131.832794 66.723564 401.121613
endloop
endfacet
facet normal 0.000001 0.000000 1.000000
outer loop
vertex 131.832794 81.187820 401.121613
vertex 120.567131 61.898994 401.121613
vertex 131.832794 66.723564 401.121613
endloop
endfacet
facet normal 0.393673 -0.919250 0.000000
outer loop
vertex 120.567131 61.898994 401.121613
vertex 131.832794 66.723564 368.974854
vertex 131.832794 66.723564 401.121613
endloop
endfacet
facet normal -0.341618 0.000000 -0.939839
outer loop
vertex 83.608521 61.898994 362.543976
vertex 65.916397 81.187820 368.974854
vertex 83.608521 81.187820 362.543976
endloop
endfacet
facet normal 0.000000 0.000000 -1.000000
outer loop
vertex 118.960510 81.187820 362.543976
vertex 83.608521 61.898994 362.543976
vertex 83.608521 81.187820 362.543976
endloop
endfacet
endsolid Exported from Blender-2.83.0
