solid Exported from Blender-2.83.0
facet normal 0.447380 0.894344 0.000000
outer loop
vertex -4.823151 13.662290 213.018585
vertex -17.685516 20.096462 192.122192
vertex -17.685516 20.096462 225.884247
endloop
endfacet
facet normal 0.000000 -1.000000 0.000000
outer loop
vertex -72.347267 -0.803858 213.018585
vertex -72.347267 -0.803858 192.122192
vertex -4.823151 -0.803858 192.122192
endloop
endfacet
facet normal 0.000000 0.000000 -1.000000
outer loop
vertex -4.823151 -0.803858 192.122192
vertex -72.347267 -0.803858 192.122192
vertex -49.834824 20.096462 192.122192
endloop
endfacet
facet normal 0.000000 -1.000000 0.000000
outer loop
vertex -72.347267 -0.803858 213.018585
vertex -4.823151 -0.803858 192.122192
vertex -16.079372 -0.803858 225.884247
endloop
endfacet
facet normal 0.000001 0.000000 1.000000
outer loop
vertex -16.079372 -0.803858 225.884247
vertex -16.079372 18.486385 225.884247
vertex -49.834824 20.096462 225.884247
endloop
endfacet
facet normal 0.000000 0.000000 -1.000000
outer loop
vertex -4.823151 -0.803858 192.122192
vertex -49.834824 20.096462 192.122192
vertex -17.685516 20.096462 192.122192
endloop
endfacet
facet normal 0.000000 1.000000 0.000000
outer loop
vertex -49.834824 20.096462 192.122192
vertex -49.834824 20.096462 225.884247
vertex -17.685516 20.096462 192.122192
endloop
endfacet
facet normal -1.000000 0.000000 0.000000
outer loop
vertex -72.347267 -0.803858 192.122192
vertex -72.347267 -0.803858 213.018585
vertex -72.347267 13.662290 213.018585
endloop
endfacet
facet normal -0.274802 0.961501 0.000000
outer loop
vertex -49.834824 20.096462 225.884247
vertex -49.834824 20.096462 192.122192
vertex -72.347267 13.662290 213.018585
endloop
endfacet
facet normal 0.752612 0.000000 0.658465
outer loop
vertex -16.079372 18.486385 225.884247
vertex -16.079372 -0.803858 225.884247
vertex -4.823151 13.662290 213.018585
endloop
endfacet
facet normal 0.000000 -1.000000 -0.000000
outer loop
vertex -72.347267 -0.803858 213.018585
vertex -16.079372 -0.803858 225.884247
vertex -51.434357 -0.803858 225.884247
endloop
endfacet
facet normal 0.000000 0.000000 1.000000
outer loop
vertex -16.079372 -0.803858 225.884247
vertex -49.834824 20.096462 225.884247
vertex -51.434357 -0.803858 225.884247
endloop
endfacet
facet normal -0.523984 0.000000 0.851728
outer loop
vertex -72.347267 13.662290 213.018585
vertex -72.347267 -0.803858 213.018585
vertex -51.434357 -0.803858 225.884247
endloop
endfacet
facet normal -0.504100 0.038579 0.862783
outer loop
vertex -49.834824 20.096462 225.884247
vertex -72.347267 13.662290 213.018585
vertex -51.434357 -0.803858 225.884247
endloop
endfacet
facet normal 0.000000 0.000000 -1.000000
outer loop
vertex -49.834824 20.096462 192.122192
vertex -72.347267 -0.803858 192.122192
vertex -72.347267 13.662290 192.122192
endloop
endfacet
facet normal -1.000000 0.000000 0.000000
outer loop
vertex -72.347267 -0.803858 192.122192
vertex -72.347267 13.662290 213.018585
vertex -72.347267 13.662290 192.122192
endloop
endfacet
facet normal -0.274802 0.961501 0.000000
outer loop
vertex -72.347267 13.662290 213.018585
vertex -49.834824 20.096462 192.122192
vertex -72.347267 13.662290 192.122192
endloop
endfacet
facet normal 0.000001 0.000000 -1.000000
outer loop
vertex -4.823151 -0.803858 192.122192
vertex -17.685516 20.096462 192.122192
vertex -4.823151 13.662290 192.122192
endloop
endfacet
facet normal 1.000000 0.000000 0.000000
outer loop
vertex -4.823151 13.662290 213.018585
vertex -4.823151 -0.803858 192.122192
vertex -4.823151 13.662290 192.122192
endloop
endfacet
facet normal 0.447380 0.894344 0.000000
outer loop
vertex -17.685516 20.096462 192.122192
vertex -4.823151 13.662290 213.018585
vertex -4.823151 13.662290 192.122192
endloop
endfacet
facet normal 0.000000 -1.000000 0.000000
outer loop
vertex -16.079372 -0.803858 225.884247
vertex -4.823151 -0.803858 192.122192
vertex -4.823151 -0.803858 213.018585
endloop
endfacet
facet normal 0.752612 0.000000 0.658464
outer loop
vertex -4.823151 13.662290 213.018585
vertex -16.079372 -0.803858 225.884247
vertex -4.823151 -0.803858 213.018585
endloop
endfacet
facet normal 1.000000 0.000000 0.000000
outer loop
vertex -4.823151 -0.803858 192.122192
vertex -4.823151 13.662290 213.018585
vertex -4.823151 -0.803858 213.018585
endloop
endfacet
facet normal 0.000000 0.000000 1.000000
outer loop
vertex -49.834824 20.096462 225.884247
vertex -16.079372 18.486385 225.884247
vertex -17.685516 20.096462 225.884247
endloop
endfacet
facet normal 0.000000 1.000000 0.000000
outer loop
vertex -17.685516 20.096462 192.122192
vertex -49.834824 20.096462 225.884247
vertex -17.685516 20.096462 225.884247
endloop
endfacet
facet normal 0.667265 0.665631 0.334205
outer loop
vertex -16.079372 18.486385 225.884247
vertex -4.823151 13.662290 213.018585
vertex -17.685516 20.096462 225.884247
endloop
endfacet
endsolid Exported from Blender-2.83.0
