solid Exported from Blender-2.83.0
facet normal 0.000000 0.000000 -1.000000
outer loop
vertex 48.228680 20.098507 32.958191
vertex 40.190254 40.994740 32.958191
vertex 48.228680 21.706224 32.958191
endloop
endfacet
facet normal 0.000000 0.000000 1.000000
outer loop
vertex 48.228680 21.706224 401.125366
vertex 40.190254 40.994740 401.125366
vertex 19.292606 20.098507 401.125366
endloop
endfacet
facet normal 0.000000 0.000000 -1.000000
outer loop
vertex 48.228680 20.098507 32.958191
vertex 19.292606 21.706224 32.958191
vertex 27.333866 40.994740 32.958191
endloop
endfacet
facet normal 0.000000 0.000000 1.000000
outer loop
vertex 19.292606 20.098507 401.125366
vertex 40.190254 40.994740 401.125366
vertex 27.333866 40.994740 401.125366
endloop
endfacet
facet normal 0.000000 1.000000 0.000000
outer loop
vertex 40.190254 40.994740 401.125366
vertex 27.333866 40.994740 32.958191
vertex 27.333866 40.994740 401.125366
endloop
endfacet
facet normal -0.923002 0.384794 0.000000
outer loop
vertex 27.333866 40.994740 32.958191
vertex 19.292606 21.706224 32.958191
vertex 27.333866 40.994740 401.125366
endloop
endfacet
facet normal 0.923051 0.384678 0.000000
outer loop
vertex 40.190254 40.994740 401.125366
vertex 48.228680 21.706224 401.125366
vertex 40.190254 40.994740 32.958191
endloop
endfacet
facet normal 0.000000 1.000000 0.000000
outer loop
vertex 27.333866 40.994740 32.958191
vertex 40.190254 40.994740 401.125366
vertex 40.190254 40.994740 32.958191
endloop
endfacet
facet normal 0.000000 0.000000 -1.000000
outer loop
vertex 48.228680 20.098507 32.958191
vertex 27.333866 40.994740 32.958191
vertex 40.190254 40.994740 32.958191
endloop
endfacet
facet normal 0.000000 0.000000 1.000000
outer loop
vertex 48.228680 21.706224 401.125366
vertex 19.292606 20.098507 401.125366
vertex 48.228680 20.098507 401.125366
endloop
endfacet
facet normal 0.000000 -1.000000 0.000000
outer loop
vertex 19.292606 20.098507 401.125366
vertex 48.228680 20.098507 32.958191
vertex 48.228680 20.098507 401.125366
endloop
endfacet
facet normal 1.000000 0.000000 0.000000
outer loop
vertex 48.228680 20.098507 32.958191
vertex 48.228680 21.706224 401.125366
vertex 48.228680 20.098507 401.125366
endloop
endfacet
facet normal -1.000000 0.000000 0.000000
outer loop
vertex 19.292606 20.098507 401.125366
vertex 19.292606 21.706224 32.958191
vertex 19.292606 20.098507 32.958191
endloop
endfacet
facet normal 0.000000 0.000000 -1.000000
outer loop
vertex 19.292606 21.706224 32.958191
vertex 48.228680 20.098507 32.958191
vertex 19.292606 20.098507 32.958191
endloop
endfacet
facet normal 0.000000 -1.000000 0.000000
outer loop
vertex 48.228680 20.098507 32.958191
vertex 19.292606 20.098507 401.125366
vertex 19.292606 20.098507 32.958191
endloop
endfacet
facet normal -1.000000 0.000000 0.000000
outer loop
vertex 19.292606 21.706224 32.958191
vertex 19.292606 20.098507 401.125366
vertex 19.292606 21.706224 401.125366
endloop
endfacet
facet normal 0.000076 0.000000 1.000000
outer loop
vertex 19.292606 20.098507 401.125366
vertex 27.333866 40.994740 401.125366
vertex 19.292606 21.706224 401.125366
endloop
endfacet
facet normal -0.923002 0.384794 0.000000
outer loop
vertex 27.333866 40.994740 401.125366
vertex 19.292606 21.706224 32.958191
vertex 19.292606 21.706224 401.125366
endloop
endfacet
facet normal 1.000000 0.000000 0.000000
outer loop
vertex 48.228680 21.706224 401.125366
vertex 48.228680 20.098507 32.958191
vertex 48.228680 21.706224 32.958191
endloop
endfacet
facet normal 0.923051 0.384679 0.000000
outer loop
vertex 40.190254 40.994740 32.958191
vertex 48.228680 21.706224 401.125366
vertex 48.228680 21.706224 32.958191
endloop
endfacet
endsolid Exported from Blender-2.83.0
