solid Exported from Blender-2.83.0
facet normal 0.316221 0.948686 0.000000
outer loop
vertex 69.131836 13.662290 153.529587
vertex 49.828846 20.096462 113.348938
vertex 49.828846 20.096462 163.178406
endloop
endfacet
facet normal 0.000000 -1.000000 -0.000000
outer loop
vertex -6.423475 -0.803858 124.602638
vertex 16.089287 -0.803858 113.348938
vertex 69.131836 -0.803858 124.602638
endloop
endfacet
facet normal 0.000000 -1.000000 0.000000
outer loop
vertex -6.423475 -0.803858 124.602638
vertex 69.131836 -0.803858 124.602638
vertex -6.423475 -0.803858 153.529587
endloop
endfacet
facet normal -1.000000 0.000000 0.000000
outer loop
vertex -6.423475 -0.803858 124.602638
vertex -6.423475 -0.803858 153.529587
vertex -6.423475 13.662290 153.529587
endloop
endfacet
facet normal 0.000000 -1.000000 0.000000
outer loop
vertex -6.423475 -0.803858 153.529587
vertex 69.131836 -0.803858 124.602638
vertex 51.441124 -0.803858 163.178406
endloop
endfacet
facet normal 0.000000 0.000000 -1.000000
outer loop
vertex 16.089287 -0.803858 113.348938
vertex 17.694172 20.096462 113.348938
vertex 49.828846 20.096462 113.348938
endloop
endfacet
facet normal -0.257767 0.966207 0.000000
outer loop
vertex 17.694172 20.096462 113.348938
vertex -6.423475 13.662290 153.529587
vertex 17.694172 20.096462 163.178406
endloop
endfacet
facet normal -0.000000 0.000000 1.000000
outer loop
vertex 51.441124 -0.803858 163.178406
vertex 51.441124 18.486385 163.178406
vertex 17.694172 20.096462 163.178406
endloop
endfacet
facet normal 0.000000 1.000000 0.000000
outer loop
vertex 49.828846 20.096462 113.348938
vertex 17.694172 20.096462 113.348938
vertex 17.694172 20.096462 163.178406
endloop
endfacet
facet normal 0.478827 0.000000 0.877910
outer loop
vertex 51.441124 18.486385 163.178406
vertex 51.441124 -0.803858 163.178406
vertex 69.131836 13.662290 153.529587
endloop
endfacet
facet normal -0.447129 0.000000 -0.894470
outer loop
vertex 16.089287 -0.803858 113.348938
vertex -6.423475 -0.803858 124.602638
vertex -6.423475 13.662290 124.602638
endloop
endfacet
facet normal -0.429835 0.033006 -0.902304
outer loop
vertex 17.694172 20.096462 113.348938
vertex 16.089287 -0.803858 113.348938
vertex -6.423475 13.662290 124.602638
endloop
endfacet
facet normal -1.000000 0.000000 0.000000
outer loop
vertex -6.423475 -0.803858 124.602638
vertex -6.423475 13.662290 153.529587
vertex -6.423475 13.662290 124.602638
endloop
endfacet
facet normal -0.257768 0.966207 0.000000
outer loop
vertex -6.423475 13.662290 153.529587
vertex 17.694172 20.096462 113.348938
vertex -6.423475 13.662290 124.602638
endloop
endfacet
facet normal 0.000000 -1.000000 0.000000
outer loop
vertex 69.131836 -0.803858 124.602638
vertex 16.089287 -0.803858 113.348938
vertex 51.441124 -0.803858 113.348938
endloop
endfacet
facet normal 0.000000 0.000000 -1.000000
outer loop
vertex 16.089287 -0.803858 113.348938
vertex 49.828846 20.096462 113.348938
vertex 51.441124 -0.803858 113.348938
endloop
endfacet
facet normal 0.513077 0.039580 -0.857430
outer loop
vertex 51.441124 -0.803858 113.348938
vertex 49.828846 20.096462 113.348938
vertex 69.131836 13.662290 124.602638
endloop
endfacet
facet normal 1.000000 0.000000 0.000000
outer loop
vertex 69.131836 13.662290 153.529587
vertex 69.131836 -0.803858 124.602638
vertex 69.131836 13.662290 124.602638
endloop
endfacet
facet normal 0.316221 0.948686 0.000000
outer loop
vertex 49.828846 20.096462 113.348938
vertex 69.131836 13.662290 153.529587
vertex 69.131836 13.662290 124.602638
endloop
endfacet
facet normal 0.536739 0.000000 -0.843748
outer loop
vertex 69.131836 -0.803858 124.602638
vertex 51.441124 -0.803858 113.348938
vertex 69.131836 13.662290 124.602638
endloop
endfacet
facet normal 0.000000 -1.000000 0.000000
outer loop
vertex 51.441124 -0.803858 163.178406
vertex 69.131836 -0.803858 124.602638
vertex 69.131836 -0.803858 153.529587
endloop
endfacet
facet normal 0.478828 0.000000 0.877909
outer loop
vertex 69.131836 13.662290 153.529587
vertex 51.441124 -0.803858 163.178406
vertex 69.131836 -0.803858 153.529587
endloop
endfacet
facet normal 1.000000 0.000000 0.000000
outer loop
vertex 69.131836 -0.803858 124.602638
vertex 69.131836 13.662290 153.529587
vertex 69.131836 -0.803858 153.529587
endloop
endfacet
facet normal -0.393937 0.000000 0.919137
outer loop
vertex -6.423475 13.662290 153.529587
vertex -6.423475 -0.803858 153.529587
vertex 16.089287 -0.803858 163.178406
endloop
endfacet
facet normal 0.000000 -1.000000 0.000000
outer loop
vertex -6.423475 -0.803858 153.529587
vertex 51.441124 -0.803858 163.178406
vertex 16.089287 -0.803858 163.178406
endloop
endfacet
facet normal -0.377957 0.029022 0.925368
outer loop
vertex 17.694172 20.096462 163.178406
vertex -6.423475 13.662290 153.529587
vertex 16.089287 -0.803858 163.178406
endloop
endfacet
facet normal 0.000000 0.000000 1.000000
outer loop
vertex 51.441124 -0.803858 163.178406
vertex 17.694172 20.096462 163.178406
vertex 16.089287 -0.803858 163.178406
endloop
endfacet
facet normal 0.000000 0.000000 1.000000
outer loop
vertex 17.694172 20.096462 163.178406
vertex 51.441124 18.486385 163.178406
vertex 49.828846 20.096462 163.178406
endloop
endfacet
facet normal 0.000000 1.000000 0.000000
outer loop
vertex 49.828846 20.096462 113.348938
vertex 17.694172 20.096462 163.178406
vertex 49.828846 20.096462 163.178406
endloop
endfacet
facet normal 0.514403 0.515110 0.685603
outer loop
vertex 51.441124 18.486385 163.178406
vertex 69.131836 13.662290 153.529587
vertex 49.828846 20.096462 163.178406
endloop
endfacet
endsolid Exported from Blender-2.83.0
