solid Exported from Blender-2.83.0
facet normal -0.335216 -0.942075 0.011207
outer loop
vertex -120.574066 61.898994 192.122192
vertex -118.961624 61.898994 240.353699
vertex -133.433914 66.723564 213.027542
endloop
endfacet
facet normal 0.000000 1.000000 -0.000000
outer loop
vertex -133.433914 81.187820 192.122192
vertex -83.606949 81.187820 240.353699
vertex -65.923004 81.187820 192.122192
endloop
endfacet
facet normal 0.000000 0.000000 -1.000000
outer loop
vertex -133.433914 66.723564 192.122192
vertex -133.433914 81.187820 192.122192
vertex -65.923004 81.187820 192.122192
endloop
endfacet
facet normal 0.000000 0.000000 -1.000000
outer loop
vertex -133.433914 66.723564 192.122192
vertex -65.923004 81.187820 192.122192
vertex -82.001122 61.898994 192.122192
endloop
endfacet
facet normal 0.000000 0.000000 1.000000
outer loop
vertex -118.961624 61.898994 240.353699
vertex -83.606949 81.187820 240.353699
vertex -118.961624 81.187820 240.353699
endloop
endfacet
facet normal 0.000000 1.000000 0.000000
outer loop
vertex -83.606949 81.187820 240.353699
vertex -133.433914 81.187820 192.122192
vertex -118.961624 81.187820 240.353699
endloop
endfacet
facet normal 0.839538 0.000000 0.543301
outer loop
vertex -65.923004 66.723564 213.027542
vertex -83.606949 81.187820 240.353699
vertex -83.606949 61.898994 240.353699
endloop
endfacet
facet normal 0.000000 0.000000 1.000000
outer loop
vertex -83.606949 81.187820 240.353699
vertex -118.961624 61.898994 240.353699
vertex -83.606949 61.898994 240.353699
endloop
endfacet
facet normal 0.276402 -0.960998 0.009203
outer loop
vertex -82.001122 61.898994 192.122192
vertex -65.923004 66.723564 213.027542
vertex -83.606949 61.898994 240.353699
endloop
endfacet
facet normal 0.000000 -1.000000 0.000000
outer loop
vertex -118.961624 61.898994 240.353699
vertex -82.001122 61.898994 192.122192
vertex -83.606949 61.898994 240.353699
endloop
endfacet
facet normal -1.000000 0.000000 0.000000
outer loop
vertex -133.433914 81.187820 192.122192
vertex -133.433914 66.723564 192.122192
vertex -133.433914 81.187820 213.027542
endloop
endfacet
facet normal 0.000000 1.000000 0.000000
outer loop
vertex -118.961624 81.187820 240.353699
vertex -133.433914 81.187820 192.122192
vertex -133.433914 81.187820 213.027542
endloop
endfacet
facet normal -0.883715 0.000000 0.468026
outer loop
vertex -118.961624 61.898994 240.353699
vertex -118.961624 81.187820 240.353699
vertex -133.433914 81.187820 213.027542
endloop
endfacet
facet normal 0.000000 0.000000 -1.000000
outer loop
vertex -133.433914 66.723564 192.122192
vertex -82.001122 61.898994 192.122192
vertex -120.574066 61.898994 192.122192
endloop
endfacet
facet normal 0.000000 -1.000000 -0.000000
outer loop
vertex -82.001122 61.898994 192.122192
vertex -118.961624 61.898994 240.353699
vertex -120.574066 61.898994 192.122192
endloop
endfacet
facet normal 0.839537 0.000000 0.543302
outer loop
vertex -83.606949 81.187820 240.353699
vertex -65.923004 66.723564 213.027542
vertex -65.923004 81.187820 213.027542
endloop
endfacet
facet normal 0.000000 1.000000 0.000000
outer loop
vertex -65.923004 81.187820 192.122192
vertex -83.606949 81.187820 240.353699
vertex -65.923004 81.187820 213.027542
endloop
endfacet
facet normal 1.000000 0.000000 0.000000
outer loop
vertex -65.923004 66.723564 213.027542
vertex -65.923004 81.187820 192.122192
vertex -65.923004 81.187820 213.027542
endloop
endfacet
facet normal 1.000000 0.000000 0.000000
outer loop
vertex -65.923004 81.187820 192.122192
vertex -65.923004 66.723564 213.027542
vertex -65.923004 66.723564 192.122192
endloop
endfacet
facet normal 0.287410 -0.957808 0.000000
outer loop
vertex -65.923004 66.723564 213.027542
vertex -82.001122 61.898994 192.122192
vertex -65.923004 66.723564 192.122192
endloop
endfacet
facet normal 0.000000 0.000000 -1.000000
outer loop
vertex -82.001122 61.898994 192.122192
vertex -65.923004 81.187820 192.122192
vertex -65.923004 66.723564 192.122192
endloop
endfacet
facet normal -1.000000 0.000000 0.000000
outer loop
vertex -133.433914 81.187820 213.027542
vertex -133.433914 66.723564 192.122192
vertex -133.433914 66.723564 213.027542
endloop
endfacet
facet normal -0.883714 0.000000 0.468027
outer loop
vertex -118.961624 61.898994 240.353699
vertex -133.433914 81.187820 213.027542
vertex -133.433914 66.723564 213.027542
endloop
endfacet
facet normal -0.351259 -0.936278 0.000000
outer loop
vertex -133.433914 66.723564 192.122192
vertex -120.574066 61.898994 192.122192
vertex -133.433914 66.723564 213.027542
endloop
endfacet
endsolid Exported from Blender-2.83.0
