solid Exported from Blender-2.83.0
facet normal 0.840549 -0.490025 -0.230982
outer loop
vertex -207.396759 66.720734 63.526073
vertex -229.903366 41.000717 36.188904
vertex -218.656433 60.292694 36.188904
endloop
endfacet
facet normal 0.000000 0.000000 1.000000
outer loop
vertex -207.396759 66.720734 192.122192
vertex -207.396759 81.185776 192.122192
vertex -250.799622 41.000717 192.122192
endloop
endfacet
facet normal -1.000000 0.000000 0.000000
outer loop
vertex -250.799622 41.000717 36.188904
vertex -250.799622 41.000717 192.122192
vertex -250.799622 81.189713 192.122192
endloop
endfacet
facet normal 0.000000 0.000000 1.000000
outer loop
vertex -250.799622 41.000717 192.122192
vertex -207.396759 81.185776 192.122192
vertex -250.799622 81.189713 192.122192
endloop
endfacet
facet normal 0.000000 -1.000000 0.000000
outer loop
vertex -250.799622 41.000717 192.122192
vertex -250.799622 41.000717 36.188904
vertex -229.903366 41.000717 36.188904
endloop
endfacet
facet normal 0.000000 0.000000 -1.000000
outer loop
vertex -250.799622 41.000717 36.188904
vertex -218.652176 81.185776 36.188904
vertex -229.903366 41.000717 36.188904
endloop
endfacet
facet normal -1.000000 0.000000 0.000000
outer loop
vertex -250.799622 41.000717 36.188904
vertex -250.799622 81.189713 192.122192
vertex -250.799622 81.189713 36.188904
endloop
endfacet
facet normal 0.000091 1.000000 0.000000
outer loop
vertex -250.799622 81.189713 192.122192
vertex -207.396759 81.185776 192.122192
vertex -250.799622 81.189713 36.188904
endloop
endfacet
facet normal 0.000000 0.000000 -1.000000
outer loop
vertex -218.652176 81.185776 36.188904
vertex -250.799622 41.000717 36.188904
vertex -250.799622 81.189713 36.188904
endloop
endfacet
facet normal 1.000000 0.000000 0.000000
outer loop
vertex -207.396759 81.185776 192.122192
vertex -207.396759 66.720734 192.122192
vertex -207.396759 66.720734 63.526073
endloop
endfacet
facet normal 0.752554 -0.658530 0.000000
outer loop
vertex -207.396759 66.720734 192.122192
vertex -229.903366 41.000717 36.188904
vertex -207.396759 66.720734 63.526073
endloop
endfacet
facet normal 0.000000 0.000000 1.000000
outer loop
vertex -207.396759 66.720734 192.122192
vertex -250.799622 41.000717 192.122192
vertex -229.903366 41.000717 192.122192
endloop
endfacet
facet normal 0.752553 -0.658532 0.000000
outer loop
vertex -229.903366 41.000717 36.188904
vertex -207.396759 66.720734 192.122192
vertex -229.903366 41.000717 192.122192
endloop
endfacet
facet normal 0.000000 -1.000000 0.000000
outer loop
vertex -250.799622 41.000717 192.122192
vertex -229.903366 41.000717 36.188904
vertex -229.903366 41.000717 192.122192
endloop
endfacet
facet normal 0.000091 1.000000 0.000000
outer loop
vertex -250.799622 81.189713 36.188904
vertex -207.396759 81.185776 192.122192
vertex -207.396759 81.185776 63.526073
endloop
endfacet
facet normal 0.000122 1.000000 -0.000051
outer loop
vertex -218.652176 81.185776 36.188904
vertex -250.799622 81.189713 36.188904
vertex -207.396759 81.185776 63.526073
endloop
endfacet
facet normal 1.000000 0.000000 0.000000
outer loop
vertex -207.396759 81.185776 192.122192
vertex -207.396759 66.720734 63.526073
vertex -207.396759 81.185776 63.526073
endloop
endfacet
facet normal 0.924691 0.000000 -0.380719
outer loop
vertex -207.396759 66.720734 63.526073
vertex -218.652176 81.185776 36.188904
vertex -207.396759 81.185776 63.526073
endloop
endfacet
facet normal 0.000001 0.000000 -1.000000
outer loop
vertex -229.903366 41.000717 36.188904
vertex -218.652176 81.185776 36.188904
vertex -218.656433 60.292694 36.188904
endloop
endfacet
facet normal 0.924656 -0.000188 -0.380804
outer loop
vertex -218.652176 81.185776 36.188904
vertex -207.396759 66.720734 63.526073
vertex -218.656433 60.292694 36.188904
endloop
endfacet
endsolid Exported from Blender-2.83.0
