solid Exported from Blender-2.83.0
facet normal 0.447380 0.894344 0.000000
outer loop
vertex -4.823151 13.662290 335.198303
vertex -17.685516 20.096462 298.231506
vertex -17.685516 20.096462 356.109314
endloop
endfacet
facet normal 0.000000 -1.000000 0.000000
outer loop
vertex -72.347267 -0.803858 307.885376
vertex -51.434357 -0.803858 298.231506
vertex -4.823151 -0.803858 307.885376
endloop
endfacet
facet normal 0.000000 -1.000000 0.000000
outer loop
vertex -72.347267 -0.803858 307.885376
vertex -4.823151 -0.803858 307.885376
vertex -51.434357 -0.803858 356.109314
endloop
endfacet
facet normal 0.000000 0.000000 -1.000000
outer loop
vertex -51.434357 -0.803858 298.231506
vertex -49.834824 20.096462 298.231506
vertex -17.685516 20.096462 298.231506
endloop
endfacet
facet normal 0.000000 0.000000 1.000000
outer loop
vertex -16.079372 18.486385 356.109314
vertex -51.434357 -0.803858 356.109314
vertex -16.079372 -0.803858 356.109314
endloop
endfacet
facet normal 0.000000 -1.000000 -0.000000
outer loop
vertex -51.434357 -0.803858 356.109314
vertex -4.823151 -0.803858 307.885376
vertex -16.079372 -0.803858 356.109314
endloop
endfacet
facet normal 0.000001 0.000000 1.000000
outer loop
vertex -51.434357 -0.803858 356.109314
vertex -16.079372 18.486385 356.109314
vertex -49.834824 20.096462 356.109314
endloop
endfacet
facet normal -0.274802 0.961501 0.000000
outer loop
vertex -49.834824 20.096462 298.231506
vertex -72.347267 13.662290 335.198303
vertex -49.834824 20.096462 356.109314
endloop
endfacet
facet normal -0.687656 0.052628 0.724126
outer loop
vertex -72.347267 13.662290 335.198303
vertex -51.434357 -0.803858 356.109314
vertex -49.834824 20.096462 356.109314
endloop
endfacet
facet normal 0.000000 1.000000 0.000000
outer loop
vertex -17.685516 20.096462 298.231506
vertex -49.834824 20.096462 298.231506
vertex -49.834824 20.096462 356.109314
endloop
endfacet
facet normal 0.880533 0.000000 0.473984
outer loop
vertex -16.079372 18.486385 356.109314
vertex -16.079372 -0.803858 356.109314
vertex -4.823151 13.662290 335.198303
endloop
endfacet
facet normal -0.419121 0.000000 -0.907930
outer loop
vertex -51.434357 -0.803858 298.231506
vertex -72.347267 -0.803858 307.885376
vertex -72.347267 13.662290 307.885376
endloop
endfacet
facet normal -0.401331 0.030714 -0.915418
outer loop
vertex -49.834824 20.096462 298.231506
vertex -51.434357 -0.803858 298.231506
vertex -72.347267 13.662290 307.885376
endloop
endfacet
facet normal -1.000000 0.000000 0.000000
outer loop
vertex -72.347267 -0.803858 307.885376
vertex -72.347267 13.662290 335.198303
vertex -72.347267 13.662290 307.885376
endloop
endfacet
facet normal -0.274802 0.961501 0.000000
outer loop
vertex -72.347267 13.662290 335.198303
vertex -49.834824 20.096462 298.231506
vertex -72.347267 13.662290 307.885376
endloop
endfacet
facet normal 0.000000 -1.000000 0.000000
outer loop
vertex -72.347267 -0.803858 307.885376
vertex -51.434357 -0.803858 356.109314
vertex -72.347267 -0.803858 335.198303
endloop
endfacet
facet normal -1.000000 0.000000 0.000000
outer loop
vertex -72.347267 13.662290 335.198303
vertex -72.347267 -0.803858 307.885376
vertex -72.347267 -0.803858 335.198303
endloop
endfacet
facet normal -0.707075 0.000000 0.707139
outer loop
vertex -51.434357 -0.803858 356.109314
vertex -72.347267 13.662290 335.198303
vertex -72.347267 -0.803858 335.198303
endloop
endfacet
facet normal 0.000000 -1.000000 0.000000
outer loop
vertex -4.823151 -0.803858 307.885376
vertex -51.434357 -0.803858 298.231506
vertex -16.079372 -0.803858 298.231506
endloop
endfacet
facet normal 0.000000 0.000000 -1.000000
outer loop
vertex -51.434357 -0.803858 298.231506
vertex -17.685516 20.096462 298.231506
vertex -16.079372 -0.803858 298.231506
endloop
endfacet
facet normal 0.614618 0.047232 -0.787410
outer loop
vertex -16.079372 -0.803858 298.231506
vertex -17.685516 20.096462 298.231506
vertex -4.823151 13.662290 307.885376
endloop
endfacet
facet normal 0.447380 0.894344 0.000000
outer loop
vertex -17.685516 20.096462 298.231506
vertex -4.823151 13.662290 335.198303
vertex -4.823151 13.662290 307.885376
endloop
endfacet
facet normal 1.000000 0.000000 0.000000
outer loop
vertex -4.823151 13.662290 335.198303
vertex -4.823151 -0.803858 307.885376
vertex -4.823151 13.662290 307.885376
endloop
endfacet
facet normal 0.651012 0.000000 -0.759067
outer loop
vertex -4.823151 -0.803858 307.885376
vertex -16.079372 -0.803858 298.231506
vertex -4.823151 13.662290 307.885376
endloop
endfacet
facet normal 0.000000 -1.000000 0.000000
outer loop
vertex -16.079372 -0.803858 356.109314
vertex -4.823151 -0.803858 307.885376
vertex -4.823151 -0.803858 335.198303
endloop
endfacet
facet normal 1.000000 0.000000 0.000000
outer loop
vertex -4.823151 -0.803858 307.885376
vertex -4.823151 13.662290 335.198303
vertex -4.823151 -0.803858 335.198303
endloop
endfacet
facet normal 0.880534 0.000000 0.473984
outer loop
vertex -4.823151 13.662290 335.198303
vertex -16.079372 -0.803858 356.109314
vertex -4.823151 -0.803858 335.198303
endloop
endfacet
facet normal 0.000000 0.000000 1.000000
outer loop
vertex -49.834824 20.096462 356.109314
vertex -16.079372 18.486385 356.109314
vertex -17.685516 20.096462 356.109314
endloop
endfacet
facet normal 0.000000 1.000000 0.000000
outer loop
vertex -17.685516 20.096462 298.231506
vertex -49.834824 20.096462 356.109314
vertex -17.685516 20.096462 356.109314
endloop
endfacet
facet normal 0.691702 0.690010 0.213154
outer loop
vertex -16.079372 18.486385 356.109314
vertex -4.823151 13.662290 335.198303
vertex -17.685516 20.096462 356.109314
endloop
endfacet
endsolid Exported from Blender-2.83.0
