solid Exported from Blender-2.83.0
facet normal 1.000000 0.000000 0.000000
outer loop
vertex -218.652664 18.490635 32.958191
vertex -218.652664 -0.803856 192.122192
vertex -218.652664 -0.803856 32.958191
endloop
endfacet
facet normal -0.000134 -1.000000 0.000000
outer loop
vertex -250.800873 -0.799765 32.958191
vertex -220.257706 -0.803856 32.958191
vertex -250.800873 -0.799765 192.122192
endloop
endfacet
facet normal -0.000000 0.000000 -1.000000
outer loop
vertex -220.257706 -0.803856 32.958191
vertex -250.800873 -0.799765 32.958191
vertex -250.800873 40.992691 32.958191
endloop
endfacet
facet normal -1.000000 0.000000 0.000000
outer loop
vertex -250.800873 -0.799765 32.958191
vertex -250.800873 -0.799765 192.122192
vertex -250.800873 40.992691 32.958191
endloop
endfacet
facet normal -0.000127 -1.000000 0.000001
outer loop
vertex -250.800873 -0.799765 192.122192
vertex -220.257706 -0.803856 32.958191
vertex -218.652664 -0.803856 192.122192
endloop
endfacet
facet normal 0.000000 0.000000 1.000000
outer loop
vertex -229.906891 40.992691 192.122192
vertex -250.800873 -0.799765 192.122192
vertex -218.652664 -0.803856 192.122192
endloop
endfacet
facet normal 0.000000 0.000000 -1.000000
outer loop
vertex -220.257706 -0.803856 32.958191
vertex -250.800873 40.992691 32.958191
vertex -218.652664 18.490635 32.958191
endloop
endfacet
facet normal 0.000000 0.000000 1.000000
outer loop
vertex -250.800873 -0.799765 192.122192
vertex -229.906891 40.992691 192.122192
vertex -250.800873 40.992691 192.122192
endloop
endfacet
facet normal 0.000000 1.000000 0.000000
outer loop
vertex -229.906891 40.992691 192.122192
vertex -250.800873 40.992691 32.958191
vertex -250.800873 40.992691 192.122192
endloop
endfacet
facet normal -1.000000 0.000000 0.000000
outer loop
vertex -250.800873 40.992691 32.958191
vertex -250.800873 -0.799765 192.122192
vertex -250.800873 40.992691 192.122192
endloop
endfacet
facet normal 0.000000 1.000000 0.000000
outer loop
vertex -250.800873 40.992691 32.958191
vertex -229.906891 40.992691 192.122192
vertex -229.906891 40.992691 32.958191
endloop
endfacet
facet normal 0.894377 0.447315 0.000000
outer loop
vertex -229.906891 40.992691 192.122192
vertex -218.652664 18.490635 32.958191
vertex -229.906891 40.992691 32.958191
endloop
endfacet
facet normal 0.000000 0.000000 -1.000000
outer loop
vertex -218.652664 18.490635 32.958191
vertex -250.800873 40.992691 32.958191
vertex -229.906891 40.992691 32.958191
endloop
endfacet
facet normal 0.000000 0.000000 1.000000
outer loop
vertex -229.906891 40.992691 192.122192
vertex -218.652664 -0.803856 192.122192
vertex -218.652664 18.490635 192.122192
endloop
endfacet
facet normal 0.894376 0.447316 0.000000
outer loop
vertex -218.652664 18.490635 32.958191
vertex -229.906891 40.992691 192.122192
vertex -218.652664 18.490635 192.122192
endloop
endfacet
facet normal 1.000000 0.000000 0.000000
outer loop
vertex -218.652664 -0.803856 192.122192
vertex -218.652664 18.490635 32.958191
vertex -218.652664 18.490635 192.122192
endloop
endfacet
facet normal 0.000000 -1.000000 0.000000
outer loop
vertex -218.652664 -0.803856 192.122192
vertex -220.257706 -0.803856 32.958191
vertex -218.652664 -0.803856 32.958191
endloop
endfacet
facet normal 0.000000 0.000000 -1.000000
outer loop
vertex -220.257706 -0.803856 32.958191
vertex -218.652664 18.490635 32.958191
vertex -218.652664 -0.803856 32.958191
endloop
endfacet
endsolid Exported from Blender-2.83.0
