solid Exported from Blender-2.83.0
facet normal -0.474379 0.000000 0.880321
outer loop
vertex -207.388245 81.189713 153.526123
vertex -186.483673 63.504822 164.791000
vertex -186.483673 81.189713 164.791000
endloop
endfacet
facet normal 0.000000 1.000000 0.000000
outer loop
vertex -207.388245 81.189713 124.605782
vertex -151.131226 81.189713 164.791000
vertex -151.131226 81.189713 94.058365
endloop
endfacet
facet normal 0.000000 -1.000000 0.000000
outer loop
vertex -191.311707 63.504822 124.605782
vertex -186.483673 63.504822 94.058365
vertex -186.483673 63.504822 164.791000
endloop
endfacet
facet normal 0.000000 0.000000 -1.000000
outer loop
vertex -186.483673 63.504822 94.058365
vertex -151.131226 81.189713 94.058365
vertex -151.131226 63.504822 94.058365
endloop
endfacet
facet normal 0.000000 -1.000000 0.000000
outer loop
vertex -186.483673 63.504822 164.791000
vertex -186.483673 63.504822 94.058365
vertex -151.131226 63.504822 94.058365
endloop
endfacet
facet normal 0.000000 1.000000 0.000000
outer loop
vertex -151.131226 81.189713 164.791000
vertex -207.388245 81.189713 124.605782
vertex -207.388245 81.189713 153.526123
endloop
endfacet
facet normal 0.000000 1.000000 0.000000
outer loop
vertex -151.131226 81.189713 94.058365
vertex -151.131226 81.189713 164.791000
vertex -133.454987 81.189713 124.605782
endloop
endfacet
facet normal 0.865538 0.000000 -0.500843
outer loop
vertex -151.131226 63.504822 94.058365
vertex -151.131226 81.189713 94.058365
vertex -133.454987 81.189713 124.605782
endloop
endfacet
facet normal -0.162298 -0.986549 0.019499
outer loop
vertex -191.311707 63.504822 124.605782
vertex -186.483673 63.504822 164.791000
vertex -207.388245 66.721199 153.526123
endloop
endfacet
facet normal -1.000000 0.000000 0.000000
outer loop
vertex -207.388245 81.189713 153.526123
vertex -207.388245 81.189713 124.605782
vertex -207.388245 66.721199 153.526123
endloop
endfacet
facet normal -0.474380 0.000000 0.880320
outer loop
vertex -186.483673 63.504822 164.791000
vertex -207.388245 81.189713 153.526123
vertex -207.388245 66.721199 153.526123
endloop
endfacet
facet normal -0.825261 0.000000 -0.564752
outer loop
vertex -186.483673 63.504822 94.058365
vertex -207.388245 81.189713 124.605782
vertex -186.483673 81.189713 94.058365
endloop
endfacet
facet normal 0.000000 1.000000 0.000000
outer loop
vertex -207.388245 81.189713 124.605782
vertex -151.131226 81.189713 94.058365
vertex -186.483673 81.189713 94.058365
endloop
endfacet
facet normal 0.000000 0.000000 -1.000000
outer loop
vertex -151.131226 81.189713 94.058365
vertex -186.483673 63.504822 94.058365
vertex -186.483673 81.189713 94.058365
endloop
endfacet
facet normal 0.537430 0.000000 0.843308
outer loop
vertex -133.454987 66.721199 153.526123
vertex -151.131226 81.189713 164.791000
vertex -151.131226 63.504822 164.791000
endloop
endfacet
facet normal 0.000000 0.000000 1.000000
outer loop
vertex -151.131226 81.189713 164.791000
vertex -186.483673 63.504822 164.791000
vertex -151.131226 63.504822 164.791000
endloop
endfacet
facet normal 0.179021 -0.983845 0.000000
outer loop
vertex -151.131226 63.504822 94.058365
vertex -133.454987 66.721199 153.526123
vertex -151.131226 63.504822 164.791000
endloop
endfacet
facet normal 0.000000 -1.000000 0.000000
outer loop
vertex -186.483673 63.504822 164.791000
vertex -151.131226 63.504822 94.058365
vertex -151.131226 63.504822 164.791000
endloop
endfacet
facet normal -0.196085 -0.980097 -0.030991
outer loop
vertex -186.483673 63.504822 94.058365
vertex -191.311707 63.504822 124.605782
vertex -207.388245 66.721199 124.605782
endloop
endfacet
facet normal -0.825260 0.000000 -0.564752
outer loop
vertex -207.388245 81.189713 124.605782
vertex -186.483673 63.504822 94.058365
vertex -207.388245 66.721199 124.605782
endloop
endfacet
facet normal -0.196179 -0.980568 0.000000
outer loop
vertex -191.311707 63.504822 124.605782
vertex -207.388245 66.721199 153.526123
vertex -207.388245 66.721199 124.605782
endloop
endfacet
facet normal -1.000000 0.000000 0.000000
outer loop
vertex -207.388245 66.721199 153.526123
vertex -207.388245 81.189713 124.605782
vertex -207.388245 66.721199 124.605782
endloop
endfacet
facet normal 0.179021 -0.983845 0.000000
outer loop
vertex -133.454987 66.721199 153.526123
vertex -151.131226 63.504822 94.058365
vertex -133.454987 66.721199 124.605782
endloop
endfacet
facet normal 1.000000 0.000000 0.000000
outer loop
vertex -133.454987 81.189713 124.605782
vertex -133.454987 66.721199 153.526123
vertex -133.454987 66.721199 124.605782
endloop
endfacet
facet normal 0.865538 0.000000 -0.500843
outer loop
vertex -151.131226 63.504822 94.058365
vertex -133.454987 81.189713 124.605782
vertex -133.454987 66.721199 124.605782
endloop
endfacet
facet normal 0.537432 0.000000 0.843307
outer loop
vertex -151.131226 81.189713 164.791000
vertex -133.454987 66.721199 153.526123
vertex -133.454987 81.189713 153.526123
endloop
endfacet
facet normal 0.000000 1.000000 0.000000
outer loop
vertex -133.454987 81.189713 124.605782
vertex -151.131226 81.189713 164.791000
vertex -133.454987 81.189713 153.526123
endloop
endfacet
facet normal 1.000000 0.000000 0.000000
outer loop
vertex -133.454987 66.721199 153.526123
vertex -133.454987 81.189713 124.605782
vertex -133.454987 81.189713 153.526123
endloop
endfacet
facet normal 0.000000 0.000000 1.000000
outer loop
vertex -186.483673 63.504822 164.791000
vertex -151.131226 81.189713 164.791000
vertex -186.483673 81.189713 164.791000
endloop
endfacet
facet normal 0.000000 1.000000 -0.000001
outer loop
vertex -151.131226 81.189713 164.791000
vertex -207.388245 81.189713 153.526123
vertex -186.483673 81.189713 164.791000
endloop
endfacet
endsolid Exported from Blender-2.83.0
