solid Exported from Blender-2.83.0
facet normal 0.371798 -0.928314 0.000000
outer loop
vertex -3.229275 66.721199 63.514580
vertex -3.229275 66.721199 92.439636
vertex -11.259993 63.504822 92.439636
endloop
endfacet
facet normal 0.000000 1.000000 0.000000
outer loop
vertex -16.085346 81.189713 114.951767
vertex -3.229275 81.189713 92.439636
vertex -73.948059 81.189713 63.514580
endloop
endfacet
facet normal 0.868376 0.000000 0.495906
outer loop
vertex -3.229275 81.189713 92.439636
vertex -16.085346 81.189713 114.951767
vertex -16.085346 63.504822 114.951767
endloop
endfacet
facet normal 0.000000 -1.000000 0.000000
outer loop
vertex -56.259708 63.504822 63.514580
vertex -16.085346 63.504822 34.565918
vertex -16.085346 63.504822 114.951767
endloop
endfacet
facet normal 0.000000 1.000000 0.000000
outer loop
vertex -73.948059 81.189713 63.514580
vertex -3.229275 81.189713 92.439636
vertex -16.085346 81.189713 34.565918
endloop
endfacet
facet normal 0.000000 0.000000 1.000000
outer loop
vertex -16.085346 63.504822 114.951767
vertex -16.085346 81.189713 114.951767
vertex -51.441277 63.504822 114.951767
endloop
endfacet
facet normal 0.000000 -1.000000 0.000000
outer loop
vertex -56.259708 63.504822 63.514580
vertex -16.085346 63.504822 114.951767
vertex -51.441277 63.504822 114.951767
endloop
endfacet
facet normal 0.000000 -1.000000 0.000000
outer loop
vertex -16.085346 63.504822 34.565918
vertex -56.259708 63.504822 63.514580
vertex -51.441277 63.504822 34.565918
endloop
endfacet
facet normal 0.000000 0.000000 -1.000000
outer loop
vertex -16.085346 81.189713 34.565918
vertex -16.085346 63.504822 34.565918
vertex -51.441277 63.504822 34.565918
endloop
endfacet
facet normal 0.000000 1.000000 -0.000000
outer loop
vertex -16.085346 81.189713 114.951767
vertex -73.948059 81.189713 63.514580
vertex -51.441277 81.189713 114.951767
endloop
endfacet
facet normal 0.000000 0.000000 1.000000
outer loop
vertex -51.441277 63.504822 114.951767
vertex -16.085346 81.189713 114.951767
vertex -51.441277 81.189713 114.951767
endloop
endfacet
facet normal -0.707190 0.000000 0.707023
outer loop
vertex -51.441277 63.504822 114.951767
vertex -51.441277 81.189713 114.951767
vertex -73.948059 66.721199 92.439636
endloop
endfacet
facet normal -0.155741 -0.987690 0.014589
outer loop
vertex -56.259708 63.504822 63.514580
vertex -51.441277 63.504822 114.951767
vertex -73.948059 66.721199 92.439636
endloop
endfacet
facet normal 0.913929 0.000000 -0.405875
outer loop
vertex -16.085346 63.504822 34.565918
vertex -16.085346 81.189713 34.565918
vertex -3.229275 66.721199 63.514580
endloop
endfacet
facet normal 0.000000 1.000000 0.000000
outer loop
vertex -73.948059 81.189713 63.514580
vertex -16.085346 81.189713 34.565918
vertex -51.441277 81.189713 34.565918
endloop
endfacet
facet normal -0.789469 0.000000 -0.613790
outer loop
vertex -51.441277 63.504822 34.565918
vertex -73.948059 81.189713 63.514580
vertex -51.441277 81.189713 34.565918
endloop
endfacet
facet normal 0.000000 0.000000 -1.000000
outer loop
vertex -16.085346 81.189713 34.565918
vertex -51.441277 63.504822 34.565918
vertex -51.441277 81.189713 34.565918
endloop
endfacet
facet normal -0.178823 -0.983431 -0.029764
outer loop
vertex -51.441277 63.504822 34.565918
vertex -56.259708 63.504822 63.514580
vertex -73.948059 66.721199 63.514580
endloop
endfacet
facet normal -0.789469 0.000000 -0.613791
outer loop
vertex -73.948059 81.189713 63.514580
vertex -51.441277 63.504822 34.565918
vertex -73.948059 66.721199 63.514580
endloop
endfacet
facet normal -0.178902 -0.983867 0.000000
outer loop
vertex -56.259708 63.504822 63.514580
vertex -73.948059 66.721199 92.439636
vertex -73.948059 66.721199 63.514580
endloop
endfacet
facet normal -1.000000 0.000000 0.000000
outer loop
vertex -73.948059 66.721199 92.439636
vertex -73.948059 81.189713 63.514580
vertex -73.948059 66.721199 63.514580
endloop
endfacet
facet normal 0.000000 1.000000 0.000000
outer loop
vertex -51.441277 81.189713 114.951767
vertex -73.948059 81.189713 63.514580
vertex -73.948059 81.189713 92.439636
endloop
endfacet
facet normal -0.707191 0.000000 0.707023
outer loop
vertex -73.948059 66.721199 92.439636
vertex -51.441277 81.189713 114.951767
vertex -73.948059 81.189713 92.439636
endloop
endfacet
facet normal -1.000000 0.000000 0.000000
outer loop
vertex -73.948059 81.189713 63.514580
vertex -73.948059 66.721199 92.439636
vertex -73.948059 81.189713 92.439636
endloop
endfacet
facet normal 0.868376 0.000000 0.495906
outer loop
vertex -3.229275 81.189713 92.439636
vertex -16.085346 63.504822 114.951767
vertex -3.229275 66.721199 92.439636
endloop
endfacet
facet normal 1.000000 0.000000 0.000000
outer loop
vertex -3.229275 66.721199 63.514580
vertex -3.229275 81.189713 92.439636
vertex -3.229275 66.721199 92.439636
endloop
endfacet
facet normal 0.000000 1.000000 0.000000
outer loop
vertex -16.085346 81.189713 34.565918
vertex -3.229275 81.189713 92.439636
vertex -3.229275 81.189713 63.514580
endloop
endfacet
facet normal 1.000000 0.000000 0.000000
outer loop
vertex -3.229275 81.189713 92.439636
vertex -3.229275 66.721199 63.514580
vertex -3.229275 81.189713 63.514580
endloop
endfacet
facet normal 0.913929 0.000000 -0.405875
outer loop
vertex -3.229275 66.721199 63.514580
vertex -16.085346 81.189713 34.565918
vertex -3.229275 81.189713 63.514580
endloop
endfacet
facet normal 0.000000 -1.000000 0.000000
outer loop
vertex -16.085346 63.504822 114.951767
vertex -16.085346 63.504822 34.565918
vertex -11.259993 63.504822 92.439636
endloop
endfacet
facet normal 0.294276 -0.955406 -0.024536
outer loop
vertex -16.085346 63.504822 34.565918
vertex -3.229275 66.721199 63.514580
vertex -11.259993 63.504822 92.439636
endloop
endfacet
facet normal 0.370623 -0.925380 0.079441
outer loop
vertex -3.229275 66.721199 92.439636
vertex -16.085346 63.504822 114.951767
vertex -11.259993 63.504822 92.439636
endloop
endfacet
endsolid Exported from Blender-2.83.0
