solid Exported from Blender-2.83.0
facet normal -0.074494 0.020044 0.997020
outer loop
vertex 229.899292 40.992691 32.958199
vertex 200.964630 13.669685 31.345604
vertex 218.654236 -0.799767 32.958199
endloop
endfacet
facet normal 1.000000 0.000000 0.000000
outer loop
vertex 250.803864 40.992691 -0.800552
vertex 250.803864 40.992691 32.958199
vertex 250.803864 -0.799767 32.958199
endloop
endfacet
facet normal 0.000000 -1.000000 0.000000
outer loop
vertex 250.803864 -0.799767 32.958199
vertex 200.964630 -0.799767 31.345604
vertex 250.803864 -0.799767 -0.800552
endloop
endfacet
facet normal 1.000000 0.000000 0.000000
outer loop
vertex 250.803864 40.992691 -0.800552
vertex 250.803864 -0.799767 32.958199
vertex 250.803864 -0.799767 -0.800552
endloop
endfacet
facet normal 0.000000 0.000000 -1.000000
outer loop
vertex 250.803864 40.992691 -0.800552
vertex 250.803864 -0.799767 -0.800552
vertex 200.964630 40.992691 -0.800552
endloop
endfacet
facet normal 0.000000 1.000000 0.000000
outer loop
vertex 250.803864 40.992691 32.958199
vertex 250.803864 40.992691 -0.800552
vertex 200.964630 40.992691 -0.800552
endloop
endfacet
facet normal -1.000000 0.000000 0.000000
outer loop
vertex 200.964630 -0.799767 31.345604
vertex 200.964630 40.992691 -0.800552
vertex 200.964630 -0.799767 -0.800552
endloop
endfacet
facet normal 0.000000 -1.000000 0.000000
outer loop
vertex 250.803864 -0.799767 -0.800552
vertex 200.964630 -0.799767 31.345604
vertex 200.964630 -0.799767 -0.800552
endloop
endfacet
facet normal 0.000000 0.000000 -1.000000
outer loop
vertex 200.964630 40.992691 -0.800552
vertex 250.803864 -0.799767 -0.800552
vertex 200.964630 -0.799767 -0.800552
endloop
endfacet
facet normal 0.000000 1.000000 0.000000
outer loop
vertex 250.803864 40.992691 32.958199
vertex 200.964630 40.992691 -0.800552
vertex 200.964630 40.992691 20.093788
endloop
endfacet
facet normal -1.000000 0.000001 0.000000
outer loop
vertex 200.964630 40.992691 -0.800552
vertex 200.964630 -0.799767 31.345604
vertex 200.964630 40.992691 20.093788
endloop
endfacet
facet normal 0.000000 0.000000 1.000000
outer loop
vertex 250.803864 -0.799767 32.958199
vertex 250.803864 40.992691 32.958199
vertex 229.899292 40.992691 32.958199
endloop
endfacet
facet normal 0.000000 1.000000 0.000000
outer loop
vertex 250.803864 40.992691 32.958199
vertex 200.964630 40.992691 20.093788
vertex 229.899292 40.992691 32.958199
endloop
endfacet
facet normal -0.380230 0.352184 0.855214
outer loop
vertex 229.899292 40.992691 32.958199
vertex 200.964630 40.992691 20.093788
vertex 200.964630 13.669685 31.345604
endloop
endfacet
facet normal -1.000000 0.000000 0.000000
outer loop
vertex 200.964630 40.992691 20.093788
vertex 200.964630 -0.799767 31.345604
vertex 200.964630 13.669685 31.345604
endloop
endfacet
facet normal -0.090784 0.000000 0.995871
outer loop
vertex 200.964630 13.669685 31.345604
vertex 200.964630 -0.799767 31.345604
vertex 218.654236 -0.799767 32.958199
endloop
endfacet
facet normal 0.000000 -1.000000 0.000000
outer loop
vertex 200.964630 -0.799767 31.345604
vertex 250.803864 -0.799767 32.958199
vertex 218.654236 -0.799767 32.958199
endloop
endfacet
facet normal 0.000000 0.000000 1.000000
outer loop
vertex 250.803864 -0.799767 32.958199
vertex 229.899292 40.992691 32.958199
vertex 218.654236 -0.799767 32.958199
endloop
endfacet
endsolid Exported from Blender-2.83.0
