solid Exported from Blender-2.83.0
facet normal 0.366262 0.028224 -0.930083
outer loop
vertex 118.970909 -0.803858 177.652740
vertex 117.360359 20.096462 177.652740
vertex 138.263672 13.662290 185.689117
endloop
endfacet
facet normal -0.000001 0.000000 1.000000
outer loop
vertex 138.263672 13.662290 192.122192
vertex 117.360359 20.096462 192.122192
vertex 69.131836 -0.803858 192.122192
endloop
endfacet
facet normal 0.000000 -1.000000 0.000000
outer loop
vertex 69.131836 -0.803858 192.122192
vertex 83.606483 -0.803858 177.652740
vertex 138.263672 -0.803858 185.689117
endloop
endfacet
facet normal 0.294185 0.955748 0.000000
outer loop
vertex 117.360359 20.096462 192.122192
vertex 138.263672 13.662290 192.122192
vertex 117.360359 20.096462 177.652740
endloop
endfacet
facet normal 0.000000 0.000000 -1.000000
outer loop
vertex 83.606483 -0.803858 177.652740
vertex 85.210266 20.096462 177.652740
vertex 117.360359 20.096462 177.652740
endloop
endfacet
facet normal 0.000000 1.000000 0.000000
outer loop
vertex 85.210266 20.096462 177.652740
vertex 117.360359 20.096462 192.122192
vertex 117.360359 20.096462 177.652740
endloop
endfacet
facet normal 0.000000 0.000000 1.000000
outer loop
vertex 69.131836 -0.803858 192.122192
vertex 117.360359 20.096462 192.122192
vertex 69.131836 13.662290 192.122192
endloop
endfacet
facet normal 0.000000 0.000000 1.000000
outer loop
vertex 138.263672 13.662290 192.122192
vertex 69.131836 -0.803858 192.122192
vertex 138.263672 -0.803858 192.122192
endloop
endfacet
facet normal 1.000000 0.000000 0.000000
outer loop
vertex 138.263672 -0.803858 185.689117
vertex 138.263672 13.662290 192.122192
vertex 138.263672 -0.803858 192.122192
endloop
endfacet
facet normal 0.000000 -1.000000 0.000000
outer loop
vertex 69.131836 -0.803858 192.122192
vertex 138.263672 -0.803858 185.689117
vertex 138.263672 -0.803858 192.122192
endloop
endfacet
facet normal 0.000000 -1.000000 -0.000000
outer loop
vertex 138.263672 -0.803858 185.689117
vertex 83.606483 -0.803858 177.652740
vertex 118.970909 -0.803858 177.652740
endloop
endfacet
facet normal 0.000000 0.000000 -1.000000
outer loop
vertex 83.606483 -0.803858 177.652740
vertex 117.360359 20.096462 177.652740
vertex 118.970909 -0.803858 177.652740
endloop
endfacet
facet normal -0.674412 -0.300017 -0.674654
outer loop
vertex 83.606483 -0.803858 177.652740
vertex 69.131836 -0.803858 192.122192
vertex 69.131836 13.662290 185.689117
endloop
endfacet
facet normal -0.458029 0.035147 -0.888242
outer loop
vertex 85.210266 20.096462 177.652740
vertex 83.606483 -0.803858 177.652740
vertex 69.131836 13.662290 185.689117
endloop
endfacet
facet normal -1.000000 0.000000 0.000000
outer loop
vertex 69.131836 -0.803858 192.122192
vertex 69.131836 13.662290 192.122192
vertex 69.131836 13.662290 185.689117
endloop
endfacet
facet normal -0.371531 0.928421 0.000000
outer loop
vertex 69.131836 13.662290 192.122192
vertex 85.210266 20.096462 177.652740
vertex 69.131836 13.662290 185.689117
endloop
endfacet
facet normal 0.000000 1.000000 0.000000
outer loop
vertex 117.360359 20.096462 192.122192
vertex 85.210266 20.096462 177.652740
vertex 85.210266 20.096462 192.122192
endloop
endfacet
facet normal 0.000000 0.000000 1.000000
outer loop
vertex 69.131836 13.662290 192.122192
vertex 117.360359 20.096462 192.122192
vertex 85.210266 20.096462 192.122192
endloop
endfacet
facet normal -0.371530 0.928421 0.000000
outer loop
vertex 85.210266 20.096462 177.652740
vertex 69.131836 13.662290 192.122192
vertex 85.210266 20.096462 192.122192
endloop
endfacet
facet normal 1.000000 0.000000 0.000000
outer loop
vertex 138.263672 13.662290 192.122192
vertex 138.263672 -0.803858 185.689117
vertex 138.263672 13.662290 185.689117
endloop
endfacet
facet normal 0.294186 0.955748 0.000000
outer loop
vertex 117.360359 20.096462 177.652740
vertex 138.263672 13.662290 192.122192
vertex 138.263672 13.662290 185.689117
endloop
endfacet
facet normal 0.384523 0.000000 -0.923116
outer loop
vertex 138.263672 -0.803858 185.689117
vertex 118.970909 -0.803858 177.652740
vertex 138.263672 13.662290 185.689117
endloop
endfacet
endsolid Exported from Blender-2.83.0
