solid Exported from Blender-2.83.0
facet normal -1.000000 0.000000 0.000000
outer loop
vertex 83.601288 60.288940 401.125366
vertex 83.601288 61.894749 192.142639
vertex 83.601288 60.288940 192.142639
endloop
endfacet
facet normal 0.000000 1.000000 0.000000
outer loop
vertex 115.754677 61.896793 401.125366
vertex 118.971054 61.896793 401.125366
vertex 118.971054 61.896793 192.142639
endloop
endfacet
facet normal 0.000001 0.000000 -1.000000
outer loop
vertex 118.971054 61.896793 192.142639
vertex 94.860336 40.998829 192.142639
vertex 83.601288 61.894749 192.142639
endloop
endfacet
facet normal -0.000058 1.000000 -0.000001
outer loop
vertex 115.754677 61.896793 401.125366
vertex 118.971054 61.896793 192.142639
vertex 83.601288 61.894749 192.142639
endloop
endfacet
facet normal 0.000000 0.000000 1.000000
outer loop
vertex 118.971054 61.896793 401.125366
vertex 115.754677 61.896793 401.125366
vertex 107.715462 40.998829 401.125366
endloop
endfacet
facet normal -0.000002 0.000000 1.000000
outer loop
vertex 107.715462 40.998829 401.125366
vertex 115.754677 61.896793 401.125366
vertex 83.601288 60.288940 401.125366
endloop
endfacet
facet normal 0.000000 0.000000 -1.000000
outer loop
vertex 94.860336 40.998829 192.142639
vertex 118.971054 61.896793 192.142639
vertex 107.715462 40.998829 192.142639
endloop
endfacet
facet normal 0.000000 -1.000000 0.000000
outer loop
vertex 107.715462 40.998829 401.125366
vertex 94.860336 40.998829 192.142639
vertex 107.715462 40.998829 192.142639
endloop
endfacet
facet normal 0.000000 -1.000000 0.000000
outer loop
vertex 94.860336 40.998829 192.142639
vertex 107.715462 40.998829 401.125366
vertex 94.860336 40.998829 401.125366
endloop
endfacet
facet normal -0.863653 -0.504087 0.000000
outer loop
vertex 83.601288 60.288940 401.125366
vertex 94.860336 40.998829 192.142639
vertex 94.860336 40.998829 401.125366
endloop
endfacet
facet normal 0.000000 0.000000 1.000000
outer loop
vertex 107.715462 40.998829 401.125366
vertex 83.601288 60.288940 401.125366
vertex 94.860336 40.998829 401.125366
endloop
endfacet
facet normal -0.000064 1.000000 0.000000
outer loop
vertex 115.754677 61.896793 401.125366
vertex 83.601288 61.894749 192.142639
vertex 83.601288 61.894749 401.125366
endloop
endfacet
facet normal -1.000000 0.000000 0.000000
outer loop
vertex 83.601288 61.894749 192.142639
vertex 83.601288 60.288940 401.125366
vertex 83.601288 61.894749 401.125366
endloop
endfacet
facet normal -0.000001 0.000000 1.000000
outer loop
vertex 83.601288 60.288940 401.125366
vertex 115.754677 61.896793 401.125366
vertex 83.601288 61.894749 401.125366
endloop
endfacet
facet normal 1.000000 0.000000 0.000000
outer loop
vertex 118.971054 61.896793 192.142639
vertex 118.971054 61.896793 401.125366
vertex 118.971054 60.288940 401.125366
endloop
endfacet
facet normal 0.000054 0.000000 1.000000
outer loop
vertex 118.971054 61.896793 401.125366
vertex 107.715462 40.998829 401.125366
vertex 118.971054 60.288940 401.125366
endloop
endfacet
facet normal 0.863720 -0.503972 0.000000
outer loop
vertex 107.715462 40.998829 401.125366
vertex 107.715462 40.998829 192.142639
vertex 118.971054 60.288940 401.125366
endloop
endfacet
facet normal 0.863720 -0.503972 0.000000
outer loop
vertex 118.971054 60.288940 401.125366
vertex 107.715462 40.998829 192.142639
vertex 118.971054 60.288940 192.142639
endloop
endfacet
facet normal -0.000017 0.000000 -1.000000
outer loop
vertex 107.715462 40.998829 192.142639
vertex 118.971054 61.896793 192.142639
vertex 118.971054 60.288940 192.142639
endloop
endfacet
facet normal 1.000000 0.000000 0.000000
outer loop
vertex 118.971054 61.896793 192.142639
vertex 118.971054 60.288940 401.125366
vertex 118.971054 60.288940 192.142639
endloop
endfacet
facet normal 0.000000 0.000000 -1.000000
outer loop
vertex 83.601288 61.894749 192.142639
vertex 94.860336 40.998829 192.142639
vertex 83.601288 60.288940 192.142639
endloop
endfacet
facet normal -0.863652 -0.504088 0.000000
outer loop
vertex 94.860336 40.998829 192.142639
vertex 83.601288 60.288940 401.125366
vertex 83.601288 60.288940 192.142639
endloop
endfacet
endsolid Exported from Blender-2.83.0
