solid Exported from Blender-2.83.0
facet normal 0.000000 0.000000 1.000000
outer loop
vertex -199.358810 13.662291 153.536972
vertex -218.647629 -0.803858 153.536972
vertex -199.358810 -0.803858 153.536972
endloop
endfacet
facet normal 0.000000 -1.000000 0.000000
outer loop
vertex -218.647629 -0.803858 124.598068
vertex -199.358810 -0.803858 124.598068
vertex -218.647629 -0.803858 153.536972
endloop
endfacet
facet normal -0.995015 0.082976 0.055311
outer loop
vertex -218.647629 -0.803858 153.536972
vertex -217.038971 18.486858 153.536972
vertex -218.647629 18.486858 124.598068
endloop
endfacet
facet normal 0.000000 0.000000 -1.000000
outer loop
vertex -199.358810 -0.803858 124.598068
vertex -218.647629 -0.803858 124.598068
vertex -218.647629 18.486858 124.598068
endloop
endfacet
facet normal -1.000000 0.000000 0.000000
outer loop
vertex -218.647629 -0.803858 124.598068
vertex -218.647629 -0.803858 153.536972
vertex -218.647629 18.486858 124.598068
endloop
endfacet
facet normal 0.000000 0.000000 1.000000
outer loop
vertex -217.038971 18.486858 153.536972
vertex -218.647629 -0.803858 153.536972
vertex -199.358810 13.662291 153.536972
endloop
endfacet
facet normal 0.242625 0.970026 -0.013487
outer loop
vertex -218.647629 18.486858 124.598068
vertex -217.038971 18.486858 153.536972
vertex -199.358810 13.662291 124.598068
endloop
endfacet
facet normal 0.000000 0.000000 -1.000000
outer loop
vertex -199.358810 -0.803858 124.598068
vertex -218.647629 18.486858 124.598068
vertex -199.358810 13.662291 124.598068
endloop
endfacet
facet normal 1.000000 0.000000 0.000000
outer loop
vertex -199.358810 13.662291 153.536972
vertex -199.358810 -0.803858 124.598068
vertex -199.358810 13.662291 124.598068
endloop
endfacet
facet normal 0.263255 0.964726 0.000000
outer loop
vertex -217.038971 18.486858 153.536972
vertex -199.358810 13.662291 153.536972
vertex -199.358810 13.662291 124.598068
endloop
endfacet
facet normal 0.000000 -1.000000 0.000000
outer loop
vertex -218.647629 -0.803858 153.536972
vertex -199.358810 -0.803858 124.598068
vertex -199.358810 -0.803858 153.536972
endloop
endfacet
facet normal 1.000000 0.000000 0.000000
outer loop
vertex -199.358810 -0.803858 124.598068
vertex -199.358810 13.662291 153.536972
vertex -199.358810 -0.803858 153.536972
endloop
endfacet
endsolid Exported from Blender-2.83.0
