solid Exported from Blender-2.83.0
facet normal -1.000000 0.000000 0.000000
outer loop
vertex -73.948059 66.721199 185.692261
vertex -73.948059 81.189713 192.121094
vertex -73.948059 81.189713 185.692261
endloop
endfacet
facet normal 0.000000 0.000000 1.000000
outer loop
vertex -3.229275 66.721199 192.121094
vertex -3.229275 81.189713 192.121094
vertex -73.948059 81.189713 192.121094
endloop
endfacet
facet normal 0.000000 1.000000 0.000000
outer loop
vertex -3.229275 81.189713 192.121094
vertex -16.085346 81.189713 180.869263
vertex -73.948059 81.189713 192.121094
endloop
endfacet
facet normal 0.000000 0.000000 -1.000000
outer loop
vertex -16.085346 81.189713 180.869263
vertex -16.085346 63.504822 180.869263
vertex -51.441277 81.189713 180.869263
endloop
endfacet
facet normal 0.000000 1.000000 0.000001
outer loop
vertex -73.948059 81.189713 192.121094
vertex -16.085346 81.189713 180.869263
vertex -51.441277 81.189713 180.869263
endloop
endfacet
facet normal 0.000000 0.000000 1.000000
outer loop
vertex -3.229275 66.721199 192.121094
vertex -73.948059 81.189713 192.121094
vertex -73.948059 66.721199 192.121094
endloop
endfacet
facet normal -1.000000 0.000000 0.000000
outer loop
vertex -73.948059 66.721199 192.121094
vertex -73.948059 81.189713 192.121094
vertex -73.948059 66.721199 185.692261
endloop
endfacet
facet normal -0.178903 -0.983867 0.000000
outer loop
vertex -56.259708 63.504822 185.692261
vertex -73.948059 66.721199 192.121094
vertex -73.948059 66.721199 185.692261
endloop
endfacet
facet normal 0.000000 -1.000000 0.000000
outer loop
vertex -16.085346 63.504822 180.869263
vertex -56.259708 63.504822 185.692261
vertex -51.441277 63.504822 180.869263
endloop
endfacet
facet normal 0.000000 0.000000 -1.000000
outer loop
vertex -51.441277 81.189713 180.869263
vertex -16.085346 63.504822 180.869263
vertex -51.441277 63.504822 180.869263
endloop
endfacet
facet normal -0.176111 -0.968519 -0.175944
outer loop
vertex -56.259708 63.504822 185.692261
vertex -73.948059 66.721199 185.692261
vertex -51.441277 63.504822 180.869263
endloop
endfacet
facet normal -0.209534 0.000000 -0.977801
outer loop
vertex -73.948059 66.721199 185.692261
vertex -51.441277 81.189713 180.869263
vertex -51.441277 63.504822 180.869263
endloop
endfacet
facet normal 0.000000 -1.000000 0.000001
outer loop
vertex -56.259708 63.504822 185.692261
vertex -16.085346 63.504822 180.869263
vertex -11.259993 63.504822 192.121094
endloop
endfacet
facet normal -0.048232 -0.940051 0.337605
outer loop
vertex -73.948059 66.721199 192.121094
vertex -56.259708 63.504822 185.692261
vertex -11.259993 63.504822 192.121094
endloop
endfacet
facet normal 0.000000 0.000000 1.000000
outer loop
vertex -3.229275 66.721199 192.121094
vertex -73.948059 66.721199 192.121094
vertex -11.259993 63.504822 192.121094
endloop
endfacet
facet normal 1.000000 0.000000 0.000000
outer loop
vertex -3.229275 81.189713 192.121094
vertex -3.229275 66.721199 192.121094
vertex -3.229275 66.721199 185.692261
endloop
endfacet
facet normal 0.624606 0.317103 -0.713661
outer loop
vertex -16.085346 81.189713 180.869263
vertex -3.229275 81.189713 192.121094
vertex -3.229275 66.721199 185.692261
endloop
endfacet
facet normal 0.351250 0.000000 -0.936282
outer loop
vertex -16.085346 63.504822 180.869263
vertex -16.085346 81.189713 180.869263
vertex -3.229275 66.721199 185.692261
endloop
endfacet
facet normal 0.283602 -0.951198 -0.121622
outer loop
vertex -11.259993 63.504822 192.121094
vertex -16.085346 63.504822 180.869263
vertex -3.229275 66.721199 185.692261
endloop
endfacet
facet normal 0.371797 -0.928314 0.000000
outer loop
vertex -3.229275 66.721199 192.121094
vertex -11.259993 63.504822 192.121094
vertex -3.229275 66.721199 185.692261
endloop
endfacet
facet normal 0.000000 1.000000 0.000000
outer loop
vertex -73.948059 81.189713 192.121094
vertex -51.441277 81.189713 180.869263
vertex -73.948059 81.189713 185.692261
endloop
endfacet
facet normal -0.209533 0.000000 -0.977802
outer loop
vertex -51.441277 81.189713 180.869263
vertex -73.948059 66.721199 185.692261
vertex -73.948059 81.189713 185.692261
endloop
endfacet
endsolid Exported from Blender-2.83.0
