solid Exported from Blender-2.83.0
facet normal 1.000000 0.000000 0.000000
outer loop
vertex 200.964630 66.721199 92.440269
vertex 200.964630 81.189713 63.518044
vertex 200.964630 81.189713 92.440269
endloop
endfacet
facet normal 0.000000 1.000000 0.000000
outer loop
vertex 128.617371 81.189713 63.518044
vertex 186.489517 81.189713 102.090034
vertex 186.489517 81.189713 32.958199
endloop
endfacet
facet normal 0.000000 -1.000000 0.000000
outer loop
vertex 146.307602 63.504822 63.518044
vertex 151.130280 63.504822 32.958199
vertex 186.489517 63.504822 32.958199
endloop
endfacet
facet normal 0.000000 0.000000 -1.000000
outer loop
vertex 151.130280 63.504822 32.958199
vertex 186.489517 81.189713 32.958199
vertex 186.489517 63.504822 32.958199
endloop
endfacet
facet normal 0.216910 -0.976192 0.000000
outer loop
vertex 186.489517 63.504822 32.958199
vertex 200.964630 66.721199 92.440269
vertex 186.489517 63.504822 102.090034
endloop
endfacet
facet normal 0.554687 0.000000 0.832059
outer loop
vertex 200.964630 66.721199 92.440269
vertex 186.489517 81.189713 102.090034
vertex 186.489517 63.504822 102.090034
endloop
endfacet
facet normal 0.000000 -1.000000 0.000000
outer loop
vertex 146.307602 63.504822 63.518044
vertex 186.489517 63.504822 32.958199
vertex 186.489517 63.504822 102.090034
endloop
endfacet
facet normal 0.000000 1.000000 0.000000
outer loop
vertex 186.489517 81.189713 102.090034
vertex 128.617371 81.189713 63.518044
vertex 151.130280 81.189713 102.090034
endloop
endfacet
facet normal 0.000000 0.000000 1.000000
outer loop
vertex 186.489517 63.504822 102.090034
vertex 186.489517 81.189713 102.090034
vertex 151.130280 81.189713 102.090034
endloop
endfacet
facet normal 0.000000 1.000000 0.000000
outer loop
vertex 186.489517 81.189713 32.958199
vertex 186.489517 81.189713 102.090034
vertex 200.964630 81.189713 63.518044
endloop
endfacet
facet normal 0.903745 0.000000 -0.428072
outer loop
vertex 186.489517 63.504822 32.958199
vertex 186.489517 81.189713 32.958199
vertex 200.964630 81.189713 63.518044
endloop
endfacet
facet normal -0.805117 0.000000 -0.593116
outer loop
vertex 151.130280 63.504822 32.958199
vertex 128.617371 81.189713 63.518044
vertex 151.130280 81.189713 32.958199
endloop
endfacet
facet normal 0.000000 1.000000 0.000000
outer loop
vertex 128.617371 81.189713 63.518044
vertex 186.489517 81.189713 32.958199
vertex 151.130280 81.189713 32.958199
endloop
endfacet
facet normal 0.000000 0.000000 -1.000000
outer loop
vertex 186.489517 81.189713 32.958199
vertex 151.130280 63.504822 32.958199
vertex 151.130280 81.189713 32.958199
endloop
endfacet
facet normal -0.149241 -0.988625 0.018660
outer loop
vertex 128.617371 66.721199 92.440269
vertex 146.307602 63.504822 63.518044
vertex 151.130280 63.504822 102.090034
endloop
endfacet
facet normal 0.000000 -1.000000 0.000000
outer loop
vertex 146.307602 63.504822 63.518044
vertex 186.489517 63.504822 102.090034
vertex 151.130280 63.504822 102.090034
endloop
endfacet
facet normal -0.393966 0.000000 0.919125
outer loop
vertex 151.130280 81.189713 102.090034
vertex 128.617371 66.721199 92.440269
vertex 151.130280 63.504822 102.090034
endloop
endfacet
facet normal 0.000000 0.000000 1.000000
outer loop
vertex 186.489517 63.504822 102.090034
vertex 151.130280 81.189713 102.090034
vertex 151.130280 63.504822 102.090034
endloop
endfacet
facet normal -0.178813 -0.983478 -0.028218
outer loop
vertex 151.130280 63.504822 32.958199
vertex 146.307602 63.504822 63.518044
vertex 128.617371 66.721199 63.518044
endloop
endfacet
facet normal -0.805117 0.000000 -0.593116
outer loop
vertex 128.617371 81.189713 63.518044
vertex 151.130280 63.504822 32.958199
vertex 128.617371 66.721199 63.518044
endloop
endfacet
facet normal -0.178884 -0.983870 0.000000
outer loop
vertex 146.307602 63.504822 63.518044
vertex 128.617371 66.721199 92.440269
vertex 128.617371 66.721199 63.518044
endloop
endfacet
facet normal -1.000000 0.000000 0.000000
outer loop
vertex 128.617371 66.721199 92.440269
vertex 128.617371 81.189713 63.518044
vertex 128.617371 66.721199 63.518044
endloop
endfacet
facet normal -1.000000 0.000000 0.000000
outer loop
vertex 128.617371 81.189713 63.518044
vertex 128.617371 66.721199 92.440269
vertex 128.617371 81.189713 92.440269
endloop
endfacet
facet normal -0.393967 0.000000 0.919125
outer loop
vertex 128.617371 66.721199 92.440269
vertex 151.130280 81.189713 102.090034
vertex 128.617371 81.189713 92.440269
endloop
endfacet
facet normal 0.000000 1.000000 0.000000
outer loop
vertex 151.130280 81.189713 102.090034
vertex 128.617371 81.189713 63.518044
vertex 128.617371 81.189713 92.440269
endloop
endfacet
facet normal 0.216911 -0.976191 0.000000
outer loop
vertex 200.964630 66.721199 92.440269
vertex 186.489517 63.504822 32.958199
vertex 200.964630 66.721199 63.518044
endloop
endfacet
facet normal 1.000000 0.000000 0.000000
outer loop
vertex 200.964630 81.189713 63.518044
vertex 200.964630 66.721199 92.440269
vertex 200.964630 66.721199 63.518044
endloop
endfacet
facet normal 0.903745 0.000000 -0.428072
outer loop
vertex 186.489517 63.504822 32.958199
vertex 200.964630 81.189713 63.518044
vertex 200.964630 66.721199 63.518044
endloop
endfacet
facet normal 0.554688 0.000000 0.832058
outer loop
vertex 186.489517 81.189713 102.090034
vertex 200.964630 66.721199 92.440269
vertex 200.964630 81.189713 92.440269
endloop
endfacet
facet normal 0.000000 1.000000 0.000000
outer loop
vertex 200.964630 81.189713 63.518044
vertex 186.489517 81.189713 102.090034
vertex 200.964630 81.189713 92.440269
endloop
endfacet
endsolid Exported from Blender-2.83.0
