solid Exported from Blender-2.83.0
facet normal 0.447196 0.894436 0.000000
outer loop
vertex -139.871384 13.662290 335.198303
vertex -152.740356 20.096462 298.231506
vertex -152.740356 20.096462 356.109314
endloop
endfacet
facet normal 0.000000 -1.000000 0.000000
outer loop
vertex -207.395493 -0.803858 307.885376
vertex -186.489197 -0.803858 298.231506
vertex -139.871384 -0.803858 307.885376
endloop
endfacet
facet normal 0.000000 -1.000000 -0.000000
outer loop
vertex -207.395493 -0.803858 307.885376
vertex -139.871384 -0.803858 307.885376
vertex -186.489197 -0.803858 356.109314
endloop
endfacet
facet normal 0.000000 0.000000 -1.000000
outer loop
vertex -186.489197 -0.803858 298.231506
vertex -184.883057 20.096462 298.231506
vertex -152.740356 20.096462 298.231506
endloop
endfacet
facet normal 0.000000 0.000000 1.000000
outer loop
vertex -151.134216 18.486385 356.109314
vertex -186.489197 -0.803858 356.109314
vertex -151.134216 -0.803858 356.109314
endloop
endfacet
facet normal 0.000000 -1.000000 0.000000
outer loop
vertex -186.489197 -0.803858 356.109314
vertex -139.871384 -0.803858 307.885376
vertex -151.134216 -0.803858 356.109314
endloop
endfacet
facet normal 0.000001 0.000000 1.000000
outer loop
vertex -186.489197 -0.803858 356.109314
vertex -151.134216 18.486385 356.109314
vertex -184.883057 20.096462 356.109314
endloop
endfacet
facet normal -0.274802 0.961501 0.000000
outer loop
vertex -184.883057 20.096462 298.231506
vertex -207.395493 13.662290 335.198303
vertex -184.883057 20.096462 356.109314
endloop
endfacet
facet normal -0.687682 0.052847 0.724086
outer loop
vertex -207.395493 13.662290 335.198303
vertex -186.489197 -0.803858 356.109314
vertex -184.883057 20.096462 356.109314
endloop
endfacet
facet normal 0.000000 1.000000 0.000000
outer loop
vertex -152.740356 20.096462 298.231506
vertex -184.883057 20.096462 298.231506
vertex -184.883057 20.096462 356.109314
endloop
endfacet
facet normal 0.880417 0.000000 0.474200
outer loop
vertex -151.134216 18.486385 356.109314
vertex -151.134216 -0.803858 356.109314
vertex -139.871384 13.662290 335.198303
endloop
endfacet
facet normal -0.419230 0.000000 -0.907880
outer loop
vertex -186.489197 -0.803858 298.231506
vertex -207.395493 -0.803858 307.885376
vertex -207.395493 13.662290 307.885376
endloop
endfacet
facet normal -0.401360 0.030843 -0.915401
outer loop
vertex -184.883057 20.096462 298.231506
vertex -186.489197 -0.803858 298.231506
vertex -207.395493 13.662290 307.885376
endloop
endfacet
facet normal -1.000000 0.000000 0.000000
outer loop
vertex -207.395493 -0.803858 307.885376
vertex -207.395493 13.662290 335.198303
vertex -207.395493 13.662290 307.885376
endloop
endfacet
facet normal -0.274802 0.961501 0.000000
outer loop
vertex -207.395493 13.662290 335.198303
vertex -184.883057 20.096462 298.231506
vertex -207.395493 13.662290 307.885376
endloop
endfacet
facet normal 0.000000 -1.000000 0.000000
outer loop
vertex -207.395493 -0.803858 307.885376
vertex -186.489197 -0.803858 356.109314
vertex -207.395493 -0.803858 335.198303
endloop
endfacet
facet normal -1.000000 0.000000 0.000000
outer loop
vertex -207.395493 13.662290 335.198303
vertex -207.395493 -0.803858 307.885376
vertex -207.395493 -0.803858 335.198303
endloop
endfacet
facet normal -0.707187 0.000000 0.707027
outer loop
vertex -186.489197 -0.803858 356.109314
vertex -207.395493 13.662290 335.198303
vertex -207.395493 -0.803858 335.198303
endloop
endfacet
facet normal 0.000000 -1.000000 0.000000
outer loop
vertex -139.871384 -0.803858 307.885376
vertex -186.489197 -0.803858 298.231506
vertex -151.134216 -0.803858 298.231506
endloop
endfacet
facet normal 0.000000 0.000000 -1.000000
outer loop
vertex -186.489197 -0.803858 298.231506
vertex -152.740356 20.096462 298.231506
vertex -151.134216 -0.803858 298.231506
endloop
endfacet
facet normal 0.614415 0.047216 -0.787569
outer loop
vertex -151.134216 -0.803858 298.231506
vertex -152.740356 20.096462 298.231506
vertex -139.871384 13.662290 307.885376
endloop
endfacet
facet normal 0.447196 0.894436 0.000000
outer loop
vertex -152.740356 20.096462 298.231506
vertex -139.871384 13.662290 335.198303
vertex -139.871384 13.662290 307.885376
endloop
endfacet
facet normal 1.000000 0.000000 0.000000
outer loop
vertex -139.871384 13.662290 335.198303
vertex -139.871384 -0.803858 307.885376
vertex -139.871384 13.662290 307.885376
endloop
endfacet
facet normal 0.650792 0.000000 -0.759256
outer loop
vertex -139.871384 -0.803858 307.885376
vertex -151.134216 -0.803858 298.231506
vertex -139.871384 13.662290 307.885376
endloop
endfacet
facet normal 0.000000 -1.000000 0.000000
outer loop
vertex -151.134216 -0.803858 356.109314
vertex -139.871384 -0.803858 307.885376
vertex -139.871384 -0.803858 335.198303
endloop
endfacet
facet normal 1.000000 0.000000 0.000000
outer loop
vertex -139.871384 -0.803858 307.885376
vertex -139.871384 13.662290 335.198303
vertex -139.871384 -0.803858 335.198303
endloop
endfacet
facet normal 0.880417 0.000000 0.474199
outer loop
vertex -139.871384 13.662290 335.198303
vertex -151.134216 -0.803858 356.109314
vertex -139.871384 -0.803858 335.198303
endloop
endfacet
facet normal 0.000000 0.000000 1.000000
outer loop
vertex -184.883057 20.096462 356.109314
vertex -151.134216 18.486385 356.109314
vertex -152.740356 20.096462 356.109314
endloop
endfacet
facet normal 0.000000 1.000000 0.000000
outer loop
vertex -152.740356 20.096462 298.231506
vertex -184.883057 20.096462 356.109314
vertex -152.740356 20.096462 356.109314
endloop
endfacet
facet normal 0.691671 0.689976 0.213363
outer loop
vertex -151.134216 18.486385 356.109314
vertex -139.871384 13.662290 335.198303
vertex -152.740356 20.096462 356.109314
endloop
endfacet
endsolid Exported from Blender-2.83.0
