solid Exported from Blender-2.83.0
facet normal -1.000000 0.000000 0.000000
outer loop
vertex 217.041809 81.189713 401.125366
vertex 217.041809 61.893803 192.142639
vertex 217.041809 61.893803 401.125366
endloop
endfacet
facet normal -0.851506 -0.524345 0.000000
outer loop
vertex 217.041809 61.893803 192.142639
vertex 229.907471 41.000717 192.142639
vertex 229.907471 41.000717 401.125366
endloop
endfacet
facet normal 0.000000 0.000000 1.000000
outer loop
vertex 229.907471 41.000717 401.125366
vertex 250.803864 81.189713 401.125366
vertex 217.041809 81.189713 401.125366
endloop
endfacet
facet normal -0.000001 0.000000 -1.000000
outer loop
vertex 229.907471 41.000717 192.142639
vertex 217.041809 61.893803 192.142639
vertex 250.803864 81.189713 192.142639
endloop
endfacet
facet normal 0.000000 1.000000 0.000000
outer loop
vertex 217.041809 81.189713 401.125366
vertex 250.803864 81.189713 401.125366
vertex 250.803864 81.189713 192.142639
endloop
endfacet
facet normal 1.000000 0.000000 0.000000
outer loop
vertex 250.803864 81.189713 192.142639
vertex 250.803864 81.189713 401.125366
vertex 250.803864 41.000717 401.125366
endloop
endfacet
facet normal 0.000000 -1.000000 0.000000
outer loop
vertex 229.907471 41.000717 401.125366
vertex 229.907471 41.000717 192.142639
vertex 250.803864 41.000717 401.125366
endloop
endfacet
facet normal 0.000000 0.000000 1.000000
outer loop
vertex 250.803864 81.189713 401.125366
vertex 229.907471 41.000717 401.125366
vertex 250.803864 41.000717 401.125366
endloop
endfacet
facet normal 0.000000 0.000000 -1.000000
outer loop
vertex 229.907471 41.000717 192.142639
vertex 250.803864 81.189713 192.142639
vertex 250.803864 41.000717 192.142639
endloop
endfacet
facet normal 1.000000 0.000000 0.000000
outer loop
vertex 250.803864 81.189713 192.142639
vertex 250.803864 41.000717 401.125366
vertex 250.803864 41.000717 192.142639
endloop
endfacet
facet normal 0.000000 -1.000000 0.000000
outer loop
vertex 250.803864 41.000717 401.125366
vertex 229.907471 41.000717 192.142639
vertex 250.803864 41.000717 192.142639
endloop
endfacet
facet normal -1.000000 0.000000 0.000000
outer loop
vertex 217.041809 61.893803 192.142639
vertex 217.041809 81.189713 401.125366
vertex 217.041809 81.189713 192.142639
endloop
endfacet
facet normal 0.000000 0.000000 -1.000000
outer loop
vertex 250.803864 81.189713 192.142639
vertex 217.041809 61.893803 192.142639
vertex 217.041809 81.189713 192.142639
endloop
endfacet
facet normal 0.000000 1.000000 0.000000
outer loop
vertex 217.041809 81.189713 401.125366
vertex 250.803864 81.189713 192.142639
vertex 217.041809 81.189713 192.142639
endloop
endfacet
facet normal -0.851506 -0.524345 0.000000
outer loop
vertex 217.041809 61.893803 192.142639
vertex 229.907471 41.000717 401.125366
vertex 217.041809 61.893803 401.125366
endloop
endfacet
facet normal 0.000000 0.000000 1.000000
outer loop
vertex 229.907471 41.000717 401.125366
vertex 217.041809 81.189713 401.125366
vertex 217.041809 61.893803 401.125366
endloop
endfacet
endsolid Exported from Blender-2.83.0
