solid Exported from Blender-2.83.0
facet normal 0.648043 0.648930 0.398660
outer loop
vertex 51.441124 18.486385 113.344055
vertex 69.131836 13.662290 92.439484
vertex 49.828846 20.096462 113.344055
endloop
endfacet
facet normal 0.000000 -1.000000 0.000000
outer loop
vertex -6.423475 -0.803858 92.439484
vertex -6.423475 -0.803858 63.504822
vertex 69.131836 -0.803858 63.504822
endloop
endfacet
facet normal 0.000000 0.000000 -1.000000
outer loop
vertex 69.131836 -0.803858 63.504822
vertex -6.423475 -0.803858 63.504822
vertex 17.694172 20.096462 63.504822
endloop
endfacet
facet normal 0.000000 -1.000000 0.000000
outer loop
vertex -6.423475 -0.803858 92.439484
vertex 69.131836 -0.803858 63.504822
vertex 51.441124 -0.803858 113.344055
endloop
endfacet
facet normal 0.000000 0.000000 1.000000
outer loop
vertex 51.441124 -0.803858 113.344055
vertex 51.441124 18.486385 113.344055
vertex 17.694172 20.096462 113.344055
endloop
endfacet
facet normal -0.000000 0.000000 -1.000000
outer loop
vertex 69.131836 -0.803858 63.504822
vertex 17.694172 20.096462 63.504822
vertex 69.131836 13.662290 63.504822
endloop
endfacet
facet normal -1.000000 0.000000 0.000000
outer loop
vertex -6.423475 -0.803858 63.504822
vertex -6.423475 -0.803858 92.439484
vertex -6.423475 13.662290 92.439484
endloop
endfacet
facet normal -0.257767 0.966207 0.000000
outer loop
vertex 17.694172 20.096462 113.344055
vertex 17.694172 20.096462 63.504822
vertex -6.423475 13.662290 92.439484
endloop
endfacet
facet normal 0.763346 0.000000 0.645990
outer loop
vertex 51.441124 18.486385 113.344055
vertex 51.441124 -0.803858 113.344055
vertex 69.131836 -0.803858 92.439484
endloop
endfacet
facet normal 0.000000 -1.000000 0.000000
outer loop
vertex 51.441124 -0.803858 113.344055
vertex 69.131836 -0.803858 63.504822
vertex 69.131836 -0.803858 92.439484
endloop
endfacet
facet normal 1.000000 0.000000 0.000000
outer loop
vertex 69.131836 -0.803858 63.504822
vertex 69.131836 13.662290 63.504822
vertex 69.131836 -0.803858 92.439484
endloop
endfacet
facet normal 0.000000 -1.000000 0.000000
outer loop
vertex -6.423475 -0.803858 92.439484
vertex 51.441124 -0.803858 113.344055
vertex 16.089287 -0.803858 113.344055
endloop
endfacet
facet normal 0.000000 0.000000 1.000000
outer loop
vertex 51.441124 -0.803858 113.344055
vertex 17.694172 20.096462 113.344055
vertex 16.089287 -0.803858 113.344055
endloop
endfacet
facet normal -0.680449 0.000000 0.732796
outer loop
vertex -6.423475 13.662290 92.439484
vertex -6.423475 -0.803858 92.439484
vertex 16.089287 -0.803858 113.344055
endloop
endfacet
facet normal -0.661838 0.050821 0.747922
outer loop
vertex 17.694172 20.096462 113.344055
vertex -6.423475 13.662290 92.439484
vertex 16.089287 -0.803858 113.344055
endloop
endfacet
facet normal 0.000000 1.000000 0.000000
outer loop
vertex 17.694172 20.096462 63.504822
vertex 17.694172 20.096462 113.344055
vertex 49.828846 20.096462 63.504822
endloop
endfacet
facet normal 0.000000 0.000000 -1.000000
outer loop
vertex 69.131836 13.662290 63.504822
vertex 17.694172 20.096462 63.504822
vertex 49.828846 20.096462 63.504822
endloop
endfacet
facet normal 0.000000 0.000000 -1.000000
outer loop
vertex 17.694172 20.096462 63.504822
vertex -6.423475 -0.803858 63.504822
vertex -6.423475 13.662290 63.504822
endloop
endfacet
facet normal -1.000000 0.000000 0.000000
outer loop
vertex -6.423475 -0.803858 63.504822
vertex -6.423475 13.662290 92.439484
vertex -6.423475 13.662290 63.504822
endloop
endfacet
facet normal -0.257767 0.966207 0.000000
outer loop
vertex -6.423475 13.662290 92.439484
vertex 17.694172 20.096462 63.504822
vertex -6.423475 13.662290 63.504822
endloop
endfacet
facet normal 0.763346 0.000000 0.645990
outer loop
vertex 51.441124 18.486385 113.344055
vertex 69.131836 -0.803858 92.439484
vertex 69.131836 13.662290 92.439484
endloop
endfacet
facet normal 1.000000 0.000000 0.000000
outer loop
vertex 69.131836 -0.803858 92.439484
vertex 69.131836 13.662290 63.504822
vertex 69.131836 13.662290 92.439484
endloop
endfacet
facet normal 0.316221 0.948686 0.000000
outer loop
vertex 69.131836 13.662290 63.504822
vertex 49.828846 20.096462 63.504822
vertex 69.131836 13.662290 92.439484
endloop
endfacet
facet normal 0.316221 0.948686 0.000000
outer loop
vertex 69.131836 13.662290 92.439484
vertex 49.828846 20.096462 63.504822
vertex 49.828846 20.096462 113.344055
endloop
endfacet
facet normal 0.000000 0.000000 1.000000
outer loop
vertex 17.694172 20.096462 113.344055
vertex 51.441124 18.486385 113.344055
vertex 49.828846 20.096462 113.344055
endloop
endfacet
facet normal 0.000000 1.000000 0.000000
outer loop
vertex 49.828846 20.096462 63.504822
vertex 17.694172 20.096462 113.344055
vertex 49.828846 20.096462 113.344055
endloop
endfacet
endsolid Exported from Blender-2.83.0
