solid Exported from Blender-2.83.0
facet normal 0.752608 0.000000 -0.658468
outer loop
vertex -16.079372 -0.803858 356.109314
vertex -4.823151 13.662290 368.974854
vertex -4.823151 -0.803858 368.974854
endloop
endfacet
facet normal 0.000000 -1.000000 0.000000
outer loop
vertex -72.347267 -0.803858 368.974854
vertex -51.434357 -0.803858 356.109314
vertex -4.823151 -0.803858 401.116608
endloop
endfacet
facet normal -0.000001 0.000000 1.000000
outer loop
vertex -4.823151 -0.803858 401.116608
vertex -17.685516 20.096462 401.116608
vertex -72.347267 13.662290 401.116608
endloop
endfacet
facet normal 0.000000 1.000000 0.000000
outer loop
vertex -17.685516 20.096462 401.116608
vertex -17.685516 20.096462 356.109314
vertex -49.834824 20.096462 356.109314
endloop
endfacet
facet normal 0.000000 0.000000 -1.000000
outer loop
vertex -17.685516 20.096462 356.109314
vertex -51.434357 -0.803858 356.109314
vertex -49.834824 20.096462 356.109314
endloop
endfacet
facet normal 0.000000 -1.000000 0.000000
outer loop
vertex -4.823151 -0.803858 401.116608
vertex -51.434357 -0.803858 356.109314
vertex -16.079372 -0.803858 356.109314
endloop
endfacet
facet normal 0.000000 0.000000 -1.000000
outer loop
vertex -51.434357 -0.803858 356.109314
vertex -17.685516 20.096462 356.109314
vertex -16.079372 -0.803858 356.109314
endloop
endfacet
facet normal 0.000000 -1.000000 0.000000
outer loop
vertex -72.347267 -0.803858 368.974854
vertex -4.823151 -0.803858 401.116608
vertex -72.347267 -0.803858 401.116608
endloop
endfacet
facet normal -1.000000 0.000000 0.000000
outer loop
vertex -72.347267 13.662290 401.116608
vertex -72.347267 -0.803858 368.974854
vertex -72.347267 -0.803858 401.116608
endloop
endfacet
facet normal 0.000000 0.000000 1.000000
outer loop
vertex -4.823151 -0.803858 401.116608
vertex -72.347267 13.662290 401.116608
vertex -72.347267 -0.803858 401.116608
endloop
endfacet
facet normal 0.447380 0.894344 0.000000
outer loop
vertex -17.685516 20.096462 356.109314
vertex -17.685516 20.096462 401.116608
vertex -4.823151 13.662290 368.974854
endloop
endfacet
facet normal 0.719808 0.055316 -0.691966
outer loop
vertex -16.079372 -0.803858 356.109314
vertex -17.685516 20.096462 356.109314
vertex -4.823151 13.662290 368.974854
endloop
endfacet
facet normal -0.523980 0.000000 -0.851731
outer loop
vertex -51.434357 -0.803858 356.109314
vertex -72.347267 -0.803858 368.974854
vertex -72.347267 13.662290 368.974854
endloop
endfacet
facet normal -1.000000 0.000000 0.000000
outer loop
vertex -72.347267 -0.803858 368.974854
vertex -72.347267 13.662290 401.116608
vertex -72.347267 13.662290 368.974854
endloop
endfacet
facet normal -0.504095 0.038579 -0.862786
outer loop
vertex -49.834824 20.096462 356.109314
vertex -51.434357 -0.803858 356.109314
vertex -72.347267 13.662290 368.974854
endloop
endfacet
facet normal -0.274802 0.961501 0.000000
outer loop
vertex -72.347267 13.662290 401.116608
vertex -49.834824 20.096462 356.109314
vertex -72.347267 13.662290 368.974854
endloop
endfacet
facet normal 0.000000 0.000000 1.000000
outer loop
vertex -72.347267 13.662290 401.116608
vertex -17.685516 20.096462 401.116608
vertex -49.834824 20.096462 401.116608
endloop
endfacet
facet normal 0.000000 1.000000 0.000000
outer loop
vertex -17.685516 20.096462 401.116608
vertex -49.834824 20.096462 356.109314
vertex -49.834824 20.096462 401.116608
endloop
endfacet
facet normal -0.274802 0.961501 0.000000
outer loop
vertex -49.834824 20.096462 356.109314
vertex -72.347267 13.662290 401.116608
vertex -49.834824 20.096462 401.116608
endloop
endfacet
facet normal 0.000005 0.000000 1.000000
outer loop
vertex -17.685516 20.096462 401.116608
vertex -4.823151 -0.803858 401.116608
vertex -4.823151 13.662290 401.116608
endloop
endfacet
facet normal 0.447380 0.894344 0.000000
outer loop
vertex -4.823151 13.662290 368.974854
vertex -17.685516 20.096462 401.116608
vertex -4.823151 13.662290 401.116608
endloop
endfacet
facet normal 1.000000 0.000000 0.000000
outer loop
vertex -4.823151 -0.803858 401.116608
vertex -4.823151 13.662290 368.974854
vertex -4.823151 13.662290 401.116608
endloop
endfacet
facet normal 0.000000 -1.000000 0.000000
outer loop
vertex -4.823151 -0.803858 401.116608
vertex -16.079372 -0.803858 356.109314
vertex -4.823151 -0.803858 368.974854
endloop
endfacet
facet normal 1.000000 0.000000 0.000000
outer loop
vertex -4.823151 13.662290 368.974854
vertex -4.823151 -0.803858 401.116608
vertex -4.823151 -0.803858 368.974854
endloop
endfacet
endsolid Exported from Blender-2.83.0
