solid Exported from Blender-2.83.0
facet normal -1.000000 0.000000 0.000000
outer loop
vertex 149.521454 61.894424 192.122192
vertex 149.521454 63.504818 192.122192
vertex 149.521454 61.894424 63.510326
endloop
endfacet
facet normal 0.000000 0.000000 1.000000
outer loop
vertex 188.099121 61.894424 192.122192
vertex 188.099121 63.504818 192.122192
vertex 149.521454 63.504818 192.122192
endloop
endfacet
facet normal 0.000000 0.000000 1.000000
outer loop
vertex 188.099121 61.894424 192.122192
vertex 149.521454 63.504818 192.122192
vertex 162.383194 41.001186 192.122192
endloop
endfacet
facet normal 0.000000 0.000000 -1.000000
outer loop
vertex 175.237381 41.001186 32.958191
vertex 151.130112 60.286236 32.958191
vertex 186.490463 63.504818 32.958191
endloop
endfacet
facet normal 0.000000 1.000000 0.000000
outer loop
vertex 149.521454 63.504818 192.122192
vertex 188.099121 63.504818 192.122192
vertex 186.490463 63.504818 32.958191
endloop
endfacet
facet normal 0.000000 0.000000 1.000000
outer loop
vertex 188.099121 61.894424 192.122192
vertex 162.383194 41.001186 192.122192
vertex 175.237381 41.001186 192.122192
endloop
endfacet
facet normal 0.851579 -0.524226 0.000000
outer loop
vertex 175.237381 41.001186 32.958191
vertex 188.099121 61.894424 192.122192
vertex 175.237381 41.001186 192.122192
endloop
endfacet
facet normal 0.000000 -1.000000 0.000000
outer loop
vertex 162.383194 41.001186 192.122192
vertex 175.237381 41.001186 32.958191
vertex 175.237381 41.001186 192.122192
endloop
endfacet
facet normal 0.000000 -1.000000 0.000000
outer loop
vertex 175.237381 41.001186 32.958191
vertex 162.383194 41.001186 192.122192
vertex 162.383194 41.001186 32.958191
endloop
endfacet
facet normal 0.000000 0.000000 -1.000000
outer loop
vertex 151.130112 60.286236 32.958191
vertex 175.237381 41.001186 32.958191
vertex 162.383194 41.001186 32.958191
endloop
endfacet
facet normal 0.000000 0.000000 -1.000000
outer loop
vertex 186.490463 63.504818 32.958191
vertex 151.130112 60.286236 32.958191
vertex 151.130112 63.504818 32.958191
endloop
endfacet
facet normal 0.000000 1.000000 0.000000
outer loop
vertex 149.521454 63.504818 192.122192
vertex 186.490463 63.504818 32.958191
vertex 151.130112 63.504818 32.958191
endloop
endfacet
facet normal 1.000000 0.000000 0.000000
outer loop
vertex 188.099121 63.504818 192.122192
vertex 188.099121 61.894424 192.122192
vertex 188.099121 61.894424 63.510326
endloop
endfacet
facet normal 0.851579 -0.524226 0.000000
outer loop
vertex 188.099121 61.894424 192.122192
vertex 175.237381 41.001186 32.958191
vertex 188.099121 61.894424 63.510326
endloop
endfacet
facet normal 0.892182 -0.446142 -0.070492
outer loop
vertex 175.237381 41.001186 32.958191
vertex 186.490463 63.504818 32.958191
vertex 188.099121 61.894424 63.510326
endloop
endfacet
facet normal 0.778122 0.628064 -0.007864
outer loop
vertex 186.490463 63.504818 32.958191
vertex 188.099121 63.504818 192.122192
vertex 188.099121 61.894424 63.510326
endloop
endfacet
facet normal -0.000024 0.000000 1.000000
outer loop
vertex 162.383194 41.001186 192.122192
vertex 149.521454 63.504818 192.122192
vertex 149.521454 61.894424 192.122192
endloop
endfacet
facet normal -0.851580 -0.524226 0.000000
outer loop
vertex 162.383194 41.001186 32.958191
vertex 162.383194 41.001186 192.122192
vertex 149.521454 61.894424 192.122192
endloop
endfacet
facet normal -0.851578 -0.524227 0.000000
outer loop
vertex 162.383194 41.001186 32.958191
vertex 149.521454 61.894424 192.122192
vertex 149.521454 61.894424 63.510326
endloop
endfacet
facet normal -0.863556 -0.503897 -0.018945
outer loop
vertex 151.130112 60.286236 32.958191
vertex 162.383194 41.001186 32.958191
vertex 149.521454 61.894424 63.510326
endloop
endfacet
facet normal -0.998617 0.000000 -0.052580
outer loop
vertex 151.130112 63.504818 32.958191
vertex 151.130112 60.286236 32.958191
vertex 149.521454 61.894424 63.510326
endloop
endfacet
facet normal -0.778117 0.628071 -0.007864
outer loop
vertex 149.521454 63.504818 192.122192
vertex 151.130112 63.504818 32.958191
vertex 149.521454 61.894424 63.510326
endloop
endfacet
endsolid Exported from Blender-2.83.0
