solid Exported from Blender-2.83.0
facet normal 0.000003 0.000000 -1.000000
outer loop
vertex 120.567131 61.898994 192.126740
vertex 131.832794 81.187820 192.126740
vertex 131.832794 66.723564 192.126740
endloop
endfacet
facet normal 0.000000 1.000000 -0.000000
outer loop
vertex 65.916397 81.187820 192.126740
vertex 118.960510 81.187820 238.745972
vertex 131.832794 81.187820 192.126740
endloop
endfacet
facet normal 0.000000 0.000000 -1.000000
outer loop
vertex 65.916397 66.723564 192.126740
vertex 65.916397 81.187820 192.126740
vertex 131.832794 81.187820 192.126740
endloop
endfacet
facet normal -0.000000 0.000000 -1.000000
outer loop
vertex 65.916397 66.723564 192.126740
vertex 131.832794 81.187820 192.126740
vertex 120.567131 61.898994 192.126740
endloop
endfacet
facet normal 0.000000 0.000000 1.000000
outer loop
vertex 83.608521 61.898994 238.745972
vertex 118.960510 81.187820 238.745972
vertex 83.608521 81.187820 238.745972
endloop
endfacet
facet normal 0.000000 1.000000 0.000000
outer loop
vertex 118.960510 81.187820 238.745972
vertex 65.916397 81.187820 192.126740
vertex 83.608521 81.187820 238.745972
endloop
endfacet
facet normal 0.894249 0.000000 0.447569
outer loop
vertex 131.832794 66.723564 213.026901
vertex 118.960510 81.187820 238.745972
vertex 118.960510 61.898994 238.745972
endloop
endfacet
facet normal 0.000000 0.000000 1.000000
outer loop
vertex 118.960510 81.187820 238.745972
vertex 83.608521 61.898994 238.745972
vertex 118.960510 61.898994 238.745972
endloop
endfacet
facet normal 0.373374 -0.927592 0.012868
outer loop
vertex 120.567131 61.898994 192.126740
vertex 131.832794 66.723564 213.026901
vertex 118.960510 61.898994 238.745972
endloop
endfacet
facet normal 0.000000 -1.000000 -0.000000
outer loop
vertex 83.608521 61.898994 238.745972
vertex 120.567131 61.898994 192.126740
vertex 118.960510 61.898994 238.745972
endloop
endfacet
facet normal -1.000000 0.000000 0.000000
outer loop
vertex 65.916397 81.187820 192.126740
vertex 65.916397 66.723564 192.126740
vertex 65.916397 81.187820 213.026901
endloop
endfacet
facet normal 0.000000 1.000000 0.000000
outer loop
vertex 83.608521 81.187820 238.745972
vertex 65.916397 81.187820 192.126740
vertex 65.916397 81.187820 213.026901
endloop
endfacet
facet normal -0.823888 0.000000 0.566752
outer loop
vertex 83.608521 61.898994 238.745972
vertex 83.608521 81.187820 238.745972
vertex 65.916397 81.187820 213.026901
endloop
endfacet
facet normal 0.000000 0.000000 -1.000000
outer loop
vertex 65.916397 66.723564 192.126740
vertex 120.567131 61.898994 192.126740
vertex 81.995453 61.898994 192.126740
endloop
endfacet
facet normal 0.000000 -1.000000 0.000000
outer loop
vertex 120.567131 61.898994 192.126740
vertex 83.608521 61.898994 238.745972
vertex 81.995453 61.898994 192.126740
endloop
endfacet
facet normal -1.000000 0.000000 0.000000
outer loop
vertex 65.916397 81.187820 213.026901
vertex 65.916397 66.723564 192.126740
vertex 65.916397 66.723564 213.026901
endloop
endfacet
facet normal -0.823889 0.000000 0.566752
outer loop
vertex 83.608521 61.898994 238.745972
vertex 65.916397 81.187820 213.026901
vertex 65.916397 66.723564 213.026901
endloop
endfacet
facet normal -0.287394 -0.957812 0.000000
outer loop
vertex 65.916397 66.723564 192.126740
vertex 81.995453 61.898994 192.126740
vertex 65.916397 66.723564 213.026901
endloop
endfacet
facet normal -0.275975 -0.961118 0.009549
outer loop
vertex 81.995453 61.898994 192.126740
vertex 83.608521 61.898994 238.745972
vertex 65.916397 66.723564 213.026901
endloop
endfacet
facet normal 0.894250 0.000000 0.447568
outer loop
vertex 118.960510 81.187820 238.745972
vertex 131.832794 66.723564 213.026901
vertex 131.832794 81.187820 213.026901
endloop
endfacet
facet normal 0.000000 1.000000 0.000000
outer loop
vertex 131.832794 81.187820 192.126740
vertex 118.960510 81.187820 238.745972
vertex 131.832794 81.187820 213.026901
endloop
endfacet
facet normal 1.000000 0.000000 0.000000
outer loop
vertex 131.832794 66.723564 213.026901
vertex 131.832794 81.187820 192.126740
vertex 131.832794 81.187820 213.026901
endloop
endfacet
facet normal 1.000000 0.000000 0.000000
outer loop
vertex 131.832794 81.187820 192.126740
vertex 131.832794 66.723564 213.026901
vertex 131.832794 66.723564 192.126740
endloop
endfacet
facet normal 0.393673 -0.919251 0.000000
outer loop
vertex 131.832794 66.723564 213.026901
vertex 120.567131 61.898994 192.126740
vertex 131.832794 66.723564 192.126740
endloop
endfacet
endsolid Exported from Blender-2.83.0
