solid Exported from Blender-2.83.0
facet normal 0.000000 0.000000 1.000000
outer loop
vertex -27.347549 40.992691 31.350483
vertex -6.443138 -0.799767 31.350483
vertex -6.443138 13.669685 31.350483
endloop
endfacet
facet normal 1.000000 0.000000 0.000000
outer loop
vertex -6.443138 40.992691 -0.803860
vertex -6.443138 40.992691 20.095203
vertex -6.443138 -0.799767 -0.803860
endloop
endfacet
facet normal 0.000000 1.000000 0.000000
outer loop
vertex -6.443138 40.992691 20.095203
vertex -6.443138 40.992691 -0.803860
vertex -131.832794 40.992691 -0.803860
endloop
endfacet
facet normal 0.000000 0.000000 -1.000000
outer loop
vertex -6.443138 40.992691 -0.803860
vertex -6.443138 -0.799767 -0.803860
vertex -131.832794 40.992691 -0.803860
endloop
endfacet
facet normal 1.000000 0.000000 0.000000
outer loop
vertex -6.443138 -0.799767 -0.803860
vertex -6.443138 40.992691 20.095203
vertex -6.443138 -0.799767 31.350483
endloop
endfacet
facet normal 0.000000 -1.000000 0.000000
outer loop
vertex -131.832794 -0.799767 31.350483
vertex -6.443138 -0.799767 -0.803860
vertex -6.443138 -0.799767 31.350483
endloop
endfacet
facet normal 0.000000 1.000000 0.000000
outer loop
vertex -6.443138 40.992691 20.095203
vertex -131.832794 40.992691 -0.803860
vertex -107.700043 40.992691 31.350483
endloop
endfacet
facet normal 0.000000 0.000000 1.000000
outer loop
vertex -131.832794 -0.799767 31.350483
vertex -6.443138 -0.799767 31.350483
vertex -107.700043 40.992691 31.350483
endloop
endfacet
facet normal 0.000000 -1.000000 0.000000
outer loop
vertex -6.443138 -0.799767 -0.803860
vertex -131.832794 -0.799767 31.350483
vertex -131.832794 -0.799767 -0.803860
endloop
endfacet
facet normal -1.000000 0.000000 0.000000
outer loop
vertex -131.832794 -0.799767 31.350483
vertex -131.832794 40.992691 -0.803860
vertex -131.832794 -0.799767 -0.803860
endloop
endfacet
facet normal 0.000000 0.000000 -1.000000
outer loop
vertex -131.832794 40.992691 -0.803860
vertex -6.443138 -0.799767 -0.803860
vertex -131.832794 -0.799767 -0.803860
endloop
endfacet
facet normal 0.000000 1.000000 -0.000001
outer loop
vertex -6.443138 40.992691 20.095203
vertex -107.700043 40.992691 31.350483
vertex -27.347549 40.992691 31.350483
endloop
endfacet
facet normal 0.000000 0.000000 1.000000
outer loop
vertex -107.700043 40.992691 31.350483
vertex -6.443138 -0.799767 31.350483
vertex -27.347549 40.992691 31.350483
endloop
endfacet
facet normal -1.000000 0.000001 0.000000
outer loop
vertex -131.832794 40.992691 -0.803860
vertex -131.832794 -0.799767 31.350483
vertex -131.832794 40.992691 20.095203
endloop
endfacet
facet normal 0.000000 1.000000 0.000000
outer loop
vertex -107.700043 40.992691 31.350483
vertex -131.832794 40.992691 -0.803860
vertex -131.832794 40.992691 20.095203
endloop
endfacet
facet normal -0.395985 0.349749 0.849042
outer loop
vertex -107.700043 40.992691 31.350483
vertex -131.832794 40.992691 20.095203
vertex -131.832794 13.669685 31.350483
endloop
endfacet
facet normal -0.000000 0.000000 1.000000
outer loop
vertex -131.832794 -0.799767 31.350483
vertex -107.700043 40.992691 31.350483
vertex -131.832794 13.669685 31.350483
endloop
endfacet
facet normal -1.000000 0.000000 0.000000
outer loop
vertex -131.832794 40.992691 20.095203
vertex -131.832794 -0.799767 31.350483
vertex -131.832794 13.669685 31.350483
endloop
endfacet
facet normal 1.000000 0.000000 0.000000
outer loop
vertex -6.443138 -0.799767 31.350483
vertex -6.443138 40.992691 20.095203
vertex -6.443138 13.669685 31.350483
endloop
endfacet
facet normal 0.445660 0.340968 0.827724
outer loop
vertex -6.443138 40.992691 20.095203
vertex -27.347549 40.992691 31.350483
vertex -6.443138 13.669685 31.350483
endloop
endfacet
endsolid Exported from Blender-2.83.0
