solid Exported from Blender-2.83.0
facet normal 0.316281 0.948666 0.000000
outer loop
vertex -85.221443 20.096462 225.879684
vertex -65.916397 13.660244 192.122162
vertex -65.916397 13.660244 185.696503
endloop
endfacet
facet normal -0.446685 0.034189 -0.894038
outer loop
vertex -118.960030 -0.803858 179.266281
vertex -131.830063 -0.803858 185.696503
vertex -117.360321 20.096462 179.266281
endloop
endfacet
facet normal 0.000000 -1.000000 0.000000
outer loop
vertex -131.830063 -0.803858 185.696503
vertex -118.960030 -0.803858 179.266281
vertex -65.916397 -0.803858 185.696503
endloop
endfacet
facet normal 0.000000 -1.000000 -0.000000
outer loop
vertex -131.830063 -0.803858 185.696503
vertex -65.916397 -0.803858 185.696503
vertex -118.960030 -0.803858 225.879684
endloop
endfacet
facet normal 0.000000 0.000000 -1.000000
outer loop
vertex -118.960030 -0.803858 179.266281
vertex -117.360321 20.096462 179.266281
vertex -85.228683 20.096462 179.266281
endloop
endfacet
facet normal 0.000000 0.000000 1.000000
outer loop
vertex -83.614494 18.486385 225.879684
vertex -118.960030 -0.803858 225.879684
vertex -83.614494 -0.803858 225.879684
endloop
endfacet
facet normal 0.000000 -1.000000 0.000000
outer loop
vertex -118.960030 -0.803858 225.879684
vertex -65.916397 -0.803858 185.696503
vertex -83.614494 -0.803858 225.879684
endloop
endfacet
facet normal -0.000000 0.000000 1.000000
outer loop
vertex -118.960030 -0.803858 225.879684
vertex -83.614494 18.486385 225.879684
vertex -117.353081 20.096462 225.879684
endloop
endfacet
facet normal -0.274914 0.961469 0.000043
outer loop
vertex -117.360321 20.096462 179.266281
vertex -139.864777 13.660244 213.014679
vertex -117.353081 20.096462 225.879684
endloop
endfacet
facet normal -0.504131 0.038761 0.862757
outer loop
vertex -139.864777 13.660244 213.014679
vertex -118.960030 -0.803858 225.879684
vertex -117.353081 20.096462 225.879684
endloop
endfacet
facet normal 0.000000 1.000000 0.000000
outer loop
vertex -85.228683 20.096462 179.266281
vertex -117.360321 20.096462 179.266281
vertex -117.353081 20.096462 225.879684
endloop
endfacet
facet normal 0.000000 -1.000000 0.000000
outer loop
vertex -131.830063 -0.803858 185.696503
vertex -118.960030 -0.803858 225.879684
vertex -139.864777 -0.803858 213.014679
endloop
endfacet
facet normal -0.524113 0.000000 0.851649
outer loop
vertex -118.960030 -0.803858 225.879684
vertex -139.864777 13.660244 213.014679
vertex -139.864777 -0.803858 213.014679
endloop
endfacet
facet normal -1.000000 0.000000 0.000000
outer loop
vertex -139.864777 -0.803858 213.014679
vertex -139.864777 13.660244 213.014679
vertex -139.864777 13.660244 192.126724
endloop
endfacet
facet normal -0.514017 0.093532 -0.852666
outer loop
vertex -117.360321 20.096462 179.266281
vertex -131.830063 -0.803858 185.696503
vertex -139.864777 13.660244 192.126724
endloop
endfacet
facet normal -0.274972 0.961452 0.000000
outer loop
vertex -139.864777 13.660244 213.014679
vertex -117.360321 20.096462 179.266281
vertex -139.864777 13.660244 192.126724
endloop
endfacet
facet normal 0.752397 0.000000 0.658710
outer loop
vertex -83.614494 18.486385 225.879684
vertex -83.614494 -0.803858 225.879684
vertex -72.351410 -0.803858 213.014679
endloop
endfacet
facet normal 0.000000 -1.000000 0.000000
outer loop
vertex -83.614494 -0.803858 225.879684
vertex -65.916397 -0.803858 185.696503
vertex -72.351410 -0.803858 213.014679
endloop
endfacet
facet normal 0.968349 -0.101335 0.228102
outer loop
vertex -65.916397 -0.803858 185.696503
vertex -65.916397 13.660244 192.122162
vertex -72.351410 -0.803858 213.014679
endloop
endfacet
facet normal 0.000000 -1.000000 -0.000000
outer loop
vertex -65.916397 -0.803858 185.696503
vertex -118.960030 -0.803858 179.266281
vertex -83.614494 -0.803858 179.266281
endloop
endfacet
facet normal 0.000000 0.000000 -1.000000
outer loop
vertex -118.960030 -0.803858 179.266281
vertex -85.228683 20.096462 179.266281
vertex -83.614494 -0.803858 179.266281
endloop
endfacet
facet normal 0.000000 0.000000 1.000000
outer loop
vertex -117.353081 20.096462 225.879684
vertex -83.614494 18.486385 225.879684
vertex -85.221443 20.096462 225.879684
endloop
endfacet
facet normal 0.000000 1.000000 0.000000
outer loop
vertex -85.228683 20.096462 179.266281
vertex -117.353081 20.096462 225.879684
vertex -85.221443 20.096462 225.879684
endloop
endfacet
facet normal 0.000000 -1.000000 0.000000
outer loop
vertex -131.830063 -0.803858 185.696503
vertex -139.864777 -0.803858 213.014679
vertex -139.864777 -0.803858 192.126724
endloop
endfacet
facet normal -1.000000 0.000000 0.000000
outer loop
vertex -139.864777 -0.803858 213.014679
vertex -139.864777 13.660244 192.126724
vertex -139.864777 -0.803858 192.126724
endloop
endfacet
facet normal -0.624838 0.000000 -0.780754
outer loop
vertex -139.864777 13.660244 192.126724
vertex -131.830063 -0.803858 185.696503
vertex -139.864777 -0.803858 192.126724
endloop
endfacet
facet normal 0.752397 0.000000 0.658709
outer loop
vertex -83.614494 18.486385 225.879684
vertex -72.351410 -0.803858 213.014679
vertex -72.351410 13.660244 213.014679
endloop
endfacet
facet normal 0.955695 0.000000 0.294359
outer loop
vertex -72.351410 -0.803858 213.014679
vertex -65.916397 13.660244 192.122162
vertex -72.351410 13.660244 213.014679
endloop
endfacet
facet normal 0.667085 0.665784 0.334259
outer loop
vertex -85.221443 20.096462 225.879684
vertex -83.614494 18.486385 225.879684
vertex -72.351410 13.660244 213.014679
endloop
endfacet
facet normal 0.576366 0.797677 0.177524
outer loop
vertex -65.916397 13.660244 192.122162
vertex -85.221443 20.096462 225.879684
vertex -72.351410 13.660244 213.014679
endloop
endfacet
facet normal 1.000000 0.000000 0.000000
outer loop
vertex -65.916397 13.660244 192.122162
vertex -65.916397 -0.803858 185.696503
vertex -65.916397 13.660244 185.696503
endloop
endfacet
facet normal 0.341489 0.000000 -0.939886
outer loop
vertex -65.916397 -0.803858 185.696503
vertex -83.614494 -0.803858 179.266281
vertex -65.916397 13.660244 185.696503
endloop
endfacet
facet normal 0.323290 0.024969 -0.945970
outer loop
vertex -83.614494 -0.803858 179.266281
vertex -85.228683 20.096462 179.266281
vertex -65.916397 13.660244 185.696503
endloop
endfacet
facet normal 0.316189 0.948696 -0.000049
outer loop
vertex -85.228683 20.096462 179.266281
vertex -85.221443 20.096462 225.879684
vertex -65.916397 13.660244 185.696503
endloop
endfacet
endsolid Exported from Blender-2.83.0
