solid Exported from Blender-2.83.0
facet normal 0.000000 -1.000000 0.000000
outer loop
vertex 215.430634 -0.803858 246.787231
vertex 197.749207 -0.803858 274.113098
vertex 197.749207 -0.803858 246.787231
endloop
endfacet
facet normal -0.000002 0.000000 1.000000
outer loop
vertex 215.430634 -0.803858 274.113098
vertex 215.430634 15.273312 274.113098
vertex 197.749207 13.663391 274.113098
endloop
endfacet
facet normal -0.090676 0.995880 0.000000
outer loop
vertex 215.430634 15.273312 274.113098
vertex 197.749207 13.663391 246.787231
vertex 197.749207 13.663391 274.113098
endloop
endfacet
facet normal 1.000000 0.000000 0.000000
outer loop
vertex 215.430634 15.273312 274.113098
vertex 215.430634 -0.803858 274.113098
vertex 215.430634 -0.803858 246.787231
endloop
endfacet
facet normal 0.000000 0.000000 1.000000
outer loop
vertex 215.430634 -0.803858 274.113098
vertex 197.749207 13.663391 274.113098
vertex 197.749207 -0.803858 274.113098
endloop
endfacet
facet normal -1.000000 0.000000 0.000000
outer loop
vertex 197.749207 13.663391 274.113098
vertex 197.749207 13.663391 246.787231
vertex 197.749207 -0.803858 274.113098
endloop
endfacet
facet normal 0.000000 -1.000000 0.000000
outer loop
vertex 215.430634 -0.803858 246.787231
vertex 215.430634 -0.803858 274.113098
vertex 197.749207 -0.803858 274.113098
endloop
endfacet
facet normal -0.090676 0.995880 0.000000
outer loop
vertex 197.749207 13.663391 246.787231
vertex 215.430634 15.273312 274.113098
vertex 215.430634 15.273312 246.787231
endloop
endfacet
facet normal 0.000000 0.000000 -1.000000
outer loop
vertex 215.430634 -0.803858 246.787231
vertex 197.749207 13.663391 246.787231
vertex 215.430634 15.273312 246.787231
endloop
endfacet
facet normal 1.000000 0.000000 0.000000
outer loop
vertex 215.430634 15.273312 274.113098
vertex 215.430634 -0.803858 246.787231
vertex 215.430634 15.273312 246.787231
endloop
endfacet
facet normal 0.000000 0.000000 -1.000000
outer loop
vertex 197.749207 13.663391 246.787231
vertex 215.430634 -0.803858 246.787231
vertex 197.749207 -0.803858 246.787231
endloop
endfacet
facet normal -1.000000 0.000000 0.000000
outer loop
vertex 197.749207 -0.803858 274.113098
vertex 197.749207 13.663391 246.787231
vertex 197.749207 -0.803858 246.787231
endloop
endfacet
endsolid Exported from Blender-2.83.0
