solid Exported from Blender-2.83.0
facet normal 0.685186 -0.684337 -0.249406
outer loop
vertex -3.221569 66.722931 307.890869
vertex -20.903782 55.468750 290.192932
vertex -16.085823 60.292690 290.192932
endloop
endfacet
facet normal 0.000000 0.000000 1.000000
outer loop
vertex -3.221569 66.722931 401.114563
vertex -3.221569 81.189713 401.114563
vertex -65.916397 81.189713 401.114563
endloop
endfacet
facet normal 0.000000 1.000000 -0.000000
outer loop
vertex -65.916397 81.189713 401.114563
vertex -3.221569 81.189713 401.114563
vertex -16.085823 81.189713 290.192932
endloop
endfacet
facet normal 0.000000 0.000000 1.000000
outer loop
vertex -3.221569 66.722931 401.114563
vertex -65.916397 81.189713 401.114563
vertex -46.613876 55.468750 401.114563
endloop
endfacet
facet normal 0.000000 0.000000 -1.000000
outer loop
vertex -48.228046 57.077568 290.192932
vertex -16.085823 81.189713 290.192932
vertex -20.903782 55.468750 290.192932
endloop
endfacet
facet normal 0.000000 1.000000 0.000000
outer loop
vertex -65.916397 81.189713 401.114563
vertex -16.085823 81.189713 290.192932
vertex -65.916397 81.189713 307.890869
endloop
endfacet
facet normal 0.000000 0.000000 1.000000
outer loop
vertex -46.613876 55.468750 401.114563
vertex -65.916397 81.189713 401.114563
vertex -65.916397 66.722931 401.114563
endloop
endfacet
facet normal -1.000000 0.000000 0.000000
outer loop
vertex -65.916397 81.189713 401.114563
vertex -65.916397 81.189713 307.890869
vertex -65.916397 66.722931 401.114563
endloop
endfacet
facet normal 1.000000 0.000000 0.000000
outer loop
vertex -3.221569 81.189713 401.114563
vertex -3.221569 66.722931 401.114563
vertex -3.221569 66.722931 307.890869
endloop
endfacet
facet normal 0.536939 -0.843621 0.000000
outer loop
vertex -3.221569 66.722931 401.114563
vertex -20.903782 55.468750 290.192932
vertex -3.221569 66.722931 307.890869
endloop
endfacet
facet normal 0.000000 0.000000 1.000000
outer loop
vertex -3.221569 66.722931 401.114563
vertex -46.613876 55.468750 401.114563
vertex -20.903782 55.468750 401.114563
endloop
endfacet
facet normal 0.536939 -0.843621 0.000000
outer loop
vertex -20.903782 55.468750 290.192932
vertex -3.221569 66.722931 401.114563
vertex -20.903782 55.468750 401.114563
endloop
endfacet
facet normal 0.000000 -1.000000 0.000000
outer loop
vertex -46.613876 55.468750 401.114563
vertex -20.903782 55.468750 290.192932
vertex -20.903782 55.468750 401.114563
endloop
endfacet
facet normal -0.503683 -0.863888 0.000000
outer loop
vertex -46.613876 55.468750 401.114563
vertex -65.916397 66.722931 401.114563
vertex -65.916397 66.722931 307.890869
endloop
endfacet
facet normal -1.000000 0.000000 0.000000
outer loop
vertex -65.916397 66.722931 401.114563
vertex -65.916397 81.189713 307.890869
vertex -65.916397 66.722931 307.890869
endloop
endfacet
facet normal 0.000000 1.000000 0.000000
outer loop
vertex -16.085823 81.189713 290.192932
vertex -3.221569 81.189713 401.114563
vertex -3.221569 81.189713 307.890869
endloop
endfacet
facet normal 1.000000 0.000000 0.000000
outer loop
vertex -3.221569 81.189713 401.114563
vertex -3.221569 66.722931 307.890869
vertex -3.221569 81.189713 307.890869
endloop
endfacet
facet normal 0.808888 0.000000 -0.587963
outer loop
vertex -3.221569 66.722931 307.890869
vertex -16.085823 81.189713 290.192932
vertex -3.221569 81.189713 307.890869
endloop
endfacet
facet normal 0.000000 0.000000 -1.000000
outer loop
vertex -16.085823 81.189713 290.192932
vertex -48.228046 57.077568 290.192932
vertex -51.437973 81.189713 290.192932
endloop
endfacet
facet normal 0.000000 1.000000 0.000000
outer loop
vertex -65.916397 81.189713 307.890869
vertex -16.085823 81.189713 290.192932
vertex -51.437973 81.189713 290.192932
endloop
endfacet
facet normal -0.729932 -0.097172 -0.676577
outer loop
vertex -48.228046 57.077568 290.192932
vertex -65.916397 66.722931 307.890869
vertex -51.437973 81.189713 290.192932
endloop
endfacet
facet normal -0.773994 0.000000 -0.633193
outer loop
vertex -65.916397 66.722931 307.890869
vertex -65.916397 81.189713 307.890869
vertex -51.437973 81.189713 290.192932
endloop
endfacet
facet normal 0.000000 0.000000 -1.000000
outer loop
vertex -48.228046 57.077568 290.192932
vertex -20.903782 55.468750 290.192932
vertex -46.613876 55.468750 290.192932
endloop
endfacet
facet normal 0.000000 -1.000000 0.000000
outer loop
vertex -20.903782 55.468750 290.192932
vertex -46.613876 55.468750 401.114563
vertex -46.613876 55.468750 290.192932
endloop
endfacet
facet normal -0.672438 -0.674672 -0.304377
outer loop
vertex -65.916397 66.722931 307.890869
vertex -48.228046 57.077568 290.192932
vertex -46.613876 55.468750 290.192932
endloop
endfacet
facet normal -0.503683 -0.863888 0.000000
outer loop
vertex -46.613876 55.468750 401.114563
vertex -65.916397 66.722931 307.890869
vertex -46.613876 55.468750 290.192932
endloop
endfacet
facet normal 0.000000 0.000000 -1.000000
outer loop
vertex -20.903782 55.468750 290.192932
vertex -16.085823 81.189713 290.192932
vertex -16.085823 60.292690 290.192932
endloop
endfacet
facet normal 0.808888 0.000000 -0.587963
outer loop
vertex -16.085823 81.189713 290.192932
vertex -3.221569 66.722931 307.890869
vertex -16.085823 60.292690 290.192932
endloop
endfacet
endsolid Exported from Blender-2.83.0
