solid Exported from Blender-2.83.0
facet normal -0.657779 0.658810 0.365097
outer loop
vertex -199.356903 13.662290 92.434921
vertex -186.489182 18.486385 106.913185
vertex -184.876587 20.096462 106.913185
endloop
endfacet
facet normal 0.578046 0.044601 0.814785
outer loop
vertex -131.839386 13.662290 92.434921
vertex -152.743652 20.096462 106.913185
vertex -151.131042 -0.803858 106.913185
endloop
endfacet
facet normal 0.000000 -1.000000 0.000000
outer loop
vertex -199.356903 -0.803858 63.507339
vertex -151.131042 -0.803858 32.958199
vertex -151.131042 -0.803858 106.913185
endloop
endfacet
facet normal 0.000000 0.000000 1.000000
outer loop
vertex -151.131042 -0.803858 106.913185
vertex -152.743652 20.096462 106.913185
vertex -186.489182 18.486385 106.913185
endloop
endfacet
facet normal 0.294174 0.955752 0.000000
outer loop
vertex -152.743652 20.096462 106.913185
vertex -131.839386 13.662290 92.434921
vertex -152.743652 20.096462 32.958199
endloop
endfacet
facet normal 0.000000 1.000000 0.000000
outer loop
vertex -184.876587 20.096462 32.958199
vertex -152.743652 20.096462 106.913185
vertex -152.743652 20.096462 32.958199
endloop
endfacet
facet normal 0.000000 0.000000 -1.000000
outer loop
vertex -151.131042 -0.803858 32.958199
vertex -184.876587 20.096462 32.958199
vertex -152.743652 20.096462 32.958199
endloop
endfacet
facet normal 0.000000 -1.000000 0.000000
outer loop
vertex -151.131042 -0.803858 106.913185
vertex -151.131042 -0.803858 32.958199
vertex -131.839386 -0.803858 63.507339
endloop
endfacet
facet normal 0.000000 -1.000000 0.000000
outer loop
vertex -199.356903 -0.803858 63.507339
vertex -151.131042 -0.803858 106.913185
vertex -186.489182 -0.803858 106.913185
endloop
endfacet
facet normal 0.000000 0.000000 1.000000
outer loop
vertex -151.131042 -0.803858 106.913185
vertex -186.489182 18.486385 106.913185
vertex -186.489182 -0.803858 106.913185
endloop
endfacet
facet normal 0.000000 -1.000000 0.000000
outer loop
vertex -151.131042 -0.803858 32.958199
vertex -199.356903 -0.803858 63.507339
vertex -186.489182 -0.803858 32.958199
endloop
endfacet
facet normal 0.000000 0.000000 -1.000000
outer loop
vertex -184.876587 20.096462 32.958199
vertex -151.131042 -0.803858 32.958199
vertex -186.489182 -0.803858 32.958199
endloop
endfacet
facet normal -0.747456 0.000000 0.664311
outer loop
vertex -186.489182 -0.803858 106.913185
vertex -186.489182 18.486385 106.913185
vertex -199.356903 13.662290 92.434921
endloop
endfacet
facet normal 0.294173 0.955752 0.000000
outer loop
vertex -152.743652 20.096462 32.958199
vertex -131.839386 13.662290 92.434921
vertex -131.839386 13.662290 63.507339
endloop
endfacet
facet normal 0.829820 0.064026 -0.554347
outer loop
vertex -151.131042 -0.803858 32.958199
vertex -152.743652 20.096462 32.958199
vertex -131.839386 13.662290 63.507339
endloop
endfacet
facet normal 0.845521 0.000000 -0.533943
outer loop
vertex -131.839386 -0.803858 63.507339
vertex -151.131042 -0.803858 32.958199
vertex -131.839386 13.662290 63.507339
endloop
endfacet
facet normal 1.000000 0.000000 0.000000
outer loop
vertex -131.839386 13.662290 92.434921
vertex -131.839386 -0.803858 63.507339
vertex -131.839386 13.662290 63.507339
endloop
endfacet
facet normal 0.600253 0.000000 0.799810
outer loop
vertex -131.839386 13.662290 92.434921
vertex -151.131042 -0.803858 106.913185
vertex -131.839386 -0.803858 92.434921
endloop
endfacet
facet normal 1.000000 0.000000 0.000000
outer loop
vertex -131.839386 -0.803858 63.507339
vertex -131.839386 13.662290 92.434921
vertex -131.839386 -0.803858 92.434921
endloop
endfacet
facet normal 0.000000 -1.000000 0.000000
outer loop
vertex -151.131042 -0.803858 106.913185
vertex -131.839386 -0.803858 63.507339
vertex -131.839386 -0.803858 92.434921
endloop
endfacet
facet normal -0.921582 0.000000 -0.388183
outer loop
vertex -186.489182 -0.803858 32.958199
vertex -199.356903 -0.803858 63.507339
vertex -199.356903 13.662290 63.507339
endloop
endfacet
facet normal -0.907036 0.069983 -0.415196
outer loop
vertex -184.876587 20.096462 32.958199
vertex -186.489182 -0.803858 32.958199
vertex -199.356903 13.662290 63.507339
endloop
endfacet
facet normal -1.000000 0.000000 0.000000
outer loop
vertex -199.356903 -0.803858 63.507339
vertex -199.356903 13.662290 92.434921
vertex -199.356903 13.662290 63.507339
endloop
endfacet
facet normal -0.406059 0.913847 0.000000
outer loop
vertex -199.356903 13.662290 92.434921
vertex -184.876587 20.096462 32.958199
vertex -199.356903 13.662290 63.507339
endloop
endfacet
facet normal 0.000000 -1.000000 0.000000
outer loop
vertex -199.356903 -0.803858 63.507339
vertex -186.489182 -0.803858 106.913185
vertex -199.356903 -0.803858 92.434921
endloop
endfacet
facet normal -1.000000 0.000000 0.000000
outer loop
vertex -199.356903 13.662290 92.434921
vertex -199.356903 -0.803858 63.507339
vertex -199.356903 -0.803858 92.434921
endloop
endfacet
facet normal -0.747457 0.000000 0.664310
outer loop
vertex -186.489182 -0.803858 106.913185
vertex -199.356903 13.662290 92.434921
vertex -199.356903 -0.803858 92.434921
endloop
endfacet
facet normal 0.000000 1.000000 0.000000
outer loop
vertex -152.743652 20.096462 106.913185
vertex -184.876587 20.096462 32.958199
vertex -184.876587 20.096462 106.913185
endloop
endfacet
facet normal 0.000000 0.000000 1.000000
outer loop
vertex -186.489182 18.486385 106.913185
vertex -152.743652 20.096462 106.913185
vertex -184.876587 20.096462 106.913185
endloop
endfacet
facet normal -0.406058 0.913847 0.000000
outer loop
vertex -184.876587 20.096462 32.958199
vertex -199.356903 13.662290 92.434921
vertex -184.876587 20.096462 106.913185
endloop
endfacet
endsolid Exported from Blender-2.83.0
