solid Exported from Blender-2.83.0
facet normal -0.684650 0.681975 0.257224
outer loop
vertex 69.131836 13.662290 92.430199
vertex 83.606483 18.486385 118.167206
vertex 85.210266 20.096462 118.167206
endloop
endfacet
facet normal 0.782141 0.060271 0.620179
outer loop
vertex 138.263672 13.662290 92.430199
vertex 117.360359 20.096462 118.167206
vertex 118.970909 -0.803858 118.167206
endloop
endfacet
facet normal 0.000000 -1.000000 0.000000
outer loop
vertex 69.131836 -0.803858 63.515678
vertex 118.970909 -0.803858 32.966537
vertex 118.970909 -0.803858 118.167206
endloop
endfacet
facet normal -0.000000 0.000000 1.000000
outer loop
vertex 118.970909 -0.803858 118.167206
vertex 117.360359 20.096462 118.167206
vertex 83.606483 18.486385 118.167206
endloop
endfacet
facet normal 0.294185 0.955748 0.000000
outer loop
vertex 117.360359 20.096462 118.167206
vertex 138.263672 13.662290 92.430199
vertex 117.360359 20.096462 32.966537
endloop
endfacet
facet normal 0.000000 1.000000 0.000000
outer loop
vertex 85.210266 20.096462 32.966537
vertex 117.360359 20.096462 118.167206
vertex 117.360359 20.096462 32.966537
endloop
endfacet
facet normal 0.000000 0.000000 -1.000000
outer loop
vertex 118.970909 -0.803858 32.966537
vertex 85.210266 20.096462 32.966537
vertex 117.360359 20.096462 32.966537
endloop
endfacet
facet normal 0.000000 -1.000000 0.000000
outer loop
vertex 69.131836 -0.803858 63.515678
vertex 118.970909 -0.803858 118.167206
vertex 83.606483 -0.803858 118.167206
endloop
endfacet
facet normal 0.000000 0.000000 1.000000
outer loop
vertex 118.970909 -0.803858 118.167206
vertex 83.606483 18.486385 118.167206
vertex 83.606483 -0.803858 118.167206
endloop
endfacet
facet normal 0.000000 -1.000000 0.000000
outer loop
vertex 118.970909 -0.803858 118.167206
vertex 118.970909 -0.803858 32.966537
vertex 138.263672 -0.803858 63.515678
endloop
endfacet
facet normal -0.871610 0.000000 0.490199
outer loop
vertex 83.606483 -0.803858 118.167206
vertex 83.606483 18.486385 118.167206
vertex 69.131836 13.662290 92.430199
endloop
endfacet
facet normal 0.000000 -1.000000 0.000000
outer loop
vertex 118.970909 -0.803858 32.966537
vertex 69.131836 -0.803858 63.515678
vertex 83.606483 -0.803858 32.966537
endloop
endfacet
facet normal 0.000000 0.000000 -1.000000
outer loop
vertex 85.210266 20.096462 32.966537
vertex 118.970909 -0.803858 32.966537
vertex 83.606483 -0.803858 32.966537
endloop
endfacet
facet normal 0.294185 0.955748 0.000000
outer loop
vertex 117.360359 20.096462 32.966537
vertex 138.263672 13.662290 92.430199
vertex 138.263672 13.662290 63.515678
endloop
endfacet
facet normal 0.829828 0.063946 -0.554343
outer loop
vertex 118.970909 -0.803858 32.966537
vertex 117.360359 20.096462 32.966537
vertex 138.263672 13.662290 63.515678
endloop
endfacet
facet normal 1.000000 0.000000 0.000000
outer loop
vertex 138.263672 13.662290 92.430199
vertex 138.263672 -0.803858 63.515678
vertex 138.263672 13.662290 63.515678
endloop
endfacet
facet normal 0.845507 0.000000 -0.533965
outer loop
vertex 138.263672 -0.803858 63.515678
vertex 118.970909 -0.803858 32.966537
vertex 138.263672 13.662290 63.515678
endloop
endfacet
facet normal 0.800149 0.000000 0.599801
outer loop
vertex 138.263672 13.662290 92.430199
vertex 118.970909 -0.803858 118.167206
vertex 138.263672 -0.803858 92.430199
endloop
endfacet
facet normal 1.000000 0.000000 0.000000
outer loop
vertex 138.263672 -0.803858 63.515678
vertex 138.263672 13.662290 92.430199
vertex 138.263672 -0.803858 92.430199
endloop
endfacet
facet normal 0.000000 -1.000000 0.000000
outer loop
vertex 118.970909 -0.803858 118.167206
vertex 138.263672 -0.803858 63.515678
vertex 138.263672 -0.803858 92.430199
endloop
endfacet
facet normal -1.000000 0.000000 0.000000
outer loop
vertex 69.131836 -0.803858 63.515678
vertex 69.131836 13.662290 92.430199
vertex 69.131836 13.662290 63.515678
endloop
endfacet
facet normal -0.371530 0.928421 0.000000
outer loop
vertex 69.131836 13.662290 92.430199
vertex 85.210266 20.096462 32.966537
vertex 69.131836 13.662290 63.515678
endloop
endfacet
facet normal -0.903692 0.000000 -0.428183
outer loop
vertex 83.606483 -0.803858 32.966537
vertex 69.131836 -0.803858 63.515678
vertex 69.131836 13.662290 63.515678
endloop
endfacet
facet normal -0.888707 0.068195 -0.453376
outer loop
vertex 85.210266 20.096462 32.966537
vertex 83.606483 -0.803858 32.966537
vertex 69.131836 13.662290 63.515678
endloop
endfacet
facet normal 0.000000 -1.000000 0.000000
outer loop
vertex 69.131836 -0.803858 63.515678
vertex 83.606483 -0.803858 118.167206
vertex 69.131836 -0.803858 92.430199
endloop
endfacet
facet normal -1.000000 0.000000 0.000000
outer loop
vertex 69.131836 13.662290 92.430199
vertex 69.131836 -0.803858 63.515678
vertex 69.131836 -0.803858 92.430199
endloop
endfacet
facet normal -0.871611 0.000000 0.490199
outer loop
vertex 83.606483 -0.803858 118.167206
vertex 69.131836 13.662290 92.430199
vertex 69.131836 -0.803858 92.430199
endloop
endfacet
facet normal 0.000000 1.000000 0.000000
outer loop
vertex 117.360359 20.096462 118.167206
vertex 85.210266 20.096462 32.966537
vertex 85.210266 20.096462 118.167206
endloop
endfacet
facet normal 0.000000 0.000000 1.000000
outer loop
vertex 83.606483 18.486385 118.167206
vertex 117.360359 20.096462 118.167206
vertex 85.210266 20.096462 118.167206
endloop
endfacet
facet normal -0.371530 0.928421 0.000000
outer loop
vertex 85.210266 20.096462 32.966537
vertex 69.131836 13.662290 92.430199
vertex 85.210266 20.096462 118.167206
endloop
endfacet
endsolid Exported from Blender-2.83.0
