solid Exported from Blender-2.83.0
facet normal -1.000000 0.000000 0.000000
outer loop
vertex 16.080475 60.288940 401.125366
vertex 16.080475 61.894749 192.142639
vertex 16.080475 60.288940 192.142639
endloop
endfacet
facet normal 0.000000 1.000000 0.000000
outer loop
vertex 48.230865 61.896793 401.125366
vertex 51.446945 61.896793 401.125366
vertex 51.446945 61.896793 192.142639
endloop
endfacet
facet normal 0.000001 0.000000 -1.000000
outer loop
vertex 51.446945 61.896793 192.142639
vertex 27.335016 40.998829 192.142639
vertex 16.080475 61.894749 192.142639
endloop
endfacet
facet normal -0.000058 1.000000 -0.000001
outer loop
vertex 48.230865 61.896793 401.125366
vertex 51.446945 61.896793 192.142639
vertex 16.080475 61.894749 192.142639
endloop
endfacet
facet normal 0.000000 0.000000 1.000000
outer loop
vertex 51.446945 61.896793 401.125366
vertex 48.230865 61.896793 401.125366
vertex 40.192406 40.998829 401.125366
endloop
endfacet
facet normal -0.000002 0.000000 1.000000
outer loop
vertex 40.192406 40.998829 401.125366
vertex 48.230865 61.896793 401.125366
vertex 16.080475 60.288940 401.125366
endloop
endfacet
facet normal 0.000000 0.000000 -1.000000
outer loop
vertex 27.335016 40.998829 192.142639
vertex 51.446945 61.896793 192.142639
vertex 40.192406 40.998829 192.142639
endloop
endfacet
facet normal 0.000000 -1.000000 0.000000
outer loop
vertex 40.192406 40.998829 401.125366
vertex 27.335016 40.998829 192.142639
vertex 40.192406 40.998829 192.142639
endloop
endfacet
facet normal 0.000000 -1.000000 0.000000
outer loop
vertex 27.335016 40.998829 192.142639
vertex 40.192406 40.998829 401.125366
vertex 27.335016 40.998829 401.125366
endloop
endfacet
facet normal -0.863740 -0.503937 0.000000
outer loop
vertex 16.080475 60.288940 401.125366
vertex 27.335016 40.998829 192.142639
vertex 27.335016 40.998829 401.125366
endloop
endfacet
facet normal 0.000000 0.000000 1.000000
outer loop
vertex 40.192406 40.998829 401.125366
vertex 16.080475 60.288940 401.125366
vertex 27.335016 40.998829 401.125366
endloop
endfacet
facet normal -0.000064 1.000000 0.000000
outer loop
vertex 48.230865 61.896793 401.125366
vertex 16.080475 61.894749 192.142639
vertex 16.080475 61.894749 401.125366
endloop
endfacet
facet normal -1.000000 0.000000 0.000000
outer loop
vertex 16.080475 61.894749 192.142639
vertex 16.080475 60.288940 401.125366
vertex 16.080475 61.894749 401.125366
endloop
endfacet
facet normal -0.000001 0.000000 1.000000
outer loop
vertex 16.080475 60.288940 401.125366
vertex 48.230865 61.896793 401.125366
vertex 16.080475 61.894749 401.125366
endloop
endfacet
facet normal 1.000000 0.000000 0.000000
outer loop
vertex 51.446945 61.896793 192.142639
vertex 51.446945 61.896793 401.125366
vertex 51.446945 60.288940 401.125366
endloop
endfacet
facet normal 0.000054 0.000000 1.000000
outer loop
vertex 51.446945 61.896793 401.125366
vertex 40.192406 40.998829 401.125366
vertex 51.446945 60.288940 401.125366
endloop
endfacet
facet normal 0.863741 -0.503937 0.000000
outer loop
vertex 40.192406 40.998829 401.125366
vertex 40.192406 40.998829 192.142639
vertex 51.446945 60.288940 401.125366
endloop
endfacet
facet normal 0.863740 -0.503937 0.000000
outer loop
vertex 51.446945 60.288940 401.125366
vertex 40.192406 40.998829 192.142639
vertex 51.446945 60.288940 192.142639
endloop
endfacet
facet normal -0.000017 0.000000 -1.000000
outer loop
vertex 40.192406 40.998829 192.142639
vertex 51.446945 61.896793 192.142639
vertex 51.446945 60.288940 192.142639
endloop
endfacet
facet normal 1.000000 0.000000 0.000000
outer loop
vertex 51.446945 61.896793 192.142639
vertex 51.446945 60.288940 401.125366
vertex 51.446945 60.288940 192.142639
endloop
endfacet
facet normal 0.000000 0.000000 -1.000000
outer loop
vertex 16.080475 61.894749 192.142639
vertex 27.335016 40.998829 192.142639
vertex 16.080475 60.288940 192.142639
endloop
endfacet
facet normal -0.863740 -0.503937 0.000000
outer loop
vertex 27.335016 40.998829 192.142639
vertex 16.080475 60.288940 401.125366
vertex 16.080475 60.288940 192.142639
endloop
endfacet
endsolid Exported from Blender-2.83.0
