solid Exported from Blender-2.83.0
facet normal 0.894419 -0.447231 0.000000
outer loop
vertex -27.335281 40.996784 401.125366
vertex -27.335281 40.996784 192.142639
vertex -25.726934 44.213318 192.142639
endloop
endfacet
facet normal 0.000000 0.000000 1.000000
outer loop
vertex -22.508038 53.857262 401.125366
vertex -22.508038 55.466236 401.125366
vertex -45.016079 55.466236 401.125366
endloop
endfacet
facet normal 1.000000 0.000000 0.000000
outer loop
vertex -22.508038 55.466236 401.125366
vertex -22.508038 53.857262 401.125366
vertex -22.508038 55.466236 192.142639
endloop
endfacet
facet normal 0.000000 1.000000 0.000000
outer loop
vertex -45.016079 55.466236 401.125366
vertex -22.508038 55.466236 401.125366
vertex -22.508038 55.466236 192.142639
endloop
endfacet
facet normal 0.000000 0.000000 1.000000
outer loop
vertex -22.508038 53.857262 401.125366
vertex -45.016079 55.466236 401.125366
vertex -27.335281 40.996784 401.125366
endloop
endfacet
facet normal 0.000000 0.000000 -1.000000
outer loop
vertex -22.508038 55.466236 192.142639
vertex -40.191040 40.996784 192.142639
vertex -45.016079 55.466236 192.142639
endloop
endfacet
facet normal 0.000000 1.000000 0.000000
outer loop
vertex -45.016079 55.466236 401.125366
vertex -22.508038 55.466236 192.142639
vertex -45.016079 55.466236 192.142639
endloop
endfacet
facet normal 0.000000 0.000000 -1.000000
outer loop
vertex -40.191040 40.996784 192.142639
vertex -22.508038 55.466236 192.142639
vertex -27.335281 40.996784 192.142639
endloop
endfacet
facet normal 0.000000 -1.000000 0.000000
outer loop
vertex -27.335281 40.996784 401.125366
vertex -40.191040 40.996784 192.142639
vertex -27.335281 40.996784 192.142639
endloop
endfacet
facet normal 0.000000 0.000000 1.000000
outer loop
vertex -27.335281 40.996784 401.125366
vertex -45.016079 55.466236 401.125366
vertex -40.191040 40.996784 401.125366
endloop
endfacet
facet normal 0.000000 -1.000000 0.000000
outer loop
vertex -40.191040 40.996784 192.142639
vertex -27.335281 40.996784 401.125366
vertex -40.191040 40.996784 401.125366
endloop
endfacet
facet normal 0.000000 0.000000 -1.000000
outer loop
vertex -45.016079 55.466236 192.142639
vertex -40.191040 40.996784 192.142639
vertex -45.016079 53.857262 192.142639
endloop
endfacet
facet normal -1.000000 0.000000 0.000000
outer loop
vertex -45.016079 55.466236 401.125366
vertex -45.016079 55.466236 192.142639
vertex -45.016079 53.857262 192.142639
endloop
endfacet
facet normal -0.936273 -0.351274 0.000000
outer loop
vertex -40.191040 40.996784 192.142639
vertex -40.191040 40.996784 401.125366
vertex -45.016079 53.857262 192.142639
endloop
endfacet
facet normal -0.948643 -0.316338 0.002436
outer loop
vertex -40.191040 40.996784 401.125366
vertex -45.016079 55.466236 401.125366
vertex -45.016079 53.857262 192.142639
endloop
endfacet
facet normal 0.961437 -0.275019 -0.002117
outer loop
vertex -22.508038 55.466236 192.142639
vertex -22.508038 53.857262 401.125366
vertex -25.726934 44.213318 192.142639
endloop
endfacet
facet normal 0.936218 -0.351415 0.001796
outer loop
vertex -22.508038 53.857262 401.125366
vertex -27.335281 40.996784 401.125366
vertex -25.726934 44.213318 192.142639
endloop
endfacet
facet normal 0.000000 0.000000 -1.000000
outer loop
vertex -27.335281 40.996784 192.142639
vertex -22.508038 55.466236 192.142639
vertex -25.726934 44.213318 192.142639
endloop
endfacet
endsolid Exported from Blender-2.83.0
