solid Exported from Blender-2.83.0
facet normal 0.083300 0.000000 0.996525
outer loop
vertex -131.839386 -0.799767 31.345604
vertex -131.839386 13.669685 31.345604
vertex -151.131042 -0.799767 32.958199
endloop
endfacet
facet normal 0.000000 1.000000 0.000000
outer loop
vertex -131.839386 40.992691 20.093788
vertex -131.839386 40.992691 -0.800552
vertex -199.356903 40.992691 -0.800552
endloop
endfacet
facet normal 1.000000 0.000000 0.000000
outer loop
vertex -131.839386 40.992691 -0.800552
vertex -131.839386 40.992691 20.093788
vertex -131.839386 -0.799767 -0.800552
endloop
endfacet
facet normal 0.000000 0.000000 -1.000000
outer loop
vertex -199.356903 40.992691 -0.800552
vertex -131.839386 40.992691 -0.800552
vertex -131.839386 -0.799767 -0.800552
endloop
endfacet
facet normal 0.000000 -1.000000 0.000000
outer loop
vertex -131.839386 -0.799767 -0.800552
vertex -186.489182 -0.799767 32.958199
vertex -199.356903 -0.799767 -0.800552
endloop
endfacet
facet normal 0.000000 0.000000 -1.000000
outer loop
vertex -199.356903 40.992691 -0.800552
vertex -131.839386 -0.799767 -0.800552
vertex -199.356903 -0.799767 -0.800552
endloop
endfacet
facet normal 0.000000 1.000000 -0.000000
outer loop
vertex -131.839386 40.992691 20.093788
vertex -199.356903 40.992691 -0.800552
vertex -175.234070 40.992691 32.958199
endloop
endfacet
facet normal 0.000000 -1.000000 0.000000
outer loop
vertex -186.489182 -0.799767 32.958199
vertex -131.839386 -0.799767 -0.800552
vertex -131.839386 -0.799767 31.345604
endloop
endfacet
facet normal 1.000000 0.000000 0.000000
outer loop
vertex -131.839386 -0.799767 -0.800552
vertex -131.839386 40.992691 20.093788
vertex -131.839386 -0.799767 31.345604
endloop
endfacet
facet normal -1.000000 0.000000 0.000000
outer loop
vertex -199.356903 40.992691 -0.800552
vertex -199.356903 -0.799767 -0.800552
vertex -199.356903 13.669685 31.345604
endloop
endfacet
facet normal -0.095718 0.025778 0.995075
outer loop
vertex -186.489182 -0.799767 32.958199
vertex -175.234070 40.992691 32.958199
vertex -199.356903 13.669685 31.345604
endloop
endfacet
facet normal -0.442265 0.341519 0.829317
outer loop
vertex -199.356903 13.669685 31.345604
vertex -175.234070 40.992691 32.958199
vertex -199.356903 40.992691 20.093788
endloop
endfacet
facet normal 0.000000 1.000000 0.000000
outer loop
vertex -175.234070 40.992691 32.958199
vertex -199.356903 40.992691 -0.800552
vertex -199.356903 40.992691 20.093788
endloop
endfacet
facet normal -1.000000 -0.000001 0.000000
outer loop
vertex -199.356903 40.992691 -0.800552
vertex -199.356903 13.669685 31.345604
vertex -199.356903 40.992691 20.093788
endloop
endfacet
facet normal 0.000000 1.000000 0.000001
outer loop
vertex -131.839386 40.992691 20.093788
vertex -175.234070 40.992691 32.958199
vertex -162.386169 40.992691 32.958199
endloop
endfacet
facet normal 0.000000 0.000000 1.000000
outer loop
vertex -175.234070 40.992691 32.958199
vertex -186.489182 -0.799767 32.958199
vertex -162.386169 40.992691 32.958199
endloop
endfacet
facet normal 0.000000 -1.000000 0.000000
outer loop
vertex -199.356903 -0.799767 -0.800552
vertex -186.489182 -0.799767 32.958199
vertex -199.356903 -0.799767 31.345604
endloop
endfacet
facet normal -0.124348 0.000000 0.992239
outer loop
vertex -186.489182 -0.799767 32.958199
vertex -199.356903 13.669685 31.345604
vertex -199.356903 -0.799767 31.345604
endloop
endfacet
facet normal -1.000000 0.000000 0.000000
outer loop
vertex -199.356903 13.669685 31.345604
vertex -199.356903 -0.799767 -0.800552
vertex -199.356903 -0.799767 31.345604
endloop
endfacet
facet normal 1.000000 0.000000 0.000000
outer loop
vertex -131.839386 -0.799767 31.345604
vertex -131.839386 40.992691 20.093788
vertex -131.839386 13.669685 31.345604
endloop
endfacet
facet normal 0.362869 0.354829 0.861639
outer loop
vertex -131.839386 40.992691 20.093788
vertex -162.386169 40.992691 32.958199
vertex -131.839386 13.669685 31.345604
endloop
endfacet
facet normal 0.069363 0.018680 0.997416
outer loop
vertex -131.839386 13.669685 31.345604
vertex -162.386169 40.992691 32.958199
vertex -151.131042 -0.799767 32.958199
endloop
endfacet
facet normal 0.000000 -1.000000 0.000000
outer loop
vertex -186.489182 -0.799767 32.958199
vertex -131.839386 -0.799767 31.345604
vertex -151.131042 -0.799767 32.958199
endloop
endfacet
facet normal 0.000000 0.000000 1.000000
outer loop
vertex -162.386169 40.992691 32.958199
vertex -186.489182 -0.799767 32.958199
vertex -151.131042 -0.799767 32.958199
endloop
endfacet
endsolid Exported from Blender-2.83.0
