solid Exported from Blender-2.83.0
facet normal -0.753117 0.058107 -0.655315
outer loop
vertex -184.876587 20.096462 169.618546
vertex -186.489182 -0.803858 169.618546
vertex -199.356903 13.662290 185.689423
endloop
endfacet
facet normal 0.000000 -1.000000 0.000000
outer loop
vertex -199.356903 -0.803858 185.689423
vertex -186.489182 -0.803858 169.618546
vertex -131.839386 -0.803858 192.122192
endloop
endfacet
facet normal 0.000000 0.000000 1.000000
outer loop
vertex -131.839386 -0.803858 192.122192
vertex -152.743652 20.096462 192.122192
vertex -199.356903 13.662290 192.122192
endloop
endfacet
facet normal 0.000000 1.000000 0.000000
outer loop
vertex -152.743652 20.096462 192.122192
vertex -152.743652 20.096462 169.618546
vertex -184.876587 20.096462 169.618546
endloop
endfacet
facet normal 0.000000 0.000000 -1.000000
outer loop
vertex -152.743652 20.096462 169.618546
vertex -186.489182 -0.803858 169.618546
vertex -184.876587 20.096462 169.618546
endloop
endfacet
facet normal 0.000000 -1.000000 -0.000000
outer loop
vertex -131.839386 -0.803858 192.122192
vertex -186.489182 -0.803858 169.618546
vertex -151.131042 -0.803858 169.618546
endloop
endfacet
facet normal 0.000000 0.000000 -1.000000
outer loop
vertex -186.489182 -0.803858 169.618546
vertex -152.743652 20.096462 169.618546
vertex -151.131042 -0.803858 169.618546
endloop
endfacet
facet normal 0.617978 0.047681 -0.784748
outer loop
vertex -151.131042 -0.803858 169.618546
vertex -152.743652 20.096462 169.618546
vertex -131.839386 13.662290 185.689423
endloop
endfacet
facet normal 0.294173 0.955752 0.000000
outer loop
vertex -152.743652 20.096462 169.618546
vertex -152.743652 20.096462 192.122192
vertex -131.839386 13.662290 185.689423
endloop
endfacet
facet normal 0.000000 -1.000000 0.000000
outer loop
vertex -199.356903 -0.803858 185.689423
vertex -131.839386 -0.803858 192.122192
vertex -199.356903 -0.803858 192.122192
endloop
endfacet
facet normal -1.000000 0.000000 0.000000
outer loop
vertex -199.356903 13.662290 192.122192
vertex -199.356903 -0.803858 185.689423
vertex -199.356903 -0.803858 192.122192
endloop
endfacet
facet normal 0.000000 0.000000 1.000000
outer loop
vertex -131.839386 -0.803858 192.122192
vertex -199.356903 13.662290 192.122192
vertex -199.356903 -0.803858 192.122192
endloop
endfacet
facet normal 0.000000 0.000000 1.000000
outer loop
vertex -199.356903 13.662290 192.122192
vertex -152.743652 20.096462 192.122192
vertex -184.876587 20.096462 192.122192
endloop
endfacet
facet normal 0.000000 1.000000 0.000000
outer loop
vertex -152.743652 20.096462 192.122192
vertex -184.876587 20.096462 169.618546
vertex -184.876587 20.096462 192.122192
endloop
endfacet
facet normal -0.406059 0.913847 0.000000
outer loop
vertex -184.876587 20.096462 169.618546
vertex -199.356903 13.662290 192.122192
vertex -184.876587 20.096462 192.122192
endloop
endfacet
facet normal 0.000000 0.000000 1.000000
outer loop
vertex -152.743652 20.096462 192.122192
vertex -131.839386 -0.803858 192.122192
vertex -131.839386 13.662290 192.122192
endloop
endfacet
facet normal 0.294172 0.955752 0.000000
outer loop
vertex -131.839386 13.662290 185.689423
vertex -152.743652 20.096462 192.122192
vertex -131.839386 13.662290 192.122192
endloop
endfacet
facet normal 1.000000 0.000000 0.000000
outer loop
vertex -131.839386 -0.803858 192.122192
vertex -131.839386 13.662290 185.689423
vertex -131.839386 13.662290 192.122192
endloop
endfacet
facet normal 0.000000 -1.000000 0.000000
outer loop
vertex -131.839386 -0.803858 192.122192
vertex -151.131042 -0.803858 169.618546
vertex -131.839386 -0.803858 185.689423
endloop
endfacet
facet normal 0.640055 0.000000 -0.768329
outer loop
vertex -151.131042 -0.803858 169.618546
vertex -131.839386 13.662290 185.689423
vertex -131.839386 -0.803858 185.689423
endloop
endfacet
facet normal 1.000000 0.000000 0.000000
outer loop
vertex -131.839386 13.662290 185.689423
vertex -131.839386 -0.803858 192.122192
vertex -131.839386 -0.803858 185.689423
endloop
endfacet
facet normal -0.780607 0.000000 -0.625022
outer loop
vertex -186.489182 -0.803858 169.618546
vertex -199.356903 -0.803858 185.689423
vertex -199.356903 13.662290 185.689423
endloop
endfacet
facet normal -1.000000 0.000000 0.000000
outer loop
vertex -199.356903 -0.803858 185.689423
vertex -199.356903 13.662290 192.122192
vertex -199.356903 13.662290 185.689423
endloop
endfacet
facet normal -0.406056 0.913848 0.000000
outer loop
vertex -199.356903 13.662290 192.122192
vertex -184.876587 20.096462 169.618546
vertex -199.356903 13.662290 185.689423
endloop
endfacet
endsolid Exported from Blender-2.83.0
