solid Exported from Blender-2.83.0
facet normal -0.851487 -0.524375 0.000000
outer loop
vertex 14.469456 61.894424 63.513954
vertex 27.336227 41.001186 192.122192
vertex 14.469456 61.894424 192.122192
endloop
endfacet
facet normal 0.000000 0.000000 1.000000
outer loop
vertex 53.050884 61.894424 192.122192
vertex 53.050884 63.504818 192.122192
vertex 14.469456 63.504818 192.122192
endloop
endfacet
facet normal 0.000000 0.000000 1.000000
outer loop
vertex 53.050884 61.894424 192.122192
vertex 14.469456 63.504818 192.122192
vertex 27.336227 41.001186 192.122192
endloop
endfacet
facet normal 0.000000 0.000000 -1.000000
outer loop
vertex 40.187889 41.001186 34.565918
vertex 16.082050 60.286236 34.565918
vertex 51.442066 63.504818 34.565918
endloop
endfacet
facet normal 0.000000 1.000000 -0.000000
outer loop
vertex 14.469456 63.504818 192.122192
vertex 53.050884 63.504818 192.122192
vertex 51.442066 63.504818 34.565918
endloop
endfacet
facet normal 0.000000 0.000000 1.000000
outer loop
vertex 53.050884 61.894424 192.122192
vertex 27.336227 41.001186 192.122192
vertex 40.187889 41.001186 192.122192
endloop
endfacet
facet normal 0.851556 -0.524263 0.000000
outer loop
vertex 40.187889 41.001186 34.565918
vertex 53.050884 61.894424 192.122192
vertex 40.187889 41.001186 192.122192
endloop
endfacet
facet normal 0.000000 -1.000000 0.000000
outer loop
vertex 27.336227 41.001186 192.122192
vertex 40.187889 41.001186 34.565918
vertex 40.187889 41.001186 192.122192
endloop
endfacet
facet normal 0.000000 -1.000000 0.000000
outer loop
vertex 40.187889 41.001186 34.565918
vertex 27.336227 41.001186 192.122192
vertex 27.336227 41.001186 34.565918
endloop
endfacet
facet normal 0.000000 0.000000 -1.000000
outer loop
vertex 16.082050 60.286236 34.565918
vertex 40.187889 41.001186 34.565918
vertex 27.336227 41.001186 34.565918
endloop
endfacet
facet normal 0.000000 0.000000 -1.000000
outer loop
vertex 51.442066 63.504818 34.565918
vertex 16.082050 60.286236 34.565918
vertex 16.082050 63.504818 34.565918
endloop
endfacet
facet normal 0.000000 1.000000 -0.000000
outer loop
vertex 14.469456 63.504818 192.122192
vertex 51.442066 63.504818 34.565918
vertex 16.082050 63.504818 34.565918
endloop
endfacet
facet normal 1.000000 0.000000 0.000000
outer loop
vertex 53.050884 63.504818 192.122192
vertex 53.050884 61.894424 192.122192
vertex 53.050884 61.894424 63.513954
endloop
endfacet
facet normal 0.851556 -0.524264 0.000000
outer loop
vertex 53.050884 61.894424 192.122192
vertex 40.187889 41.001186 34.565918
vertex 53.050884 61.894424 63.513954
endloop
endfacet
facet normal 0.891912 -0.446050 -0.074383
outer loop
vertex 40.187889 41.001186 34.565918
vertex 51.442066 63.504818 34.565918
vertex 53.050884 61.894424 63.513954
endloop
endfacet
facet normal 0.774961 0.631960 -0.007913
outer loop
vertex 51.442066 63.504818 34.565918
vertex 53.050884 63.504818 192.122192
vertex 53.050884 61.894424 63.513954
endloop
endfacet
facet normal -0.863515 -0.503922 -0.020108
outer loop
vertex 16.082050 60.286236 34.565918
vertex 27.336227 41.001186 34.565918
vertex 14.469456 61.894424 63.513954
endloop
endfacet
facet normal -0.851487 -0.524375 0.000000
outer loop
vertex 27.336227 41.001186 34.565918
vertex 27.336227 41.001186 192.122192
vertex 14.469456 61.894424 63.513954
endloop
endfacet
facet normal -0.998452 0.000000 -0.055620
outer loop
vertex 16.082050 63.504818 34.565918
vertex 16.082050 60.286236 34.565918
vertex 14.469456 61.894424 63.513954
endloop
endfacet
facet normal -0.774236 0.632848 -0.007924
outer loop
vertex 14.469456 63.504818 192.122192
vertex 16.082050 63.504818 34.565918
vertex 14.469456 61.894424 63.513954
endloop
endfacet
facet normal -0.000024 0.000000 1.000000
outer loop
vertex 27.336227 41.001186 192.122192
vertex 14.469456 63.504818 192.122192
vertex 14.469456 61.894424 192.122192
endloop
endfacet
facet normal -1.000000 0.000000 0.000000
outer loop
vertex 14.469456 63.504818 192.122192
vertex 14.469456 61.894424 63.513954
vertex 14.469456 61.894424 192.122192
endloop
endfacet
endsolid Exported from Blender-2.83.0
