solid Exported from Blender-2.83.0
facet normal 0.000000 0.000000 1.000000
outer loop
vertex 49.827583 20.096462 288.585205
vertex 16.088657 -0.803858 288.585205
vertex 51.440651 -0.803858 288.585205
endloop
endfacet
facet normal 1.000000 0.000000 0.000000
outer loop
vertex 61.093246 13.662290 274.100647
vertex 61.093246 -0.803858 274.100647
vertex 61.093246 13.662290 192.122192
endloop
endfacet
facet normal 0.000000 0.000000 -1.000000
outer loop
vertex 61.093246 13.662290 192.122192
vertex -4.823151 -0.803858 192.122192
vertex 17.695274 20.096462 192.122192
endloop
endfacet
facet normal 0.000000 -1.000000 0.000000
outer loop
vertex -4.823151 -0.803858 192.122192
vertex 61.093246 -0.803858 274.100647
vertex 16.088657 -0.803858 288.585205
endloop
endfacet
facet normal 0.495945 0.868354 0.000000
outer loop
vertex 61.093246 13.662290 274.100647
vertex 61.093246 13.662290 192.122192
vertex 49.827583 20.096462 288.585205
endloop
endfacet
facet normal 1.000000 0.000000 0.000000
outer loop
vertex 61.093246 13.662290 192.122192
vertex 61.093246 -0.803858 274.100647
vertex 61.093246 -0.803858 192.122192
endloop
endfacet
facet normal 0.000000 0.000000 -1.000000
outer loop
vertex -4.823151 -0.803858 192.122192
vertex 61.093246 13.662290 192.122192
vertex 61.093246 -0.803858 192.122192
endloop
endfacet
facet normal 0.000000 -1.000000 0.000000
outer loop
vertex 61.093246 -0.803858 274.100647
vertex -4.823151 -0.803858 192.122192
vertex 61.093246 -0.803858 192.122192
endloop
endfacet
facet normal -0.274734 0.961520 0.000000
outer loop
vertex 17.695274 20.096462 192.122192
vertex -4.823151 13.662290 274.100647
vertex 17.695274 20.096462 288.585205
endloop
endfacet
facet normal -0.548999 0.042202 0.834757
outer loop
vertex -4.823151 13.662290 274.100647
vertex 16.088657 -0.803858 288.585205
vertex 17.695274 20.096462 288.585205
endloop
endfacet
facet normal 0.000000 1.000000 0.000000
outer loop
vertex 49.827583 20.096462 288.585205
vertex 17.695274 20.096462 192.122192
vertex 17.695274 20.096462 288.585205
endloop
endfacet
facet normal 0.000000 0.000000 1.000000
outer loop
vertex 16.088657 -0.803858 288.585205
vertex 49.827583 20.096462 288.585205
vertex 17.695274 20.096462 288.585205
endloop
endfacet
facet normal -1.000000 0.000000 0.000000
outer loop
vertex -4.823151 -0.803858 192.122192
vertex -4.823151 13.662290 274.100647
vertex -4.823151 13.662290 192.122192
endloop
endfacet
facet normal -0.274734 0.961520 0.000000
outer loop
vertex -4.823151 13.662290 274.100647
vertex 17.695274 20.096462 192.122192
vertex -4.823151 13.662290 192.122192
endloop
endfacet
facet normal 0.000000 0.000000 -1.000000
outer loop
vertex 17.695274 20.096462 192.122192
vertex -4.823151 -0.803858 192.122192
vertex -4.823151 13.662290 192.122192
endloop
endfacet
facet normal -1.000000 0.000000 0.000000
outer loop
vertex -4.823151 13.662290 274.100647
vertex -4.823151 -0.803858 192.122192
vertex -4.823151 -0.803858 274.100647
endloop
endfacet
facet normal -0.569400 0.000000 0.822061
outer loop
vertex 16.088657 -0.803858 288.585205
vertex -4.823151 13.662290 274.100647
vertex -4.823151 -0.803858 274.100647
endloop
endfacet
facet normal 0.000000 -1.000000 0.000000
outer loop
vertex -4.823151 -0.803858 192.122192
vertex 16.088657 -0.803858 288.585205
vertex -4.823151 -0.803858 274.100647
endloop
endfacet
facet normal 0.000000 0.000000 -1.000000
outer loop
vertex 61.093246 13.662290 192.122192
vertex 17.695274 20.096462 192.122192
vertex 49.827583 20.096462 192.122192
endloop
endfacet
facet normal 0.495944 0.868354 0.000000
outer loop
vertex 49.827583 20.096462 288.585205
vertex 61.093246 13.662290 192.122192
vertex 49.827583 20.096462 192.122192
endloop
endfacet
facet normal 0.000000 1.000000 0.000000
outer loop
vertex 17.695274 20.096462 192.122192
vertex 49.827583 20.096462 288.585205
vertex 49.827583 20.096462 192.122192
endloop
endfacet
facet normal 0.832150 0.000000 0.554550
outer loop
vertex 61.093246 -0.803858 274.100647
vertex 61.093246 13.662290 274.100647
vertex 51.440651 -0.803858 288.585205
endloop
endfacet
facet normal 0.000000 -1.000000 0.000000
outer loop
vertex 16.088657 -0.803858 288.585205
vertex 61.093246 -0.803858 274.100647
vertex 51.440651 -0.803858 288.585205
endloop
endfacet
facet normal 0.800967 0.061818 0.595509
outer loop
vertex 61.093246 13.662290 274.100647
vertex 49.827583 20.096462 288.585205
vertex 51.440651 -0.803858 288.585205
endloop
endfacet
endsolid Exported from Blender-2.83.0
