solid Exported from Blender-2.83.0
facet normal 0.000000 0.000000 1.000000
outer loop
vertex -82.001122 61.898994 401.125397
vertex -133.433914 66.723564 401.125397
vertex -120.574066 61.898994 401.125397
endloop
endfacet
facet normal 0.000000 1.000000 0.000000
outer loop
vertex -133.433914 81.187820 368.973419
vertex -65.923004 81.187820 401.125397
vertex -83.606949 81.187820 354.501617
endloop
endfacet
facet normal 0.000000 0.000000 1.000000
outer loop
vertex -65.923004 81.187820 401.125397
vertex -133.433914 66.723564 401.125397
vertex -65.923004 66.723564 401.125397
endloop
endfacet
facet normal 1.000000 0.000000 0.000000
outer loop
vertex -65.923004 81.187820 401.125397
vertex -65.923004 66.723564 401.125397
vertex -65.923004 66.723564 368.973419
endloop
endfacet
facet normal 0.000000 1.000000 0.000000
outer loop
vertex -65.923004 81.187820 401.125397
vertex -133.433914 81.187820 368.973419
vertex -133.433914 81.187820 401.125397
endloop
endfacet
facet normal 0.000000 0.000000 1.000000
outer loop
vertex -133.433914 66.723564 401.125397
vertex -65.923004 81.187820 401.125397
vertex -133.433914 81.187820 401.125397
endloop
endfacet
facet normal -1.000000 0.000000 0.000000
outer loop
vertex -133.433914 81.187820 368.973419
vertex -133.433914 66.723564 401.125397
vertex -133.433914 81.187820 401.125397
endloop
endfacet
facet normal 0.000000 -1.000000 0.000000
outer loop
vertex -120.574066 61.898994 368.973419
vertex -118.961624 61.898994 354.501617
vertex -82.001122 61.898994 401.125397
endloop
endfacet
facet normal 0.000000 0.000000 1.000000
outer loop
vertex -65.923004 66.723564 401.125397
vertex -133.433914 66.723564 401.125397
vertex -82.001122 61.898994 401.125397
endloop
endfacet
facet normal 0.287410 -0.957808 0.000000
outer loop
vertex -65.923004 66.723564 368.973419
vertex -65.923004 66.723564 401.125397
vertex -82.001122 61.898994 401.125397
endloop
endfacet
facet normal 0.270274 -0.962738 -0.009309
outer loop
vertex -65.923004 66.723564 368.973419
vertex -82.001122 61.898994 401.125397
vertex -83.606949 61.898994 354.501617
endloop
endfacet
facet normal 0.000000 0.000000 -1.000000
outer loop
vertex -118.961624 61.898994 354.501617
vertex -83.606949 81.187820 354.501617
vertex -83.606949 61.898994 354.501617
endloop
endfacet
facet normal 0.633320 0.000000 -0.773890
outer loop
vertex -83.606949 81.187820 354.501617
vertex -65.923004 66.723564 368.973419
vertex -83.606949 61.898994 354.501617
endloop
endfacet
facet normal 0.000000 -1.000000 -0.000000
outer loop
vertex -82.001122 61.898994 401.125397
vertex -118.961624 61.898994 354.501617
vertex -83.606949 61.898994 354.501617
endloop
endfacet
facet normal -0.707096 0.000000 -0.707118
outer loop
vertex -118.961624 61.898994 354.501617
vertex -133.433914 81.187820 368.973419
vertex -118.961624 81.187820 354.501617
endloop
endfacet
facet normal 0.000000 1.000000 0.000000
outer loop
vertex -133.433914 81.187820 368.973419
vertex -83.606949 81.187820 354.501617
vertex -118.961624 81.187820 354.501617
endloop
endfacet
facet normal 0.000000 0.000000 -1.000000
outer loop
vertex -83.606949 81.187820 354.501617
vertex -118.961624 61.898994 354.501617
vertex -118.961624 81.187820 354.501617
endloop
endfacet
facet normal 0.000000 1.000000 0.000000
outer loop
vertex -83.606949 81.187820 354.501617
vertex -65.923004 81.187820 401.125397
vertex -65.923004 81.187820 368.973419
endloop
endfacet
facet normal 1.000000 0.000000 0.000000
outer loop
vertex -65.923004 81.187820 401.125397
vertex -65.923004 66.723564 368.973419
vertex -65.923004 81.187820 368.973419
endloop
endfacet
facet normal 0.633320 0.000000 -0.773890
outer loop
vertex -65.923004 66.723564 368.973419
vertex -83.606949 81.187820 354.501617
vertex -65.923004 81.187820 368.973419
endloop
endfacet
facet normal -0.350990 -0.935562 -0.039108
outer loop
vertex -118.961624 61.898994 354.501617
vertex -120.574066 61.898994 368.973419
vertex -133.433914 66.723564 368.973419
endloop
endfacet
facet normal -0.707095 0.000000 -0.707119
outer loop
vertex -133.433914 81.187820 368.973419
vertex -118.961624 61.898994 354.501617
vertex -133.433914 66.723564 368.973419
endloop
endfacet
facet normal -0.351260 -0.936278 0.000000
outer loop
vertex -120.574066 61.898994 368.973419
vertex -133.433914 66.723564 401.125397
vertex -133.433914 66.723564 368.973419
endloop
endfacet
facet normal -1.000000 0.000000 0.000000
outer loop
vertex -133.433914 66.723564 401.125397
vertex -133.433914 81.187820 368.973419
vertex -133.433914 66.723564 368.973419
endloop
endfacet
facet normal -0.351259 -0.936278 0.000000
outer loop
vertex -133.433914 66.723564 401.125397
vertex -120.574066 61.898994 368.973419
vertex -120.574066 61.898994 401.125397
endloop
endfacet
facet normal 0.000000 -1.000000 0.000000
outer loop
vertex -120.574066 61.898994 368.973419
vertex -82.001122 61.898994 401.125397
vertex -120.574066 61.898994 401.125397
endloop
endfacet
endsolid Exported from Blender-2.83.0
