solid Exported from Blender-2.83.0
facet normal -1.000000 0.000000 0.000000
outer loop
vertex 200.968079 13.662291 124.598068
vertex 200.968079 -0.803858 153.536972
vertex 200.968079 13.662291 153.536972
endloop
endfacet
facet normal 0.000000 -1.000000 0.000000
outer loop
vertex 200.968079 -0.803858 124.598068
vertex 218.649506 -0.803858 124.598068
vertex 200.968079 -0.803858 153.536972
endloop
endfacet
facet normal 0.000000 0.000000 -1.000000
outer loop
vertex 218.649506 -0.803858 124.598068
vertex 200.968079 -0.803858 124.598068
vertex 200.968079 13.662291 124.598068
endloop
endfacet
facet normal -1.000000 0.000000 0.000000
outer loop
vertex 200.968079 -0.803858 124.598068
vertex 200.968079 -0.803858 153.536972
vertex 200.968079 13.662291 124.598068
endloop
endfacet
facet normal -0.263209 0.964628 -0.014641
outer loop
vertex 200.968079 13.662291 124.598068
vertex 217.039734 18.486858 153.536972
vertex 218.649506 18.486858 124.598068
endloop
endfacet
facet normal 0.000000 0.000000 -1.000000
outer loop
vertex 218.649506 -0.803858 124.598068
vertex 200.968079 13.662291 124.598068
vertex 218.649506 18.486858 124.598068
endloop
endfacet
facet normal 0.000000 -1.000000 0.000000
outer loop
vertex 200.968079 -0.803858 153.536972
vertex 218.649506 -0.803858 124.598068
vertex 218.649506 -0.803858 153.536972
endloop
endfacet
facet normal 0.000000 0.000000 1.000000
outer loop
vertex 217.039734 18.486858 153.536972
vertex 200.968079 -0.803858 153.536972
vertex 218.649506 -0.803858 153.536972
endloop
endfacet
facet normal 0.995009 0.083031 0.055349
outer loop
vertex 218.649506 18.486858 124.598068
vertex 217.039734 18.486858 153.536972
vertex 218.649506 -0.803858 153.536972
endloop
endfacet
facet normal 1.000000 0.000000 0.000000
outer loop
vertex 218.649506 -0.803858 124.598068
vertex 218.649506 18.486858 124.598068
vertex 218.649506 -0.803858 153.536972
endloop
endfacet
facet normal 0.000000 0.000000 1.000000
outer loop
vertex 200.968079 -0.803858 153.536972
vertex 217.039734 18.486858 153.536972
vertex 200.968079 13.662291 153.536972
endloop
endfacet
facet normal -0.287516 0.957776 0.000000
outer loop
vertex 217.039734 18.486858 153.536972
vertex 200.968079 13.662291 124.598068
vertex 200.968079 13.662291 153.536972
endloop
endfacet
endsolid Exported from Blender-2.83.0
