solid Exported from Blender-2.83.0
facet normal -0.894325 0.000000 0.447417
outer loop
vertex -118.960510 -0.803858 179.260437
vertex -131.832794 13.662290 153.530518
vertex -131.832794 -0.803858 153.530518
endloop
endfacet
facet normal 0.000000 -1.000000 0.000000
outer loop
vertex -131.832794 -0.803858 124.605614
vertex -65.916397 -0.803858 124.605614
vertex -118.960510 -0.803858 179.260437
endloop
endfacet
facet normal 0.000000 1.000000 0.000000
outer loop
vertex -85.221588 20.096462 179.260437
vertex -117.360352 20.096462 103.712524
vertex -117.360352 20.096462 179.260437
endloop
endfacet
facet normal 0.000000 0.000000 1.000000
outer loop
vertex -118.960510 -0.803858 179.260437
vertex -85.221588 20.096462 179.260437
vertex -117.360352 20.096462 179.260437
endloop
endfacet
facet normal 0.805739 0.062186 0.588996
outer loop
vertex -65.916397 13.662290 153.530518
vertex -85.221588 20.096462 179.260437
vertex -83.608521 -0.803858 179.260437
endloop
endfacet
facet normal 0.000000 -1.000000 0.000000
outer loop
vertex -118.960510 -0.803858 179.260437
vertex -65.916397 -0.803858 124.605614
vertex -83.608521 -0.803858 179.260437
endloop
endfacet
facet normal 0.000000 0.000000 1.000000
outer loop
vertex -85.221588 20.096462 179.260437
vertex -118.960510 -0.803858 179.260437
vertex -83.608521 -0.803858 179.260437
endloop
endfacet
facet normal 0.316188 0.948696 0.000000
outer loop
vertex -85.221588 20.096462 179.260437
vertex -65.916397 13.662290 153.530518
vertex -85.221588 20.096462 103.712524
endloop
endfacet
facet normal 0.000000 1.000000 0.000000
outer loop
vertex -117.360352 20.096462 103.712524
vertex -85.221588 20.096462 179.260437
vertex -85.221588 20.096462 103.712524
endloop
endfacet
facet normal 0.000000 -1.000000 0.000000
outer loop
vertex -65.916397 -0.803858 124.605614
vertex -131.832794 -0.803858 124.605614
vertex -83.608521 -0.803858 103.712524
endloop
endfacet
facet normal 0.000000 0.000000 -1.000000
outer loop
vertex -117.360352 20.096462 103.712524
vertex -85.221588 20.096462 103.712524
vertex -83.608521 -0.803858 103.712524
endloop
endfacet
facet normal -0.876698 0.067121 0.476336
outer loop
vertex -118.960510 -0.803858 179.260437
vertex -117.360352 20.096462 179.260437
vertex -131.832794 13.662290 153.530518
endloop
endfacet
facet normal -0.406242 0.913765 0.000000
outer loop
vertex -117.360352 20.096462 179.260437
vertex -117.360352 20.096462 103.712524
vertex -131.832794 13.662290 153.530518
endloop
endfacet
facet normal 0.000000 -1.000000 -0.000000
outer loop
vertex -83.608521 -0.803858 103.712524
vertex -131.832794 -0.803858 124.605614
vertex -118.960510 -0.803858 103.712524
endloop
endfacet
facet normal 0.000000 0.000000 -1.000000
outer loop
vertex -117.360352 20.096462 103.712524
vertex -83.608521 -0.803858 103.712524
vertex -118.960510 -0.803858 103.712524
endloop
endfacet
facet normal 1.000000 0.000000 0.000000
outer loop
vertex -65.916397 13.662290 153.530518
vertex -65.916397 -0.803858 124.605614
vertex -65.916397 13.662290 124.605614
endloop
endfacet
facet normal 0.316188 0.948696 0.000000
outer loop
vertex -85.221588 20.096462 103.712524
vertex -65.916397 13.662290 153.530518
vertex -65.916397 13.662290 124.605614
endloop
endfacet
facet normal 0.763146 0.000000 -0.646227
outer loop
vertex -65.916397 -0.803858 124.605614
vertex -83.608521 -0.803858 103.712524
vertex -65.916397 13.662290 124.605614
endloop
endfacet
facet normal 0.741989 0.057266 -0.667962
outer loop
vertex -83.608521 -0.803858 103.712524
vertex -85.221588 20.096462 103.712524
vertex -65.916397 13.662290 124.605614
endloop
endfacet
facet normal 1.000000 0.000000 0.000000
outer loop
vertex -65.916397 -0.803858 124.605614
vertex -65.916397 13.662290 153.530518
vertex -65.916397 -0.803858 153.530518
endloop
endfacet
facet normal 0.824000 0.000000 0.566590
outer loop
vertex -65.916397 13.662290 153.530518
vertex -83.608521 -0.803858 179.260437
vertex -65.916397 -0.803858 153.530518
endloop
endfacet
facet normal 0.000000 -1.000000 0.000000
outer loop
vertex -83.608521 -0.803858 179.260437
vertex -65.916397 -0.803858 124.605614
vertex -65.916397 -0.803858 153.530518
endloop
endfacet
facet normal -1.000000 0.000000 0.000000
outer loop
vertex -131.832794 -0.803858 124.605614
vertex -131.832794 13.662290 153.530518
vertex -131.832794 13.662290 124.605614
endloop
endfacet
facet normal -0.406243 0.913765 0.000000
outer loop
vertex -131.832794 13.662290 153.530518
vertex -117.360352 20.096462 103.712524
vertex -131.832794 13.662290 124.605614
endloop
endfacet
facet normal -0.851385 0.000000 -0.524541
outer loop
vertex -118.960510 -0.803858 103.712524
vertex -131.832794 -0.803858 124.605614
vertex -131.832794 13.662290 124.605614
endloop
endfacet
facet normal -0.829433 0.063502 -0.554984
outer loop
vertex -117.360352 20.096462 103.712524
vertex -118.960510 -0.803858 103.712524
vertex -131.832794 13.662290 124.605614
endloop
endfacet
facet normal 0.000000 -1.000000 0.000000
outer loop
vertex -131.832794 -0.803858 124.605614
vertex -118.960510 -0.803858 179.260437
vertex -131.832794 -0.803858 153.530518
endloop
endfacet
facet normal -1.000000 0.000000 0.000000
outer loop
vertex -131.832794 13.662290 153.530518
vertex -131.832794 -0.803858 124.605614
vertex -131.832794 -0.803858 153.530518
endloop
endfacet
endsolid Exported from Blender-2.83.0
