solid Exported from Blender-2.83.0
facet normal 0.000000 0.000000 1.000000
outer loop
vertex -199.358810 13.662291 92.440895
vertex -218.647629 -0.803858 92.440895
vertex -199.358810 -0.803858 92.440895
endloop
endfacet
facet normal 0.000000 -1.000000 0.000000
outer loop
vertex -218.647629 -0.803858 63.507656
vertex -199.358810 -0.803858 63.507656
vertex -218.647629 -0.803858 92.440895
endloop
endfacet
facet normal -0.995015 0.082975 0.055322
outer loop
vertex -218.647629 -0.803858 92.440895
vertex -217.038971 18.486858 92.440895
vertex -218.647629 18.486858 63.507656
endloop
endfacet
facet normal 0.000000 0.000000 -1.000000
outer loop
vertex -199.358810 -0.803858 63.507656
vertex -218.647629 -0.803858 63.507656
vertex -218.647629 18.486858 63.507656
endloop
endfacet
facet normal -1.000000 0.000000 0.000000
outer loop
vertex -218.647629 -0.803858 63.507656
vertex -218.647629 -0.803858 92.440895
vertex -218.647629 18.486858 63.507656
endloop
endfacet
facet normal 0.000000 0.000000 1.000000
outer loop
vertex -217.038971 18.486858 92.440895
vertex -218.647629 -0.803858 92.440895
vertex -199.358810 13.662291 92.440895
endloop
endfacet
facet normal 0.242625 0.970026 -0.013490
outer loop
vertex -218.647629 18.486858 63.507656
vertex -217.038971 18.486858 92.440895
vertex -199.358810 13.662291 63.507656
endloop
endfacet
facet normal 0.000000 0.000000 -1.000000
outer loop
vertex -199.358810 -0.803858 63.507656
vertex -218.647629 18.486858 63.507656
vertex -199.358810 13.662291 63.507656
endloop
endfacet
facet normal 1.000000 0.000000 0.000000
outer loop
vertex -199.358810 13.662291 92.440895
vertex -199.358810 -0.803858 63.507656
vertex -199.358810 13.662291 63.507656
endloop
endfacet
facet normal 0.263255 0.964726 0.000000
outer loop
vertex -217.038971 18.486858 92.440895
vertex -199.358810 13.662291 92.440895
vertex -199.358810 13.662291 63.507656
endloop
endfacet
facet normal 0.000000 -1.000000 0.000000
outer loop
vertex -218.647629 -0.803858 92.440895
vertex -199.358810 -0.803858 63.507656
vertex -199.358810 -0.803858 92.440895
endloop
endfacet
facet normal 1.000000 0.000000 0.000000
outer loop
vertex -199.358810 -0.803858 63.507656
vertex -199.358810 13.662291 92.440895
vertex -199.358810 -0.803858 92.440895
endloop
endfacet
endsolid Exported from Blender-2.83.0
