solid Exported from Blender-2.83.0
facet normal 0.000000 0.000000 -1.000000
outer loop
vertex -202.572342 66.723564 192.124237
vertex -218.649521 81.187820 192.124237
vertex -202.572342 81.187820 192.124237
endloop
endfacet
facet normal 0.000000 -1.000000 0.000000
outer loop
vertex -218.649521 61.898994 192.124237
vertex -217.039597 61.898994 192.124237
vertex -218.649521 61.898994 213.020447
endloop
endfacet
facet normal 0.000000 0.000000 -1.000000
outer loop
vertex -217.039597 61.898994 192.124237
vertex -218.649521 61.898994 192.124237
vertex -218.649521 81.187820 192.124237
endloop
endfacet
facet normal -1.000000 0.000000 0.000000
outer loop
vertex -218.649521 61.898994 192.124237
vertex -218.649521 61.898994 213.020447
vertex -218.649521 81.187820 192.124237
endloop
endfacet
facet normal -0.000002 0.000000 -1.000000
outer loop
vertex -217.039597 61.898994 192.124237
vertex -218.649521 81.187820 192.124237
vertex -202.572342 66.723564 192.124237
endloop
endfacet
facet normal 0.000000 0.000000 1.000000
outer loop
vertex -218.649521 61.898994 213.020447
vertex -202.572342 81.187820 213.020447
vertex -218.649521 81.187820 213.020447
endloop
endfacet
facet normal 0.000000 1.000000 0.000000
outer loop
vertex -202.572342 81.187820 213.020447
vertex -218.649521 81.187820 192.124237
vertex -218.649521 81.187820 213.020447
endloop
endfacet
facet normal -1.000000 0.000000 0.000000
outer loop
vertex -218.649521 81.187820 192.124237
vertex -218.649521 61.898994 213.020447
vertex -218.649521 81.187820 213.020447
endloop
endfacet
facet normal 0.287354 -0.957568 0.022139
outer loop
vertex -218.649521 61.898994 213.020447
vertex -217.039597 61.898994 192.124237
vertex -202.572342 66.723564 213.020447
endloop
endfacet
facet normal 0.000002 0.000000 1.000000
outer loop
vertex -202.572342 81.187820 213.020447
vertex -218.649521 61.898994 213.020447
vertex -202.572342 66.723564 213.020447
endloop
endfacet
facet normal 0.316355 -0.948641 0.000000
outer loop
vertex -217.039597 61.898994 192.124237
vertex -202.572342 66.723564 192.124237
vertex -202.572342 66.723564 213.020447
endloop
endfacet
facet normal 1.000000 0.000000 0.000000
outer loop
vertex -202.572342 66.723564 192.124237
vertex -202.572342 81.187820 213.020447
vertex -202.572342 66.723564 213.020447
endloop
endfacet
facet normal 0.000000 1.000000 0.000000
outer loop
vertex -218.649521 81.187820 192.124237
vertex -202.572342 81.187820 213.020447
vertex -202.572342 81.187820 192.124237
endloop
endfacet
facet normal 1.000000 0.000000 0.000000
outer loop
vertex -202.572342 81.187820 213.020447
vertex -202.572342 66.723564 192.124237
vertex -202.572342 81.187820 192.124237
endloop
endfacet
endsolid Exported from Blender-2.83.0
