solid Exported from Blender-2.83.0
facet normal 0.701850 0.700002 -0.131925
outer loop
vertex 128.610764 13.662290 368.979858
vertex 118.962570 18.486385 343.247589
vertex 117.356743 20.096462 343.247589
endloop
endfacet
facet normal 0.000000 -1.000000 0.000000
outer loop
vertex 61.099854 -0.803858 368.979858
vertex 83.607895 -0.803858 343.247589
vertex 128.610764 -0.803858 401.125397
endloop
endfacet
facet normal 0.000000 0.000000 1.000000
outer loop
vertex 126.998322 15.272367 401.125397
vertex 61.099854 13.662290 401.125397
vertex 128.610764 -0.803858 401.125397
endloop
endfacet
facet normal 0.000001 0.000000 -1.000000
outer loop
vertex 83.607895 -0.803858 343.247589
vertex 85.213722 20.096462 343.247589
vertex 118.962570 18.486385 343.247589
endloop
endfacet
facet normal 0.000000 -1.000000 0.000000
outer loop
vertex 128.610764 -0.803858 401.125397
vertex 83.607895 -0.803858 343.247589
vertex 118.962570 -0.803858 343.247589
endloop
endfacet
facet normal 0.000000 0.000000 -1.000000
outer loop
vertex 83.607895 -0.803858 343.247589
vertex 118.962570 18.486385 343.247589
vertex 118.962570 -0.803858 343.247589
endloop
endfacet
facet normal -1.000000 0.000000 0.000000
outer loop
vertex 61.099854 13.662290 401.125397
vertex 61.099854 -0.803858 368.979858
vertex 61.099854 -0.803858 401.125397
endloop
endfacet
facet normal 0.000000 -1.000000 0.000000
outer loop
vertex 61.099854 -0.803858 368.979858
vertex 128.610764 -0.803858 401.125397
vertex 61.099854 -0.803858 401.125397
endloop
endfacet
facet normal 0.000000 0.000000 1.000000
outer loop
vertex 128.610764 -0.803858 401.125397
vertex 61.099854 13.662290 401.125397
vertex 61.099854 -0.803858 401.125397
endloop
endfacet
facet normal 0.000001 0.000000 1.000000
outer loop
vertex 61.099854 13.662290 401.125397
vertex 126.998322 15.272367 401.125397
vertex 85.213722 20.096462 401.125397
endloop
endfacet
facet normal -0.257805 0.966197 0.000000
outer loop
vertex 85.213722 20.096462 343.247589
vertex 61.099854 13.662290 401.125397
vertex 85.213722 20.096462 401.125397
endloop
endfacet
facet normal 0.000000 0.000000 1.000000
outer loop
vertex 85.213722 20.096462 401.125397
vertex 126.998322 15.272367 401.125397
vertex 117.356743 20.096462 401.125397
endloop
endfacet
facet normal 0.000000 1.000000 0.000000
outer loop
vertex 85.213722 20.096462 343.247589
vertex 85.213722 20.096462 401.125397
vertex 117.356743 20.096462 401.125397
endloop
endfacet
facet normal -0.752688 0.000000 -0.658377
outer loop
vertex 83.607895 -0.803858 343.247589
vertex 61.099854 -0.803858 368.979858
vertex 61.099854 13.662290 368.979858
endloop
endfacet
facet normal -0.735525 0.056512 -0.675136
outer loop
vertex 85.213722 20.096462 343.247589
vertex 83.607895 -0.803858 343.247589
vertex 61.099854 13.662290 368.979858
endloop
endfacet
facet normal -0.257805 0.966197 0.000000
outer loop
vertex 61.099854 13.662290 401.125397
vertex 85.213722 20.096462 343.247589
vertex 61.099854 13.662290 368.979858
endloop
endfacet
facet normal -1.000000 0.000000 0.000000
outer loop
vertex 61.099854 -0.803858 368.979858
vertex 61.099854 13.662290 401.125397
vertex 61.099854 13.662290 368.979858
endloop
endfacet
facet normal 0.994006 0.099699 0.044866
outer loop
vertex 126.998322 15.272367 401.125397
vertex 128.610764 -0.803858 401.125397
vertex 128.610764 13.662290 368.979858
endloop
endfacet
facet normal 0.936346 0.000000 -0.351079
outer loop
vertex 118.962570 -0.803858 343.247589
vertex 118.962570 18.486385 343.247589
vertex 128.610764 13.662290 368.979858
endloop
endfacet
facet normal 0.936346 0.000000 -0.351078
outer loop
vertex 118.962570 -0.803858 343.247589
vertex 128.610764 13.662290 368.979858
vertex 128.610764 -0.803858 368.979858
endloop
endfacet
facet normal 0.000000 -1.000000 0.000000
outer loop
vertex 128.610764 -0.803858 401.125397
vertex 118.962570 -0.803858 343.247589
vertex 128.610764 -0.803858 368.979858
endloop
endfacet
facet normal 1.000000 0.000000 0.000000
outer loop
vertex 128.610764 13.662290 368.979858
vertex 128.610764 -0.803858 401.125397
vertex 128.610764 -0.803858 368.979858
endloop
endfacet
facet normal 0.000000 0.000000 -1.000000
outer loop
vertex 118.962570 18.486385 343.247589
vertex 85.213722 20.096462 343.247589
vertex 117.356743 20.096462 343.247589
endloop
endfacet
facet normal 0.447458 0.894305 0.000000
outer loop
vertex 117.356743 20.096462 401.125397
vertex 126.998322 15.272367 401.125397
vertex 117.356743 20.096462 343.247589
endloop
endfacet
facet normal 0.000000 1.000000 0.000000
outer loop
vertex 85.213722 20.096462 343.247589
vertex 117.356743 20.096462 401.125397
vertex 117.356743 20.096462 343.247589
endloop
endfacet
facet normal 0.524185 0.851448 -0.016353
outer loop
vertex 126.998322 15.272367 401.125397
vertex 128.610764 13.662290 368.979858
vertex 117.356743 20.096462 343.247589
endloop
endfacet
endsolid Exported from Blender-2.83.0
