solid Exported from Blender-2.83.0
facet normal 1.000000 0.000000 0.000000
outer loop
vertex -202.572342 81.187820 368.974243
vertex -202.572342 66.723564 401.122223
vertex -202.572342 66.723564 368.974243
endloop
endfacet
facet normal 0.000000 0.000000 -1.000000
outer loop
vertex -217.039597 61.898994 368.974243
vertex -218.649521 61.898994 368.974243
vertex -202.572342 81.187820 368.974243
endloop
endfacet
facet normal 0.000000 1.000000 0.000000
outer loop
vertex -202.572342 81.187820 401.122223
vertex -202.572342 81.187820 368.974243
vertex -218.649521 81.187820 368.974243
endloop
endfacet
facet normal 0.000000 0.000000 -1.000000
outer loop
vertex -202.572342 81.187820 368.974243
vertex -218.649521 61.898994 368.974243
vertex -218.649521 81.187820 368.974243
endloop
endfacet
facet normal -1.000000 0.000000 0.000000
outer loop
vertex -218.649521 81.187820 368.974243
vertex -218.649521 61.898994 368.974243
vertex -218.649521 61.898994 401.122223
endloop
endfacet
facet normal 0.000000 -1.000000 0.000000
outer loop
vertex -218.649521 61.898994 368.974243
vertex -217.039597 61.898994 368.974243
vertex -218.649521 61.898994 401.122223
endloop
endfacet
facet normal 0.287395 -0.957704 0.014392
outer loop
vertex -218.649521 61.898994 401.122223
vertex -217.039597 61.898994 368.974243
vertex -202.572342 66.723564 401.122223
endloop
endfacet
facet normal 1.000000 0.000000 0.000000
outer loop
vertex -202.572342 81.187820 368.974243
vertex -202.572342 81.187820 401.122223
vertex -202.572342 66.723564 401.122223
endloop
endfacet
facet normal 0.000001 0.000000 1.000000
outer loop
vertex -202.572342 81.187820 401.122223
vertex -218.649521 61.898994 401.122223
vertex -202.572342 66.723564 401.122223
endloop
endfacet
facet normal 0.000000 1.000000 0.000000
outer loop
vertex -202.572342 81.187820 401.122223
vertex -218.649521 81.187820 368.974243
vertex -218.649521 81.187820 401.122223
endloop
endfacet
facet normal -1.000000 0.000000 0.000000
outer loop
vertex -218.649521 81.187820 368.974243
vertex -218.649521 61.898994 401.122223
vertex -218.649521 81.187820 401.122223
endloop
endfacet
facet normal 0.000000 0.000000 1.000000
outer loop
vertex -218.649521 61.898994 401.122223
vertex -202.572342 81.187820 401.122223
vertex -218.649521 81.187820 401.122223
endloop
endfacet
facet normal 0.000000 0.000000 -1.000000
outer loop
vertex -217.039597 61.898994 368.974243
vertex -202.572342 81.187820 368.974243
vertex -202.572342 66.723564 368.974243
endloop
endfacet
facet normal 0.316355 -0.948641 0.000000
outer loop
vertex -202.572342 66.723564 401.122223
vertex -217.039597 61.898994 368.974243
vertex -202.572342 66.723564 368.974243
endloop
endfacet
endsolid Exported from Blender-2.83.0
