solid Exported from Blender-2.83.0
facet normal -0.060580 -0.016983 0.998019
outer loop
vertex 162.393280 41.000717 32.958199
vertex 151.126663 81.189713 32.958199
vertex 128.617371 66.716797 31.345604
endloop
endfacet
facet normal 1.000000 0.000000 0.000000
outer loop
vertex 250.803864 81.189713 -0.800552
vertex 250.803864 81.189713 32.958199
vertex 250.803864 41.000717 32.958199
endloop
endfacet
facet normal 0.000000 1.000000 0.000000
outer loop
vertex 250.803864 81.189713 32.958199
vertex 250.803864 81.189713 -0.800552
vertex 128.617371 81.189713 31.345604
endloop
endfacet
facet normal 0.000000 -1.000000 0.000000
outer loop
vertex 250.803864 41.000717 32.958199
vertex 128.617371 41.000717 20.093788
vertex 128.617371 41.000717 -0.800552
endloop
endfacet
facet normal -1.000000 0.000000 0.000000
outer loop
vertex 128.617371 41.000717 20.093788
vertex 128.617371 81.189713 31.345604
vertex 128.617371 41.000717 -0.800552
endloop
endfacet
facet normal 1.000000 0.000000 0.000000
outer loop
vertex 250.803864 81.189713 -0.800552
vertex 250.803864 41.000717 32.958199
vertex 250.803864 41.000717 -0.800552
endloop
endfacet
facet normal 0.000000 0.000000 -1.000000
outer loop
vertex 128.617371 41.000717 -0.800552
vertex 250.803864 81.189713 -0.800552
vertex 250.803864 41.000717 -0.800552
endloop
endfacet
facet normal 0.000000 -1.000000 0.000000
outer loop
vertex 250.803864 41.000717 32.958199
vertex 128.617371 41.000717 -0.800552
vertex 250.803864 41.000717 -0.800552
endloop
endfacet
facet normal 0.000000 1.000000 0.000000
outer loop
vertex 128.617371 81.189713 31.345604
vertex 250.803864 81.189713 -0.800552
vertex 128.617371 81.189713 -0.800552
endloop
endfacet
facet normal 0.000000 0.000000 -1.000000
outer loop
vertex 250.803864 81.189713 -0.800552
vertex 128.617371 41.000717 -0.800552
vertex 128.617371 81.189713 -0.800552
endloop
endfacet
facet normal -1.000000 0.000000 0.000000
outer loop
vertex 128.617371 41.000717 -0.800552
vertex 128.617371 81.189713 31.345604
vertex 128.617371 81.189713 -0.800552
endloop
endfacet
facet normal 0.000000 0.000000 1.000000
outer loop
vertex 250.803864 41.000717 32.958199
vertex 250.803864 81.189713 32.958199
vertex 162.393280 41.000717 32.958199
endloop
endfacet
facet normal 0.000000 -1.000000 -0.000000
outer loop
vertex 128.617371 41.000717 20.093788
vertex 250.803864 41.000717 32.958199
vertex 162.393280 41.000717 32.958199
endloop
endfacet
facet normal 0.000000 1.000000 0.000000
outer loop
vertex 250.803864 81.189713 32.958199
vertex 128.617371 81.189713 31.345604
vertex 151.126663 81.189713 32.958199
endloop
endfacet
facet normal 0.000000 0.000000 1.000000
outer loop
vertex 162.393280 41.000717 32.958199
vertex 250.803864 81.189713 32.958199
vertex 151.126663 81.189713 32.958199
endloop
endfacet
facet normal -1.000000 0.000000 0.000000
outer loop
vertex 128.617371 81.189713 31.345604
vertex 128.617371 41.000717 20.093788
vertex 128.617371 66.716797 31.345604
endloop
endfacet
facet normal -0.329456 -0.378471 0.864996
outer loop
vertex 128.617371 41.000717 20.093788
vertex 162.393280 41.000717 32.958199
vertex 128.617371 66.716797 31.345604
endloop
endfacet
facet normal -0.071458 0.000000 0.997444
outer loop
vertex 151.126663 81.189713 32.958199
vertex 128.617371 81.189713 31.345604
vertex 128.617371 66.716797 31.345604
endloop
endfacet
endsolid Exported from Blender-2.83.0
