solid Exported from Blender-2.83.0
facet normal 1.000000 0.000000 0.000000
outer loop
vertex 69.131836 66.721199 153.531937
vertex 69.131836 81.189713 124.604675
vertex 69.131836 81.189713 153.531937
endloop
endfacet
facet normal 0.000000 1.000000 0.000000
outer loop
vertex -3.215431 81.189713 124.604675
vertex 51.441597 81.189713 179.260452
vertex 69.131836 81.189713 124.604675
endloop
endfacet
facet normal 0.000000 -1.000000 -0.000001
outer loop
vertex 11.259687 63.504822 124.604675
vertex 16.082367 63.504822 108.527817
vertex 51.441597 63.504822 179.260452
endloop
endfacet
facet normal 0.000000 0.000000 1.000000
outer loop
vertex 51.441597 63.504822 179.260452
vertex 51.441597 81.189713 179.260452
vertex 16.082367 63.504822 179.260452
endloop
endfacet
facet normal 0.000000 -1.000000 0.000000
outer loop
vertex 11.259687 63.504822 124.604675
vertex 51.441597 63.504822 179.260452
vertex 16.082367 63.504822 179.260452
endloop
endfacet
facet normal 0.000000 1.000000 0.000000
outer loop
vertex 51.441597 81.189713 179.260452
vertex -3.215431 81.189713 124.604675
vertex 16.082367 81.189713 179.260452
endloop
endfacet
facet normal 0.000000 0.000000 1.000000
outer loop
vertex 16.082367 63.504822 179.260452
vertex 51.441597 81.189713 179.260452
vertex 16.082367 81.189713 179.260452
endloop
endfacet
facet normal 0.000000 1.000000 -0.000000
outer loop
vertex -3.215431 81.189713 124.604675
vertex 69.131836 81.189713 124.604675
vertex 51.441597 81.189713 108.527817
endloop
endfacet
facet normal 0.672555 0.000000 -0.740047
outer loop
vertex 69.131836 81.189713 124.604675
vertex 69.131836 66.721199 124.604675
vertex 51.441597 81.189713 108.527817
endloop
endfacet
facet normal -0.185585 -0.982492 0.016375
outer loop
vertex 11.259687 63.504822 124.604675
vertex 16.082367 63.504822 179.260452
vertex -3.215431 66.721199 153.531937
endloop
endfacet
facet normal -0.799979 0.000000 0.600029
outer loop
vertex 16.082367 63.504822 179.260452
vertex 16.082367 81.189713 179.260452
vertex -3.215431 66.721199 153.531937
endloop
endfacet
facet normal 0.000000 -1.000000 0.000000
outer loop
vertex 51.441597 63.504822 179.260452
vertex 16.082367 63.504822 108.527817
vertex 51.441597 63.504822 108.527817
endloop
endfacet
facet normal 0.178884 -0.983870 0.000000
outer loop
vertex 69.131836 66.721199 124.604675
vertex 51.441597 63.504822 179.260452
vertex 51.441597 63.504822 108.527817
endloop
endfacet
facet normal 0.000000 0.000000 -1.000000
outer loop
vertex 16.082367 63.504822 108.527817
vertex 51.441597 81.189713 108.527817
vertex 51.441597 63.504822 108.527817
endloop
endfacet
facet normal 0.672554 0.000000 -0.740048
outer loop
vertex 51.441597 81.189713 108.527817
vertex 69.131836 66.721199 124.604675
vertex 51.441597 63.504822 108.527817
endloop
endfacet
facet normal 0.824013 0.000000 0.566571
outer loop
vertex 51.441597 81.189713 179.260452
vertex 51.441597 63.504822 179.260452
vertex 69.131836 66.721199 153.531937
endloop
endfacet
facet normal 1.000000 0.000000 0.000000
outer loop
vertex 69.131836 66.721199 124.604675
vertex 69.131836 81.189713 124.604675
vertex 69.131836 66.721199 153.531937
endloop
endfacet
facet normal 0.178884 -0.983870 0.000000
outer loop
vertex 51.441597 63.504822 179.260452
vertex 69.131836 66.721199 124.604675
vertex 69.131836 66.721199 153.531937
endloop
endfacet
facet normal -0.640075 0.000000 -0.768312
outer loop
vertex 16.082367 63.504822 108.527817
vertex -3.215431 81.189713 124.604675
vertex 16.082367 81.189713 108.527817
endloop
endfacet
facet normal 0.000000 0.000000 -1.000000
outer loop
vertex 51.441597 81.189713 108.527817
vertex 16.082367 63.504822 108.527817
vertex 16.082367 81.189713 108.527817
endloop
endfacet
facet normal 0.000000 1.000000 0.000000
outer loop
vertex -3.215431 81.189713 124.604675
vertex 51.441597 81.189713 108.527817
vertex 16.082367 81.189713 108.527817
endloop
endfacet
facet normal -0.216452 -0.974132 -0.064930
outer loop
vertex 16.082367 63.504822 108.527817
vertex 11.259687 63.504822 124.604675
vertex -3.215431 66.721199 124.604675
endloop
endfacet
facet normal -0.640075 0.000000 -0.768312
outer loop
vertex -3.215431 81.189713 124.604675
vertex 16.082367 63.504822 108.527817
vertex -3.215431 66.721199 124.604675
endloop
endfacet
facet normal -0.216910 -0.976192 0.000000
outer loop
vertex 11.259687 63.504822 124.604675
vertex -3.215431 66.721199 153.531937
vertex -3.215431 66.721199 124.604675
endloop
endfacet
facet normal -1.000000 0.000000 0.000000
outer loop
vertex -3.215431 66.721199 153.531937
vertex -3.215431 81.189713 124.604675
vertex -3.215431 66.721199 124.604675
endloop
endfacet
facet normal 0.000000 1.000000 0.000000
outer loop
vertex 16.082367 81.189713 179.260452
vertex -3.215431 81.189713 124.604675
vertex -3.215431 81.189713 153.531937
endloop
endfacet
facet normal -1.000000 0.000000 0.000000
outer loop
vertex -3.215431 81.189713 124.604675
vertex -3.215431 66.721199 153.531937
vertex -3.215431 81.189713 153.531937
endloop
endfacet
facet normal -0.799979 0.000000 0.600028
outer loop
vertex -3.215431 66.721199 153.531937
vertex 16.082367 81.189713 179.260452
vertex -3.215431 81.189713 153.531937
endloop
endfacet
facet normal 0.000000 1.000000 0.000000
outer loop
vertex 69.131836 81.189713 124.604675
vertex 51.441597 81.189713 179.260452
vertex 69.131836 81.189713 153.531937
endloop
endfacet
facet normal 0.824014 0.000000 0.566569
outer loop
vertex 51.441597 81.189713 179.260452
vertex 69.131836 66.721199 153.531937
vertex 69.131836 81.189713 153.531937
endloop
endfacet
endsolid Exported from Blender-2.83.0
