solid Exported from Blender-2.83.0
facet normal -1.000000 0.000000 0.000000
outer loop
vertex 200.966217 81.189713 274.113098
vertex 200.966217 66.721199 246.787231
vertex 200.966217 66.721199 274.113098
endloop
endfacet
facet normal 0.000000 -1.000000 0.000000
outer loop
vertex 213.823837 63.504822 246.787231
vertex 217.040207 63.504822 246.787231
vertex 213.823837 63.504822 274.113098
endloop
endfacet
facet normal 0.000000 0.000000 -1.000000
outer loop
vertex 217.040207 63.504822 246.787231
vertex 213.823837 63.504822 246.787231
vertex 217.040207 81.189713 246.787231
endloop
endfacet
facet normal -0.242675 -0.970108 0.000000
outer loop
vertex 213.823837 63.504822 246.787231
vertex 213.823837 63.504822 274.113098
vertex 200.966217 66.721199 246.787231
endloop
endfacet
facet normal 0.000001 0.000000 -1.000000
outer loop
vertex 217.040207 81.189713 246.787231
vertex 213.823837 63.504822 246.787231
vertex 200.966217 66.721199 246.787231
endloop
endfacet
facet normal 0.977329 -0.177747 0.115036
outer loop
vertex 213.823837 63.504822 274.113098
vertex 217.040207 63.504822 246.787231
vertex 217.040207 81.189713 274.113098
endloop
endfacet
facet normal 0.000000 0.000000 1.000000
outer loop
vertex 200.966217 81.189713 274.113098
vertex 213.823837 63.504822 274.113098
vertex 217.040207 81.189713 274.113098
endloop
endfacet
facet normal 0.000000 1.000000 0.000000
outer loop
vertex 217.040207 81.189713 246.787231
vertex 200.966217 81.189713 274.113098
vertex 217.040207 81.189713 274.113098
endloop
endfacet
facet normal 1.000000 0.000000 0.000000
outer loop
vertex 217.040207 63.504822 246.787231
vertex 217.040207 81.189713 246.787231
vertex 217.040207 81.189713 274.113098
endloop
endfacet
facet normal 0.000000 1.000000 0.000000
outer loop
vertex 200.966217 81.189713 274.113098
vertex 217.040207 81.189713 246.787231
vertex 200.966217 81.189713 246.787231
endloop
endfacet
facet normal -1.000000 0.000000 0.000000
outer loop
vertex 200.966217 66.721199 246.787231
vertex 200.966217 81.189713 274.113098
vertex 200.966217 81.189713 246.787231
endloop
endfacet
facet normal 0.000000 0.000000 -1.000000
outer loop
vertex 217.040207 81.189713 246.787231
vertex 200.966217 66.721199 246.787231
vertex 200.966217 81.189713 246.787231
endloop
endfacet
facet normal 0.000000 0.000000 1.000000
outer loop
vertex 213.823837 63.504822 274.113098
vertex 200.966217 81.189713 274.113098
vertex 200.966217 66.721199 274.113098
endloop
endfacet
facet normal -0.242676 -0.970107 0.000000
outer loop
vertex 200.966217 66.721199 246.787231
vertex 213.823837 63.504822 274.113098
vertex 200.966217 66.721199 274.113098
endloop
endfacet
endsolid Exported from Blender-2.83.0
