solid Exported from Blender-2.83.0
facet normal -0.658632 0.000000 0.752465
outer loop
vertex -118.960510 -0.803858 103.697746
vertex -131.832794 13.662290 92.430664
vertex -131.832794 -0.803858 92.430664
endloop
endfacet
facet normal 0.316188 0.948696 0.000000
outer loop
vertex -85.221588 20.096462 103.697746
vertex -65.916397 13.662290 92.430664
vertex -85.221588 20.096462 31.350487
endloop
endfacet
facet normal 0.513486 0.039630 0.857182
outer loop
vertex -65.916397 13.662290 92.430664
vertex -85.221588 20.096462 103.697746
vertex -83.608521 -0.803858 103.697746
endloop
endfacet
facet normal 0.000000 -1.000000 0.000000
outer loop
vertex -131.832794 -0.803858 63.508759
vertex -83.608521 -0.803858 31.350487
vertex -83.608521 -0.803858 103.697746
endloop
endfacet
facet normal 0.000000 1.000000 0.000000
outer loop
vertex -85.221588 20.096462 103.697746
vertex -85.221588 20.096462 31.350487
vertex -117.360352 20.096462 31.350487
endloop
endfacet
facet normal 0.000000 0.000000 -1.000000
outer loop
vertex -85.221588 20.096462 31.350487
vertex -83.608521 -0.803858 31.350487
vertex -117.360352 20.096462 31.350487
endloop
endfacet
facet normal 0.000000 -1.000000 0.000000
outer loop
vertex -131.832794 -0.803858 63.508759
vertex -83.608521 -0.803858 103.697746
vertex -118.960510 -0.803858 103.697746
endloop
endfacet
facet normal 0.000000 0.000000 1.000000
outer loop
vertex -83.608521 -0.803858 103.697746
vertex -85.221588 20.096462 103.697746
vertex -118.960510 -0.803858 103.697746
endloop
endfacet
facet normal 0.000000 -1.000000 0.000000
outer loop
vertex -83.608521 -0.803858 103.697746
vertex -83.608521 -0.803858 31.350487
vertex -65.916397 -0.803858 63.508759
endloop
endfacet
facet normal 0.000000 -1.000000 -0.000000
outer loop
vertex -83.608521 -0.803858 31.350487
vertex -131.832794 -0.803858 63.508759
vertex -118.960510 -0.803858 31.350487
endloop
endfacet
facet normal 0.000000 0.000000 -1.000000
outer loop
vertex -117.360352 20.096462 31.350487
vertex -83.608521 -0.803858 31.350487
vertex -118.960510 -0.803858 31.350487
endloop
endfacet
facet normal -0.406243 0.913765 0.000000
outer loop
vertex -117.360352 20.096462 31.350487
vertex -131.832794 13.662290 92.430664
vertex -117.360352 20.096462 103.697746
endloop
endfacet
facet normal 0.000000 1.000000 0.000000
outer loop
vertex -85.221588 20.096462 103.697746
vertex -117.360352 20.096462 31.350487
vertex -117.360352 20.096462 103.697746
endloop
endfacet
facet normal 0.000000 0.000000 1.000000
outer loop
vertex -118.960510 -0.803858 103.697746
vertex -85.221588 20.096462 103.697746
vertex -117.360352 20.096462 103.697746
endloop
endfacet
facet normal -0.626794 0.047988 0.777706
outer loop
vertex -131.832794 13.662290 92.430664
vertex -118.960510 -0.803858 103.697746
vertex -117.360352 20.096462 103.697746
endloop
endfacet
facet normal 0.316188 0.948696 0.000000
outer loop
vertex -85.221588 20.096462 31.350487
vertex -65.916397 13.662290 92.430664
vertex -65.916397 13.662290 63.508759
endloop
endfacet
facet normal 0.861289 0.066474 -0.503748
outer loop
vertex -83.608521 -0.803858 31.350487
vertex -85.221588 20.096462 31.350487
vertex -65.916397 13.662290 63.508759
endloop
endfacet
facet normal 1.000000 0.000000 0.000000
outer loop
vertex -65.916397 13.662290 92.430664
vertex -65.916397 -0.803858 63.508759
vertex -65.916397 13.662290 63.508759
endloop
endfacet
facet normal 0.876157 0.000000 -0.482025
outer loop
vertex -65.916397 -0.803858 63.508759
vertex -83.608521 -0.803858 31.350487
vertex -65.916397 13.662290 63.508759
endloop
endfacet
facet normal 0.537163 0.000000 0.843479
outer loop
vertex -65.916397 13.662290 92.430664
vertex -83.608521 -0.803858 103.697746
vertex -65.916397 -0.803858 92.430664
endloop
endfacet
facet normal 1.000000 0.000000 0.000000
outer loop
vertex -65.916397 -0.803858 63.508759
vertex -65.916397 13.662290 92.430664
vertex -65.916397 -0.803858 92.430664
endloop
endfacet
facet normal 0.000000 -1.000000 0.000000
outer loop
vertex -83.608521 -0.803858 103.697746
vertex -65.916397 -0.803858 63.508759
vertex -65.916397 -0.803858 92.430664
endloop
endfacet
facet normal -1.000000 0.000000 0.000000
outer loop
vertex -131.832794 -0.803858 63.508759
vertex -131.832794 13.662290 92.430664
vertex -131.832794 13.662290 63.508759
endloop
endfacet
facet normal -0.406243 0.913765 0.000000
outer loop
vertex -131.832794 13.662290 92.430664
vertex -117.360352 20.096462 31.350487
vertex -131.832794 13.662290 63.508759
endloop
endfacet
facet normal -0.928387 0.000000 -0.371614
outer loop
vertex -118.960510 -0.803858 31.350487
vertex -131.832794 -0.803858 63.508759
vertex -131.832794 13.662290 63.508759
endloop
endfacet
facet normal -0.914839 0.070041 -0.397698
outer loop
vertex -117.360352 20.096462 31.350487
vertex -118.960510 -0.803858 31.350487
vertex -131.832794 13.662290 63.508759
endloop
endfacet
facet normal -1.000000 0.000000 0.000000
outer loop
vertex -131.832794 13.662290 92.430664
vertex -131.832794 -0.803858 63.508759
vertex -131.832794 -0.803858 92.430664
endloop
endfacet
facet normal 0.000000 -1.000000 0.000000
outer loop
vertex -131.832794 -0.803858 63.508759
vertex -118.960510 -0.803858 103.697746
vertex -131.832794 -0.803858 92.430664
endloop
endfacet
endsolid Exported from Blender-2.83.0
