solid Exported from Blender-2.83.0
facet normal 0.752449 0.000000 -0.658651
outer loop
vertex -83.609001 -0.803858 356.109314
vertex -72.347275 13.662290 368.974854
vertex -72.347275 -0.803858 368.974854
endloop
endfacet
facet normal 0.000000 -1.000000 -0.000000
outer loop
vertex -139.864777 -0.803858 368.974854
vertex -118.960526 -0.803858 356.109314
vertex -72.347275 -0.803858 401.116608
endloop
endfacet
facet normal -0.000001 0.000000 1.000000
outer loop
vertex -72.347275 -0.803858 401.116608
vertex -85.214989 20.096462 401.116608
vertex -139.864777 13.662290 401.116608
endloop
endfacet
facet normal 0.000000 1.000000 0.000000
outer loop
vertex -85.214989 20.096462 401.116608
vertex -85.214989 20.096462 356.109314
vertex -117.354538 20.096462 356.109314
endloop
endfacet
facet normal 0.000000 0.000000 -1.000000
outer loop
vertex -85.214989 20.096462 356.109314
vertex -118.960526 -0.803858 356.109314
vertex -117.354538 20.096462 356.109314
endloop
endfacet
facet normal 0.000000 -1.000000 0.000000
outer loop
vertex -72.347275 -0.803858 401.116608
vertex -118.960526 -0.803858 356.109314
vertex -83.609001 -0.803858 356.109314
endloop
endfacet
facet normal 0.000000 0.000000 -1.000000
outer loop
vertex -118.960526 -0.803858 356.109314
vertex -85.214989 20.096462 356.109314
vertex -83.609001 -0.803858 356.109314
endloop
endfacet
facet normal 0.000000 -1.000000 0.000000
outer loop
vertex -139.864777 -0.803858 368.974854
vertex -72.347275 -0.803858 401.116608
vertex -139.864777 -0.803858 401.116608
endloop
endfacet
facet normal -1.000000 0.000000 0.000000
outer loop
vertex -139.864777 13.662290 401.116608
vertex -139.864777 -0.803858 368.974854
vertex -139.864777 -0.803858 401.116608
endloop
endfacet
facet normal 0.000000 0.000000 1.000000
outer loop
vertex -72.347275 -0.803858 401.116608
vertex -139.864777 13.662290 401.116608
vertex -139.864777 -0.803858 401.116608
endloop
endfacet
facet normal 0.447230 0.894419 0.000000
outer loop
vertex -85.214989 20.096462 356.109314
vertex -85.214989 20.096462 401.116608
vertex -72.347275 13.662290 368.974854
endloop
endfacet
facet normal 0.719658 0.055299 -0.692123
outer loop
vertex -83.609001 -0.803858 356.109314
vertex -85.214989 20.096462 356.109314
vertex -72.347275 13.662290 368.974854
endloop
endfacet
facet normal -0.524137 0.000000 -0.851634
outer loop
vertex -118.960526 -0.803858 356.109314
vertex -139.864777 -0.803858 368.974854
vertex -139.864777 13.662290 368.974854
endloop
endfacet
facet normal -1.000000 0.000000 0.000000
outer loop
vertex -139.864777 -0.803858 368.974854
vertex -139.864777 13.662290 401.116608
vertex -139.864777 13.662290 368.974854
endloop
endfacet
facet normal -0.504164 0.038741 -0.862739
outer loop
vertex -117.354538 20.096462 356.109314
vertex -118.960526 -0.803858 356.109314
vertex -139.864777 13.662290 368.974854
endloop
endfacet
facet normal -0.274827 0.961494 0.000000
outer loop
vertex -139.864777 13.662290 401.116608
vertex -117.354538 20.096462 356.109314
vertex -139.864777 13.662290 368.974854
endloop
endfacet
facet normal 0.000000 0.000000 1.000000
outer loop
vertex -139.864777 13.662290 401.116608
vertex -85.214989 20.096462 401.116608
vertex -117.354538 20.096462 401.116608
endloop
endfacet
facet normal 0.000000 1.000000 0.000000
outer loop
vertex -85.214989 20.096462 401.116608
vertex -117.354538 20.096462 356.109314
vertex -117.354538 20.096462 401.116608
endloop
endfacet
facet normal -0.274827 0.961494 0.000000
outer loop
vertex -117.354538 20.096462 356.109314
vertex -139.864777 13.662290 401.116608
vertex -117.354538 20.096462 401.116608
endloop
endfacet
facet normal 0.000005 0.000000 1.000000
outer loop
vertex -85.214989 20.096462 401.116608
vertex -72.347275 -0.803858 401.116608
vertex -72.347275 13.662290 401.116608
endloop
endfacet
facet normal 0.447232 0.894418 0.000000
outer loop
vertex -72.347275 13.662290 368.974854
vertex -85.214989 20.096462 401.116608
vertex -72.347275 13.662290 401.116608
endloop
endfacet
facet normal 1.000000 0.000000 0.000000
outer loop
vertex -72.347275 -0.803858 401.116608
vertex -72.347275 13.662290 368.974854
vertex -72.347275 13.662290 401.116608
endloop
endfacet
facet normal 0.000000 -1.000000 0.000000
outer loop
vertex -72.347275 -0.803858 401.116608
vertex -83.609001 -0.803858 356.109314
vertex -72.347275 -0.803858 368.974854
endloop
endfacet
facet normal 1.000000 0.000000 0.000000
outer loop
vertex -72.347275 13.662290 368.974854
vertex -72.347275 -0.803858 401.116608
vertex -72.347275 -0.803858 368.974854
endloop
endfacet
endsolid Exported from Blender-2.83.0
