solid Exported from Blender-2.83.0
facet normal 0.743011 0.000000 -0.669279
outer loop
vertex 200.964630 66.723564 246.791153
vertex 186.489990 81.187820 230.721848
vertex 200.964630 81.187820 246.791153
endloop
endfacet
facet normal 0.000000 1.000000 0.000000
outer loop
vertex 186.489990 81.187820 304.662354
vertex 200.964630 81.187820 274.108948
vertex 131.832794 81.187820 246.791153
endloop
endfacet
facet normal 0.000000 -1.000000 0.000000
outer loop
vertex 151.125549 61.898994 304.662354
vertex 149.521774 61.898994 246.791153
vertex 186.489990 61.898994 230.721848
endloop
endfacet
facet normal 0.903715 0.000000 0.428134
outer loop
vertex 200.964630 81.187820 274.108948
vertex 186.489990 81.187820 304.662354
vertex 186.489990 61.898994 304.662354
endloop
endfacet
facet normal 0.000000 0.000000 1.000000
outer loop
vertex 186.489990 81.187820 304.662354
vertex 151.125549 61.898994 304.662354
vertex 186.489990 61.898994 304.662354
endloop
endfacet
facet normal 0.000000 -1.000000 0.000000
outer loop
vertex 151.125549 61.898994 304.662354
vertex 186.489990 61.898994 230.721848
vertex 186.489990 61.898994 304.662354
endloop
endfacet
facet normal 0.000000 1.000000 -0.000000
outer loop
vertex 131.832794 81.187820 246.791153
vertex 200.964630 81.187820 274.108948
vertex 186.489990 81.187820 230.721848
endloop
endfacet
facet normal 0.000000 1.000000 -0.000000
outer loop
vertex 186.489990 81.187820 304.662354
vertex 131.832794 81.187820 246.791153
vertex 151.125549 81.187820 304.662354
endloop
endfacet
facet normal 0.000000 0.000000 1.000000
outer loop
vertex 151.125549 61.898994 304.662354
vertex 186.489990 81.187820 304.662354
vertex 151.125549 81.187820 304.662354
endloop
endfacet
facet normal -0.845541 0.000000 0.533911
outer loop
vertex 151.125549 61.898994 304.662354
vertex 151.125549 81.187820 304.662354
vertex 131.832794 66.723564 274.108948
endloop
endfacet
facet normal -0.253032 -0.967432 0.007012
outer loop
vertex 149.521774 61.898994 246.791153
vertex 151.125549 61.898994 304.662354
vertex 131.832794 66.723564 274.108948
endloop
endfacet
facet normal 0.000000 -1.000000 -0.000000
outer loop
vertex 186.489990 61.898994 230.721848
vertex 149.521774 61.898994 246.791153
vertex 151.125549 61.898994 230.721848
endloop
endfacet
facet normal 0.000000 0.000000 -1.000000
outer loop
vertex 186.489990 81.187820 230.721848
vertex 186.489990 61.898994 230.721848
vertex 151.125549 61.898994 230.721848
endloop
endfacet
facet normal 0.316209 -0.948690 0.000000
outer loop
vertex 186.489990 61.898994 304.662354
vertex 186.489990 61.898994 230.721848
vertex 200.964630 66.723564 246.791153
endloop
endfacet
facet normal 0.743013 0.000000 -0.669277
outer loop
vertex 186.489990 61.898994 230.721848
vertex 186.489990 81.187820 230.721848
vertex 200.964630 66.723564 246.791153
endloop
endfacet
facet normal 0.000000 1.000000 0.000001
outer loop
vertex 131.832794 81.187820 246.791153
vertex 186.489990 81.187820 230.721848
vertex 151.125549 81.187820 230.721848
endloop
endfacet
facet normal -0.639997 0.000000 -0.768378
outer loop
vertex 151.125549 61.898994 230.721848
vertex 131.832794 81.187820 246.791153
vertex 151.125549 81.187820 230.721848
endloop
endfacet
facet normal 0.000000 0.000000 -1.000000
outer loop
vertex 186.489990 81.187820 230.721848
vertex 151.125549 61.898994 230.721848
vertex 151.125549 81.187820 230.721848
endloop
endfacet
facet normal -0.263132 -0.964760 0.000000
outer loop
vertex 149.521774 61.898994 246.791153
vertex 131.832794 66.723564 274.108948
vertex 131.832794 66.723564 246.791153
endloop
endfacet
facet normal -1.000000 0.000000 0.000000
outer loop
vertex 131.832794 66.723564 274.108948
vertex 131.832794 81.187820 246.791153
vertex 131.832794 66.723564 246.791153
endloop
endfacet
facet normal -0.639996 0.000000 -0.768378
outer loop
vertex 131.832794 81.187820 246.791153
vertex 151.125549 61.898994 230.721848
vertex 131.832794 66.723564 246.791153
endloop
endfacet
facet normal -0.263042 -0.964427 -0.026253
outer loop
vertex 151.125549 61.898994 230.721848
vertex 149.521774 61.898994 246.791153
vertex 131.832794 66.723564 246.791153
endloop
endfacet
facet normal 0.000000 1.000000 0.000000
outer loop
vertex 151.125549 81.187820 304.662354
vertex 131.832794 81.187820 246.791153
vertex 131.832794 81.187820 274.108948
endloop
endfacet
facet normal -0.845540 0.000000 0.533912
outer loop
vertex 131.832794 66.723564 274.108948
vertex 151.125549 81.187820 304.662354
vertex 131.832794 81.187820 274.108948
endloop
endfacet
facet normal -1.000000 0.000000 0.000000
outer loop
vertex 131.832794 81.187820 246.791153
vertex 131.832794 66.723564 274.108948
vertex 131.832794 81.187820 274.108948
endloop
endfacet
facet normal 0.903715 0.000000 0.428134
outer loop
vertex 200.964630 81.187820 274.108948
vertex 186.489990 61.898994 304.662354
vertex 200.964630 66.723564 274.108948
endloop
endfacet
facet normal 1.000000 0.000000 0.000000
outer loop
vertex 200.964630 66.723564 246.791153
vertex 200.964630 81.187820 274.108948
vertex 200.964630 66.723564 274.108948
endloop
endfacet
facet normal 0.316210 -0.948689 0.000000
outer loop
vertex 186.489990 61.898994 304.662354
vertex 200.964630 66.723564 246.791153
vertex 200.964630 66.723564 274.108948
endloop
endfacet
facet normal 0.000000 1.000000 0.000000
outer loop
vertex 186.489990 81.187820 230.721848
vertex 200.964630 81.187820 274.108948
vertex 200.964630 81.187820 246.791153
endloop
endfacet
facet normal 1.000000 0.000000 0.000000
outer loop
vertex 200.964630 81.187820 274.108948
vertex 200.964630 66.723564 246.791153
vertex 200.964630 81.187820 246.791153
endloop
endfacet
endsolid Exported from Blender-2.83.0
