solid Exported from Blender-2.83.0
facet normal 0.000000 1.000000 0.000000
outer loop
vertex 218.648880 18.486858 229.111023
vertex 220.257233 18.486858 286.993286
vertex 220.256760 18.486858 229.111023
endloop
endfacet
facet normal 0.000000 0.000000 -1.000000
outer loop
vertex 220.256760 -0.803858 229.111023
vertex 218.648880 -0.803858 229.111023
vertex 218.648880 18.486858 229.111023
endloop
endfacet
facet normal 0.000000 -1.000000 0.000000
outer loop
vertex 218.648880 -0.803858 229.111023
vertex 220.256760 -0.803858 229.111023
vertex 215.435013 -0.803858 274.116058
endloop
endfacet
facet normal 0.000000 -1.000000 -0.000000
outer loop
vertex 215.435013 -0.803858 274.116058
vertex 220.256760 -0.803858 229.111023
vertex 220.257233 -0.803858 362.519714
endloop
endfacet
facet normal -0.983883 0.000000 -0.178816
outer loop
vertex 218.648880 18.486858 229.111023
vertex 218.648880 -0.803858 229.111023
vertex 215.435013 16.878040 246.794357
endloop
endfacet
facet normal -0.991473 -0.109403 -0.070802
outer loop
vertex 218.648880 -0.803858 229.111023
vertex 215.435013 -0.803858 274.116058
vertex 215.435013 16.878040 246.794357
endloop
endfacet
facet normal 0.000000 1.000000 -0.000000
outer loop
vertex 218.648880 18.486858 229.111023
vertex 218.649353 18.486858 362.519714
vertex 220.257233 18.486858 286.993286
endloop
endfacet
facet normal 1.000000 -0.000014 -0.000004
outer loop
vertex 220.257233 -0.803858 362.519714
vertex 220.256760 -0.803858 229.111023
vertex 220.257233 18.486858 286.993286
endloop
endfacet
facet normal -0.989770 -0.082498 0.116406
outer loop
vertex 220.257233 -0.803858 362.519714
vertex 218.649353 18.486858 362.519714
vertex 217.042419 -0.803858 335.184967
endloop
endfacet
facet normal 0.000000 -1.000000 0.000000
outer loop
vertex 215.435013 -0.803858 274.116058
vertex 220.257233 -0.803858 362.519714
vertex 217.042419 -0.803858 335.184967
endloop
endfacet
facet normal 0.000000 1.000000 0.000000
outer loop
vertex 218.649353 18.486858 362.519714
vertex 218.648880 18.486858 229.111023
vertex 217.042419 18.486858 335.184967
endloop
endfacet
facet normal -0.479270 0.877637 -0.007258
outer loop
vertex 218.648880 18.486858 229.111023
vertex 215.435013 16.878040 246.794357
vertex 217.042419 18.486858 335.184967
endloop
endfacet
facet normal -0.999471 0.027316 0.017678
outer loop
vertex 215.435013 16.878040 246.794357
vertex 215.435013 -0.803858 274.116058
vertex 217.042419 18.486858 335.184967
endloop
endfacet
facet normal -0.998276 0.000000 0.058686
outer loop
vertex 217.042419 -0.803858 335.184967
vertex 218.649353 18.486858 362.519714
vertex 217.042419 18.486858 335.184967
endloop
endfacet
facet normal -0.999654 0.000000 0.026312
outer loop
vertex 215.435013 -0.803858 274.116058
vertex 217.042419 -0.803858 335.184967
vertex 217.042419 18.486858 335.184967
endloop
endfacet
facet normal 0.000000 0.000000 1.000000
outer loop
vertex 218.649353 18.486858 362.519714
vertex 220.257233 -0.803858 362.519714
vertex 220.257233 18.486858 362.519714
endloop
endfacet
facet normal 0.000000 1.000000 0.000000
outer loop
vertex 220.257233 18.486858 286.993286
vertex 218.649353 18.486858 362.519714
vertex 220.257233 18.486858 362.519714
endloop
endfacet
facet normal 1.000000 0.000000 0.000000
outer loop
vertex 220.257233 -0.803858 362.519714
vertex 220.257233 18.486858 286.993286
vertex 220.257233 18.486858 362.519714
endloop
endfacet
facet normal 0.000000 0.000000 -1.000000
outer loop
vertex 220.256760 -0.803858 229.111023
vertex 218.648880 18.486858 229.111023
vertex 220.256760 18.486858 229.111023
endloop
endfacet
facet normal 1.000000 0.000000 -0.000008
outer loop
vertex 220.257233 18.486858 286.993286
vertex 220.256760 -0.803858 229.111023
vertex 220.256760 18.486858 229.111023
endloop
endfacet
endsolid Exported from Blender-2.83.0
