solid Exported from Blender-2.83.0
facet normal -1.000000 0.000000 0.000000
outer loop
vertex 197.753586 13.662291 368.974854
vertex 197.753586 -0.803858 401.121613
vertex 197.753586 13.662291 401.121613
endloop
endfacet
facet normal 0.000000 0.000000 1.000000
outer loop
vertex 220.257233 18.486858 401.121613
vertex 217.038635 18.486858 401.121613
vertex 220.257233 -0.803858 401.121613
endloop
endfacet
facet normal 0.000000 -1.000000 0.000000
outer loop
vertex 218.646835 -0.803858 362.543976
vertex 220.257233 -0.803858 401.121613
vertex 197.753586 -0.803858 401.121613
endloop
endfacet
facet normal 0.000000 0.000000 1.000000
outer loop
vertex 220.257233 -0.803858 401.121613
vertex 217.038635 18.486858 401.121613
vertex 197.753586 -0.803858 401.121613
endloop
endfacet
facet normal -0.279314 0.023317 -0.959917
outer loop
vertex 218.646835 -0.803858 362.543976
vertex 197.753586 13.662291 368.974854
vertex 220.257233 18.486858 362.543976
endloop
endfacet
facet normal 0.000000 1.000000 0.000000
outer loop
vertex 217.038635 18.486858 401.121613
vertex 220.257233 18.486858 401.121613
vertex 220.257233 18.486858 362.543976
endloop
endfacet
facet normal 1.000000 0.000000 0.000000
outer loop
vertex 220.257233 18.486858 401.121613
vertex 220.257233 -0.803858 401.121613
vertex 220.257233 18.486858 362.543976
endloop
endfacet
facet normal 0.995672 -0.083121 -0.041564
outer loop
vertex 220.257233 -0.803858 401.121613
vertex 218.646835 -0.803858 362.543976
vertex 220.257233 18.486858 362.543976
endloop
endfacet
facet normal -0.214480 0.976565 -0.017894
outer loop
vertex 197.753586 13.662291 368.974854
vertex 217.038635 18.486858 401.121613
vertex 220.257233 18.486858 362.543976
endloop
endfacet
facet normal 0.000000 -1.000000 0.000000
outer loop
vertex 218.646835 -0.803858 362.543976
vertex 197.753586 -0.803858 401.121613
vertex 197.753586 -0.803858 368.974854
endloop
endfacet
facet normal -1.000000 0.000000 0.000000
outer loop
vertex 197.753586 -0.803858 401.121613
vertex 197.753586 13.662291 368.974854
vertex 197.753586 -0.803858 368.974854
endloop
endfacet
facet normal -0.294178 0.000000 -0.955751
outer loop
vertex 197.753586 13.662291 368.974854
vertex 218.646835 -0.803858 362.543976
vertex 197.753586 -0.803858 368.974854
endloop
endfacet
facet normal -0.000003 0.000000 1.000000
outer loop
vertex 197.753586 -0.803858 401.121613
vertex 217.038635 18.486858 401.121613
vertex 197.753586 13.662291 401.121613
endloop
endfacet
facet normal -0.242692 0.970103 0.000000
outer loop
vertex 217.038635 18.486858 401.121613
vertex 197.753586 13.662291 368.974854
vertex 197.753586 13.662291 401.121613
endloop
endfacet
endsolid Exported from Blender-2.83.0
