solid Exported from Blender-2.83.0
facet normal 0.752417 0.000000 -0.658687
outer loop
vertex -151.134216 -0.803858 356.109314
vertex -139.871384 13.662290 368.974854
vertex -139.871384 -0.803858 368.974854
endloop
endfacet
facet normal 0.000000 -1.000000 0.000000
outer loop
vertex -207.395493 -0.803858 368.974854
vertex -186.489197 -0.803858 356.109314
vertex -139.871384 -0.803858 401.116608
endloop
endfacet
facet normal -0.000001 0.000000 1.000000
outer loop
vertex -139.871384 -0.803858 401.116608
vertex -152.740356 20.096462 401.116608
vertex -207.395493 13.662290 401.116608
endloop
endfacet
facet normal 0.000000 1.000000 0.000000
outer loop
vertex -152.740356 20.096462 401.116608
vertex -152.740356 20.096462 356.109314
vertex -184.883057 20.096462 356.109314
endloop
endfacet
facet normal 0.000000 0.000000 -1.000000
outer loop
vertex -152.740356 20.096462 356.109314
vertex -186.489197 -0.803858 356.109314
vertex -184.883057 20.096462 356.109314
endloop
endfacet
facet normal 0.000000 -1.000000 0.000000
outer loop
vertex -139.871384 -0.803858 401.116608
vertex -186.489197 -0.803858 356.109314
vertex -151.134216 -0.803858 356.109314
endloop
endfacet
facet normal 0.000000 0.000000 -1.000000
outer loop
vertex -186.489197 -0.803858 356.109314
vertex -152.740356 20.096462 356.109314
vertex -151.134216 -0.803858 356.109314
endloop
endfacet
facet normal 0.000000 -1.000000 0.000000
outer loop
vertex -207.395493 -0.803858 368.974854
vertex -139.871384 -0.803858 401.116608
vertex -207.395493 -0.803858 401.116608
endloop
endfacet
facet normal -1.000000 0.000000 0.000000
outer loop
vertex -207.395493 13.662290 401.116608
vertex -207.395493 -0.803858 368.974854
vertex -207.395493 -0.803858 401.116608
endloop
endfacet
facet normal 0.000000 0.000000 1.000000
outer loop
vertex -139.871384 -0.803858 401.116608
vertex -207.395493 13.662290 401.116608
vertex -207.395493 -0.803858 401.116608
endloop
endfacet
facet normal 0.447196 0.894436 0.000000
outer loop
vertex -152.740356 20.096462 356.109314
vertex -152.740356 20.096462 401.116608
vertex -139.871384 13.662290 368.974854
endloop
endfacet
facet normal 0.719624 0.055301 -0.692159
outer loop
vertex -151.134216 -0.803858 356.109314
vertex -152.740356 20.096462 356.109314
vertex -139.871384 13.662290 368.974854
endloop
endfacet
facet normal -0.524100 0.000000 -0.851657
outer loop
vertex -186.489197 -0.803858 356.109314
vertex -207.395493 -0.803858 368.974854
vertex -207.395493 13.662290 368.974854
endloop
endfacet
facet normal -1.000000 0.000000 0.000000
outer loop
vertex -207.395493 -0.803858 368.974854
vertex -207.395493 13.662290 401.116608
vertex -207.395493 13.662290 368.974854
endloop
endfacet
facet normal -0.504127 0.038740 -0.862760
outer loop
vertex -184.883057 20.096462 356.109314
vertex -186.489197 -0.803858 356.109314
vertex -207.395493 13.662290 368.974854
endloop
endfacet
facet normal -0.274802 0.961501 0.000000
outer loop
vertex -207.395493 13.662290 401.116608
vertex -184.883057 20.096462 356.109314
vertex -207.395493 13.662290 368.974854
endloop
endfacet
facet normal 0.000000 0.000000 1.000000
outer loop
vertex -207.395493 13.662290 401.116608
vertex -152.740356 20.096462 401.116608
vertex -184.883057 20.096462 401.116608
endloop
endfacet
facet normal 0.000000 1.000000 0.000000
outer loop
vertex -152.740356 20.096462 401.116608
vertex -184.883057 20.096462 356.109314
vertex -184.883057 20.096462 401.116608
endloop
endfacet
facet normal -0.274802 0.961501 0.000000
outer loop
vertex -184.883057 20.096462 356.109314
vertex -207.395493 13.662290 401.116608
vertex -184.883057 20.096462 401.116608
endloop
endfacet
facet normal 0.000005 0.000000 1.000000
outer loop
vertex -152.740356 20.096462 401.116608
vertex -139.871384 -0.803858 401.116608
vertex -139.871384 13.662290 401.116608
endloop
endfacet
facet normal 0.447196 0.894436 0.000000
outer loop
vertex -139.871384 13.662290 368.974854
vertex -152.740356 20.096462 401.116608
vertex -139.871384 13.662290 401.116608
endloop
endfacet
facet normal 1.000000 0.000000 0.000000
outer loop
vertex -139.871384 -0.803858 401.116608
vertex -139.871384 13.662290 368.974854
vertex -139.871384 13.662290 401.116608
endloop
endfacet
facet normal 0.000000 -1.000000 0.000000
outer loop
vertex -139.871384 -0.803858 401.116608
vertex -151.134216 -0.803858 356.109314
vertex -139.871384 -0.803858 368.974854
endloop
endfacet
facet normal 1.000000 0.000000 0.000000
outer loop
vertex -139.871384 13.662290 368.974854
vertex -139.871384 -0.803858 401.116608
vertex -139.871384 -0.803858 368.974854
endloop
endfacet
endsolid Exported from Blender-2.83.0
