solid Exported from Blender-2.83.0
facet normal 0.000000 0.000000 -1.000000
outer loop
vertex 118.960510 61.898994 238.758102
vertex 83.608521 81.187820 238.758102
vertex 118.960510 81.187820 238.758102
endloop
endfacet
facet normal 0.000000 1.000000 -0.000000
outer loop
vertex 118.960510 81.187820 362.528076
vertex 131.832794 81.187820 335.193268
vertex 65.916397 81.187820 246.803452
endloop
endfacet
facet normal 0.904706 0.000000 0.426035
outer loop
vertex 131.832794 81.187820 335.193268
vertex 118.960510 81.187820 362.528076
vertex 118.960510 61.898994 362.528076
endloop
endfacet
facet normal 0.000000 -1.000000 0.000000
outer loop
vertex 83.608521 61.898994 362.528076
vertex 81.995453 61.898994 246.803452
vertex 118.960510 61.898994 362.528076
endloop
endfacet
facet normal 0.000000 0.000000 1.000000
outer loop
vertex 118.960510 81.187820 362.528076
vertex 83.608521 61.898994 362.528076
vertex 118.960510 61.898994 362.528076
endloop
endfacet
facet normal 0.000000 1.000000 0.000000
outer loop
vertex 118.960510 81.187820 362.528076
vertex 65.916397 81.187820 246.803452
vertex 65.916397 81.187820 335.193268
endloop
endfacet
facet normal 0.000000 1.000000 0.000000
outer loop
vertex 65.916397 81.187820 246.803452
vertex 131.832794 81.187820 335.193268
vertex 131.832794 81.187820 246.803452
endloop
endfacet
facet normal 1.000000 0.000000 0.000000
outer loop
vertex 131.832794 81.187820 335.193268
vertex 131.832794 66.723564 246.803452
vertex 131.832794 81.187820 246.803452
endloop
endfacet
facet normal -0.268465 -0.963282 0.003742
outer loop
vertex 81.995453 61.898994 246.803452
vertex 83.608521 61.898994 362.528076
vertex 65.916397 66.723564 335.193268
endloop
endfacet
facet normal -1.000000 0.000000 0.000000
outer loop
vertex 65.916397 81.187820 335.193268
vertex 65.916397 81.187820 246.803452
vertex 65.916397 66.723564 335.193268
endloop
endfacet
facet normal -0.839501 0.000000 0.543358
outer loop
vertex 83.608521 61.898994 362.528076
vertex 65.916397 81.187820 335.193268
vertex 65.916397 66.723564 335.193268
endloop
endfacet
facet normal 0.000000 -1.000000 0.000000
outer loop
vertex 118.960510 61.898994 362.528076
vertex 81.995453 61.898994 246.803452
vertex 118.960510 61.898994 238.758102
endloop
endfacet
facet normal 0.350962 -0.936390 0.000000
outer loop
vertex 131.832794 66.723564 246.803452
vertex 118.960510 61.898994 362.528076
vertex 118.960510 61.898994 238.758102
endloop
endfacet
facet normal 0.530007 0.000000 -0.847993
outer loop
vertex 131.832794 81.187820 246.803452
vertex 131.832794 66.723564 246.803452
vertex 118.960510 61.898994 238.758102
endloop
endfacet
facet normal -0.287394 -0.957812 0.000000
outer loop
vertex 81.995453 61.898994 246.803452
vertex 65.916397 66.723564 335.193268
vertex 65.916397 66.723564 246.803452
endloop
endfacet
facet normal -1.000000 0.000000 0.000000
outer loop
vertex 65.916397 66.723564 335.193268
vertex 65.916397 81.187820 246.803452
vertex 65.916397 66.723564 246.803452
endloop
endfacet
facet normal 0.000000 0.000000 1.000000
outer loop
vertex 83.608521 61.898994 362.528076
vertex 118.960510 81.187820 362.528076
vertex 83.608521 81.187820 362.528076
endloop
endfacet
facet normal 0.000000 1.000000 0.000001
outer loop
vertex 118.960510 81.187820 362.528076
vertex 65.916397 81.187820 335.193268
vertex 83.608521 81.187820 362.528076
endloop
endfacet
facet normal -0.839502 0.000000 0.543356
outer loop
vertex 65.916397 81.187820 335.193268
vertex 83.608521 61.898994 362.528076
vertex 83.608521 81.187820 362.528076
endloop
endfacet
facet normal 1.000000 0.000000 0.000000
outer loop
vertex 131.832794 66.723564 246.803452
vertex 131.832794 81.187820 335.193268
vertex 131.832794 66.723564 335.193268
endloop
endfacet
facet normal 0.904705 0.000000 0.426037
outer loop
vertex 131.832794 81.187820 335.193268
vertex 118.960510 61.898994 362.528076
vertex 131.832794 66.723564 335.193268
endloop
endfacet
facet normal 0.350961 -0.936390 0.000000
outer loop
vertex 118.960510 61.898994 362.528076
vertex 131.832794 66.723564 246.803452
vertex 131.832794 66.723564 335.193268
endloop
endfacet
facet normal 0.000000 1.000000 0.000000
outer loop
vertex 65.916397 81.187820 246.803452
vertex 131.832794 81.187820 246.803452
vertex 83.608521 81.187820 238.758102
endloop
endfacet
facet normal -0.413952 0.000000 -0.910299
outer loop
vertex 65.916397 66.723564 246.803452
vertex 65.916397 81.187820 246.803452
vertex 83.608521 81.187820 238.758102
endloop
endfacet
facet normal -0.413952 0.000000 -0.910299
outer loop
vertex 65.916397 66.723564 246.803452
vertex 83.608521 81.187820 238.758102
vertex 83.608521 61.898994 238.758102
endloop
endfacet
facet normal 0.000000 -1.000000 -0.000001
outer loop
vertex 118.960510 61.898994 238.758102
vertex 81.995453 61.898994 246.803452
vertex 83.608521 61.898994 238.758102
endloop
endfacet
facet normal -0.286919 -0.956226 -0.057525
outer loop
vertex 81.995453 61.898994 246.803452
vertex 65.916397 66.723564 246.803452
vertex 83.608521 61.898994 238.758102
endloop
endfacet
facet normal 0.000000 0.000000 -1.000000
outer loop
vertex 83.608521 81.187820 238.758102
vertex 118.960510 61.898994 238.758102
vertex 83.608521 61.898994 238.758102
endloop
endfacet
facet normal 0.530008 0.000000 -0.847993
outer loop
vertex 131.832794 81.187820 246.803452
vertex 118.960510 61.898994 238.758102
vertex 118.960510 81.187820 238.758102
endloop
endfacet
facet normal 0.000000 1.000000 -0.000001
outer loop
vertex 83.608521 81.187820 238.758102
vertex 131.832794 81.187820 246.803452
vertex 118.960510 81.187820 238.758102
endloop
endfacet
endsolid Exported from Blender-2.83.0
