solid Exported from Blender-2.83.0
facet normal 0.000000 0.000000 1.000000
outer loop
vertex 218.647324 81.185936 153.536972
vertex 217.039261 61.897430 153.536972
vertex 218.649048 61.897430 153.536972
endloop
endfacet
facet normal 0.000000 -1.000000 0.000000
outer loop
vertex 217.039261 61.897430 63.504826
vertex 218.649048 61.897430 63.504826
vertex 217.039261 61.897430 153.536972
endloop
endfacet
facet normal 0.000000 0.000000 -1.000000
outer loop
vertex 218.649048 61.897430 63.504826
vertex 217.039261 61.897430 63.504826
vertex 200.965576 81.185936 63.504826
endloop
endfacet
facet normal -0.287580 -0.957757 0.000000
outer loop
vertex 217.039261 61.897430 63.504826
vertex 217.039261 61.897430 153.536972
vertex 200.965576 66.723801 153.536972
endloop
endfacet
facet normal -0.000002 0.000000 1.000000
outer loop
vertex 217.039261 61.897430 153.536972
vertex 218.647324 81.185936 153.536972
vertex 200.965576 66.723801 153.536972
endloop
endfacet
facet normal 1.000000 0.000090 0.000000
outer loop
vertex 218.647324 81.185936 153.536972
vertex 218.649048 61.897430 63.504826
vertex 218.647324 81.185936 63.504826
endloop
endfacet
facet normal 0.000000 1.000000 0.000000
outer loop
vertex 200.965576 81.185936 63.504826
vertex 218.647324 81.185936 153.536972
vertex 218.647324 81.185936 63.504826
endloop
endfacet
facet normal 0.000000 0.000000 -1.000000
outer loop
vertex 218.649048 61.897430 63.504826
vertex 200.965576 81.185936 63.504826
vertex 218.647324 81.185936 63.504826
endloop
endfacet
facet normal 0.000000 1.000000 0.000000
outer loop
vertex 218.647324 81.185936 153.536972
vertex 200.965576 81.185936 63.504826
vertex 200.965576 81.185936 153.536972
endloop
endfacet
facet normal -1.000000 0.000000 0.000000
outer loop
vertex 200.965576 81.185936 63.504826
vertex 200.965576 66.723801 153.536972
vertex 200.965576 81.185936 153.536972
endloop
endfacet
facet normal 0.000000 0.000000 1.000000
outer loop
vertex 200.965576 66.723801 153.536972
vertex 218.647324 81.185936 153.536972
vertex 200.965576 81.185936 153.536972
endloop
endfacet
facet normal 0.000000 0.000000 -1.000000
outer loop
vertex 200.965576 81.185936 63.504826
vertex 217.039261 61.897430 63.504826
vertex 200.965576 66.723801 63.504826
endloop
endfacet
facet normal -0.287582 -0.957756 0.000000
outer loop
vertex 217.039261 61.897430 63.504826
vertex 200.965576 66.723801 153.536972
vertex 200.965576 66.723801 63.504826
endloop
endfacet
facet normal -1.000000 0.000000 0.000000
outer loop
vertex 200.965576 66.723801 153.536972
vertex 200.965576 81.185936 63.504826
vertex 200.965576 66.723801 63.504826
endloop
endfacet
facet normal 1.000000 0.000088 0.000000
outer loop
vertex 218.649048 61.897430 63.504826
vertex 218.647324 81.185936 153.536972
vertex 218.649048 61.897430 153.536972
endloop
endfacet
facet normal 0.000000 -1.000000 0.000000
outer loop
vertex 217.039261 61.897430 153.536972
vertex 218.649048 61.897430 63.504826
vertex 218.649048 61.897430 153.536972
endloop
endfacet
endsolid Exported from Blender-2.83.0
