solid Exported from Blender-2.83.0
facet normal 0.316339 0.000000 0.948646
outer loop
vertex 200.964630 -0.799767 31.345604
vertex 186.486206 18.492836 36.173634
vertex 186.486206 -0.799767 36.173634
endloop
endfacet
facet normal 0.000000 1.000000 0.000000
outer loop
vertex 200.964630 40.992691 20.093472
vertex 200.964630 40.992691 -0.796623
vertex 138.263672 40.992691 -0.796623
endloop
endfacet
facet normal 1.000000 0.000000 0.000000
outer loop
vertex 200.964630 40.992691 -0.796623
vertex 200.964630 40.992691 20.093472
vertex 200.964630 -0.799767 -0.796623
endloop
endfacet
facet normal 0.000000 0.000000 -1.000000
outer loop
vertex 138.263672 40.992691 -0.796623
vertex 200.964630 40.992691 -0.796623
vertex 200.964630 -0.799767 -0.796623
endloop
endfacet
facet normal 0.000000 -1.000000 0.000000
outer loop
vertex 200.964630 -0.799767 -0.796623
vertex 151.134064 -0.799767 36.173634
vertex 138.263672 -0.799767 -0.796623
endloop
endfacet
facet normal 0.000000 0.000000 -1.000000
outer loop
vertex 138.263672 40.992691 -0.796623
vertex 200.964630 -0.799767 -0.796623
vertex 138.263672 -0.799767 -0.796623
endloop
endfacet
facet normal 0.000000 1.000000 0.000000
outer loop
vertex 200.964630 40.992691 20.093472
vertex 138.263672 40.992691 -0.796623
vertex 162.384140 40.992691 36.173634
endloop
endfacet
facet normal 0.000000 -1.000000 0.000000
outer loop
vertex 151.134064 -0.799767 36.173634
vertex 200.964630 -0.799767 -0.796623
vertex 200.964630 -0.799767 31.345604
endloop
endfacet
facet normal 1.000000 -0.000000 0.000000
outer loop
vertex 200.964630 -0.799767 -0.796623
vertex 200.964630 40.992691 20.093472
vertex 200.964630 -0.799767 31.345604
endloop
endfacet
facet normal -1.000000 0.000000 0.000000
outer loop
vertex 138.263672 40.992691 -0.796623
vertex 138.263672 -0.799767 -0.796623
vertex 138.263672 13.669685 31.345604
endloop
endfacet
facet normal -0.275965 0.074287 0.958293
outer loop
vertex 151.134064 -0.799767 36.173634
vertex 162.384140 40.992691 36.173634
vertex 138.263672 13.669685 31.345604
endloop
endfacet
facet normal -0.524746 0.324154 0.787125
outer loop
vertex 138.263672 13.669685 31.345604
vertex 162.384140 40.992691 36.173634
vertex 138.263672 40.992691 20.093472
endloop
endfacet
facet normal 0.000000 1.000000 0.000000
outer loop
vertex 162.384140 40.992691 36.173634
vertex 138.263672 40.992691 -0.796623
vertex 138.263672 40.992691 20.093472
endloop
endfacet
facet normal -1.000000 -0.000000 0.000000
outer loop
vertex 138.263672 40.992691 -0.796623
vertex 138.263672 13.669685 31.345604
vertex 138.263672 40.992691 20.093472
endloop
endfacet
facet normal 0.000000 0.000000 1.000000
outer loop
vertex 162.384140 40.992691 36.173634
vertex 151.134064 -0.799767 36.173634
vertex 186.486206 18.492836 36.173634
endloop
endfacet
facet normal 0.000000 -1.000000 0.000000
outer loop
vertex 138.263672 -0.799767 -0.796623
vertex 151.134064 -0.799767 36.173634
vertex 138.263672 -0.799767 31.345604
endloop
endfacet
facet normal -0.351228 0.000000 0.936290
outer loop
vertex 151.134064 -0.799767 36.173634
vertex 138.263672 13.669685 31.345604
vertex 138.263672 -0.799767 31.345604
endloop
endfacet
facet normal -1.000000 0.000000 0.000000
outer loop
vertex 138.263672 13.669685 31.345604
vertex 138.263672 -0.799767 -0.796623
vertex 138.263672 -0.799767 31.345604
endloop
endfacet
facet normal 0.000000 1.000000 0.000000
outer loop
vertex 200.964630 40.992691 20.093472
vertex 162.384140 40.992691 36.173634
vertex 175.236130 40.992691 36.173634
endloop
endfacet
facet normal 0.000000 0.000000 1.000000
outer loop
vertex 162.384140 40.992691 36.173634
vertex 186.486206 18.492836 36.173634
vertex 175.236130 40.992691 36.173634
endloop
endfacet
facet normal 0.365230 0.182618 0.912830
outer loop
vertex 175.236130 40.992691 36.173634
vertex 186.486206 18.492836 36.173634
vertex 200.964630 13.669685 31.345604
endloop
endfacet
facet normal 1.000000 0.000000 0.000000
outer loop
vertex 200.964630 -0.799767 31.345604
vertex 200.964630 40.992691 20.093472
vertex 200.964630 13.669685 31.345604
endloop
endfacet
facet normal 0.316339 0.000000 0.948646
outer loop
vertex 186.486206 18.492836 36.173634
vertex 200.964630 -0.799767 31.345604
vertex 200.964630 13.669685 31.345604
endloop
endfacet
facet normal 0.500362 0.329696 0.800586
outer loop
vertex 200.964630 40.992691 20.093472
vertex 175.236130 40.992691 36.173634
vertex 200.964630 13.669685 31.345604
endloop
endfacet
facet normal 0.000000 -1.000000 0.000000
outer loop
vertex 151.134064 -0.799767 36.173634
vertex 200.964630 -0.799767 31.345604
vertex 186.486206 -0.799767 36.173634
endloop
endfacet
facet normal 0.000000 0.000000 1.000000
outer loop
vertex 186.486206 18.492836 36.173634
vertex 151.134064 -0.799767 36.173634
vertex 186.486206 -0.799767 36.173634
endloop
endfacet
endsolid Exported from Blender-2.83.0
