solid Exported from Blender-2.83.0
facet normal 0.000000 1.000000 -0.000002
outer loop
vertex 151.125549 81.187820 304.662384
vertex 200.964630 81.187820 307.891663
vertex 186.489990 81.187820 304.662384
endloop
endfacet
facet normal 0.000000 0.000000 1.000000
outer loop
vertex 200.964630 66.723564 401.125397
vertex 200.964630 81.187820 401.125397
vertex 131.832794 81.187820 401.125397
endloop
endfacet
facet normal 1.000000 0.000000 0.000000
outer loop
vertex 200.964630 81.187820 401.125397
vertex 200.964630 66.723564 401.125397
vertex 200.964630 81.187820 307.891663
endloop
endfacet
facet normal 0.000000 1.000000 0.000000
outer loop
vertex 131.832794 81.187820 401.125397
vertex 200.964630 81.187820 401.125397
vertex 200.964630 81.187820 307.891663
endloop
endfacet
facet normal 0.000000 1.000000 0.000000
outer loop
vertex 131.832794 81.187820 401.125397
vertex 200.964630 81.187820 307.891663
vertex 131.832794 81.187820 307.891663
endloop
endfacet
facet normal 0.000000 0.000000 1.000000
outer loop
vertex 200.964630 66.723564 401.125397
vertex 131.832794 81.187820 401.125397
vertex 131.832794 66.723564 401.125397
endloop
endfacet
facet normal -1.000000 0.000000 0.000000
outer loop
vertex 131.832794 81.187820 401.125397
vertex 131.832794 81.187820 307.891663
vertex 131.832794 66.723564 401.125397
endloop
endfacet
facet normal 1.000000 0.000000 0.000000
outer loop
vertex 200.964630 81.187820 307.891663
vertex 200.964630 66.723564 401.125397
vertex 200.964630 66.723564 307.891663
endloop
endfacet
facet normal 0.000000 0.000000 1.000000
outer loop
vertex 200.964630 66.723564 401.125397
vertex 131.832794 66.723564 401.125397
vertex 188.093765 61.898994 401.125397
endloop
endfacet
facet normal 0.350995 -0.936377 0.000000
outer loop
vertex 200.964630 66.723564 307.891663
vertex 200.964630 66.723564 401.125397
vertex 188.093765 61.898994 401.125397
endloop
endfacet
facet normal -0.165083 0.000000 -0.986280
outer loop
vertex 131.832794 81.187820 307.891663
vertex 151.125549 61.898994 304.662384
vertex 131.832794 66.723564 307.891663
endloop
endfacet
facet normal -1.000000 0.000000 0.000000
outer loop
vertex 131.832794 66.723564 401.125397
vertex 131.832794 81.187820 307.891663
vertex 131.832794 66.723564 307.891663
endloop
endfacet
facet normal -0.263133 -0.964760 0.000000
outer loop
vertex 131.832794 66.723564 401.125397
vertex 131.832794 66.723564 307.891663
vertex 149.521774 61.898994 401.125397
endloop
endfacet
facet normal 0.000000 -1.000000 0.000000
outer loop
vertex 151.125549 61.898994 304.662384
vertex 188.093765 61.898994 401.125397
vertex 149.521774 61.898994 401.125397
endloop
endfacet
facet normal 0.000000 0.000000 1.000000
outer loop
vertex 188.093765 61.898994 401.125397
vertex 131.832794 66.723564 401.125397
vertex 149.521774 61.898994 401.125397
endloop
endfacet
facet normal -0.243236 -0.969959 -0.004044
outer loop
vertex 131.832794 66.723564 307.891663
vertex 151.125549 61.898994 304.662384
vertex 149.521774 61.898994 401.125397
endloop
endfacet
facet normal 0.217742 0.000000 -0.976006
outer loop
vertex 200.964630 81.187820 307.891663
vertex 200.964630 66.723564 307.891663
vertex 186.489990 61.898994 304.662384
endloop
endfacet
facet normal 0.000000 -1.000000 0.000000
outer loop
vertex 188.093765 61.898994 401.125397
vertex 151.125549 61.898994 304.662384
vertex 186.489990 61.898994 304.662384
endloop
endfacet
facet normal 0.317264 -0.948323 -0.005275
outer loop
vertex 200.964630 66.723564 307.891663
vertex 188.093765 61.898994 401.125397
vertex 186.489990 61.898994 304.662384
endloop
endfacet
facet normal -0.165089 0.000000 -0.986279
outer loop
vertex 151.125549 61.898994 304.662384
vertex 131.832794 81.187820 307.891663
vertex 151.125549 81.187820 304.662384
endloop
endfacet
facet normal 0.000000 1.000000 0.000002
outer loop
vertex 131.832794 81.187820 307.891663
vertex 200.964630 81.187820 307.891663
vertex 151.125549 81.187820 304.662384
endloop
endfacet
facet normal 0.000000 0.000000 -1.000000
outer loop
vertex 186.489990 61.898994 304.662384
vertex 151.125549 61.898994 304.662384
vertex 151.125549 81.187820 304.662384
endloop
endfacet
facet normal 0.000000 0.000000 -1.000000
outer loop
vertex 186.489990 61.898994 304.662384
vertex 151.125549 81.187820 304.662384
vertex 186.489990 81.187820 304.662384
endloop
endfacet
facet normal 0.217749 0.000000 -0.976005
outer loop
vertex 200.964630 81.187820 307.891663
vertex 186.489990 61.898994 304.662384
vertex 186.489990 81.187820 304.662384
endloop
endfacet
endsolid Exported from Blender-2.83.0
