solid Exported from Blender-2.83.0
facet normal -0.707085 0.000000 -0.707129
outer loop
vertex -186.476440 81.187828 164.791000
vertex -207.381012 66.721680 185.694244
vertex -207.381012 81.187828 185.694244
endloop
endfacet
facet normal 0.000000 -0.998277 -0.058672
outer loop
vertex -188.090607 61.898998 192.132156
vertex -186.476440 63.505928 164.791000
vertex -151.138458 63.505928 164.791000
endloop
endfacet
facet normal 0.000000 0.000000 -1.000000
outer loop
vertex -186.476440 63.505928 164.791000
vertex -151.138458 81.187828 164.791000
vertex -151.138458 63.505928 164.791000
endloop
endfacet
facet normal 0.763456 0.000000 -0.645860
outer loop
vertex -151.138458 81.187828 164.791000
vertex -133.455002 66.721680 185.694244
vertex -151.138458 63.505928 164.791000
endloop
endfacet
facet normal 0.000000 1.000000 -0.000001
outer loop
vertex -207.381012 81.187828 192.119888
vertex -151.138458 81.187828 164.791000
vertex -186.476440 81.187828 164.791000
endloop
endfacet
facet normal 0.000000 0.000000 -1.000000
outer loop
vertex -151.138458 81.187828 164.791000
vertex -186.476440 63.505928 164.791000
vertex -186.476440 81.187828 164.791000
endloop
endfacet
facet normal 0.000000 -1.000000 0.000000
outer loop
vertex -188.090607 61.898998 192.132156
vertex -151.138458 61.898998 227.488480
vertex -186.483673 61.898998 227.488480
endloop
endfacet
facet normal 0.000000 0.000000 1.000000
outer loop
vertex -151.138458 61.898998 227.488480
vertex -186.483673 81.185944 227.488480
vertex -186.483673 61.898998 227.488480
endloop
endfacet
facet normal -0.669031 0.000000 0.743235
outer loop
vertex -186.483673 81.185944 227.488480
vertex -202.560211 66.723564 213.016998
vertex -186.483673 61.898998 227.488480
endloop
endfacet
facet normal -0.335490 -0.940178 0.059258
outer loop
vertex -186.483673 61.898998 227.488480
vertex -202.560211 66.723564 213.016998
vertex -207.381012 66.721680 185.694244
endloop
endfacet
facet normal -0.219839 -0.973009 -0.070166
outer loop
vertex -186.476440 63.505928 164.791000
vertex -188.090607 61.898998 192.132156
vertex -207.381012 66.721680 185.694244
endloop
endfacet
facet normal -0.981868 -0.076952 0.173245
outer loop
vertex -202.560211 66.723564 213.016998
vertex -207.381012 81.187828 192.119888
vertex -207.381012 66.721680 185.694244
endloop
endfacet
facet normal -0.707084 0.000000 -0.707130
outer loop
vertex -186.476440 81.187828 164.791000
vertex -186.476440 63.505928 164.791000
vertex -207.381012 66.721680 185.694244
endloop
endfacet
facet normal -0.246035 -0.969196 0.011183
outer loop
vertex -188.090607 61.898998 192.132156
vertex -186.483673 61.898998 227.488480
vertex -207.381012 66.721680 185.694244
endloop
endfacet
facet normal 0.633167 0.000000 0.774015
outer loop
vertex -151.138458 61.898998 227.488480
vertex -133.447754 81.185944 213.016998
vertex -151.138458 81.185944 227.488480
endloop
endfacet
facet normal 0.000000 1.000000 0.000054
outer loop
vertex -207.381012 81.187828 192.119888
vertex -186.483673 81.185944 227.488480
vertex -151.138458 81.185944 227.488480
endloop
endfacet
facet normal 0.000000 0.000000 1.000000
outer loop
vertex -186.483673 81.185944 227.488480
vertex -151.138458 61.898998 227.488480
vertex -151.138458 81.185944 227.488480
endloop
endfacet
facet normal 0.633165 0.000000 0.774016
outer loop
vertex -133.447754 81.185944 213.016998
vertex -151.138458 61.898998 227.488480
vertex -133.447754 66.723564 213.016998
endloop
endfacet
facet normal 1.000000 0.000000 -0.000265
outer loop
vertex -133.455002 66.721680 185.694244
vertex -133.447754 81.185944 213.016998
vertex -133.447754 66.723564 213.016998
endloop
endfacet
facet normal 0.000000 1.000000 0.000001
outer loop
vertex -151.138458 81.187828 164.791000
vertex -207.381012 81.187828 192.119888
vertex -133.455002 81.187828 185.694244
endloop
endfacet
facet normal 1.000000 0.000000 -0.000265
outer loop
vertex -133.447754 81.185944 213.016998
vertex -133.455002 66.721680 185.694244
vertex -133.455002 81.187828 185.694244
endloop
endfacet
facet normal 0.763457 0.000000 -0.645859
outer loop
vertex -133.455002 66.721680 185.694244
vertex -151.138458 81.187828 164.791000
vertex -133.455002 81.187828 185.694244
endloop
endfacet
facet normal 0.000056 1.000000 0.000069
outer loop
vertex -151.138458 81.185944 227.488480
vertex -133.447754 81.185944 213.016998
vertex -133.455002 81.187828 185.694244
endloop
endfacet
facet normal 0.000004 1.000000 0.000046
outer loop
vertex -207.381012 81.187828 192.119888
vertex -151.138458 81.185944 227.488480
vertex -133.455002 81.187828 185.694244
endloop
endfacet
facet normal -0.000102 1.000000 0.000114
outer loop
vertex -186.483673 81.185944 227.488480
vertex -207.381012 81.187828 192.119888
vertex -202.560211 81.185944 213.016998
endloop
endfacet
facet normal -0.669032 0.000000 0.743234
outer loop
vertex -202.560211 66.723564 213.016998
vertex -186.483673 81.185944 227.488480
vertex -202.560211 81.185944 213.016998
endloop
endfacet
facet normal -0.974408 0.000000 0.224788
outer loop
vertex -207.381012 81.187828 192.119888
vertex -202.560211 66.723564 213.016998
vertex -202.560211 81.185944 213.016998
endloop
endfacet
facet normal 0.000000 -1.000000 0.000000
outer loop
vertex -151.138458 61.898998 227.488480
vertex -188.090607 61.898998 192.132156
vertex -149.524292 61.898998 192.132156
endloop
endfacet
facet normal 0.000000 -0.998277 -0.058672
outer loop
vertex -188.090607 61.898998 192.132156
vertex -151.138458 63.505928 164.791000
vertex -149.524292 61.898998 192.132156
endloop
endfacet
facet normal 0.260153 -0.962883 -0.071950
outer loop
vertex -151.138458 63.505928 164.791000
vertex -133.455002 66.721680 185.694244
vertex -149.524292 61.898998 192.132156
endloop
endfacet
facet normal 0.272550 -0.962061 0.012443
outer loop
vertex -133.447754 66.723564 213.016998
vertex -151.138458 61.898998 227.488480
vertex -149.524292 61.898998 192.132156
endloop
endfacet
facet normal 0.287448 -0.957796 -0.000011
outer loop
vertex -133.455002 66.721680 185.694244
vertex -133.447754 66.723564 213.016998
vertex -149.524292 61.898998 192.132156
endloop
endfacet
facet normal 0.000000 1.000000 0.000000
outer loop
vertex -207.381012 81.187828 192.119888
vertex -186.476440 81.187828 164.791000
vertex -207.381012 81.187828 185.694244
endloop
endfacet
facet normal -1.000000 0.000000 0.000000
outer loop
vertex -207.381012 66.721680 185.694244
vertex -207.381012 81.187828 192.119888
vertex -207.381012 81.187828 185.694244
endloop
endfacet
endsolid Exported from Blender-2.83.0
