solid Exported from Blender-2.83.0
facet normal 0.000000 -1.000000 0.000000
outer loop
vertex 186.483215 -0.803858 296.634033
vertex 128.617371 -0.803858 307.895264
vertex 151.135788 -0.803858 296.634033
endloop
endfacet
facet normal 0.000000 0.000000 1.000000
outer loop
vertex 197.742432 -0.803858 401.115143
vertex 197.742432 13.662290 401.115143
vertex 128.617371 -0.803858 401.115143
endloop
endfacet
facet normal 0.000000 -1.000000 0.000000
outer loop
vertex 197.742432 -0.803858 401.115143
vertex 128.617371 -0.803858 401.115143
vertex 186.483215 -0.803858 296.634033
endloop
endfacet
facet normal -0.000000 0.000000 1.000000
outer loop
vertex 128.617371 -0.803858 401.115143
vertex 197.742432 13.662290 401.115143
vertex 152.739426 20.096462 401.115143
endloop
endfacet
facet normal 0.000000 -1.000000 0.000000
outer loop
vertex 186.483215 -0.803858 296.634033
vertex 128.617371 -0.803858 401.115143
vertex 128.617371 -0.803858 307.895264
endloop
endfacet
facet normal -0.000000 0.000000 -1.000000
outer loop
vertex 186.483215 -0.803858 296.634033
vertex 151.135788 18.486385 296.634033
vertex 184.879593 20.096462 296.634033
endloop
endfacet
facet normal -1.000000 0.000000 0.000000
outer loop
vertex 128.617371 -0.803858 307.895264
vertex 128.617371 -0.803858 401.115143
vertex 128.617371 13.662290 307.895264
endloop
endfacet
facet normal -0.447275 0.000000 -0.894396
outer loop
vertex 151.135788 18.486385 296.634033
vertex 128.617371 -0.803858 307.895264
vertex 128.617371 13.662290 307.895264
endloop
endfacet
facet normal 1.000000 0.000000 0.000000
outer loop
vertex 197.742432 13.662290 401.115143
vertex 197.742432 -0.803858 401.115143
vertex 197.742432 13.662290 307.895264
endloop
endfacet
facet normal 0.672318 0.051586 -0.738463
outer loop
vertex 186.483215 -0.803858 296.634033
vertex 184.879593 20.096462 296.634033
vertex 197.742432 13.662290 307.895264
endloop
endfacet
facet normal 0.447367 0.894350 0.000000
outer loop
vertex 184.879593 20.096462 296.634033
vertex 197.742432 13.662290 401.115143
vertex 197.742432 13.662290 307.895264
endloop
endfacet
facet normal 0.000001 0.000000 1.000000
outer loop
vertex 128.617371 -0.803858 401.115143
vertex 152.739426 20.096462 401.115143
vertex 128.617371 13.662290 401.115143
endloop
endfacet
facet normal -0.257723 0.966219 0.000000
outer loop
vertex 152.739426 20.096462 401.115143
vertex 128.617371 13.662290 307.895264
vertex 128.617371 13.662290 401.115143
endloop
endfacet
facet normal -1.000000 0.000000 0.000000
outer loop
vertex 128.617371 13.662290 307.895264
vertex 128.617371 -0.803858 401.115143
vertex 128.617371 13.662290 401.115143
endloop
endfacet
facet normal 0.000000 0.000000 1.000000
outer loop
vertex 152.739426 20.096462 401.115143
vertex 197.742432 13.662290 401.115143
vertex 184.879593 20.096462 401.115143
endloop
endfacet
facet normal 0.447367 0.894350 0.000000
outer loop
vertex 197.742432 13.662290 401.115143
vertex 184.879593 20.096462 296.634033
vertex 184.879593 20.096462 401.115143
endloop
endfacet
facet normal 0.000000 1.000000 0.000000
outer loop
vertex 184.879593 20.096462 296.634033
vertex 152.739426 20.096462 401.115143
vertex 184.879593 20.096462 401.115143
endloop
endfacet
facet normal 0.000000 -1.000000 0.000000
outer loop
vertex 197.742432 -0.803858 401.115143
vertex 186.483215 -0.803858 296.634033
vertex 197.742432 -0.803858 307.895264
endloop
endfacet
facet normal 1.000000 0.000000 0.000000
outer loop
vertex 197.742432 13.662290 307.895264
vertex 197.742432 -0.803858 401.115143
vertex 197.742432 -0.803858 307.895264
endloop
endfacet
facet normal 0.707169 0.000000 -0.707044
outer loop
vertex 186.483215 -0.803858 296.634033
vertex 197.742432 13.662290 307.895264
vertex 197.742432 -0.803858 307.895264
endloop
endfacet
facet normal 0.000000 0.000000 -1.000000
outer loop
vertex 184.879593 20.096462 296.634033
vertex 151.135788 18.486385 296.634033
vertex 152.739426 20.096462 296.634033
endloop
endfacet
facet normal 0.000000 1.000000 0.000000
outer loop
vertex 152.739426 20.096462 401.115143
vertex 184.879593 20.096462 296.634033
vertex 152.739426 20.096462 296.634033
endloop
endfacet
facet normal -0.473180 0.471288 -0.744304
outer loop
vertex 151.135788 18.486385 296.634033
vertex 128.617371 13.662290 307.895264
vertex 152.739426 20.096462 296.634033
endloop
endfacet
facet normal -0.257724 0.966219 0.000000
outer loop
vertex 128.617371 13.662290 307.895264
vertex 152.739426 20.096462 401.115143
vertex 152.739426 20.096462 296.634033
endloop
endfacet
facet normal 0.000000 0.000000 -1.000000
outer loop
vertex 151.135788 18.486385 296.634033
vertex 186.483215 -0.803858 296.634033
vertex 151.135788 -0.803858 296.634033
endloop
endfacet
facet normal -0.447279 0.000000 -0.894395
outer loop
vertex 128.617371 -0.803858 307.895264
vertex 151.135788 18.486385 296.634033
vertex 151.135788 -0.803858 296.634033
endloop
endfacet
endsolid Exported from Blender-2.83.0
