solid Exported from Blender-2.83.0
facet normal 0.000000 -1.000000 -0.000000
outer loop
vertex 220.257233 -0.803858 192.132889
vertex 200.969650 -0.803858 185.691315
vertex 218.649200 -0.803858 185.691315
endloop
endfacet
facet normal 0.000000 1.000000 0.000000
outer loop
vertex 218.644791 18.486858 229.099670
vertex 220.257233 18.486858 229.099670
vertex 218.649200 18.486858 185.691315
endloop
endfacet
facet normal 0.000000 0.000000 1.000000
outer loop
vertex 220.257233 18.486858 229.099670
vertex 218.644791 18.486858 229.099670
vertex 220.257233 -0.803858 229.099670
endloop
endfacet
facet normal 0.996809 0.070761 -0.036926
outer loop
vertex 218.649200 18.486858 185.691315
vertex 220.257233 18.486858 229.099670
vertex 220.257233 -0.803858 192.132889
endloop
endfacet
facet normal 0.000000 -1.000000 0.000000
outer loop
vertex 220.257233 -0.803858 229.099670
vertex 200.969650 -0.803858 185.691315
vertex 220.257233 -0.803858 192.132889
endloop
endfacet
facet normal 1.000000 0.000000 0.000000
outer loop
vertex 220.257233 18.486858 229.099670
vertex 220.257233 -0.803858 229.099670
vertex 220.257233 -0.803858 192.132889
endloop
endfacet
facet normal 0.000000 -1.000000 0.000000
outer loop
vertex 200.969650 -0.803858 185.691315
vertex 220.257233 -0.803858 229.099670
vertex 197.755783 -0.803858 213.016998
endloop
endfacet
facet normal -0.580797 -0.048546 0.812600
outer loop
vertex 220.257233 -0.803858 229.099670
vertex 218.644791 18.486858 229.099670
vertex 197.755783 -0.803858 213.016998
endloop
endfacet
facet normal -0.610049 0.000000 0.792364
outer loop
vertex 218.644791 18.486858 229.099670
vertex 197.755783 13.660402 213.016998
vertex 197.755783 -0.803858 213.016998
endloop
endfacet
facet normal -1.000000 0.000000 0.000000
outer loop
vertex 197.755783 -0.803858 213.016998
vertex 197.755783 13.660402 213.016998
vertex 197.755783 13.660402 192.132889
endloop
endfacet
facet normal -0.225083 0.974340 -0.000023
outer loop
vertex 218.644791 18.486858 229.099670
vertex 218.649200 18.486858 185.691315
vertex 197.755783 13.660402 192.132889
endloop
endfacet
facet normal -0.345500 0.316642 -0.883384
outer loop
vertex 218.649200 18.486858 185.691315
vertex 200.969650 -0.803858 185.691315
vertex 197.755783 13.660402 192.132889
endloop
endfacet
facet normal -0.225122 0.974331 0.000000
outer loop
vertex 197.755783 13.660402 213.016998
vertex 218.644791 18.486858 229.099670
vertex 197.755783 13.660402 192.132889
endloop
endfacet
facet normal -0.979324 -0.166303 -0.115182
outer loop
vertex 200.969650 -0.803858 185.691315
vertex 197.755783 -0.803858 213.016998
vertex 197.755783 13.660402 192.132889
endloop
endfacet
facet normal 0.000000 0.000000 -1.000000
outer loop
vertex 200.969650 -0.803858 185.691315
vertex 218.649200 18.486858 185.691315
vertex 218.649200 -0.803858 185.691315
endloop
endfacet
facet normal 0.970226 0.000000 -0.242200
outer loop
vertex 218.649200 18.486858 185.691315
vertex 220.257233 -0.803858 192.132889
vertex 218.649200 -0.803858 185.691315
endloop
endfacet
endsolid Exported from Blender-2.83.0
