solid Exported from Blender-2.83.0
facet normal 0.447231 0.894418 0.000000
outer loop
vertex -72.347275 13.662290 335.198303
vertex -85.214989 20.096462 298.231506
vertex -85.214989 20.096462 356.109314
endloop
endfacet
facet normal 0.000000 -1.000000 -0.000000
outer loop
vertex -139.864777 -0.803858 307.885376
vertex -118.960526 -0.803858 298.231506
vertex -72.347275 -0.803858 307.885376
endloop
endfacet
facet normal 0.000000 -1.000000 0.000000
outer loop
vertex -139.864777 -0.803858 307.885376
vertex -72.347275 -0.803858 307.885376
vertex -118.960526 -0.803858 356.109314
endloop
endfacet
facet normal 0.000000 0.000000 -1.000000
outer loop
vertex -118.960526 -0.803858 298.231506
vertex -117.354538 20.096462 298.231506
vertex -85.214989 20.096462 298.231506
endloop
endfacet
facet normal 0.000000 0.000000 1.000000
outer loop
vertex -83.609001 18.486385 356.109314
vertex -118.960526 -0.803858 356.109314
vertex -83.609001 -0.803858 356.109314
endloop
endfacet
facet normal 0.000000 -1.000000 -0.000000
outer loop
vertex -118.960526 -0.803858 356.109314
vertex -72.347275 -0.803858 307.885376
vertex -83.609001 -0.803858 356.109314
endloop
endfacet
facet normal 0.000001 0.000000 1.000000
outer loop
vertex -118.960526 -0.803858 356.109314
vertex -83.609001 18.486385 356.109314
vertex -117.354538 20.096462 356.109314
endloop
endfacet
facet normal -0.274827 0.961494 0.000000
outer loop
vertex -117.354538 20.096462 298.231506
vertex -139.864777 13.662290 335.198303
vertex -117.354538 20.096462 356.109314
endloop
endfacet
facet normal -0.687717 0.052845 0.724053
outer loop
vertex -139.864777 13.662290 335.198303
vertex -118.960526 -0.803858 356.109314
vertex -117.354538 20.096462 356.109314
endloop
endfacet
facet normal 0.000000 1.000000 0.000000
outer loop
vertex -85.214989 20.096462 298.231506
vertex -117.354538 20.096462 298.231506
vertex -117.354538 20.096462 356.109314
endloop
endfacet
facet normal 0.880437 0.000000 0.474164
outer loop
vertex -83.609001 18.486385 356.109314
vertex -83.609001 -0.803858 356.109314
vertex -72.347275 13.662290 335.198303
endloop
endfacet
facet normal -0.419264 0.000000 -0.907864
outer loop
vertex -118.960526 -0.803858 298.231506
vertex -139.864777 -0.803858 307.885376
vertex -139.864777 13.662290 307.885376
endloop
endfacet
facet normal -0.401393 0.030844 -0.915386
outer loop
vertex -117.354538 20.096462 298.231506
vertex -118.960526 -0.803858 298.231506
vertex -139.864777 13.662290 307.885376
endloop
endfacet
facet normal -1.000000 0.000000 0.000000
outer loop
vertex -139.864777 -0.803858 307.885376
vertex -139.864777 13.662290 335.198303
vertex -139.864777 13.662290 307.885376
endloop
endfacet
facet normal -0.274826 0.961494 0.000000
outer loop
vertex -139.864777 13.662290 335.198303
vertex -117.354538 20.096462 298.231506
vertex -139.864777 13.662290 307.885376
endloop
endfacet
facet normal 0.000000 -1.000000 0.000000
outer loop
vertex -139.864777 -0.803858 307.885376
vertex -118.960526 -0.803858 356.109314
vertex -139.864777 -0.803858 335.198303
endloop
endfacet
facet normal -1.000000 0.000000 0.000000
outer loop
vertex -139.864777 13.662290 335.198303
vertex -139.864777 -0.803858 307.885376
vertex -139.864777 -0.803858 335.198303
endloop
endfacet
facet normal -0.707221 0.000000 0.706992
outer loop
vertex -118.960526 -0.803858 356.109314
vertex -139.864777 13.662290 335.198303
vertex -139.864777 -0.803858 335.198303
endloop
endfacet
facet normal 0.000000 -1.000000 0.000000
outer loop
vertex -72.347275 -0.803858 307.885376
vertex -118.960526 -0.803858 298.231506
vertex -83.609001 -0.803858 298.231506
endloop
endfacet
facet normal 0.000000 0.000000 -1.000000
outer loop
vertex -118.960526 -0.803858 298.231506
vertex -85.214989 20.096462 298.231506
vertex -83.609001 -0.803858 298.231506
endloop
endfacet
facet normal 0.614452 0.047214 -0.787540
outer loop
vertex -83.609001 -0.803858 298.231506
vertex -85.214989 20.096462 298.231506
vertex -72.347275 13.662290 307.885376
endloop
endfacet
facet normal 0.447231 0.894418 0.000000
outer loop
vertex -85.214989 20.096462 298.231506
vertex -72.347275 13.662290 335.198303
vertex -72.347275 13.662290 307.885376
endloop
endfacet
facet normal 1.000000 0.000000 0.000000
outer loop
vertex -72.347275 13.662290 335.198303
vertex -72.347275 -0.803858 307.885376
vertex -72.347275 13.662290 307.885376
endloop
endfacet
facet normal 0.650829 0.000000 -0.759225
outer loop
vertex -72.347275 -0.803858 307.885376
vertex -83.609001 -0.803858 298.231506
vertex -72.347275 13.662290 307.885376
endloop
endfacet
facet normal 0.000000 -1.000000 0.000000
outer loop
vertex -83.609001 -0.803858 356.109314
vertex -72.347275 -0.803858 307.885376
vertex -72.347275 -0.803858 335.198303
endloop
endfacet
facet normal 1.000000 0.000000 0.000000
outer loop
vertex -72.347275 -0.803858 307.885376
vertex -72.347275 13.662290 335.198303
vertex -72.347275 -0.803858 335.198303
endloop
endfacet
facet normal 0.880437 0.000000 0.474163
outer loop
vertex -72.347275 13.662290 335.198303
vertex -83.609001 -0.803858 356.109314
vertex -72.347275 -0.803858 335.198303
endloop
endfacet
facet normal 0.000000 0.000000 1.000000
outer loop
vertex -117.354538 20.096462 356.109314
vertex -83.609001 18.486385 356.109314
vertex -85.214989 20.096462 356.109314
endloop
endfacet
facet normal 0.000000 1.000000 0.000000
outer loop
vertex -85.214989 20.096462 298.231506
vertex -117.354538 20.096462 356.109314
vertex -85.214989 20.096462 356.109314
endloop
endfacet
facet normal 0.691703 0.689948 0.213352
outer loop
vertex -83.609001 18.486385 356.109314
vertex -72.347275 13.662290 335.198303
vertex -85.214989 20.096462 356.109314
endloop
endfacet
endsolid Exported from Blender-2.83.0
