solid Exported from Blender-2.83.0
facet normal -0.922941 0.384942 0.000000
outer loop
vertex 162.385712 40.994740 401.125366
vertex 154.340836 21.706224 36.188904
vertex 154.340836 21.706224 401.125366
endloop
endfacet
facet normal 0.000000 0.000000 1.000000
outer loop
vertex 183.279739 21.706224 401.125366
vertex 175.234863 40.994740 401.125366
vertex 154.340836 20.098507 401.125366
endloop
endfacet
facet normal 0.000000 0.000000 -1.000000
outer loop
vertex 183.279739 20.098507 36.188904
vertex 154.340836 21.706224 36.188904
vertex 162.385712 40.994740 36.188904
endloop
endfacet
facet normal 0.000000 0.000000 -1.000000
outer loop
vertex 183.279739 20.098507 36.188904
vertex 162.385712 40.994740 36.188904
vertex 175.234863 40.994740 36.188904
endloop
endfacet
facet normal 0.922941 0.384941 0.000000
outer loop
vertex 175.234863 40.994740 401.125366
vertex 183.279739 21.706224 401.125366
vertex 175.234863 40.994740 36.188904
endloop
endfacet
facet normal 0.000000 1.000000 0.000000
outer loop
vertex 162.385712 40.994740 36.188904
vertex 175.234863 40.994740 401.125366
vertex 175.234863 40.994740 36.188904
endloop
endfacet
facet normal 0.000000 0.000000 1.000000
outer loop
vertex 154.340836 20.098507 401.125366
vertex 175.234863 40.994740 401.125366
vertex 162.385712 40.994740 401.125366
endloop
endfacet
facet normal 0.000000 1.000000 0.000000
outer loop
vertex 175.234863 40.994740 401.125366
vertex 162.385712 40.994740 36.188904
vertex 162.385712 40.994740 401.125366
endloop
endfacet
facet normal -0.922941 0.384941 0.000000
outer loop
vertex 162.385712 40.994740 36.188904
vertex 154.340836 21.706224 36.188904
vertex 162.385712 40.994740 401.125366
endloop
endfacet
facet normal 0.000000 0.000000 1.000000
outer loop
vertex 183.279739 21.706224 401.125366
vertex 154.340836 20.098507 401.125366
vertex 183.279739 20.098507 401.125366
endloop
endfacet
facet normal 0.000000 -1.000000 0.000000
outer loop
vertex 154.340836 20.098507 401.125366
vertex 183.279739 20.098507 36.188904
vertex 183.279739 20.098507 401.125366
endloop
endfacet
facet normal 1.000000 0.000000 0.000000
outer loop
vertex 183.279739 20.098507 36.188904
vertex 183.279739 21.706224 401.125366
vertex 183.279739 20.098507 401.125366
endloop
endfacet
facet normal -1.000000 0.000000 0.000000
outer loop
vertex 154.340836 20.098507 401.125366
vertex 154.340836 21.706224 36.188904
vertex 154.340836 20.098507 36.188904
endloop
endfacet
facet normal 0.000000 0.000000 -1.000000
outer loop
vertex 154.340836 21.706224 36.188904
vertex 183.279739 20.098507 36.188904
vertex 154.340836 20.098507 36.188904
endloop
endfacet
facet normal 0.000000 -1.000000 0.000000
outer loop
vertex 183.279739 20.098507 36.188904
vertex 154.340836 20.098507 401.125366
vertex 154.340836 20.098507 36.188904
endloop
endfacet
facet normal 1.000000 0.000000 0.000000
outer loop
vertex 183.279739 21.706224 401.125366
vertex 183.279739 20.098507 36.188904
vertex 183.279739 21.706224 36.188904
endloop
endfacet
facet normal 0.000000 0.000000 -1.000000
outer loop
vertex 183.279739 20.098507 36.188904
vertex 175.234863 40.994740 36.188904
vertex 183.279739 21.706224 36.188904
endloop
endfacet
facet normal 0.922941 0.384942 0.000000
outer loop
vertex 175.234863 40.994740 36.188904
vertex 183.279739 21.706224 401.125366
vertex 183.279739 21.706224 36.188904
endloop
endfacet
facet normal -1.000000 0.000000 0.000000
outer loop
vertex 154.340836 21.706224 36.188904
vertex 154.340836 20.098507 401.125366
vertex 154.340836 21.706224 401.125366
endloop
endfacet
facet normal 0.000076 0.000000 1.000000
outer loop
vertex 154.340836 20.098507 401.125366
vertex 162.385712 40.994740 401.125366
vertex 154.340836 21.706224 401.125366
endloop
endfacet
endsolid Exported from Blender-2.83.0
