solid Exported from Blender-2.83.0
facet normal -1.000000 0.000000 0.000000
outer loop
vertex 200.968079 13.662291 63.507656
vertex 200.968079 -0.803858 92.440895
vertex 200.968079 13.662291 92.440895
endloop
endfacet
facet normal 0.000000 -1.000000 0.000000
outer loop
vertex 200.968079 -0.803858 63.507656
vertex 218.649506 -0.803858 63.507656
vertex 200.968079 -0.803858 92.440895
endloop
endfacet
facet normal 0.000000 0.000000 -1.000000
outer loop
vertex 218.649506 -0.803858 63.507656
vertex 200.968079 -0.803858 63.507656
vertex 200.968079 13.662291 63.507656
endloop
endfacet
facet normal -1.000000 0.000000 0.000000
outer loop
vertex 200.968079 -0.803858 63.507656
vertex 200.968079 -0.803858 92.440895
vertex 200.968079 13.662291 63.507656
endloop
endfacet
facet normal -0.263209 0.964628 -0.014644
outer loop
vertex 200.968079 13.662291 63.507656
vertex 217.039734 18.486858 92.440895
vertex 218.649506 18.486858 63.507656
endloop
endfacet
facet normal -0.000000 0.000000 -1.000000
outer loop
vertex 218.649506 -0.803858 63.507656
vertex 200.968079 13.662291 63.507656
vertex 218.649506 18.486858 63.507656
endloop
endfacet
facet normal 0.000000 -1.000000 0.000000
outer loop
vertex 200.968079 -0.803858 92.440895
vertex 218.649506 -0.803858 63.507656
vertex 218.649506 -0.803858 92.440895
endloop
endfacet
facet normal 0.000000 0.000000 1.000000
outer loop
vertex 217.039734 18.486858 92.440895
vertex 200.968079 -0.803858 92.440895
vertex 218.649506 -0.803858 92.440895
endloop
endfacet
facet normal 0.995008 0.083030 0.055360
outer loop
vertex 218.649506 18.486858 63.507656
vertex 217.039734 18.486858 92.440895
vertex 218.649506 -0.803858 92.440895
endloop
endfacet
facet normal 1.000000 0.000000 0.000000
outer loop
vertex 218.649506 -0.803858 63.507656
vertex 218.649506 18.486858 63.507656
vertex 218.649506 -0.803858 92.440895
endloop
endfacet
facet normal -0.000001 0.000000 1.000000
outer loop
vertex 200.968079 -0.803858 92.440895
vertex 217.039734 18.486858 92.440895
vertex 200.968079 13.662291 92.440895
endloop
endfacet
facet normal -0.287515 0.957776 0.000000
outer loop
vertex 217.039734 18.486858 92.440895
vertex 200.968079 13.662291 63.507656
vertex 200.968079 13.662291 92.440895
endloop
endfacet
endsolid Exported from Blender-2.83.0
