solid Exported from Blender-2.83.0
facet normal 0.742856 0.000000 -0.669452
outer loop
vertex 65.916397 66.723564 246.791153
vertex 51.434982 81.187820 230.721848
vertex 65.916397 81.187820 246.791153
endloop
endfacet
facet normal 0.000000 1.000000 0.000000
outer loop
vertex 51.434982 81.187820 304.662354
vertex 65.916397 81.187820 274.108948
vertex -3.215431 81.187820 246.791153
endloop
endfacet
facet normal 0.000000 -1.000000 0.000000
outer loop
vertex 16.077328 61.898994 304.662354
vertex 14.473547 61.898994 246.791153
vertex 51.434982 61.898994 230.721848
endloop
endfacet
facet normal 0.903638 0.000000 0.428298
outer loop
vertex 65.916397 81.187820 274.108948
vertex 51.434982 81.187820 304.662354
vertex 51.434982 61.898994 304.662354
endloop
endfacet
facet normal 0.000000 0.000000 1.000000
outer loop
vertex 51.434982 81.187820 304.662354
vertex 16.077328 61.898994 304.662354
vertex 51.434982 61.898994 304.662354
endloop
endfacet
facet normal 0.000000 -1.000000 0.000000
outer loop
vertex 16.077328 61.898994 304.662354
vertex 51.434982 61.898994 230.721848
vertex 51.434982 61.898994 304.662354
endloop
endfacet
facet normal 0.000000 1.000000 -0.000000
outer loop
vertex -3.215431 81.187820 246.791153
vertex 65.916397 81.187820 274.108948
vertex 51.434982 81.187820 230.721848
endloop
endfacet
facet normal 0.000000 1.000000 -0.000000
outer loop
vertex 51.434982 81.187820 304.662354
vertex -3.215431 81.187820 246.791153
vertex 16.077328 81.187820 304.662354
endloop
endfacet
facet normal 0.000000 0.000000 1.000000
outer loop
vertex 16.077328 61.898994 304.662354
vertex 51.434982 81.187820 304.662354
vertex 16.077328 81.187820 304.662354
endloop
endfacet
facet normal -0.845541 0.000000 0.533911
outer loop
vertex 16.077328 61.898994 304.662354
vertex 16.077328 81.187820 304.662354
vertex -3.215431 66.723564 274.108948
endloop
endfacet
facet normal -0.253033 -0.967432 0.007012
outer loop
vertex 14.473547 61.898994 246.791153
vertex 16.077328 61.898994 304.662354
vertex -3.215431 66.723564 274.108948
endloop
endfacet
facet normal 0.000000 -1.000000 -0.000001
outer loop
vertex 51.434982 61.898994 230.721848
vertex 14.473547 61.898994 246.791153
vertex 16.077328 61.898994 230.721848
endloop
endfacet
facet normal 0.000000 0.000000 -1.000000
outer loop
vertex 51.434982 81.187820 230.721848
vertex 51.434982 61.898994 230.721848
vertex 16.077328 61.898994 230.721848
endloop
endfacet
facet normal 0.316076 -0.948734 0.000000
outer loop
vertex 51.434982 61.898994 304.662354
vertex 51.434982 61.898994 230.721848
vertex 65.916397 66.723564 246.791153
endloop
endfacet
facet normal 0.742857 0.000000 -0.669450
outer loop
vertex 51.434982 61.898994 230.721848
vertex 51.434982 81.187820 230.721848
vertex 65.916397 66.723564 246.791153
endloop
endfacet
facet normal 0.000000 1.000000 0.000000
outer loop
vertex -3.215431 81.187820 246.791153
vertex 51.434982 81.187820 230.721848
vertex 16.077328 81.187820 230.721848
endloop
endfacet
facet normal -0.639997 0.000000 -0.768378
outer loop
vertex 16.077328 61.898994 230.721848
vertex -3.215431 81.187820 246.791153
vertex 16.077328 81.187820 230.721848
endloop
endfacet
facet normal 0.000000 0.000000 -1.000000
outer loop
vertex 51.434982 81.187820 230.721848
vertex 16.077328 61.898994 230.721848
vertex 16.077328 81.187820 230.721848
endloop
endfacet
facet normal -0.263132 -0.964760 0.000000
outer loop
vertex 14.473547 61.898994 246.791153
vertex -3.215431 66.723564 274.108948
vertex -3.215431 66.723564 246.791153
endloop
endfacet
facet normal -1.000000 0.000000 0.000000
outer loop
vertex -3.215431 66.723564 274.108948
vertex -3.215431 81.187820 246.791153
vertex -3.215431 66.723564 246.791153
endloop
endfacet
facet normal -0.639996 0.000000 -0.768378
outer loop
vertex -3.215431 81.187820 246.791153
vertex 16.077328 61.898994 230.721848
vertex -3.215431 66.723564 246.791153
endloop
endfacet
facet normal -0.263042 -0.964427 -0.026253
outer loop
vertex 16.077328 61.898994 230.721848
vertex 14.473547 61.898994 246.791153
vertex -3.215431 66.723564 246.791153
endloop
endfacet
facet normal 0.000000 1.000000 0.000000
outer loop
vertex 16.077328 81.187820 304.662354
vertex -3.215431 81.187820 246.791153
vertex -3.215431 81.187820 274.108948
endloop
endfacet
facet normal -0.845540 0.000000 0.533911
outer loop
vertex -3.215431 66.723564 274.108948
vertex 16.077328 81.187820 304.662354
vertex -3.215431 81.187820 274.108948
endloop
endfacet
facet normal -1.000000 0.000000 0.000000
outer loop
vertex -3.215431 81.187820 246.791153
vertex -3.215431 66.723564 274.108948
vertex -3.215431 81.187820 274.108948
endloop
endfacet
facet normal 0.903638 0.000000 0.428297
outer loop
vertex 65.916397 81.187820 274.108948
vertex 51.434982 61.898994 304.662354
vertex 65.916397 66.723564 274.108948
endloop
endfacet
facet normal 1.000000 0.000000 0.000000
outer loop
vertex 65.916397 66.723564 246.791153
vertex 65.916397 81.187820 274.108948
vertex 65.916397 66.723564 274.108948
endloop
endfacet
facet normal 0.316076 -0.948734 0.000000
outer loop
vertex 51.434982 61.898994 304.662354
vertex 65.916397 66.723564 246.791153
vertex 65.916397 66.723564 274.108948
endloop
endfacet
facet normal 0.000000 1.000000 0.000000
outer loop
vertex 51.434982 81.187820 230.721848
vertex 65.916397 81.187820 274.108948
vertex 65.916397 81.187820 246.791153
endloop
endfacet
facet normal 1.000000 0.000000 0.000000
outer loop
vertex 65.916397 81.187820 274.108948
vertex 65.916397 66.723564 246.791153
vertex 65.916397 81.187820 246.791153
endloop
endfacet
endsolid Exported from Blender-2.83.0
