solid Exported from Blender-2.83.0
facet normal 0.701114 -0.701573 0.127414
outer loop
vertex -88.430420 55.468750 110.128616
vertex -73.954987 66.722931 92.443573
vertex -83.603333 60.292690 110.128616
endloop
endfacet
facet normal 0.000000 1.000000 0.000000
outer loop
vertex -83.603333 81.189713 110.128616
vertex -73.954987 81.189713 92.443573
vertex -118.965088 81.189713 34.565918
endloop
endfacet
facet normal 0.000000 1.000000 -0.000000
outer loop
vertex -83.603333 81.189713 110.128616
vertex -118.965088 81.189713 34.565918
vertex -133.440521 81.189713 92.443573
endloop
endfacet
facet normal 0.000000 0.000000 1.000000
outer loop
vertex -88.430420 55.468750 110.128616
vertex -83.603333 81.189713 110.128616
vertex -114.138000 55.468750 110.128616
endloop
endfacet
facet normal 0.000000 -1.000000 0.000000
outer loop
vertex -88.430420 55.468750 34.565918
vertex -88.430420 55.468750 110.128616
vertex -114.138000 55.468750 110.128616
endloop
endfacet
facet normal 0.000000 1.000000 0.000000
outer loop
vertex -118.965088 81.189713 34.565918
vertex -73.954987 81.189713 92.443573
vertex -83.603333 81.189713 34.565918
endloop
endfacet
facet normal 0.000000 0.000000 -1.000000
outer loop
vertex -88.430420 55.468750 34.565918
vertex -118.965088 81.189713 34.565918
vertex -83.603333 81.189713 34.565918
endloop
endfacet
facet normal 0.000000 0.000000 -1.000000
outer loop
vertex -118.965088 81.189713 34.565918
vertex -88.430420 55.468750 34.565918
vertex -114.138000 55.468750 34.565918
endloop
endfacet
facet normal -0.503683 -0.863888 0.000000
outer loop
vertex -114.138000 55.468750 110.128616
vertex -133.440521 66.722931 63.515839
vertex -114.138000 55.468750 34.565918
endloop
endfacet
facet normal 0.000000 -1.000000 0.000000
outer loop
vertex -88.430420 55.468750 34.565918
vertex -114.138000 55.468750 110.128616
vertex -114.138000 55.468750 34.565918
endloop
endfacet
facet normal 0.613788 -0.789471 0.000000
outer loop
vertex -88.430420 55.468750 110.128616
vertex -88.430420 55.468750 34.565918
vertex -73.954987 66.722931 63.515839
endloop
endfacet
facet normal 0.000000 1.000000 0.000000
outer loop
vertex -83.603333 81.189713 110.128616
vertex -133.440521 81.189713 92.443573
vertex -118.965088 81.189713 110.128616
endloop
endfacet
facet normal 0.000000 0.000000 1.000000
outer loop
vertex -114.138000 55.468750 110.128616
vertex -83.603333 81.189713 110.128616
vertex -118.965088 81.189713 110.128616
endloop
endfacet
facet normal -1.000000 0.000000 0.000000
outer loop
vertex -133.440521 81.189713 92.443573
vertex -133.440521 66.722931 63.515839
vertex -133.440521 66.722931 92.443573
endloop
endfacet
facet normal -0.503683 -0.863888 0.000000
outer loop
vertex -133.440521 66.722931 63.515839
vertex -114.138000 55.468750 110.128616
vertex -133.440521 66.722931 92.443573
endloop
endfacet
facet normal -0.773832 0.000000 0.633391
outer loop
vertex -118.965088 81.189713 110.128616
vertex -133.440521 81.189713 92.443573
vertex -133.440521 66.722931 92.443573
endloop
endfacet
facet normal 0.877855 0.000000 0.478927
outer loop
vertex -73.954987 81.189713 92.443573
vertex -83.603333 81.189713 110.128616
vertex -73.954987 66.722931 92.443573
endloop
endfacet
facet normal 1.000000 0.000000 0.000000
outer loop
vertex -73.954987 66.722931 63.515839
vertex -73.954987 81.189713 92.443573
vertex -73.954987 66.722931 92.443573
endloop
endfacet
facet normal 0.613788 -0.789471 0.000000
outer loop
vertex -88.430420 55.468750 110.128616
vertex -73.954987 66.722931 63.515839
vertex -73.954987 66.722931 92.443573
endloop
endfacet
facet normal -0.894421 0.000000 -0.447225
outer loop
vertex -118.965088 81.189713 34.565918
vertex -133.440521 66.722931 63.515839
vertex -133.440521 81.189713 63.515839
endloop
endfacet
facet normal 0.000000 1.000000 0.000000
outer loop
vertex -133.440521 81.189713 92.443573
vertex -118.965088 81.189713 34.565918
vertex -133.440521 81.189713 63.515839
endloop
endfacet
facet normal -1.000000 0.000000 0.000000
outer loop
vertex -133.440521 66.722931 63.515839
vertex -133.440521 81.189713 92.443573
vertex -133.440521 81.189713 63.515839
endloop
endfacet
facet normal 0.000000 1.000000 0.000000
outer loop
vertex -83.603333 81.189713 34.565918
vertex -73.954987 81.189713 92.443573
vertex -73.954987 81.189713 63.515839
endloop
endfacet
facet normal 1.000000 0.000000 0.000000
outer loop
vertex -73.954987 81.189713 92.443573
vertex -73.954987 66.722931 63.515839
vertex -73.954987 81.189713 63.515839
endloop
endfacet
facet normal 0.948699 0.000000 -0.316180
outer loop
vertex -73.954987 66.722931 63.515839
vertex -83.603333 81.189713 34.565918
vertex -73.954987 81.189713 63.515839
endloop
endfacet
facet normal 0.000001 0.000000 -1.000000
outer loop
vertex -88.430420 55.468750 34.565918
vertex -83.603333 81.189713 34.565918
vertex -83.603333 60.292690 34.565918
endloop
endfacet
facet normal 0.704710 -0.705169 -0.078234
outer loop
vertex -73.954987 66.722931 63.515839
vertex -88.430420 55.468750 34.565918
vertex -83.603333 60.292690 34.565918
endloop
endfacet
facet normal 0.948699 0.000000 -0.316180
outer loop
vertex -83.603333 81.189713 34.565918
vertex -73.954987 66.722931 63.515839
vertex -83.603333 60.292690 34.565918
endloop
endfacet
facet normal -0.894421 0.000000 -0.447225
outer loop
vertex -133.440521 66.722931 63.515839
vertex -118.965088 81.189713 34.565918
vertex -118.965088 60.292690 34.565918
endloop
endfacet
facet normal -0.000001 0.000000 -1.000000
outer loop
vertex -118.965088 81.189713 34.565918
vertex -114.138000 55.468750 34.565918
vertex -118.965088 60.292690 34.565918
endloop
endfacet
facet normal -0.693632 -0.694087 -0.192660
outer loop
vertex -114.138000 55.468750 34.565918
vertex -133.440521 66.722931 63.515839
vertex -118.965088 60.292690 34.565918
endloop
endfacet
facet normal 0.000000 0.000000 1.000000
outer loop
vertex -114.138000 55.468750 110.128616
vertex -118.965088 81.189713 110.128616
vertex -118.965088 60.292690 110.128616
endloop
endfacet
facet normal -0.672971 -0.673411 0.305986
outer loop
vertex -133.440521 66.722931 92.443573
vertex -114.138000 55.468750 110.128616
vertex -118.965088 60.292690 110.128616
endloop
endfacet
facet normal -0.773832 0.000000 0.633391
outer loop
vertex -118.965088 81.189713 110.128616
vertex -133.440521 66.722931 92.443573
vertex -118.965088 60.292690 110.128616
endloop
endfacet
facet normal 0.000001 0.000000 1.000000
outer loop
vertex -83.603333 81.189713 110.128616
vertex -88.430420 55.468750 110.128616
vertex -83.603333 60.292690 110.128616
endloop
endfacet
facet normal 0.877855 0.000000 0.478927
outer loop
vertex -73.954987 66.722931 92.443573
vertex -83.603333 81.189713 110.128616
vertex -83.603333 60.292690 110.128616
endloop
endfacet
endsolid Exported from Blender-2.83.0
