solid Exported from Blender-2.83.0
facet normal -1.000000 0.000000 0.000000
outer loop
vertex -186.495178 60.288940 401.125366
vertex -186.495178 61.894749 192.142639
vertex -186.495178 60.288940 192.142639
endloop
endfacet
facet normal 0.000000 1.000000 0.000000
outer loop
vertex -154.341782 61.896793 401.125366
vertex -151.125397 61.896793 401.125366
vertex -151.125397 61.896793 192.142639
endloop
endfacet
facet normal 0.000001 0.000000 -1.000000
outer loop
vertex -151.125397 61.896793 192.142639
vertex -175.236115 40.998829 192.142639
vertex -186.495178 61.894749 192.142639
endloop
endfacet
facet normal -0.000058 1.000000 -0.000001
outer loop
vertex -154.341782 61.896793 401.125366
vertex -151.125397 61.896793 192.142639
vertex -186.495178 61.894749 192.142639
endloop
endfacet
facet normal 0.000000 0.000000 1.000000
outer loop
vertex -151.125397 61.896793 401.125366
vertex -154.341782 61.896793 401.125366
vertex -162.380997 40.998829 401.125366
endloop
endfacet
facet normal -0.000002 0.000000 1.000000
outer loop
vertex -162.380997 40.998829 401.125366
vertex -154.341782 61.896793 401.125366
vertex -186.495178 60.288940 401.125366
endloop
endfacet
facet normal 0.000000 0.000000 -1.000000
outer loop
vertex -175.236115 40.998829 192.142639
vertex -151.125397 61.896793 192.142639
vertex -162.380997 40.998829 192.142639
endloop
endfacet
facet normal 0.000000 -1.000000 0.000000
outer loop
vertex -162.380997 40.998829 401.125366
vertex -175.236115 40.998829 192.142639
vertex -162.380997 40.998829 192.142639
endloop
endfacet
facet normal 0.000000 -1.000000 0.000000
outer loop
vertex -175.236115 40.998829 192.142639
vertex -162.380997 40.998829 401.125366
vertex -175.236115 40.998829 401.125366
endloop
endfacet
facet normal -0.863652 -0.504089 0.000000
outer loop
vertex -186.495178 60.288940 401.125366
vertex -175.236115 40.998829 192.142639
vertex -175.236115 40.998829 401.125366
endloop
endfacet
facet normal 0.000000 0.000000 1.000000
outer loop
vertex -162.380997 40.998829 401.125366
vertex -186.495178 60.288940 401.125366
vertex -175.236115 40.998829 401.125366
endloop
endfacet
facet normal -0.000064 1.000000 0.000000
outer loop
vertex -154.341782 61.896793 401.125366
vertex -186.495178 61.894749 192.142639
vertex -186.495178 61.894749 401.125366
endloop
endfacet
facet normal -1.000000 0.000000 0.000000
outer loop
vertex -186.495178 61.894749 192.142639
vertex -186.495178 60.288940 401.125366
vertex -186.495178 61.894749 401.125366
endloop
endfacet
facet normal -0.000001 0.000000 1.000000
outer loop
vertex -186.495178 60.288940 401.125366
vertex -154.341782 61.896793 401.125366
vertex -186.495178 61.894749 401.125366
endloop
endfacet
facet normal 1.000000 0.000000 0.000000
outer loop
vertex -151.125397 61.896793 192.142639
vertex -151.125397 61.896793 401.125366
vertex -151.125397 60.288940 401.125366
endloop
endfacet
facet normal 0.000054 0.000000 1.000000
outer loop
vertex -151.125397 61.896793 401.125366
vertex -162.380997 40.998829 401.125366
vertex -151.125397 60.288940 401.125366
endloop
endfacet
facet normal 0.863720 -0.503972 0.000000
outer loop
vertex -162.380997 40.998829 401.125366
vertex -162.380997 40.998829 192.142639
vertex -151.125397 60.288940 401.125366
endloop
endfacet
facet normal 0.863719 -0.503973 0.000000
outer loop
vertex -151.125397 60.288940 401.125366
vertex -162.380997 40.998829 192.142639
vertex -151.125397 60.288940 192.142639
endloop
endfacet
facet normal -0.000017 0.000000 -1.000000
outer loop
vertex -162.380997 40.998829 192.142639
vertex -151.125397 61.896793 192.142639
vertex -151.125397 60.288940 192.142639
endloop
endfacet
facet normal 1.000000 0.000000 0.000000
outer loop
vertex -151.125397 61.896793 192.142639
vertex -151.125397 60.288940 401.125366
vertex -151.125397 60.288940 192.142639
endloop
endfacet
facet normal 0.000000 0.000000 -1.000000
outer loop
vertex -186.495178 61.894749 192.142639
vertex -175.236115 40.998829 192.142639
vertex -186.495178 60.288940 192.142639
endloop
endfacet
facet normal -0.863653 -0.504087 0.000000
outer loop
vertex -175.236115 40.998829 192.142639
vertex -186.495178 60.288940 401.125366
vertex -186.495178 60.288940 192.142639
endloop
endfacet
endsolid Exported from Blender-2.83.0
