solid Exported from Blender-2.83.0
facet normal 0.481586 -0.351345 0.802889
outer loop
vertex -27.345146 41.000717 34.562454
vertex -3.222519 41.000717 20.093315
vertex -3.222519 66.716797 31.346706
endloop
endfacet
facet normal 1.000000 0.000000 0.000000
outer loop
vertex -3.222519 81.189713 -0.796938
vertex -3.222519 81.189713 31.346706
vertex -3.222519 41.000717 -0.796938
endloop
endfacet
facet normal 0.000000 1.000000 0.000000
outer loop
vertex -3.222519 81.189713 31.346706
vertex -3.222519 81.189713 -0.796938
vertex -207.395477 81.189713 -0.796938
endloop
endfacet
facet normal 0.000000 0.000000 -1.000000
outer loop
vertex -3.222519 81.189713 -0.796938
vertex -3.222519 41.000717 -0.796938
vertex -207.395477 81.189713 -0.796938
endloop
endfacet
facet normal -1.000000 0.000000 0.000000
outer loop
vertex -207.395477 66.716797 31.346706
vertex -207.395477 81.189713 -0.796938
vertex -207.395477 41.000717 -0.796938
endloop
endfacet
facet normal 0.000000 0.000000 -1.000000
outer loop
vertex -207.395477 81.189713 -0.796938
vertex -3.222519 41.000717 -0.796938
vertex -207.395477 41.000717 -0.796938
endloop
endfacet
facet normal 0.000000 -1.000000 0.000000
outer loop
vertex -3.222519 41.000717 -0.796938
vertex -175.218658 41.000717 34.562454
vertex -207.395477 41.000717 -0.796938
endloop
endfacet
facet normal 0.000000 -1.000000 0.000000
outer loop
vertex -175.218658 41.000717 34.562454
vertex -3.222519 41.000717 -0.796938
vertex -27.345146 41.000717 34.562454
endloop
endfacet
facet normal 0.000000 0.000000 1.000000
outer loop
vertex -175.218658 41.000717 34.562454
vertex -27.345146 41.000717 34.562454
vertex -186.470551 81.189713 34.562454
endloop
endfacet
facet normal 0.000000 1.000000 -0.000000
outer loop
vertex -3.222519 81.189713 31.346706
vertex -207.395477 81.189713 -0.796938
vertex -186.470551 81.189713 34.562454
endloop
endfacet
facet normal -0.127613 -0.035728 0.991180
outer loop
vertex -207.395477 66.716797 31.346706
vertex -175.218658 41.000717 34.562454
vertex -186.470551 81.189713 34.562454
endloop
endfacet
facet normal 0.000000 1.000000 0.000000
outer loop
vertex -3.222519 81.189713 31.346706
vertex -186.470551 81.189713 34.562454
vertex -16.093246 81.189713 34.562454
endloop
endfacet
facet normal 0.000000 0.000000 1.000000
outer loop
vertex -186.470551 81.189713 34.562454
vertex -27.345146 41.000717 34.562454
vertex -16.093246 81.189713 34.562454
endloop
endfacet
facet normal 1.000000 0.000000 0.000000
outer loop
vertex -3.222519 41.000717 -0.796938
vertex -3.222519 81.189713 31.346706
vertex -3.222519 41.000717 20.093315
endloop
endfacet
facet normal 0.000000 -1.000000 0.000000
outer loop
vertex -27.345146 41.000717 34.562454
vertex -3.222519 41.000717 -0.796938
vertex -3.222519 41.000717 20.093315
endloop
endfacet
facet normal -0.380903 -0.370675 0.847061
outer loop
vertex -175.218658 41.000717 34.562454
vertex -207.395477 66.716797 31.346706
vertex -207.395477 41.000717 20.093315
endloop
endfacet
facet normal -1.000000 -0.000002 0.000000
outer loop
vertex -207.395477 66.716797 31.346706
vertex -207.395477 41.000717 -0.796938
vertex -207.395477 41.000717 20.093315
endloop
endfacet
facet normal 0.000000 -1.000000 0.000000
outer loop
vertex -207.395477 41.000717 -0.796938
vertex -175.218658 41.000717 34.562454
vertex -207.395477 41.000717 20.093315
endloop
endfacet
facet normal -1.000000 0.000000 0.000000
outer loop
vertex -207.395477 81.189713 -0.796938
vertex -207.395477 66.716797 31.346706
vertex -207.395477 81.189713 31.346706
endloop
endfacet
facet normal -0.151897 0.000000 0.988396
outer loop
vertex -207.395477 66.716797 31.346706
vertex -186.470551 81.189713 34.562454
vertex -207.395477 81.189713 31.346706
endloop
endfacet
facet normal 0.000000 1.000000 0.000000
outer loop
vertex -186.470551 81.189713 34.562454
vertex -207.395477 81.189713 -0.796938
vertex -207.395477 81.189713 31.346706
endloop
endfacet
facet normal 0.242399 0.000000 0.970177
outer loop
vertex -3.222519 81.189713 31.346706
vertex -16.093246 81.189713 34.562454
vertex -3.222519 66.716797 31.346706
endloop
endfacet
facet normal 0.186429 -0.052196 0.981081
outer loop
vertex -16.093246 81.189713 34.562454
vertex -27.345146 41.000717 34.562454
vertex -3.222519 66.716797 31.346706
endloop
endfacet
facet normal 1.000000 0.000000 0.000000
outer loop
vertex -3.222519 41.000717 20.093315
vertex -3.222519 81.189713 31.346706
vertex -3.222519 66.716797 31.346706
endloop
endfacet
endsolid Exported from Blender-2.83.0
