solid Exported from Blender-2.83.0
facet normal 0.000000 0.000000 -1.000000
outer loop
vertex -83.606949 61.898994 240.353729
vertex -118.961624 81.187820 240.353729
vertex -83.606949 81.187820 240.353729
endloop
endfacet
facet normal 0.000000 1.000000 0.000000
outer loop
vertex -83.606949 81.187820 354.479279
vertex -65.923004 81.187820 335.195801
vertex -133.433914 81.187820 246.800171
endloop
endfacet
facet normal 0.737013 0.000000 0.675878
outer loop
vertex -65.923004 81.187820 335.195801
vertex -83.606949 81.187820 354.479279
vertex -83.606949 61.898994 354.479279
endloop
endfacet
facet normal 0.000000 -1.000000 0.000000
outer loop
vertex -118.961624 61.898994 354.479279
vertex -120.574066 61.898994 246.800171
vertex -83.606949 61.898994 354.479279
endloop
endfacet
facet normal 0.000000 0.000000 1.000000
outer loop
vertex -83.606949 81.187820 354.479279
vertex -118.961624 61.898994 354.479279
vertex -83.606949 61.898994 354.479279
endloop
endfacet
facet normal 0.000000 1.000000 0.000000
outer loop
vertex -83.606949 81.187820 354.479279
vertex -133.433914 81.187820 246.800171
vertex -133.433914 81.187820 335.195801
endloop
endfacet
facet normal 0.000000 1.000000 0.000000
outer loop
vertex -133.433914 81.187820 246.800171
vertex -65.923004 81.187820 335.195801
vertex -65.923004 81.187820 246.800171
endloop
endfacet
facet normal 1.000000 0.000000 0.000000
outer loop
vertex -65.923004 81.187820 335.195801
vertex -65.923004 66.723564 246.800171
vertex -65.923004 81.187820 246.800171
endloop
endfacet
facet normal -0.322029 -0.946718 0.004822
outer loop
vertex -120.574066 61.898994 246.800171
vertex -118.961624 61.898994 354.479279
vertex -133.433914 66.723564 335.195801
endloop
endfacet
facet normal -1.000000 0.000000 0.000000
outer loop
vertex -133.433914 81.187820 335.195801
vertex -133.433914 81.187820 246.800171
vertex -133.433914 66.723564 335.195801
endloop
endfacet
facet normal -0.799807 0.000000 0.600257
outer loop
vertex -118.961624 61.898994 354.479279
vertex -133.433914 81.187820 335.195801
vertex -133.433914 66.723564 335.195801
endloop
endfacet
facet normal 0.000000 -1.000000 0.000000
outer loop
vertex -83.606949 61.898994 354.479279
vertex -120.574066 61.898994 246.800171
vertex -83.606949 61.898994 240.353729
endloop
endfacet
facet normal 0.263203 -0.964741 0.000000
outer loop
vertex -65.923004 66.723564 246.800171
vertex -83.606949 61.898994 354.479279
vertex -83.606949 61.898994 240.353729
endloop
endfacet
facet normal 0.342490 0.000000 -0.939522
outer loop
vertex -65.923004 81.187820 246.800171
vertex -65.923004 66.723564 246.800171
vertex -83.606949 61.898994 240.353729
endloop
endfacet
facet normal 1.000000 0.000000 0.000000
outer loop
vertex -65.923004 66.723564 246.800171
vertex -65.923004 81.187820 335.195801
vertex -65.923004 66.723564 335.195801
endloop
endfacet
facet normal 0.737013 0.000000 0.675879
outer loop
vertex -65.923004 81.187820 335.195801
vertex -83.606949 61.898994 354.479279
vertex -65.923004 66.723564 335.195801
endloop
endfacet
facet normal 0.263202 -0.964741 0.000000
outer loop
vertex -83.606949 61.898994 354.479279
vertex -65.923004 66.723564 246.800171
vertex -65.923004 66.723564 335.195801
endloop
endfacet
facet normal -0.351259 -0.936278 0.000000
outer loop
vertex -120.574066 61.898994 246.800171
vertex -133.433914 66.723564 335.195801
vertex -133.433914 66.723564 246.800171
endloop
endfacet
facet normal -1.000000 0.000000 0.000000
outer loop
vertex -133.433914 66.723564 335.195801
vertex -133.433914 81.187820 246.800171
vertex -133.433914 66.723564 246.800171
endloop
endfacet
facet normal 0.000000 0.000000 1.000000
outer loop
vertex -118.961624 61.898994 354.479279
vertex -83.606949 81.187820 354.479279
vertex -118.961624 81.187820 354.479279
endloop
endfacet
facet normal 0.000000 1.000000 0.000000
outer loop
vertex -83.606949 81.187820 354.479279
vertex -133.433914 81.187820 335.195801
vertex -118.961624 81.187820 354.479279
endloop
endfacet
facet normal -0.799808 0.000000 0.600256
outer loop
vertex -133.433914 81.187820 335.195801
vertex -118.961624 61.898994 354.479279
vertex -118.961624 81.187820 354.479279
endloop
endfacet
facet normal 0.000000 1.000000 0.000000
outer loop
vertex -133.433914 81.187820 246.800171
vertex -65.923004 81.187820 246.800171
vertex -118.961624 81.187820 240.353729
endloop
endfacet
facet normal -0.406894 0.000000 -0.913476
outer loop
vertex -133.433914 66.723564 246.800171
vertex -133.433914 81.187820 246.800171
vertex -118.961624 81.187820 240.353729
endloop
endfacet
facet normal -0.406894 0.000000 -0.913475
outer loop
vertex -133.433914 66.723564 246.800171
vertex -118.961624 81.187820 240.353729
vertex -118.961624 61.898994 240.353729
endloop
endfacet
facet normal 0.000000 -1.000000 -0.000002
outer loop
vertex -83.606949 61.898994 240.353729
vertex -120.574066 61.898994 246.800171
vertex -118.961624 61.898994 240.353729
endloop
endfacet
facet normal -0.349911 -0.932685 -0.087524
outer loop
vertex -120.574066 61.898994 246.800171
vertex -133.433914 66.723564 246.800171
vertex -118.961624 61.898994 240.353729
endloop
endfacet
facet normal 0.000000 0.000000 -1.000000
outer loop
vertex -118.961624 81.187820 240.353729
vertex -83.606949 61.898994 240.353729
vertex -118.961624 61.898994 240.353729
endloop
endfacet
facet normal 0.342491 0.000000 -0.939521
outer loop
vertex -65.923004 81.187820 246.800171
vertex -83.606949 61.898994 240.353729
vertex -83.606949 81.187820 240.353729
endloop
endfacet
facet normal 0.000000 1.000000 0.000002
outer loop
vertex -118.961624 81.187820 240.353729
vertex -65.923004 81.187820 246.800171
vertex -83.606949 81.187820 240.353729
endloop
endfacet
endsolid Exported from Blender-2.83.0
