solid Exported from Blender-2.83.0
facet normal 1.000000 0.000000 0.000000
outer loop
vertex 128.610764 -0.803858 213.028625
vertex 128.610764 -0.803858 192.126587
vertex 128.610764 13.662290 192.126587
endloop
endfacet
facet normal 0.000000 -1.000000 0.000000
outer loop
vertex 61.099854 -0.803858 213.028625
vertex 61.099854 -0.803858 192.126587
vertex 128.610764 -0.803858 192.126587
endloop
endfacet
facet normal 0.000000 0.000000 -1.000000
outer loop
vertex 128.610764 -0.803858 192.126587
vertex 61.099854 -0.803858 192.126587
vertex 85.213722 20.096462 192.126587
endloop
endfacet
facet normal 0.000000 -1.000000 0.000000
outer loop
vertex 61.099854 -0.803858 213.028625
vertex 128.610764 -0.803858 192.126587
vertex 83.607895 -0.803858 237.138245
endloop
endfacet
facet normal 0.000000 0.000000 1.000000
outer loop
vertex 85.213722 20.096462 237.138245
vertex 83.607895 -0.803858 237.138245
vertex 118.962570 -0.803858 237.138245
endloop
endfacet
facet normal 0.000000 -1.000000 0.000000
outer loop
vertex 83.607895 -0.803858 237.138245
vertex 128.610764 -0.803858 192.126587
vertex 118.962570 -0.803858 237.138245
endloop
endfacet
facet normal -1.000000 0.000000 0.000000
outer loop
vertex 61.099854 -0.803858 192.126587
vertex 61.099854 -0.803858 213.028625
vertex 61.099854 13.662290 213.028625
endloop
endfacet
facet normal -0.730968 0.000000 0.682411
outer loop
vertex 61.099854 -0.803858 213.028625
vertex 83.607895 -0.803858 237.138245
vertex 61.099854 13.662290 213.028625
endloop
endfacet
facet normal -0.257805 0.966197 0.000000
outer loop
vertex 85.213722 20.096462 237.138245
vertex 85.213722 20.096462 192.126587
vertex 61.099854 13.662290 213.028625
endloop
endfacet
facet normal -0.713257 0.054801 0.698757
outer loop
vertex 83.607895 -0.803858 237.138245
vertex 85.213722 20.096462 237.138245
vertex 61.099854 13.662290 213.028625
endloop
endfacet
facet normal 0.000000 1.000000 0.000000
outer loop
vertex 85.213722 20.096462 192.126587
vertex 85.213722 20.096462 237.138245
vertex 117.356743 20.096462 237.138245
endloop
endfacet
facet normal 0.000000 0.000000 1.000000
outer loop
vertex 85.213722 20.096462 237.138245
vertex 118.962570 -0.803858 237.138245
vertex 117.356743 20.096462 237.138245
endloop
endfacet
facet normal 0.000000 0.000000 -1.000000
outer loop
vertex 128.610764 -0.803858 192.126587
vertex 85.213722 20.096462 192.126587
vertex 117.356743 20.096462 192.126587
endloop
endfacet
facet normal 0.447459 0.894305 0.000000
outer loop
vertex 117.356743 20.096462 237.138245
vertex 126.998322 15.272367 213.028625
vertex 117.356743 20.096462 192.126587
endloop
endfacet
facet normal 0.000000 1.000000 0.000000
outer loop
vertex 85.213722 20.096462 192.126587
vertex 117.356743 20.096462 237.138245
vertex 117.356743 20.096462 192.126587
endloop
endfacet
facet normal 0.000000 0.000000 -1.000000
outer loop
vertex 85.213722 20.096462 192.126587
vertex 61.099854 -0.803858 192.126587
vertex 61.099854 13.662290 192.126587
endloop
endfacet
facet normal -1.000000 0.000000 0.000000
outer loop
vertex 61.099854 -0.803858 192.126587
vertex 61.099854 13.662290 213.028625
vertex 61.099854 13.662290 192.126587
endloop
endfacet
facet normal -0.257805 0.966197 0.000000
outer loop
vertex 61.099854 13.662290 213.028625
vertex 85.213722 20.096462 192.126587
vertex 61.099854 13.662290 192.126587
endloop
endfacet
facet normal 0.000000 -1.000000 0.000000
outer loop
vertex 118.962570 -0.803858 237.138245
vertex 128.610764 -0.803858 192.126587
vertex 128.610764 -0.803858 213.028625
endloop
endfacet
facet normal 0.930752 0.093354 0.353534
outer loop
vertex 126.998322 15.272367 213.028625
vertex 117.356743 20.096462 237.138245
vertex 128.610764 -0.803858 213.028625
endloop
endfacet
facet normal 0.926066 0.071153 0.370593
outer loop
vertex 117.356743 20.096462 237.138245
vertex 118.962570 -0.803858 237.138245
vertex 128.610764 -0.803858 213.028625
endloop
endfacet
facet normal 0.496128 0.867779 -0.028572
outer loop
vertex 117.356743 20.096462 192.126587
vertex 126.998322 15.272367 213.028625
vertex 128.610764 13.662290 192.126587
endloop
endfacet
facet normal 0.000001 0.000000 -1.000000
outer loop
vertex 128.610764 -0.803858 192.126587
vertex 117.356743 20.096462 192.126587
vertex 128.610764 13.662290 192.126587
endloop
endfacet
facet normal 0.992643 0.099561 0.068906
outer loop
vertex 126.998322 15.272367 213.028625
vertex 128.610764 -0.803858 213.028625
vertex 128.610764 13.662290 192.126587
endloop
endfacet
endsolid Exported from Blender-2.83.0
