solid Exported from Blender-2.83.0
facet normal 0.894437 -0.447194 0.000000
outer loop
vertex -94.858932 40.996784 192.122192
vertex -94.858932 40.996784 34.565918
vertex -93.250748 44.213318 34.565918
endloop
endfacet
facet normal 0.000000 0.000000 1.000000
outer loop
vertex -90.032166 53.857262 192.122192
vertex -90.032166 55.466236 192.122192
vertex -112.537994 55.466236 192.122192
endloop
endfacet
facet normal 1.000000 0.000000 0.000000
outer loop
vertex -90.032166 55.466236 192.122192
vertex -90.032166 53.857262 192.122192
vertex -90.032166 55.466236 34.565918
endloop
endfacet
facet normal 0.000000 1.000000 0.000000
outer loop
vertex -112.537994 55.466236 192.122192
vertex -90.032166 55.466236 192.122192
vertex -90.032166 55.466236 34.565918
endloop
endfacet
facet normal 0.000000 0.000000 1.000000
outer loop
vertex -90.032166 53.857262 192.122192
vertex -112.537994 55.466236 192.122192
vertex -94.858932 40.996784 192.122192
endloop
endfacet
facet normal 0.000000 0.000000 -1.000000
outer loop
vertex -90.032166 55.466236 34.565918
vertex -107.713425 40.996784 34.565918
vertex -112.537994 55.466236 34.565918
endloop
endfacet
facet normal 0.000000 1.000000 0.000000
outer loop
vertex -112.537994 55.466236 192.122192
vertex -90.032166 55.466236 34.565918
vertex -112.537994 55.466236 34.565918
endloop
endfacet
facet normal 0.000000 0.000000 -1.000000
outer loop
vertex -107.713425 40.996784 34.565918
vertex -90.032166 55.466236 34.565918
vertex -94.858932 40.996784 34.565918
endloop
endfacet
facet normal 0.000000 -1.000000 0.000000
outer loop
vertex -94.858932 40.996784 192.122192
vertex -107.713425 40.996784 34.565918
vertex -94.858932 40.996784 34.565918
endloop
endfacet
facet normal 0.000000 0.000000 1.000000
outer loop
vertex -94.858932 40.996784 192.122192
vertex -112.537994 55.466236 192.122192
vertex -107.713425 40.996784 192.122192
endloop
endfacet
facet normal 0.000000 -1.000000 0.000000
outer loop
vertex -107.713425 40.996784 34.565918
vertex -94.858932 40.996784 192.122192
vertex -107.713425 40.996784 192.122192
endloop
endfacet
facet normal 0.000000 0.000000 -1.000000
outer loop
vertex -112.537994 55.466236 34.565918
vertex -107.713425 40.996784 34.565918
vertex -112.537994 53.857262 34.565918
endloop
endfacet
facet normal -1.000000 0.000000 0.000000
outer loop
vertex -112.537994 55.466236 192.122192
vertex -112.537994 55.466236 34.565918
vertex -112.537994 53.857262 34.565918
endloop
endfacet
facet normal -0.936284 -0.351244 0.000000
outer loop
vertex -107.713425 40.996784 34.565918
vertex -107.713425 40.996784 192.122192
vertex -112.537994 53.857262 34.565918
endloop
endfacet
facet normal -0.948651 -0.316310 0.003230
outer loop
vertex -107.713425 40.996784 192.122192
vertex -112.537994 55.466236 192.122192
vertex -112.537994 53.857262 34.565918
endloop
endfacet
facet normal 0.961442 -0.274993 -0.002808
outer loop
vertex -90.032166 55.466236 34.565918
vertex -90.032166 53.857262 192.122192
vertex -93.250748 44.213318 34.565918
endloop
endfacet
facet normal 0.936229 -0.351384 0.002383
outer loop
vertex -90.032166 53.857262 192.122192
vertex -94.858932 40.996784 192.122192
vertex -93.250748 44.213318 34.565918
endloop
endfacet
facet normal -0.000008 0.000000 -1.000000
outer loop
vertex -94.858932 40.996784 34.565918
vertex -90.032166 55.466236 34.565918
vertex -93.250748 44.213318 34.565918
endloop
endfacet
endsolid Exported from Blender-2.83.0
