solid Exported from Blender-2.83.0
facet normal 0.000000 -1.000000 0.000000
outer loop
vertex -83.609001 -0.803858 298.231506
vertex -72.347275 -0.803858 246.794617
vertex -72.347275 -0.803858 274.106293
endloop
endfacet
facet normal 0.887724 0.068213 0.455295
outer loop
vertex -72.347275 13.662290 274.106293
vertex -85.214989 20.096462 298.231506
vertex -83.609001 -0.803858 298.231506
endloop
endfacet
facet normal 0.000000 -1.000000 0.000000
outer loop
vertex -139.864777 -0.803858 246.794617
vertex -83.609001 -0.803858 225.898376
vertex -83.609001 -0.803858 298.231506
endloop
endfacet
facet normal 0.000001 0.000000 1.000000
outer loop
vertex -83.609001 -0.803858 298.231506
vertex -85.214989 20.096462 298.231506
vertex -118.960526 18.486385 298.231506
endloop
endfacet
facet normal 0.447231 0.894418 0.000000
outer loop
vertex -85.214989 20.096462 298.231506
vertex -72.347275 13.662290 274.106293
vertex -85.214989 20.096462 225.898376
endloop
endfacet
facet normal 0.000000 1.000000 0.000000
outer loop
vertex -117.354538 20.096462 225.898376
vertex -85.214989 20.096462 298.231506
vertex -85.214989 20.096462 225.898376
endloop
endfacet
facet normal 0.000000 0.000000 -1.000000
outer loop
vertex -83.609001 -0.803858 225.898376
vertex -117.354538 20.096462 225.898376
vertex -85.214989 20.096462 225.898376
endloop
endfacet
facet normal 0.000000 -1.000000 0.000000
outer loop
vertex -139.864777 -0.803858 246.794617
vertex -83.609001 -0.803858 298.231506
vertex -118.960526 -0.803858 298.231506
endloop
endfacet
facet normal 0.000000 0.000000 1.000000
outer loop
vertex -83.609001 -0.803858 298.231506
vertex -118.960526 18.486385 298.231506
vertex -118.960526 -0.803858 298.231506
endloop
endfacet
facet normal -0.755756 0.000000 0.654853
outer loop
vertex -118.960526 -0.803858 298.231506
vertex -118.960526 18.486385 298.231506
vertex -139.864777 13.662290 274.106293
endloop
endfacet
facet normal 0.000000 -1.000000 0.000000
outer loop
vertex -83.609001 -0.803858 298.231506
vertex -83.609001 -0.803858 225.898376
vertex -72.347275 -0.803858 246.794617
endloop
endfacet
facet normal 0.000000 -1.000000 0.000000
outer loop
vertex -83.609001 -0.803858 225.898376
vertex -139.864777 -0.803858 246.794617
vertex -118.960526 -0.803858 225.898376
endloop
endfacet
facet normal 0.000000 0.000000 -1.000000
outer loop
vertex -117.354538 20.096462 225.898376
vertex -83.609001 -0.803858 225.898376
vertex -118.960526 -0.803858 225.898376
endloop
endfacet
facet normal -1.000000 0.000000 0.000000
outer loop
vertex -139.864777 -0.803858 246.794617
vertex -139.864777 13.662290 274.106293
vertex -139.864777 13.662290 246.794617
endloop
endfacet
facet normal -0.274827 0.961494 0.000000
outer loop
vertex -139.864777 13.662290 274.106293
vertex -117.354538 20.096462 225.898376
vertex -139.864777 13.662290 246.794617
endloop
endfacet
facet normal -0.706971 0.000000 -0.707242
outer loop
vertex -118.960526 -0.803858 225.898376
vertex -139.864777 -0.803858 246.794617
vertex -139.864777 13.662290 246.794617
endloop
endfacet
facet normal -0.687463 0.052826 -0.724295
outer loop
vertex -117.354538 20.096462 225.898376
vertex -118.960526 -0.803858 225.898376
vertex -139.864777 13.662290 246.794617
endloop
endfacet
facet normal 0.000000 -1.000000 0.000000
outer loop
vertex -139.864777 -0.803858 246.794617
vertex -118.960526 -0.803858 298.231506
vertex -139.864777 -0.803858 274.106293
endloop
endfacet
facet normal -0.755755 0.000000 0.654855
outer loop
vertex -118.960526 -0.803858 298.231506
vertex -139.864777 13.662290 274.106293
vertex -139.864777 -0.803858 274.106293
endloop
endfacet
facet normal -1.000000 0.000000 0.000000
outer loop
vertex -139.864777 13.662290 274.106293
vertex -139.864777 -0.803858 246.794617
vertex -139.864777 -0.803858 274.106293
endloop
endfacet
facet normal 0.000000 1.000000 0.000000
outer loop
vertex -85.214989 20.096462 298.231506
vertex -117.354538 20.096462 225.898376
vertex -117.354538 20.096462 298.231506
endloop
endfacet
facet normal 0.000000 0.000000 1.000000
outer loop
vertex -118.960526 18.486385 298.231506
vertex -85.214989 20.096462 298.231506
vertex -117.354538 20.096462 298.231506
endloop
endfacet
facet normal -0.640197 0.638584 0.427035
outer loop
vertex -139.864777 13.662290 274.106293
vertex -118.960526 18.486385 298.231506
vertex -117.354538 20.096462 298.231506
endloop
endfacet
facet normal -0.274827 0.961494 0.000000
outer loop
vertex -117.354538 20.096462 225.898376
vertex -139.864777 13.662290 274.106293
vertex -117.354538 20.096462 298.231506
endloop
endfacet
facet normal 0.447231 0.894418 0.000000
outer loop
vertex -85.214989 20.096462 225.898376
vertex -72.347275 13.662290 274.106293
vertex -72.347275 13.662290 246.794617
endloop
endfacet
facet normal 0.858591 0.065974 -0.508398
outer loop
vertex -83.609001 -0.803858 225.898376
vertex -85.214989 20.096462 225.898376
vertex -72.347275 13.662290 246.794617
endloop
endfacet
facet normal 1.000000 0.000000 0.000000
outer loop
vertex -72.347275 13.662290 274.106293
vertex -72.347275 -0.803858 246.794617
vertex -72.347275 13.662290 246.794617
endloop
endfacet
facet normal 0.880297 0.000000 -0.474423
outer loop
vertex -72.347275 -0.803858 246.794617
vertex -83.609001 -0.803858 225.898376
vertex -72.347275 13.662290 246.794617
endloop
endfacet
facet normal 0.906136 0.000000 0.422987
outer loop
vertex -72.347275 13.662290 274.106293
vertex -83.609001 -0.803858 298.231506
vertex -72.347275 -0.803858 274.106293
endloop
endfacet
facet normal 1.000000 0.000000 0.000000
outer loop
vertex -72.347275 -0.803858 246.794617
vertex -72.347275 13.662290 274.106293
vertex -72.347275 -0.803858 274.106293
endloop
endfacet
endsolid Exported from Blender-2.83.0
