solid Exported from Blender-2.83.0
facet normal -0.406102 0.913828 0.000000
outer loop
vertex 138.263672 13.662290 124.598068
vertex 152.742096 20.096462 192.122192
vertex 152.742096 20.096462 102.090027
endloop
endfacet
facet normal 0.000000 0.000000 1.000000
outer loop
vertex 200.964630 -0.803858 192.122192
vertex 200.964630 13.662290 192.122192
vertex 138.263672 -0.803858 192.122192
endloop
endfacet
facet normal 0.000000 -1.000000 0.000000
outer loop
vertex 200.964630 -0.803858 192.122192
vertex 138.263672 -0.803858 192.122192
vertex 186.486206 -0.803858 102.090027
endloop
endfacet
facet normal -0.000000 0.000000 1.000000
outer loop
vertex 138.263672 -0.803858 192.122192
vertex 200.964630 13.662290 192.122192
vertex 152.742096 20.096462 192.122192
endloop
endfacet
facet normal 0.000000 0.000000 -1.000000
outer loop
vertex 186.486206 -0.803858 102.090027
vertex 151.134064 18.486385 102.090027
vertex 184.878174 20.096462 102.090027
endloop
endfacet
facet normal 0.000000 -1.000000 0.000000
outer loop
vertex 186.486206 -0.803858 102.090027
vertex 138.263672 -0.803858 192.122192
vertex 138.263672 -0.803858 124.598068
endloop
endfacet
facet normal 1.000000 0.000000 0.000000
outer loop
vertex 200.964630 13.662290 192.122192
vertex 200.964630 -0.803858 192.122192
vertex 200.964630 13.662290 124.598068
endloop
endfacet
facet normal 0.820400 0.063121 -0.568295
outer loop
vertex 186.486206 -0.803858 102.090027
vertex 184.878174 20.096462 102.090027
vertex 200.964630 13.662290 124.598068
endloop
endfacet
facet normal 0.371370 0.928485 0.000000
outer loop
vertex 184.878174 20.096462 102.090027
vertex 200.964630 13.662290 192.122192
vertex 200.964630 13.662290 124.598068
endloop
endfacet
facet normal 0.000001 0.000000 1.000000
outer loop
vertex 138.263672 -0.803858 192.122192
vertex 152.742096 20.096462 192.122192
vertex 138.263672 13.662290 192.122192
endloop
endfacet
facet normal -1.000000 0.000000 0.000000
outer loop
vertex 138.263672 -0.803858 124.598068
vertex 138.263672 -0.803858 192.122192
vertex 138.263672 13.662290 192.122192
endloop
endfacet
facet normal 0.000000 0.000000 1.000000
outer loop
vertex 152.742096 20.096462 192.122192
vertex 200.964630 13.662290 192.122192
vertex 184.878174 20.096462 192.122192
endloop
endfacet
facet normal 0.371371 0.928485 0.000000
outer loop
vertex 200.964630 13.662290 192.122192
vertex 184.878174 20.096462 102.090027
vertex 184.878174 20.096462 192.122192
endloop
endfacet
facet normal 0.000000 1.000000 0.000000
outer loop
vertex 184.878174 20.096462 102.090027
vertex 152.742096 20.096462 192.122192
vertex 184.878174 20.096462 192.122192
endloop
endfacet
facet normal 0.000000 0.000000 -1.000000
outer loop
vertex 151.134064 18.486385 102.090027
vertex 186.486206 -0.803858 102.090027
vertex 151.134064 -0.803858 102.090027
endloop
endfacet
facet normal -0.868099 0.000000 -0.496390
outer loop
vertex 138.263672 -0.803858 124.598068
vertex 151.134064 18.486385 102.090027
vertex 151.134064 -0.803858 102.090027
endloop
endfacet
facet normal 0.000000 -1.000000 0.000000
outer loop
vertex 186.486206 -0.803858 102.090027
vertex 138.263672 -0.803858 124.598068
vertex 151.134064 -0.803858 102.090027
endloop
endfacet
facet normal 0.000000 -1.000000 0.000000
outer loop
vertex 200.964630 -0.803858 192.122192
vertex 186.486206 -0.803858 102.090027
vertex 200.964630 -0.803858 124.598068
endloop
endfacet
facet normal 1.000000 0.000000 0.000000
outer loop
vertex 200.964630 13.662290 124.598068
vertex 200.964630 -0.803858 192.122192
vertex 200.964630 -0.803858 124.598068
endloop
endfacet
facet normal 0.841026 0.000000 -0.540995
outer loop
vertex 186.486206 -0.803858 102.090027
vertex 200.964630 13.662290 124.598068
vertex 200.964630 -0.803858 124.598068
endloop
endfacet
facet normal -0.868099 0.000000 -0.496391
outer loop
vertex 151.134064 18.486385 102.090027
vertex 138.263672 -0.803858 124.598068
vertex 138.263672 13.662290 124.598068
endloop
endfacet
facet normal -0.406103 0.913828 0.000000
outer loop
vertex 138.263672 13.662290 192.122192
vertex 152.742096 20.096462 192.122192
vertex 138.263672 13.662290 124.598068
endloop
endfacet
facet normal -1.000000 0.000000 0.000000
outer loop
vertex 138.263672 -0.803858 124.598068
vertex 138.263672 13.662290 192.122192
vertex 138.263672 13.662290 124.598068
endloop
endfacet
facet normal 0.000000 0.000000 -1.000000
outer loop
vertex 184.878174 20.096462 102.090027
vertex 151.134064 18.486385 102.090027
vertex 152.742096 20.096462 102.090027
endloop
endfacet
facet normal 0.000000 1.000000 0.000000
outer loop
vertex 152.742096 20.096462 192.122192
vertex 184.878174 20.096462 102.090027
vertex 152.742096 20.096462 102.090027
endloop
endfacet
facet normal -0.685923 0.685048 -0.245395
outer loop
vertex 151.134064 18.486385 102.090027
vertex 138.263672 13.662290 124.598068
vertex 152.742096 20.096462 102.090027
endloop
endfacet
endsolid Exported from Blender-2.83.0
