solid Exported from Blender-2.83.0
facet normal 0.178884 -0.983870 0.000000
outer loop
vertex 51.441597 63.504822 108.513657
vertex 69.131836 66.721199 63.512375
vertex 69.131836 66.721199 92.437119
endloop
endfacet
facet normal 0.000000 1.000000 0.000000
outer loop
vertex 51.441597 81.189713 108.513657
vertex 69.131836 81.189713 92.437119
vertex 16.082367 81.189713 34.573154
endloop
endfacet
facet normal 0.672547 0.000000 0.740054
outer loop
vertex 69.131836 81.189713 92.437119
vertex 51.441597 81.189713 108.513657
vertex 51.441597 63.504822 108.513657
endloop
endfacet
facet normal 0.000000 -1.000000 0.000000
outer loop
vertex 11.259687 63.504822 63.512375
vertex 51.441597 63.504822 34.573154
vertex 51.441597 63.504822 108.513657
endloop
endfacet
facet normal 0.000000 1.000000 0.000000
outer loop
vertex 51.441597 81.189713 108.513657
vertex 16.082367 81.189713 34.573154
vertex -3.215431 81.189713 92.437119
endloop
endfacet
facet normal 0.000000 -1.000000 0.000000
outer loop
vertex 11.259687 63.504822 63.512375
vertex 51.441597 63.504822 108.513657
vertex 16.082367 63.504822 108.513657
endloop
endfacet
facet normal 0.000000 0.000000 1.000000
outer loop
vertex 51.441597 63.504822 108.513657
vertex 51.441597 81.189713 108.513657
vertex 16.082367 63.504822 108.513657
endloop
endfacet
facet normal 0.000000 1.000000 -0.000000
outer loop
vertex 16.082367 81.189713 34.573154
vertex 69.131836 81.189713 92.437119
vertex 51.441597 81.189713 34.573154
endloop
endfacet
facet normal 0.000000 0.000000 -1.000000
outer loop
vertex 51.441597 63.504822 34.573154
vertex 16.082367 81.189713 34.573154
vertex 51.441597 81.189713 34.573154
endloop
endfacet
facet normal 0.853214 0.000000 -0.521561
outer loop
vertex 51.441597 63.504822 34.573154
vertex 51.441597 81.189713 34.573154
vertex 69.131836 66.721199 63.512375
endloop
endfacet
facet normal 0.178884 -0.983870 0.000000
outer loop
vertex 51.441597 63.504822 108.513657
vertex 51.441597 63.504822 34.573154
vertex 69.131836 66.721199 63.512375
endloop
endfacet
facet normal 0.000000 -1.000000 -0.000000
outer loop
vertex 51.441597 63.504822 34.573154
vertex 11.259687 63.504822 63.512375
vertex 16.082367 63.504822 34.573154
endloop
endfacet
facet normal 0.000000 0.000000 -1.000000
outer loop
vertex 16.082367 81.189713 34.573154
vertex 51.441597 63.504822 34.573154
vertex 16.082367 63.504822 34.573154
endloop
endfacet
facet normal -0.216769 -0.975554 -0.036124
outer loop
vertex 11.259687 63.504822 63.512375
vertex -3.215431 66.721199 63.512375
vertex 16.082367 63.504822 34.573154
endloop
endfacet
facet normal -0.831984 0.000000 -0.554800
outer loop
vertex -3.215431 66.721199 63.512375
vertex 16.082367 81.189713 34.573154
vertex 16.082367 63.504822 34.573154
endloop
endfacet
facet normal 0.000000 1.000000 0.000000
outer loop
vertex 51.441597 81.189713 108.513657
vertex -3.215431 81.189713 92.437119
vertex 16.082367 81.189713 108.513657
endloop
endfacet
facet normal -0.640068 0.000000 0.768319
outer loop
vertex -3.215431 81.189713 92.437119
vertex 16.082367 63.504822 108.513657
vertex 16.082367 81.189713 108.513657
endloop
endfacet
facet normal 0.000000 0.000000 1.000000
outer loop
vertex 16.082367 63.504822 108.513657
vertex 51.441597 81.189713 108.513657
vertex 16.082367 81.189713 108.513657
endloop
endfacet
facet normal -0.179986 -0.983480 0.019289
outer loop
vertex 11.259687 63.504822 63.512375
vertex 16.082367 63.504822 108.513657
vertex -3.215431 66.721199 92.437119
endloop
endfacet
facet normal -0.640067 0.000000 0.768319
outer loop
vertex 16.082367 63.504822 108.513657
vertex -3.215431 81.189713 92.437119
vertex -3.215431 66.721199 92.437119
endloop
endfacet
facet normal -0.216910 -0.976192 0.000000
outer loop
vertex -3.215431 66.721199 63.512375
vertex 11.259687 63.504822 63.512375
vertex -3.215431 66.721199 92.437119
endloop
endfacet
facet normal -1.000000 0.000000 0.000000
outer loop
vertex -3.215431 81.189713 92.437119
vertex -3.215431 66.721199 63.512375
vertex -3.215431 66.721199 92.437119
endloop
endfacet
facet normal 0.000000 1.000000 0.000000
outer loop
vertex -3.215431 81.189713 92.437119
vertex 16.082367 81.189713 34.573154
vertex -3.215431 81.189713 63.512375
endloop
endfacet
facet normal -0.831984 0.000000 -0.554799
outer loop
vertex 16.082367 81.189713 34.573154
vertex -3.215431 66.721199 63.512375
vertex -3.215431 81.189713 63.512375
endloop
endfacet
facet normal -1.000000 0.000000 0.000000
outer loop
vertex -3.215431 66.721199 63.512375
vertex -3.215431 81.189713 92.437119
vertex -3.215431 81.189713 63.512375
endloop
endfacet
facet normal 0.000000 1.000000 0.000000
outer loop
vertex 51.441597 81.189713 34.573154
vertex 69.131836 81.189713 92.437119
vertex 69.131836 81.189713 63.512375
endloop
endfacet
facet normal 0.853214 0.000000 -0.521560
outer loop
vertex 69.131836 66.721199 63.512375
vertex 51.441597 81.189713 34.573154
vertex 69.131836 81.189713 63.512375
endloop
endfacet
facet normal 1.000000 0.000000 0.000000
outer loop
vertex 69.131836 81.189713 92.437119
vertex 69.131836 66.721199 63.512375
vertex 69.131836 81.189713 63.512375
endloop
endfacet
facet normal 0.672546 0.000000 0.740055
outer loop
vertex 69.131836 81.189713 92.437119
vertex 51.441597 63.504822 108.513657
vertex 69.131836 66.721199 92.437119
endloop
endfacet
facet normal 1.000000 0.000000 0.000000
outer loop
vertex 69.131836 66.721199 63.512375
vertex 69.131836 81.189713 92.437119
vertex 69.131836 66.721199 92.437119
endloop
endfacet
endsolid Exported from Blender-2.83.0
