solid Exported from Blender-2.83.0
facet normal 1.000000 0.000000 0.000000
outer loop
vertex 69.131836 -0.803858 192.116547
vertex 69.131836 13.662290 185.686935
vertex 69.131836 13.662290 192.116547
endloop
endfacet
facet normal 0.000000 -1.000000 -0.000000
outer loop
vertex -6.423475 -0.803858 185.686935
vertex 16.089287 -0.803858 163.183289
vertex 69.131836 -0.803858 192.116547
endloop
endfacet
facet normal 0.000000 0.000000 1.000000
outer loop
vertex 69.131836 -0.803858 192.116547
vertex 49.828846 20.096462 192.116547
vertex -6.423475 13.662290 192.116547
endloop
endfacet
facet normal 0.000000 1.000000 0.000000
outer loop
vertex 49.828846 20.096462 192.116547
vertex 49.828846 20.096462 163.183289
vertex 17.694172 20.096462 163.183289
endloop
endfacet
facet normal 0.000000 0.000000 -1.000000
outer loop
vertex 49.828846 20.096462 163.183289
vertex 16.089287 -0.803858 163.183289
vertex 17.694172 20.096462 163.183289
endloop
endfacet
facet normal 0.000000 -1.000000 0.000000
outer loop
vertex 69.131836 -0.803858 192.116547
vertex 16.089287 -0.803858 163.183289
vertex 51.441124 -0.803858 163.183289
endloop
endfacet
facet normal 0.000000 0.000000 -1.000000
outer loop
vertex 16.089287 -0.803858 163.183289
vertex 49.828846 20.096462 163.183289
vertex 51.441124 -0.803858 163.183289
endloop
endfacet
facet normal 0.765981 0.059089 -0.640142
outer loop
vertex 51.441124 -0.803858 163.183289
vertex 49.828846 20.096462 163.183289
vertex 69.131836 13.662290 185.686935
endloop
endfacet
facet normal 0.316221 0.948686 0.000000
outer loop
vertex 49.828846 20.096462 163.183289
vertex 49.828846 20.096462 192.116547
vertex 69.131836 13.662290 185.686935
endloop
endfacet
facet normal 0.831114 -0.225861 -0.508170
outer loop
vertex 69.131836 -0.803858 192.116547
vertex 51.441124 -0.803858 163.183289
vertex 69.131836 13.662290 185.686935
endloop
endfacet
facet normal 0.000000 -1.000000 0.000000
outer loop
vertex -6.423475 -0.803858 185.686935
vertex 69.131836 -0.803858 192.116547
vertex -6.423475 -0.803858 192.116547
endloop
endfacet
facet normal -1.000000 0.000000 0.000000
outer loop
vertex -6.423475 13.662290 192.116547
vertex -6.423475 -0.803858 185.686935
vertex -6.423475 -0.803858 192.116547
endloop
endfacet
facet normal 0.000000 0.000000 1.000000
outer loop
vertex 69.131836 -0.803858 192.116547
vertex -6.423475 13.662290 192.116547
vertex -6.423475 -0.803858 192.116547
endloop
endfacet
facet normal 0.000000 0.000000 1.000000
outer loop
vertex -6.423475 13.662290 192.116547
vertex 49.828846 20.096462 192.116547
vertex 17.694172 20.096462 192.116547
endloop
endfacet
facet normal 0.000000 1.000000 0.000000
outer loop
vertex 49.828846 20.096462 192.116547
vertex 17.694172 20.096462 163.183289
vertex 17.694172 20.096462 192.116547
endloop
endfacet
facet normal -0.257767 0.966207 0.000000
outer loop
vertex 17.694172 20.096462 163.183289
vertex -6.423475 13.662290 192.116547
vertex 17.694172 20.096462 192.116547
endloop
endfacet
facet normal -0.706964 0.000000 -0.707250
outer loop
vertex 16.089287 -0.803858 163.183289
vertex -6.423475 -0.803858 185.686935
vertex -6.423475 13.662290 185.686935
endloop
endfacet
facet normal -1.000000 0.000000 0.000000
outer loop
vertex -6.423475 -0.803858 185.686935
vertex -6.423475 13.662290 192.116547
vertex -6.423475 13.662290 185.686935
endloop
endfacet
facet normal -0.257767 0.966207 0.000000
outer loop
vertex -6.423475 13.662290 192.116547
vertex 17.694172 20.096462 163.183289
vertex -6.423475 13.662290 185.686935
endloop
endfacet
facet normal -0.688770 0.052889 -0.723048
outer loop
vertex 17.694172 20.096462 163.183289
vertex 16.089287 -0.803858 163.183289
vertex -6.423475 13.662290 185.686935
endloop
endfacet
facet normal 0.000000 0.000000 1.000000
outer loop
vertex 49.828846 20.096462 192.116547
vertex 69.131836 -0.803858 192.116547
vertex 69.131836 13.662290 192.116547
endloop
endfacet
facet normal 0.316222 0.948685 0.000000
outer loop
vertex 69.131836 13.662290 185.686935
vertex 49.828846 20.096462 192.116547
vertex 69.131836 13.662290 192.116547
endloop
endfacet
endsolid Exported from Blender-2.83.0
