solid Exported from Blender-2.83.0
facet normal -1.000000 0.000000 0.000000
outer loop
vertex 218.652679 81.189713 192.122192
vertex 218.652679 60.292694 32.958191
vertex 218.652679 60.292694 192.122192
endloop
endfacet
facet normal -0.863768 -0.503890 0.000000
outer loop
vertex 218.652679 60.292694 32.958191
vertex 229.906845 41.000717 32.958191
vertex 229.906845 41.000717 192.122192
endloop
endfacet
facet normal 0.000000 0.000000 1.000000
outer loop
vertex 229.906845 41.000717 192.122192
vertex 250.800720 81.189713 192.122192
vertex 218.652679 81.189713 192.122192
endloop
endfacet
facet normal 0.000000 0.000000 -1.000000
outer loop
vertex 229.906845 41.000717 32.958191
vertex 218.652679 60.292694 32.958191
vertex 250.800720 81.189713 32.958191
endloop
endfacet
facet normal 0.000000 1.000000 0.000000
outer loop
vertex 218.652679 81.189713 192.122192
vertex 250.800720 81.189713 192.122192
vertex 250.800720 81.189713 32.958191
endloop
endfacet
facet normal 1.000000 0.000000 0.000000
outer loop
vertex 250.800720 81.189713 32.958191
vertex 250.800720 81.189713 192.122192
vertex 250.800720 41.000717 192.122192
endloop
endfacet
facet normal 0.000000 -1.000000 0.000000
outer loop
vertex 229.906845 41.000717 192.122192
vertex 229.906845 41.000717 32.958191
vertex 250.800720 41.000717 192.122192
endloop
endfacet
facet normal 0.000000 0.000000 1.000000
outer loop
vertex 250.800720 81.189713 192.122192
vertex 229.906845 41.000717 192.122192
vertex 250.800720 41.000717 192.122192
endloop
endfacet
facet normal 0.000000 0.000000 -1.000000
outer loop
vertex 229.906845 41.000717 32.958191
vertex 250.800720 81.189713 32.958191
vertex 250.800720 41.000717 32.958191
endloop
endfacet
facet normal 1.000000 0.000000 0.000000
outer loop
vertex 250.800720 81.189713 32.958191
vertex 250.800720 41.000717 192.122192
vertex 250.800720 41.000717 32.958191
endloop
endfacet
facet normal 0.000000 -1.000000 0.000000
outer loop
vertex 250.800720 41.000717 192.122192
vertex 229.906845 41.000717 32.958191
vertex 250.800720 41.000717 32.958191
endloop
endfacet
facet normal -1.000000 0.000000 0.000000
outer loop
vertex 218.652679 60.292694 32.958191
vertex 218.652679 81.189713 192.122192
vertex 218.652679 81.189713 32.958191
endloop
endfacet
facet normal 0.000000 0.000000 -1.000000
outer loop
vertex 250.800720 81.189713 32.958191
vertex 218.652679 60.292694 32.958191
vertex 218.652679 81.189713 32.958191
endloop
endfacet
facet normal 0.000000 1.000000 0.000000
outer loop
vertex 218.652679 81.189713 192.122192
vertex 250.800720 81.189713 32.958191
vertex 218.652679 81.189713 32.958191
endloop
endfacet
facet normal -0.863770 -0.503886 0.000000
outer loop
vertex 218.652679 60.292694 32.958191
vertex 229.906845 41.000717 192.122192
vertex 218.652679 60.292694 192.122192
endloop
endfacet
facet normal 0.000002 0.000000 1.000000
outer loop
vertex 229.906845 41.000717 192.122192
vertex 218.652679 81.189713 192.122192
vertex 218.652679 60.292694 192.122192
endloop
endfacet
endsolid Exported from Blender-2.83.0
