solid Exported from Blender-2.83.0
facet normal 1.000000 0.000000 0.000000
outer loop
vertex -3.229275 66.721199 153.532578
vertex -3.229275 81.189713 124.609879
vertex -3.229275 81.189713 153.532578
endloop
endfacet
facet normal 0.000000 1.000000 0.000000
outer loop
vertex -73.948059 81.189713 124.609879
vertex -16.085346 81.189713 180.855286
vertex -3.229275 81.189713 124.609879
endloop
endfacet
facet normal 0.000000 -1.000000 0.000000
outer loop
vertex -56.259708 63.504822 124.609879
vertex -51.441277 63.504822 114.951782
vertex -16.085346 63.504822 180.855286
endloop
endfacet
facet normal 0.000000 0.000000 1.000000
outer loop
vertex -16.085346 63.504822 180.855286
vertex -16.085346 81.189713 180.855286
vertex -51.441277 63.504822 180.855286
endloop
endfacet
facet normal 0.000000 -1.000000 0.000000
outer loop
vertex -56.259708 63.504822 124.609879
vertex -16.085346 63.504822 180.855286
vertex -51.441277 63.504822 180.855286
endloop
endfacet
facet normal 0.000000 -1.000000 0.000000
outer loop
vertex -16.085346 63.504822 180.855286
vertex -51.441277 63.504822 114.951782
vertex -16.085346 63.504822 114.951782
endloop
endfacet
facet normal 0.000000 1.000000 -0.000000
outer loop
vertex -16.085346 81.189713 180.855286
vertex -73.948059 81.189713 124.609879
vertex -51.441277 81.189713 180.855286
endloop
endfacet
facet normal 0.000000 0.000000 1.000000
outer loop
vertex -51.441277 63.504822 180.855286
vertex -16.085346 81.189713 180.855286
vertex -51.441277 81.189713 180.855286
endloop
endfacet
facet normal -0.771850 0.000000 0.635804
outer loop
vertex -51.441277 63.504822 180.855286
vertex -51.441277 81.189713 180.855286
vertex -73.948059 66.721199 153.532578
endloop
endfacet
facet normal -0.157489 -0.987429 0.013492
outer loop
vertex -56.259708 63.504822 124.609879
vertex -51.441277 63.504822 180.855286
vertex -73.948059 66.721199 153.532578
endloop
endfacet
facet normal 0.904840 0.000000 0.425752
outer loop
vertex -16.085346 81.189713 180.855286
vertex -16.085346 63.504822 180.855286
vertex -3.229275 66.721199 153.532578
endloop
endfacet
facet normal 0.242703 -0.970101 0.000000
outer loop
vertex -16.085346 63.504822 180.855286
vertex -16.085346 63.504822 114.951782
vertex -3.229275 66.721199 153.532578
endloop
endfacet
facet normal -0.394344 0.000000 -0.918963
outer loop
vertex -51.441277 63.504822 114.951782
vertex -73.948059 81.189713 124.609879
vertex -51.441277 81.189713 114.951782
endloop
endfacet
facet normal 0.000000 1.000000 0.000001
outer loop
vertex -73.948059 81.189713 124.609879
vertex -3.229275 81.189713 124.609879
vertex -51.441277 81.189713 114.951782
endloop
endfacet
facet normal 0.000000 0.000000 -1.000000
outer loop
vertex -16.085346 63.504822 114.951782
vertex -51.441277 63.504822 114.951782
vertex -51.441277 81.189713 114.951782
endloop
endfacet
facet normal -0.178194 -0.979971 -0.088901
outer loop
vertex -51.441277 63.504822 114.951782
vertex -56.259708 63.504822 124.609879
vertex -73.948059 66.721199 124.609879
endloop
endfacet
facet normal -0.394345 0.000000 -0.918963
outer loop
vertex -73.948059 81.189713 124.609879
vertex -51.441277 63.504822 114.951782
vertex -73.948059 66.721199 124.609879
endloop
endfacet
facet normal -0.178902 -0.983867 0.000000
outer loop
vertex -56.259708 63.504822 124.609879
vertex -73.948059 66.721199 153.532578
vertex -73.948059 66.721199 124.609879
endloop
endfacet
facet normal -1.000000 0.000000 0.000000
outer loop
vertex -73.948059 66.721199 153.532578
vertex -73.948059 81.189713 124.609879
vertex -73.948059 66.721199 124.609879
endloop
endfacet
facet normal 0.000000 1.000000 0.000000
outer loop
vertex -51.441277 81.189713 180.855286
vertex -73.948059 81.189713 124.609879
vertex -73.948059 81.189713 153.532578
endloop
endfacet
facet normal -0.771851 0.000000 0.635803
outer loop
vertex -73.948059 66.721199 153.532578
vertex -51.441277 81.189713 180.855286
vertex -73.948059 81.189713 153.532578
endloop
endfacet
facet normal -1.000000 0.000000 0.000000
outer loop
vertex -73.948059 81.189713 124.609879
vertex -73.948059 66.721199 153.532578
vertex -73.948059 81.189713 153.532578
endloop
endfacet
facet normal 0.600638 0.000000 -0.799521
outer loop
vertex -3.229275 81.189713 124.609879
vertex -16.085346 63.504822 114.951782
vertex -16.085346 81.189713 114.951782
endloop
endfacet
facet normal 0.000000 1.000000 0.000000
outer loop
vertex -51.441277 81.189713 114.951782
vertex -3.229275 81.189713 124.609879
vertex -16.085346 81.189713 114.951782
endloop
endfacet
facet normal 0.000000 0.000000 -1.000000
outer loop
vertex -16.085346 63.504822 114.951782
vertex -51.441277 81.189713 114.951782
vertex -16.085346 81.189713 114.951782
endloop
endfacet
facet normal 0.600639 0.000000 -0.799520
outer loop
vertex -16.085346 63.504822 114.951782
vertex -3.229275 81.189713 124.609879
vertex -3.229275 66.721199 124.609879
endloop
endfacet
facet normal 1.000000 0.000000 0.000000
outer loop
vertex -3.229275 81.189713 124.609879
vertex -3.229275 66.721199 153.532578
vertex -3.229275 66.721199 124.609879
endloop
endfacet
facet normal 0.242703 -0.970101 0.000000
outer loop
vertex -3.229275 66.721199 153.532578
vertex -16.085346 63.504822 114.951782
vertex -3.229275 66.721199 124.609879
endloop
endfacet
facet normal 0.000000 1.000000 0.000000
outer loop
vertex -3.229275 81.189713 124.609879
vertex -16.085346 81.189713 180.855286
vertex -3.229275 81.189713 153.532578
endloop
endfacet
facet normal 0.904840 0.000000 0.425751
outer loop
vertex -16.085346 81.189713 180.855286
vertex -3.229275 66.721199 153.532578
vertex -3.229275 81.189713 153.532578
endloop
endfacet
endsolid Exported from Blender-2.83.0
