solid Exported from Blender-2.83.0
facet normal -0.060801 0.016381 0.998015
outer loop
vertex 16.088917 -0.799767 32.958199
vertex 27.348804 40.992691 32.958199
vertex -6.430862 13.669685 31.348751
endloop
endfacet
facet normal 1.000000 0.000000 0.000000
outer loop
vertex 138.262253 40.992691 20.092527
vertex 138.262253 13.669685 31.348751
vertex 138.262253 -0.799767 -0.800554
endloop
endfacet
facet normal 0.000000 1.000000 -0.000000
outer loop
vertex 138.262253 40.992691 20.092527
vertex -6.430862 40.992691 -0.800554
vertex 27.348804 40.992691 32.958199
endloop
endfacet
facet normal 0.000000 -1.000000 0.000000
outer loop
vertex 138.262253 -0.799767 -0.800554
vertex -6.430862 -0.799767 31.348751
vertex -6.430862 -0.799767 -0.800554
endloop
endfacet
facet normal -1.000000 0.000000 0.000000
outer loop
vertex -6.430862 -0.799767 31.348751
vertex -6.430862 40.992691 -0.800554
vertex -6.430862 -0.799767 -0.800554
endloop
endfacet
facet normal 0.000000 0.000000 -1.000000
outer loop
vertex -6.430862 40.992691 -0.800554
vertex 138.262253 -0.799767 -0.800554
vertex -6.430862 -0.799767 -0.800554
endloop
endfacet
facet normal 1.000000 0.000000 0.000000
outer loop
vertex 138.262253 40.992691 20.092527
vertex 138.262253 -0.799767 -0.800554
vertex 138.262253 40.992691 -0.800554
endloop
endfacet
facet normal 0.000000 0.000000 -1.000000
outer loop
vertex 138.262253 -0.799767 -0.800554
vertex -6.430862 40.992691 -0.800554
vertex 138.262253 40.992691 -0.800554
endloop
endfacet
facet normal 0.000000 1.000000 0.000000
outer loop
vertex -6.430862 40.992691 -0.800554
vertex 138.262253 40.992691 20.092527
vertex 138.262253 40.992691 -0.800554
endloop
endfacet
facet normal 0.000000 -1.000000 -0.000000
outer loop
vertex -6.430862 -0.799767 31.348751
vertex 138.262253 -0.799767 -0.800554
vertex 118.957565 -0.799767 32.958199
endloop
endfacet
facet normal 0.000000 0.000000 1.000000
outer loop
vertex 27.348804 40.992691 32.958199
vertex 118.957565 -0.799767 32.958199
vertex 107.697678 40.992691 32.958199
endloop
endfacet
facet normal 0.362699 0.354973 0.861652
outer loop
vertex 138.262253 13.669685 31.348751
vertex 138.262253 40.992691 20.092527
vertex 107.697678 40.992691 32.958199
endloop
endfacet
facet normal 0.000000 1.000000 0.000000
outer loop
vertex 138.262253 40.992691 20.092527
vertex 27.348804 40.992691 32.958199
vertex 107.697678 40.992691 32.958199
endloop
endfacet
facet normal 0.069185 0.018640 0.997430
outer loop
vertex 118.957565 -0.799767 32.958199
vertex 138.262253 13.669685 31.348751
vertex 107.697678 40.992691 32.958199
endloop
endfacet
facet normal -1.000000 -0.000000 0.000000
outer loop
vertex -6.430862 40.992691 -0.800554
vertex -6.430862 -0.799767 31.348751
vertex -6.430862 40.992691 20.095833
endloop
endfacet
facet normal 0.000000 1.000000 0.000000
outer loop
vertex 27.348804 40.992691 32.958199
vertex -6.430862 40.992691 -0.800554
vertex -6.430862 40.992691 20.095833
endloop
endfacet
facet normal 1.000000 0.000000 0.000000
outer loop
vertex 138.262253 -0.799767 -0.800554
vertex 138.262253 13.669685 31.348751
vertex 138.262253 -0.799767 31.348751
endloop
endfacet
facet normal 0.083082 0.000000 0.996543
outer loop
vertex 138.262253 13.669685 31.348751
vertex 118.957565 -0.799767 32.958199
vertex 138.262253 -0.799767 31.348751
endloop
endfacet
facet normal 0.000000 -1.000000 0.000000
outer loop
vertex 118.957565 -0.799767 32.958199
vertex 138.262253 -0.799767 -0.800554
vertex 138.262253 -0.799767 31.348751
endloop
endfacet
facet normal 0.000000 -1.000000 0.000000
outer loop
vertex -6.430862 -0.799767 31.348751
vertex 118.957565 -0.799767 32.958199
vertex 16.088917 -0.799767 32.958199
endloop
endfacet
facet normal 0.000000 0.000000 1.000000
outer loop
vertex 118.957565 -0.799767 32.958199
vertex 27.348804 40.992691 32.958199
vertex 16.088917 -0.799767 32.958199
endloop
endfacet
facet normal -1.000000 0.000000 0.000000
outer loop
vertex -6.430862 40.992691 20.095833
vertex -6.430862 -0.799767 31.348751
vertex -6.430862 13.669685 31.348751
endloop
endfacet
facet normal -0.332099 0.359202 0.872172
outer loop
vertex 27.348804 40.992691 32.958199
vertex -6.430862 40.992691 20.095833
vertex -6.430862 13.669685 31.348751
endloop
endfacet
facet normal -0.071286 0.000000 0.997456
outer loop
vertex -6.430862 -0.799767 31.348751
vertex 16.088917 -0.799767 32.958199
vertex -6.430862 13.669685 31.348751
endloop
endfacet
endsolid Exported from Blender-2.83.0
