solid Exported from Blender-2.83.0
facet normal 0.000000 -1.000000 0.000000
outer loop
vertex 217.039902 -0.803858 307.880493
vertex 197.751083 -0.803858 335.206329
vertex 197.751083 -0.803858 307.880493
endloop
endfacet
facet normal 1.000000 0.000000 0.000000
outer loop
vertex 217.039902 16.881029 335.206329
vertex 217.039902 -0.803858 335.206329
vertex 217.039902 16.881029 307.880493
endloop
endfacet
facet normal -0.164477 0.986381 0.000000
outer loop
vertex 197.751083 13.664651 307.880493
vertex 217.039902 16.881029 335.206329
vertex 217.039902 16.881029 307.880493
endloop
endfacet
facet normal 0.000000 0.000000 1.000000
outer loop
vertex 217.039902 -0.803858 335.206329
vertex 217.039902 16.881029 335.206329
vertex 197.751083 -0.803858 335.206329
endloop
endfacet
facet normal 1.000000 0.000000 0.000000
outer loop
vertex 217.039902 16.881029 307.880493
vertex 217.039902 -0.803858 335.206329
vertex 217.039902 -0.803858 307.880493
endloop
endfacet
facet normal -0.000003 0.000000 -1.000000
outer loop
vertex 197.751083 13.664651 307.880493
vertex 217.039902 16.881029 307.880493
vertex 217.039902 -0.803858 307.880493
endloop
endfacet
facet normal 0.000000 -1.000000 0.000000
outer loop
vertex 217.039902 -0.803858 335.206329
vertex 197.751083 -0.803858 335.206329
vertex 217.039902 -0.803858 307.880493
endloop
endfacet
facet normal -0.164478 0.986381 0.000000
outer loop
vertex 217.039902 16.881029 335.206329
vertex 197.751083 13.664651 307.880493
vertex 197.751083 13.664651 335.206329
endloop
endfacet
facet normal -1.000000 0.000000 0.000000
outer loop
vertex 197.751083 13.664651 307.880493
vertex 197.751083 -0.803858 335.206329
vertex 197.751083 13.664651 335.206329
endloop
endfacet
facet normal 0.000000 0.000000 1.000000
outer loop
vertex 197.751083 -0.803858 335.206329
vertex 217.039902 16.881029 335.206329
vertex 197.751083 13.664651 335.206329
endloop
endfacet
facet normal -1.000000 0.000000 0.000000
outer loop
vertex 197.751083 -0.803858 335.206329
vertex 197.751083 13.664651 307.880493
vertex 197.751083 -0.803858 307.880493
endloop
endfacet
facet normal 0.000000 0.000000 -1.000000
outer loop
vertex 197.751083 13.664651 307.880493
vertex 217.039902 -0.803858 307.880493
vertex 197.751083 -0.803858 307.880493
endloop
endfacet
endsolid Exported from Blender-2.83.0
