solid Exported from Blender-2.83.0
facet normal -0.599992 0.000000 0.800006
outer loop
vertex 151.134064 -0.803858 102.090034
vertex 138.263672 13.662290 92.437439
vertex 138.263672 -0.803858 92.437439
endloop
endfacet
facet normal 0.371370 0.928485 0.000000
outer loop
vertex 184.878174 20.096462 102.090034
vertex 200.964630 13.662290 92.437439
vertex 184.878174 20.096462 36.173637
endloop
endfacet
facet normal 0.525954 0.040466 0.849550
outer loop
vertex 200.964630 13.662290 92.437439
vertex 184.878174 20.096462 102.090034
vertex 186.486206 -0.803858 102.090034
endloop
endfacet
facet normal 0.000000 -1.000000 0.000000
outer loop
vertex 138.263672 -0.803858 63.505455
vertex 186.486206 -0.803858 36.173637
vertex 186.486206 -0.803858 102.090034
endloop
endfacet
facet normal 0.000000 1.000000 0.000000
outer loop
vertex 184.878174 20.096462 102.090034
vertex 184.878174 20.096462 36.173637
vertex 152.742096 20.096462 36.173637
endloop
endfacet
facet normal 0.000000 0.000000 -1.000000
outer loop
vertex 184.878174 20.096462 36.173637
vertex 186.486206 -0.803858 36.173637
vertex 152.742096 20.096462 36.173637
endloop
endfacet
facet normal 0.000000 -1.000000 0.000000
outer loop
vertex 138.263672 -0.803858 63.505455
vertex 186.486206 -0.803858 102.090034
vertex 151.134064 -0.803858 102.090034
endloop
endfacet
facet normal 0.000000 0.000000 1.000000
outer loop
vertex 186.486206 -0.803858 102.090034
vertex 184.878174 20.096462 102.090034
vertex 151.134064 -0.803858 102.090034
endloop
endfacet
facet normal 0.000000 -1.000000 0.000000
outer loop
vertex 186.486206 -0.803858 102.090034
vertex 186.486206 -0.803858 36.173637
vertex 200.964630 -0.803858 63.505455
endloop
endfacet
facet normal 0.000000 -1.000000 0.000000
outer loop
vertex 186.486206 -0.803858 36.173637
vertex 138.263672 -0.803858 63.505455
vertex 151.134064 -0.803858 36.173637
endloop
endfacet
facet normal 0.000000 0.000000 -1.000000
outer loop
vertex 152.742096 20.096462 36.173637
vertex 186.486206 -0.803858 36.173637
vertex 151.134064 -0.803858 36.173637
endloop
endfacet
facet normal -0.406102 0.913828 0.000000
outer loop
vertex 152.742096 20.096462 36.173637
vertex 138.263672 13.662290 92.437439
vertex 152.742096 20.096462 102.090034
endloop
endfacet
facet normal 0.000000 1.000000 0.000000
outer loop
vertex 184.878174 20.096462 102.090034
vertex 152.742096 20.096462 36.173637
vertex 152.742096 20.096462 102.090034
endloop
endfacet
facet normal 0.000000 0.000000 1.000000
outer loop
vertex 151.134064 -0.803858 102.090034
vertex 184.878174 20.096462 102.090034
vertex 152.742096 20.096462 102.090034
endloop
endfacet
facet normal -0.567545 0.043666 0.822183
outer loop
vertex 138.263672 13.662290 92.437439
vertex 151.134064 -0.803858 102.090034
vertex 152.742096 20.096462 102.090034
endloop
endfacet
facet normal 0.371370 0.928485 0.000000
outer loop
vertex 184.878174 20.096462 36.173637
vertex 200.964630 13.662290 92.437439
vertex 200.964630 13.662290 63.505455
endloop
endfacet
facet normal 0.866676 0.066680 -0.494395
outer loop
vertex 186.486206 -0.803858 36.173637
vertex 184.878174 20.096462 36.173637
vertex 200.964630 13.662290 63.505455
endloop
endfacet
facet normal 1.000000 0.000000 0.000000
outer loop
vertex 200.964630 13.662290 92.437439
vertex 200.964630 -0.803858 63.505455
vertex 200.964630 13.662290 63.505455
endloop
endfacet
facet normal 0.883672 0.000000 -0.468106
outer loop
vertex 200.964630 -0.803858 63.505455
vertex 186.486206 -0.803858 36.173637
vertex 200.964630 13.662290 63.505455
endloop
endfacet
facet normal -1.000000 0.000000 0.000000
outer loop
vertex 138.263672 -0.803858 63.505455
vertex 138.263672 13.662290 92.437439
vertex 138.263672 13.662290 63.505455
endloop
endfacet
facet normal -0.406103 0.913827 0.000000
outer loop
vertex 138.263672 13.662290 92.437439
vertex 152.742096 20.096462 36.173637
vertex 138.263672 13.662290 63.505455
endloop
endfacet
facet normal -0.904712 0.000000 -0.426024
outer loop
vertex 151.134064 -0.803858 36.173637
vertex 138.263672 -0.803858 63.505455
vertex 138.263672 13.662290 63.505455
endloop
endfacet
facet normal -0.888172 0.068335 -0.454403
outer loop
vertex 152.742096 20.096462 36.173637
vertex 151.134064 -0.803858 36.173637
vertex 138.263672 13.662290 63.505455
endloop
endfacet
facet normal 0.554712 0.000000 0.832042
outer loop
vertex 200.964630 13.662290 92.437439
vertex 186.486206 -0.803858 102.090034
vertex 200.964630 -0.803858 92.437439
endloop
endfacet
facet normal 1.000000 0.000000 0.000000
outer loop
vertex 200.964630 -0.803858 63.505455
vertex 200.964630 13.662290 92.437439
vertex 200.964630 -0.803858 92.437439
endloop
endfacet
facet normal 0.000000 -1.000000 0.000000
outer loop
vertex 186.486206 -0.803858 102.090034
vertex 200.964630 -0.803858 63.505455
vertex 200.964630 -0.803858 92.437439
endloop
endfacet
facet normal -1.000000 0.000000 0.000000
outer loop
vertex 138.263672 13.662290 92.437439
vertex 138.263672 -0.803858 63.505455
vertex 138.263672 -0.803858 92.437439
endloop
endfacet
facet normal 0.000000 -1.000000 0.000000
outer loop
vertex 138.263672 -0.803858 63.505455
vertex 151.134064 -0.803858 102.090034
vertex 138.263672 -0.803858 92.437439
endloop
endfacet
endsolid Exported from Blender-2.83.0
