solid Exported from Blender-2.83.0
facet normal -0.136255 -0.038107 0.989941
outer loop
vertex 27.342518 41.000717 34.562454
vertex 16.102661 81.189713 34.562454
vertex -3.215439 66.716797 31.346390
endloop
endfacet
facet normal 1.000000 0.000000 0.000000
outer loop
vertex 128.617371 81.189713 31.349854
vertex 128.617371 66.720734 31.349854
vertex 128.617371 81.189713 -0.800398
endloop
endfacet
facet normal 0.000000 1.000000 0.000000
outer loop
vertex 128.617371 81.189713 31.349854
vertex 128.617371 81.189713 -0.800398
vertex -3.215439 81.189713 31.346390
endloop
endfacet
facet normal 1.000000 0.000000 0.000000
outer loop
vertex 128.617371 81.189713 -0.800398
vertex 128.617371 66.720734 31.349854
vertex 128.617371 41.000717 -0.800398
endloop
endfacet
facet normal 0.000000 0.000000 -1.000000
outer loop
vertex 128.617371 81.189713 -0.800398
vertex 128.617371 41.000717 -0.800398
vertex -3.215439 81.189713 -0.800398
endloop
endfacet
facet normal -1.000000 -0.000000 0.000000
outer loop
vertex -3.215439 41.000717 20.091900
vertex -3.215439 81.189713 31.346390
vertex -3.215439 81.189713 -0.800398
endloop
endfacet
facet normal 0.000000 1.000000 0.000000
outer loop
vertex -3.215439 81.189713 31.346390
vertex 128.617371 81.189713 -0.800398
vertex -3.215439 81.189713 -0.800398
endloop
endfacet
facet normal 0.000000 -1.000000 0.000000
outer loop
vertex -3.215439 41.000717 20.091900
vertex 128.617371 41.000717 -0.800398
vertex 107.712006 41.000717 34.562454
endloop
endfacet
facet normal 0.000000 -1.000000 0.000000
outer loop
vertex 128.617371 41.000717 -0.800398
vertex -3.215439 41.000717 20.091900
vertex -3.215439 41.000717 -0.800398
endloop
endfacet
facet normal 0.000000 0.000000 -1.000000
outer loop
vertex -3.215439 81.189713 -0.800398
vertex 128.617371 41.000717 -0.800398
vertex -3.215439 41.000717 -0.800398
endloop
endfacet
facet normal -1.000000 0.000000 0.000000
outer loop
vertex -3.215439 41.000717 20.091900
vertex -3.215439 81.189713 -0.800398
vertex -3.215439 41.000717 -0.800398
endloop
endfacet
facet normal 0.000000 -1.000000 0.000000
outer loop
vertex -3.215439 41.000717 20.091900
vertex 107.712006 41.000717 34.562454
vertex 27.342518 41.000717 34.562454
endloop
endfacet
facet normal 0.000000 0.000000 1.000000
outer loop
vertex 27.342518 41.000717 34.562454
vertex 107.712006 41.000717 34.562454
vertex 118.964767 81.189713 34.562454
endloop
endfacet
facet normal 0.315791 0.000000 0.948829
outer loop
vertex 128.617371 66.720734 31.349854
vertex 128.617371 81.189713 31.349854
vertex 118.964767 81.189713 34.562454
endloop
endfacet
facet normal 0.000000 1.000000 0.000000
outer loop
vertex 128.617371 81.189713 31.349854
vertex -3.215439 81.189713 31.346390
vertex 118.964767 81.189713 34.562454
endloop
endfacet
facet normal 0.227778 -0.063777 0.971622
outer loop
vertex 107.712006 41.000717 34.562454
vertex 128.617371 66.720734 31.349854
vertex 118.964767 81.189713 34.562454
endloop
endfacet
facet normal 0.000000 1.000000 -0.000002
outer loop
vertex 118.964767 81.189713 34.562454
vertex -3.215439 81.189713 31.346390
vertex 16.102661 81.189713 34.562454
endloop
endfacet
facet normal 0.000000 0.000000 1.000000
outer loop
vertex 27.342518 41.000717 34.562454
vertex 118.964767 81.189713 34.562454
vertex 16.102661 81.189713 34.562454
endloop
endfacet
facet normal 1.000000 -0.000001 0.000000
outer loop
vertex 128.617371 41.000717 -0.800398
vertex 128.617371 66.720734 31.349854
vertex 128.617371 41.000717 20.091900
endloop
endfacet
facet normal 0.535519 -0.338638 0.773656
outer loop
vertex 128.617371 66.720734 31.349854
vertex 107.712006 41.000717 34.562454
vertex 128.617371 41.000717 20.091900
endloop
endfacet
facet normal 0.000000 -1.000000 0.000000
outer loop
vertex 107.712006 41.000717 34.562454
vertex 128.617371 41.000717 -0.800398
vertex 128.617371 41.000717 20.091900
endloop
endfacet
facet normal -1.000000 0.000000 0.000000
outer loop
vertex -3.215439 81.189713 31.346390
vertex -3.215439 41.000717 20.091900
vertex -3.215439 66.716797 31.346390
endloop
endfacet
facet normal -0.397982 -0.367810 0.840432
outer loop
vertex -3.215439 41.000717 20.091900
vertex 27.342518 41.000717 34.562454
vertex -3.215439 66.716797 31.346390
endloop
endfacet
facet normal -0.164219 0.000000 0.986424
outer loop
vertex 16.102661 81.189713 34.562454
vertex -3.215439 81.189713 31.346390
vertex -3.215439 66.716797 31.346390
endloop
endfacet
endsolid Exported from Blender-2.83.0
