solid Exported from Blender-2.83.0
facet normal -0.832124 0.000000 0.554589
outer loop
vertex -202.565582 66.723564 274.109283
vertex -186.488724 81.187820 298.231506
vertex -202.565582 81.187820 274.109283
endloop
endfacet
facet normal 0.000000 1.000000 0.000000
outer loop
vertex -151.134537 81.187820 298.231506
vertex -133.440521 81.187820 274.109283
vertex -202.565582 81.187820 246.795242
endloop
endfacet
facet normal 0.000000 -1.000000 0.000000
outer loop
vertex -186.488724 61.898994 298.231506
vertex -188.092346 61.898994 246.795242
vertex -151.134537 61.898994 227.505783
endloop
endfacet
facet normal 0.000000 -1.000000 0.000000
outer loop
vertex -186.488724 61.898994 298.231506
vertex -151.134537 61.898994 227.505783
vertex -151.134537 61.898994 298.231506
endloop
endfacet
facet normal 0.806335 0.000000 0.591459
outer loop
vertex -133.440521 81.187820 274.109283
vertex -151.134537 81.187820 298.231506
vertex -151.134537 61.898994 298.231506
endloop
endfacet
facet normal 0.000000 0.000000 1.000000
outer loop
vertex -151.134537 81.187820 298.231506
vertex -186.488724 61.898994 298.231506
vertex -151.134537 61.898994 298.231506
endloop
endfacet
facet normal 0.000000 1.000000 0.000000
outer loop
vertex -202.565582 81.187820 246.795242
vertex -133.440521 81.187820 274.109283
vertex -151.134537 81.187820 227.505783
endloop
endfacet
facet normal 0.000000 1.000000 0.000000
outer loop
vertex -151.134537 81.187820 298.231506
vertex -202.565582 81.187820 246.795242
vertex -186.488724 81.187820 298.231506
endloop
endfacet
facet normal 0.000000 0.000000 1.000000
outer loop
vertex -186.488724 61.898994 298.231506
vertex -151.134537 81.187820 298.231506
vertex -186.488724 81.187820 298.231506
endloop
endfacet
facet normal 0.263063 -0.964779 0.000000
outer loop
vertex -151.134537 61.898994 298.231506
vertex -151.134537 61.898994 227.505783
vertex -133.440521 66.723564 246.795242
endloop
endfacet
facet normal 0.736926 0.000000 -0.675974
outer loop
vertex -151.134537 61.898994 227.505783
vertex -151.134537 81.187820 227.505783
vertex -133.440521 66.723564 246.795242
endloop
endfacet
facet normal 0.000000 -1.000000 -0.000000
outer loop
vertex -151.134537 61.898994 227.505783
vertex -188.092346 61.898994 246.795242
vertex -186.488724 61.898994 227.505783
endloop
endfacet
facet normal 0.000000 0.000000 -1.000000
outer loop
vertex -151.134537 81.187820 227.505783
vertex -151.134537 61.898994 227.505783
vertex -186.488724 61.898994 227.505783
endloop
endfacet
facet normal -0.300278 -0.953806 0.009362
outer loop
vertex -188.092346 61.898994 246.795242
vertex -186.488724 61.898994 298.231506
vertex -202.565582 66.723564 274.109283
endloop
endfacet
facet normal -0.832124 0.000000 0.554590
outer loop
vertex -186.488724 61.898994 298.231506
vertex -186.488724 81.187820 298.231506
vertex -202.565582 66.723564 274.109283
endloop
endfacet
facet normal 0.000000 1.000000 -0.000001
outer loop
vertex -202.565582 81.187820 246.795242
vertex -151.134537 81.187820 227.505783
vertex -186.488724 81.187820 227.505783
endloop
endfacet
facet normal -0.768176 0.000000 -0.640238
outer loop
vertex -186.488724 61.898994 227.505783
vertex -202.565582 81.187820 246.795242
vertex -186.488724 81.187820 227.505783
endloop
endfacet
facet normal 0.000000 0.000000 -1.000000
outer loop
vertex -151.134537 81.187820 227.505783
vertex -186.488724 61.898994 227.505783
vertex -186.488724 81.187820 227.505783
endloop
endfacet
facet normal 0.806335 0.000000 0.591459
outer loop
vertex -133.440521 81.187820 274.109283
vertex -151.134537 61.898994 298.231506
vertex -133.440521 66.723564 274.109283
endloop
endfacet
facet normal 0.263063 -0.964779 0.000000
outer loop
vertex -151.134537 61.898994 298.231506
vertex -133.440521 66.723564 246.795242
vertex -133.440521 66.723564 274.109283
endloop
endfacet
facet normal 1.000000 0.000000 0.000000
outer loop
vertex -133.440521 66.723564 246.795242
vertex -133.440521 81.187820 274.109283
vertex -133.440521 66.723564 274.109283
endloop
endfacet
facet normal 0.000000 1.000000 0.000000
outer loop
vertex -151.134537 81.187820 227.505783
vertex -133.440521 81.187820 274.109283
vertex -133.440521 81.187820 246.795242
endloop
endfacet
facet normal 1.000000 0.000000 0.000000
outer loop
vertex -133.440521 81.187820 274.109283
vertex -133.440521 66.723564 246.795242
vertex -133.440521 81.187820 246.795242
endloop
endfacet
facet normal 0.736926 0.000000 -0.675974
outer loop
vertex -133.440521 66.723564 246.795242
vertex -151.134537 81.187820 227.505783
vertex -133.440521 81.187820 246.795242
endloop
endfacet
facet normal -0.316127 -0.948353 -0.026281
outer loop
vertex -186.488724 61.898994 227.505783
vertex -188.092346 61.898994 246.795242
vertex -202.565582 66.723564 246.795242
endloop
endfacet
facet normal -0.768176 0.000000 -0.640239
outer loop
vertex -202.565582 81.187820 246.795242
vertex -186.488724 61.898994 227.505783
vertex -202.565582 66.723564 246.795242
endloop
endfacet
facet normal -0.316237 -0.948680 0.000000
outer loop
vertex -188.092346 61.898994 246.795242
vertex -202.565582 66.723564 274.109283
vertex -202.565582 66.723564 246.795242
endloop
endfacet
facet normal -1.000000 0.000000 0.000000
outer loop
vertex -202.565582 66.723564 274.109283
vertex -202.565582 81.187820 246.795242
vertex -202.565582 66.723564 246.795242
endloop
endfacet
facet normal 0.000000 1.000000 0.000000
outer loop
vertex -186.488724 81.187820 298.231506
vertex -202.565582 81.187820 246.795242
vertex -202.565582 81.187820 274.109283
endloop
endfacet
facet normal -1.000000 0.000000 0.000000
outer loop
vertex -202.565582 81.187820 246.795242
vertex -202.565582 66.723564 274.109283
vertex -202.565582 81.187820 274.109283
endloop
endfacet
endsolid Exported from Blender-2.83.0
