solid Exported from Blender-2.83.0
facet normal 0.000000 0.000000 -1.000000
outer loop
vertex 115.749962 20.098507 32.958191
vertex 107.712326 40.994740 32.958191
vertex 115.749962 21.706224 32.958191
endloop
endfacet
facet normal 0.000000 0.000000 1.000000
outer loop
vertex 115.749962 21.706224 401.125366
vertex 107.712326 40.994740 401.125366
vertex 86.819565 20.098507 401.125366
endloop
endfacet
facet normal 0.000000 0.000000 -1.000000
outer loop
vertex 115.749962 20.098507 32.958191
vertex 86.819565 21.706224 32.958191
vertex 94.860031 40.994740 32.958191
endloop
endfacet
facet normal 0.000000 0.000000 1.000000
outer loop
vertex 86.819565 20.098507 401.125366
vertex 107.712326 40.994740 401.125366
vertex 94.860031 40.994740 401.125366
endloop
endfacet
facet normal 0.000000 1.000000 0.000000
outer loop
vertex 107.712326 40.994740 401.125366
vertex 94.860031 40.994740 32.958191
vertex 94.860031 40.994740 401.125366
endloop
endfacet
facet normal -0.923016 0.384762 0.000000
outer loop
vertex 94.860031 40.994740 32.958191
vertex 86.819565 21.706224 32.958191
vertex 94.860031 40.994740 401.125366
endloop
endfacet
facet normal 0.923064 0.384645 0.000000
outer loop
vertex 107.712326 40.994740 401.125366
vertex 115.749962 21.706224 401.125366
vertex 107.712326 40.994740 32.958191
endloop
endfacet
facet normal 0.000000 1.000000 0.000000
outer loop
vertex 94.860031 40.994740 32.958191
vertex 107.712326 40.994740 401.125366
vertex 107.712326 40.994740 32.958191
endloop
endfacet
facet normal 0.000000 0.000000 -1.000000
outer loop
vertex 115.749962 20.098507 32.958191
vertex 94.860031 40.994740 32.958191
vertex 107.712326 40.994740 32.958191
endloop
endfacet
facet normal 0.000000 0.000000 1.000000
outer loop
vertex 115.749962 21.706224 401.125366
vertex 86.819565 20.098507 401.125366
vertex 115.749962 20.098507 401.125366
endloop
endfacet
facet normal 0.000000 -1.000000 0.000000
outer loop
vertex 86.819565 20.098507 401.125366
vertex 115.749962 20.098507 32.958191
vertex 115.749962 20.098507 401.125366
endloop
endfacet
facet normal 1.000000 0.000000 0.000000
outer loop
vertex 115.749962 20.098507 32.958191
vertex 115.749962 21.706224 401.125366
vertex 115.749962 20.098507 401.125366
endloop
endfacet
facet normal -1.000000 0.000000 0.000000
outer loop
vertex 86.819565 20.098507 401.125366
vertex 86.819565 21.706224 32.958191
vertex 86.819565 20.098507 32.958191
endloop
endfacet
facet normal 0.000000 0.000000 -1.000000
outer loop
vertex 86.819565 21.706224 32.958191
vertex 115.749962 20.098507 32.958191
vertex 86.819565 20.098507 32.958191
endloop
endfacet
facet normal 0.000000 -1.000000 0.000000
outer loop
vertex 115.749962 20.098507 32.958191
vertex 86.819565 20.098507 401.125366
vertex 86.819565 20.098507 32.958191
endloop
endfacet
facet normal -1.000000 0.000000 0.000000
outer loop
vertex 86.819565 21.706224 32.958191
vertex 86.819565 20.098507 401.125366
vertex 86.819565 21.706224 401.125366
endloop
endfacet
facet normal 0.000076 0.000000 1.000000
outer loop
vertex 86.819565 20.098507 401.125366
vertex 94.860031 40.994740 401.125366
vertex 86.819565 21.706224 401.125366
endloop
endfacet
facet normal -0.923016 0.384761 0.000000
outer loop
vertex 94.860031 40.994740 401.125366
vertex 86.819565 21.706224 32.958191
vertex 86.819565 21.706224 401.125366
endloop
endfacet
facet normal 1.000000 0.000000 0.000000
outer loop
vertex 115.749962 21.706224 401.125366
vertex 115.749962 20.098507 32.958191
vertex 115.749962 21.706224 32.958191
endloop
endfacet
facet normal 0.923064 0.384646 0.000000
outer loop
vertex 107.712326 40.994740 32.958191
vertex 115.749962 21.706224 401.125366
vertex 115.749962 21.706224 32.958191
endloop
endfacet
endsolid Exported from Blender-2.83.0
