solid Exported from Blender-2.83.0
facet normal -0.743136 0.000000 0.669140
outer loop
vertex -65.916397 81.189713 274.113403
vertex -65.916397 66.722931 274.113403
vertex -51.437973 81.189713 290.192932
endloop
endfacet
facet normal 0.000000 1.000000 0.000000
outer loop
vertex -16.085823 81.189713 290.192932
vertex -3.221569 81.189713 274.113403
vertex -65.916397 81.189713 192.122192
endloop
endfacet
facet normal 0.000000 0.000000 -1.000000
outer loop
vertex -46.613876 55.468750 192.122192
vertex -65.916397 81.189713 192.122192
vertex -3.221569 66.722931 192.122192
endloop
endfacet
facet normal 0.000000 1.000000 0.000000
outer loop
vertex -16.085823 81.189713 290.192932
vertex -65.916397 81.189713 192.122192
vertex -65.916397 81.189713 274.113403
endloop
endfacet
facet normal 0.000000 -1.000000 0.000000
outer loop
vertex -46.613876 55.468750 290.192932
vertex -46.613876 55.468750 192.122192
vertex -20.903782 55.468750 290.192932
endloop
endfacet
facet normal 0.000000 0.000000 1.000000
outer loop
vertex -16.085823 81.189713 290.192932
vertex -46.613876 55.468750 290.192932
vertex -20.903782 55.468750 290.192932
endloop
endfacet
facet normal 0.000000 1.000000 0.000000
outer loop
vertex -65.916397 81.189713 192.122192
vertex -3.221569 81.189713 274.113403
vertex -3.221569 81.189713 192.122192
endloop
endfacet
facet normal 1.000000 0.000000 0.000000
outer loop
vertex -3.221569 81.189713 274.113403
vertex -3.221569 66.722931 192.122192
vertex -3.221569 81.189713 192.122192
endloop
endfacet
facet normal 0.000000 0.000000 -1.000000
outer loop
vertex -3.221569 66.722931 192.122192
vertex -65.916397 81.189713 192.122192
vertex -3.221569 81.189713 192.122192
endloop
endfacet
facet normal 0.000000 0.000000 -1.000000
outer loop
vertex -65.916397 81.189713 192.122192
vertex -46.613876 55.468750 192.122192
vertex -65.916397 66.722931 192.122192
endloop
endfacet
facet normal -0.503683 -0.863888 0.000000
outer loop
vertex -46.613876 55.468750 192.122192
vertex -46.613876 55.468750 290.192932
vertex -65.916397 66.722931 192.122192
endloop
endfacet
facet normal -1.000000 0.000000 0.000000
outer loop
vertex -65.916397 81.189713 274.113403
vertex -65.916397 81.189713 192.122192
vertex -65.916397 66.722931 192.122192
endloop
endfacet
facet normal 0.000000 0.000000 -1.000000
outer loop
vertex -46.613876 55.468750 192.122192
vertex -3.221569 66.722931 192.122192
vertex -20.903782 55.468750 192.122192
endloop
endfacet
facet normal 0.000000 -1.000000 0.000000
outer loop
vertex -20.903782 55.468750 290.192932
vertex -46.613876 55.468750 192.122192
vertex -20.903782 55.468750 192.122192
endloop
endfacet
facet normal 0.536939 -0.843621 0.000000
outer loop
vertex -3.221569 66.722931 192.122192
vertex -20.903782 55.468750 290.192932
vertex -20.903782 55.468750 192.122192
endloop
endfacet
facet normal -0.503683 -0.863888 0.000000
outer loop
vertex -65.916397 66.722931 192.122192
vertex -46.613876 55.468750 290.192932
vertex -65.916397 66.722931 274.113403
endloop
endfacet
facet normal -1.000000 0.000000 0.000000
outer loop
vertex -65.916397 81.189713 274.113403
vertex -65.916397 66.722931 192.122192
vertex -65.916397 66.722931 274.113403
endloop
endfacet
facet normal 0.780853 0.000000 0.624714
outer loop
vertex -3.221569 81.189713 274.113403
vertex -16.085823 81.189713 290.192932
vertex -3.221569 66.722931 274.113403
endloop
endfacet
facet normal 1.000000 0.000000 0.000000
outer loop
vertex -3.221569 66.722931 192.122192
vertex -3.221569 81.189713 274.113403
vertex -3.221569 66.722931 274.113403
endloop
endfacet
facet normal 0.711891 -0.133349 0.689514
outer loop
vertex -16.085823 81.189713 290.192932
vertex -20.903782 55.468750 290.192932
vertex -3.221569 66.722931 274.113403
endloop
endfacet
facet normal 0.536939 -0.843621 0.000000
outer loop
vertex -20.903782 55.468750 290.192932
vertex -3.221569 66.722931 192.122192
vertex -3.221569 66.722931 274.113403
endloop
endfacet
facet normal 0.000000 0.000000 1.000000
outer loop
vertex -46.613876 55.468750 290.192932
vertex -16.085823 81.189713 290.192932
vertex -51.437973 81.189713 290.192932
endloop
endfacet
facet normal 0.000000 1.000000 -0.000000
outer loop
vertex -16.085823 81.189713 290.192932
vertex -65.916397 81.189713 274.113403
vertex -51.437973 81.189713 290.192932
endloop
endfacet
facet normal -0.677550 -0.127078 0.724415
outer loop
vertex -65.916397 66.722931 274.113403
vertex -46.613876 55.468750 290.192932
vertex -51.437973 81.189713 290.192932
endloop
endfacet
endsolid Exported from Blender-2.83.0
