solid Exported from Blender-2.83.0
facet normal 0.863693 -0.504019 0.000000
outer loop
vertex -229.908569 41.000717 401.125366
vertex -218.650482 60.292694 192.142639
vertex -218.650482 60.292694 401.125366
endloop
endfacet
facet normal -1.000000 0.000000 0.000000
outer loop
vertex -250.800720 81.189713 192.142639
vertex -250.800720 41.000717 192.142639
vertex -250.800720 41.000717 401.125366
endloop
endfacet
facet normal 0.000000 0.000000 -1.000000
outer loop
vertex -250.800720 41.000717 192.142639
vertex -250.800720 81.189713 192.142639
vertex -218.650482 60.292694 192.142639
endloop
endfacet
facet normal 0.000122 1.000000 0.000000
outer loop
vertex -218.650482 81.185776 401.125366
vertex -250.800720 81.189713 192.142639
vertex -250.800720 81.189713 401.125366
endloop
endfacet
facet normal -1.000000 0.000000 0.000000
outer loop
vertex -250.800720 81.189713 192.142639
vertex -250.800720 41.000717 401.125366
vertex -250.800720 81.189713 401.125366
endloop
endfacet
facet normal -0.000000 0.000000 1.000000
outer loop
vertex -250.800720 41.000717 401.125366
vertex -218.650482 81.185776 401.125366
vertex -250.800720 81.189713 401.125366
endloop
endfacet
facet normal 0.000000 -1.000000 0.000000
outer loop
vertex -250.800720 41.000717 401.125366
vertex -250.800720 41.000717 192.142639
vertex -229.908569 41.000717 401.125366
endloop
endfacet
facet normal 0.000000 0.000000 1.000000
outer loop
vertex -218.650482 81.185776 401.125366
vertex -250.800720 41.000717 401.125366
vertex -229.908569 41.000717 401.125366
endloop
endfacet
facet normal 0.000122 1.000000 0.000000
outer loop
vertex -250.800720 81.189713 192.142639
vertex -218.650482 81.185776 401.125366
vertex -218.650482 81.185776 192.142639
endloop
endfacet
facet normal 1.000000 0.000000 0.000000
outer loop
vertex -218.650482 81.185776 401.125366
vertex -218.650482 60.292694 192.142639
vertex -218.650482 81.185776 192.142639
endloop
endfacet
facet normal 0.000000 0.000000 -1.000000
outer loop
vertex -218.650482 60.292694 192.142639
vertex -250.800720 81.189713 192.142639
vertex -218.650482 81.185776 192.142639
endloop
endfacet
facet normal 0.000000 0.000000 -1.000000
outer loop
vertex -250.800720 41.000717 192.142639
vertex -218.650482 60.292694 192.142639
vertex -229.908569 41.000717 192.142639
endloop
endfacet
facet normal 0.000000 -1.000000 0.000000
outer loop
vertex -229.908569 41.000717 401.125366
vertex -250.800720 41.000717 192.142639
vertex -229.908569 41.000717 192.142639
endloop
endfacet
facet normal 0.863693 -0.504019 0.000000
outer loop
vertex -218.650482 60.292694 192.142639
vertex -229.908569 41.000717 401.125366
vertex -229.908569 41.000717 192.142639
endloop
endfacet
facet normal 1.000000 0.000000 0.000000
outer loop
vertex -218.650482 60.292694 192.142639
vertex -218.650482 81.185776 401.125366
vertex -218.650482 60.292694 401.125366
endloop
endfacet
facet normal -0.000004 0.000000 1.000000
outer loop
vertex -218.650482 81.185776 401.125366
vertex -229.908569 41.000717 401.125366
vertex -218.650482 60.292694 401.125366
endloop
endfacet
endsolid Exported from Blender-2.83.0
