solid Exported from Blender-2.83.0
facet normal 0.447197 0.894436 0.000000
outer loop
vertex -139.871384 13.662290 213.018585
vertex -152.740356 20.096462 192.122192
vertex -152.740356 20.096462 225.884247
endloop
endfacet
facet normal 0.000000 -1.000000 0.000000
outer loop
vertex -207.395493 -0.803858 213.018585
vertex -207.395493 -0.803858 192.122192
vertex -139.871384 -0.803858 192.122192
endloop
endfacet
facet normal 0.000000 0.000000 -1.000000
outer loop
vertex -139.871384 -0.803858 192.122192
vertex -207.395493 -0.803858 192.122192
vertex -184.883057 20.096462 192.122192
endloop
endfacet
facet normal 0.000000 -1.000000 0.000000
outer loop
vertex -207.395493 -0.803858 213.018585
vertex -139.871384 -0.803858 192.122192
vertex -151.134216 -0.803858 225.884247
endloop
endfacet
facet normal 0.000001 0.000000 1.000000
outer loop
vertex -151.134216 -0.803858 225.884247
vertex -151.134216 18.486385 225.884247
vertex -184.883057 20.096462 225.884247
endloop
endfacet
facet normal 0.000000 0.000000 -1.000000
outer loop
vertex -139.871384 -0.803858 192.122192
vertex -184.883057 20.096462 192.122192
vertex -152.740356 20.096462 192.122192
endloop
endfacet
facet normal 0.000000 1.000000 0.000000
outer loop
vertex -184.883057 20.096462 192.122192
vertex -184.883057 20.096462 225.884247
vertex -152.740356 20.096462 192.122192
endloop
endfacet
facet normal -1.000000 0.000000 0.000000
outer loop
vertex -207.395493 -0.803858 192.122192
vertex -207.395493 -0.803858 213.018585
vertex -207.395493 13.662290 213.018585
endloop
endfacet
facet normal -0.274802 0.961501 0.000000
outer loop
vertex -184.883057 20.096462 225.884247
vertex -184.883057 20.096462 192.122192
vertex -207.395493 13.662290 213.018585
endloop
endfacet
facet normal 0.752420 0.000000 0.658684
outer loop
vertex -151.134216 18.486385 225.884247
vertex -151.134216 -0.803858 225.884247
vertex -139.871384 13.662290 213.018585
endloop
endfacet
facet normal 0.000000 -1.000000 -0.000000
outer loop
vertex -207.395493 -0.803858 213.018585
vertex -151.134216 -0.803858 225.884247
vertex -186.489197 -0.803858 225.884247
endloop
endfacet
facet normal 0.000000 0.000000 1.000000
outer loop
vertex -151.134216 -0.803858 225.884247
vertex -184.883057 20.096462 225.884247
vertex -186.489197 -0.803858 225.884247
endloop
endfacet
facet normal -0.524104 0.000000 0.851654
outer loop
vertex -207.395493 13.662290 213.018585
vertex -207.395493 -0.803858 213.018585
vertex -186.489197 -0.803858 225.884247
endloop
endfacet
facet normal -0.504132 0.038741 0.862757
outer loop
vertex -184.883057 20.096462 225.884247
vertex -207.395493 13.662290 213.018585
vertex -186.489197 -0.803858 225.884247
endloop
endfacet
facet normal 0.000000 0.000000 -1.000000
outer loop
vertex -184.883057 20.096462 192.122192
vertex -207.395493 -0.803858 192.122192
vertex -207.395493 13.662290 192.122192
endloop
endfacet
facet normal -1.000000 0.000000 0.000000
outer loop
vertex -207.395493 -0.803858 192.122192
vertex -207.395493 13.662290 213.018585
vertex -207.395493 13.662290 192.122192
endloop
endfacet
facet normal -0.274802 0.961501 0.000000
outer loop
vertex -207.395493 13.662290 213.018585
vertex -184.883057 20.096462 192.122192
vertex -207.395493 13.662290 192.122192
endloop
endfacet
facet normal 0.000001 0.000000 -1.000000
outer loop
vertex -139.871384 -0.803858 192.122192
vertex -152.740356 20.096462 192.122192
vertex -139.871384 13.662290 192.122192
endloop
endfacet
facet normal 1.000000 0.000000 0.000000
outer loop
vertex -139.871384 13.662290 213.018585
vertex -139.871384 -0.803858 192.122192
vertex -139.871384 13.662290 192.122192
endloop
endfacet
facet normal 0.447195 0.894436 0.000000
outer loop
vertex -152.740356 20.096462 192.122192
vertex -139.871384 13.662290 213.018585
vertex -139.871384 13.662290 192.122192
endloop
endfacet
facet normal 0.000000 -1.000000 0.000000
outer loop
vertex -151.134216 -0.803858 225.884247
vertex -139.871384 -0.803858 192.122192
vertex -139.871384 -0.803858 213.018585
endloop
endfacet
facet normal 0.752420 0.000000 0.658683
outer loop
vertex -139.871384 13.662290 213.018585
vertex -151.134216 -0.803858 225.884247
vertex -139.871384 -0.803858 213.018585
endloop
endfacet
facet normal 1.000000 0.000000 0.000000
outer loop
vertex -139.871384 -0.803858 192.122192
vertex -139.871384 13.662290 213.018585
vertex -139.871384 -0.803858 213.018585
endloop
endfacet
facet normal 0.000000 0.000000 1.000000
outer loop
vertex -184.883057 20.096462 225.884247
vertex -151.134216 18.486385 225.884247
vertex -152.740356 20.096462 225.884247
endloop
endfacet
facet normal 0.000000 1.000000 0.000000
outer loop
vertex -152.740356 20.096462 192.122192
vertex -184.883057 20.096462 225.884247
vertex -152.740356 20.096462 225.884247
endloop
endfacet
facet normal 0.667189 0.665554 0.334511
outer loop
vertex -151.134216 18.486385 225.884247
vertex -139.871384 13.662290 213.018585
vertex -152.740356 20.096462 225.884247
endloop
endfacet
endsolid Exported from Blender-2.83.0
