solid Exported from Blender-2.83.0
facet normal 0.000000 0.000000 1.000000
outer loop
vertex -229.896774 40.992691 32.958199
vertex -250.803864 -0.799767 32.958199
vertex -218.657700 -0.799767 32.958199
endloop
endfacet
facet normal 1.000000 -0.000001 0.000000
outer loop
vertex -199.361938 40.992691 20.093788
vertex -199.361938 13.669685 31.345604
vertex -199.361938 -0.799767 -0.800552
endloop
endfacet
facet normal 0.000000 1.000000 0.000000
outer loop
vertex -199.361938 40.992691 20.093788
vertex -250.803864 40.992691 -0.800552
vertex -250.803864 40.992691 32.958199
endloop
endfacet
facet normal -1.000000 0.000000 0.000000
outer loop
vertex -250.803864 40.992691 -0.800552
vertex -250.803864 -0.799767 32.958199
vertex -250.803864 40.992691 32.958199
endloop
endfacet
facet normal 0.000000 -1.000000 0.000000
outer loop
vertex -199.361938 -0.799767 -0.800552
vertex -250.803864 -0.799767 32.958199
vertex -250.803864 -0.799767 -0.800552
endloop
endfacet
facet normal -1.000000 0.000000 0.000000
outer loop
vertex -250.803864 -0.799767 32.958199
vertex -250.803864 40.992691 -0.800552
vertex -250.803864 -0.799767 -0.800552
endloop
endfacet
facet normal 0.000000 0.000000 -1.000000
outer loop
vertex -250.803864 40.992691 -0.800552
vertex -199.361938 -0.799767 -0.800552
vertex -250.803864 -0.799767 -0.800552
endloop
endfacet
facet normal 1.000000 0.000000 0.000000
outer loop
vertex -199.361938 40.992691 20.093788
vertex -199.361938 -0.799767 -0.800552
vertex -199.361938 40.992691 -0.800552
endloop
endfacet
facet normal 0.000000 0.000000 -1.000000
outer loop
vertex -199.361938 -0.799767 -0.800552
vertex -250.803864 40.992691 -0.800552
vertex -199.361938 40.992691 -0.800552
endloop
endfacet
facet normal 0.000000 1.000000 0.000000
outer loop
vertex -250.803864 40.992691 -0.800552
vertex -199.361938 40.992691 20.093788
vertex -199.361938 40.992691 -0.800552
endloop
endfacet
facet normal 1.000000 0.000000 0.000000
outer loop
vertex -199.361938 -0.799767 -0.800552
vertex -199.361938 13.669685 31.345604
vertex -199.361938 -0.799767 31.345604
endloop
endfacet
facet normal 0.000000 -1.000000 0.000000
outer loop
vertex -250.803864 -0.799767 32.958199
vertex -199.361938 -0.799767 -0.800552
vertex -199.361938 -0.799767 31.345604
endloop
endfacet
facet normal 0.362992 0.354812 0.861595
outer loop
vertex -199.361938 13.669685 31.345604
vertex -199.361938 40.992691 20.093788
vertex -229.896774 40.992691 32.958199
endloop
endfacet
facet normal 0.000000 1.000000 0.000000
outer loop
vertex -199.361938 40.992691 20.093788
vertex -250.803864 40.992691 32.958199
vertex -229.896774 40.992691 32.958199
endloop
endfacet
facet normal 0.000000 0.000000 1.000000
outer loop
vertex -250.803864 40.992691 32.958199
vertex -250.803864 -0.799767 32.958199
vertex -229.896774 40.992691 32.958199
endloop
endfacet
facet normal 0.000000 -1.000000 0.000000
outer loop
vertex -250.803864 -0.799767 32.958199
vertex -199.361938 -0.799767 31.345604
vertex -218.657700 -0.799767 32.958199
endloop
endfacet
facet normal 0.083282 0.000000 0.996526
outer loop
vertex -199.361938 -0.799767 31.345604
vertex -199.361938 13.669685 31.345604
vertex -218.657700 -0.799767 32.958199
endloop
endfacet
facet normal 0.069368 0.018655 0.997417
outer loop
vertex -199.361938 13.669685 31.345604
vertex -229.896774 40.992691 32.958199
vertex -218.657700 -0.799767 32.958199
endloop
endfacet
endsolid Exported from Blender-2.83.0
