solid Exported from Blender-2.83.0
facet normal 0.294185 0.955748 0.000000
outer loop
vertex 138.263672 13.662290 153.528961
vertex 117.360359 20.096462 118.167206
vertex 117.360359 20.096462 177.652740
endloop
endfacet
facet normal 0.000000 -1.000000 0.000000
outer loop
vertex 69.131836 -0.803858 124.601379
vertex 83.606483 -0.803858 118.167206
vertex 138.263672 -0.803858 124.601379
endloop
endfacet
facet normal 0.000000 -1.000000 -0.000000
outer loop
vertex 69.131836 -0.803858 124.601379
vertex 138.263672 -0.803858 124.601379
vertex 83.606483 -0.803858 177.652740
endloop
endfacet
facet normal -0.000000 0.000000 1.000000
outer loop
vertex 83.606483 -0.803858 177.652740
vertex 118.970909 18.486385 177.652740
vertex 85.210266 20.096462 177.652740
endloop
endfacet
facet normal 0.000000 0.000000 -1.000000
outer loop
vertex 83.606483 -0.803858 118.167206
vertex 85.210266 20.096462 118.167206
vertex 117.360359 20.096462 118.167206
endloop
endfacet
facet normal 0.000000 1.000000 0.000000
outer loop
vertex 85.210266 20.096462 118.167206
vertex 85.210266 20.096462 177.652740
vertex 117.360359 20.096462 118.167206
endloop
endfacet
facet normal 0.000000 0.000000 1.000000
outer loop
vertex 118.970909 18.486385 177.652740
vertex 83.606483 -0.803858 177.652740
vertex 118.970909 -0.803858 177.652740
endloop
endfacet
facet normal 0.000000 -1.000000 0.000000
outer loop
vertex 83.606483 -0.803858 177.652740
vertex 138.263672 -0.803858 124.601379
vertex 118.970909 -0.803858 177.652740
endloop
endfacet
facet normal 0.780968 0.000000 0.624572
outer loop
vertex 118.970909 18.486385 177.652740
vertex 118.970909 -0.803858 177.652740
vertex 138.263672 13.662290 153.528961
endloop
endfacet
facet normal -0.371530 0.928421 0.000000
outer loop
vertex 85.210266 20.096462 177.652740
vertex 85.210266 20.096462 118.167206
vertex 69.131836 13.662290 153.528961
endloop
endfacet
facet normal -0.838224 0.064321 0.541519
outer loop
vertex 83.606483 -0.803858 177.652740
vertex 85.210266 20.096462 177.652740
vertex 69.131836 13.662290 153.528961
endloop
endfacet
facet normal 0.294185 0.955748 0.000000
outer loop
vertex 117.360359 20.096462 118.167206
vertex 138.263672 13.662290 153.528961
vertex 138.263672 13.662290 124.601379
endloop
endfacet
facet normal 1.000000 0.000000 0.000000
outer loop
vertex 138.263672 13.662290 153.528961
vertex 138.263672 -0.803858 124.601379
vertex 138.263672 13.662290 124.601379
endloop
endfacet
facet normal 0.000000 -1.000000 0.000000
outer loop
vertex 118.970909 -0.803858 177.652740
vertex 138.263672 -0.803858 124.601379
vertex 138.263672 -0.803858 153.528961
endloop
endfacet
facet normal 1.000000 0.000000 0.000000
outer loop
vertex 138.263672 -0.803858 124.601379
vertex 138.263672 13.662290 153.528961
vertex 138.263672 -0.803858 153.528961
endloop
endfacet
facet normal 0.780968 0.000000 0.624572
outer loop
vertex 138.263672 13.662290 153.528961
vertex 118.970909 -0.803858 177.652740
vertex 138.263672 -0.803858 153.528961
endloop
endfacet
facet normal -0.406192 0.000000 -0.913788
outer loop
vertex 83.606483 -0.803858 118.167206
vertex 69.131836 -0.803858 124.601379
vertex 69.131836 13.662290 124.601379
endloop
endfacet
facet normal -0.381445 0.029270 -0.923928
outer loop
vertex 85.210266 20.096462 118.167206
vertex 83.606483 -0.803858 118.167206
vertex 69.131836 13.662290 124.601379
endloop
endfacet
facet normal -1.000000 0.000000 0.000000
outer loop
vertex 69.131836 -0.803858 124.601379
vertex 69.131836 13.662290 153.528961
vertex 69.131836 13.662290 124.601379
endloop
endfacet
facet normal -0.371530 0.928421 0.000000
outer loop
vertex 69.131836 13.662290 153.528961
vertex 85.210266 20.096462 118.167206
vertex 69.131836 13.662290 124.601379
endloop
endfacet
facet normal 0.000000 -1.000000 0.000000
outer loop
vertex 69.131836 -0.803858 124.601379
vertex 83.606483 -0.803858 177.652740
vertex 69.131836 -0.803858 153.528961
endloop
endfacet
facet normal -1.000000 0.000000 0.000000
outer loop
vertex 69.131836 13.662290 153.528961
vertex 69.131836 -0.803858 124.601379
vertex 69.131836 -0.803858 153.528961
endloop
endfacet
facet normal -0.857487 0.000000 0.514506
outer loop
vertex 83.606483 -0.803858 177.652740
vertex 69.131836 13.662290 153.528961
vertex 69.131836 -0.803858 153.528961
endloop
endfacet
facet normal 0.000000 -1.000000 -0.000000
outer loop
vertex 138.263672 -0.803858 124.601379
vertex 83.606483 -0.803858 118.167206
vertex 118.970909 -0.803858 118.167206
endloop
endfacet
facet normal 0.000000 0.000000 -1.000000
outer loop
vertex 83.606483 -0.803858 118.167206
vertex 117.360359 20.096462 118.167206
vertex 118.970909 -0.803858 118.167206
endloop
endfacet
facet normal 0.316372 0.000000 -0.948635
outer loop
vertex 138.263672 13.662290 124.601379
vertex 138.263672 -0.803858 124.601379
vertex 118.970909 -0.803858 118.167206
endloop
endfacet
facet normal 0.300613 0.023165 -0.953465
outer loop
vertex 117.360359 20.096462 118.167206
vertex 138.263672 13.662290 124.601379
vertex 118.970909 -0.803858 118.167206
endloop
endfacet
facet normal 0.000000 0.000000 1.000000
outer loop
vertex 85.210266 20.096462 177.652740
vertex 118.970909 18.486385 177.652740
vertex 117.360359 20.096462 177.652740
endloop
endfacet
facet normal 0.000000 1.000000 0.000000
outer loop
vertex 117.360359 20.096462 118.167206
vertex 85.210266 20.096462 177.652740
vertex 117.360359 20.096462 177.652740
endloop
endfacet
facet normal 0.650913 0.651102 0.390357
outer loop
vertex 118.970909 18.486385 177.652740
vertex 138.263672 13.662290 153.528961
vertex 117.360359 20.096462 177.652740
endloop
endfacet
endsolid Exported from Blender-2.83.0
