solid Exported from Blender-2.83.0
facet normal 1.000000 0.000000 0.000000
outer loop
vertex 200.964630 81.189713 153.526291
vertex 200.964630 66.721199 124.605957
vertex 200.964630 81.189713 124.605957
endloop
endfacet
facet normal 0.000000 1.000000 0.000000
outer loop
vertex 128.617371 81.189713 124.605957
vertex 186.489517 81.189713 172.815750
vertex 186.489517 81.189713 102.090050
endloop
endfacet
facet normal 0.000000 -1.000000 0.000000
outer loop
vertex 146.307602 63.504822 124.605957
vertex 151.130280 63.504822 102.090050
vertex 186.489517 63.504822 172.815750
endloop
endfacet
facet normal 0.000000 1.000000 0.000000
outer loop
vertex 186.489517 81.189713 172.815750
vertex 128.617371 81.189713 124.605957
vertex 151.130280 81.189713 172.815750
endloop
endfacet
facet normal 0.000000 0.000000 1.000000
outer loop
vertex 186.489517 63.504822 172.815750
vertex 186.489517 81.189713 172.815750
vertex 151.130280 81.189713 172.815750
endloop
endfacet
facet normal 0.000000 1.000000 0.000000
outer loop
vertex 186.489517 81.189713 102.090050
vertex 186.489517 81.189713 172.815750
vertex 200.964630 81.189713 153.526291
endloop
endfacet
facet normal 0.799840 0.000000 0.600213
outer loop
vertex 186.489517 81.189713 172.815750
vertex 186.489517 63.504822 172.815750
vertex 200.964630 81.189713 153.526291
endloop
endfacet
facet normal 0.000000 0.000000 -1.000000
outer loop
vertex 151.130280 63.504822 102.090050
vertex 186.489517 81.189713 102.090050
vertex 186.489517 63.504822 102.090050
endloop
endfacet
facet normal 0.000000 -1.000000 0.000000
outer loop
vertex 186.489517 63.504822 172.815750
vertex 151.130280 63.504822 102.090050
vertex 186.489517 63.504822 102.090050
endloop
endfacet
facet normal 0.841168 0.000000 -0.540774
outer loop
vertex 186.489517 81.189713 102.090050
vertex 200.964630 66.721199 124.605957
vertex 186.489517 63.504822 102.090050
endloop
endfacet
facet normal 0.216910 -0.976192 0.000000
outer loop
vertex 200.964630 66.721199 124.605957
vertex 186.489517 63.504822 172.815750
vertex 186.489517 63.504822 102.090050
endloop
endfacet
facet normal 0.000000 -1.000000 0.000000
outer loop
vertex 146.307602 63.504822 124.605957
vertex 186.489517 63.504822 172.815750
vertex 151.130280 63.504822 172.815750
endloop
endfacet
facet normal -0.154370 -0.987892 0.015442
outer loop
vertex 128.617371 66.721199 153.526291
vertex 146.307602 63.504822 124.605957
vertex 151.130280 63.504822 172.815750
endloop
endfacet
facet normal 0.000000 0.000000 1.000000
outer loop
vertex 186.489517 63.504822 172.815750
vertex 151.130280 81.189713 172.815750
vertex 151.130280 63.504822 172.815750
endloop
endfacet
facet normal -0.650649 0.000000 0.759379
outer loop
vertex 151.130280 81.189713 172.815750
vertex 128.617371 66.721199 153.526291
vertex 151.130280 63.504822 172.815750
endloop
endfacet
facet normal -0.707154 0.000000 -0.707060
outer loop
vertex 151.130280 63.504822 102.090050
vertex 128.617371 81.189713 124.605957
vertex 151.130280 81.189713 102.090050
endloop
endfacet
facet normal 0.000000 1.000000 0.000000
outer loop
vertex 128.617371 81.189713 124.605957
vertex 186.489517 81.189713 102.090050
vertex 151.130280 81.189713 102.090050
endloop
endfacet
facet normal 0.000000 0.000000 -1.000000
outer loop
vertex 186.489517 81.189713 102.090050
vertex 151.130280 63.504822 102.090050
vertex 151.130280 81.189713 102.090050
endloop
endfacet
facet normal -0.178753 -0.983149 -0.038287
outer loop
vertex 151.130280 63.504822 102.090050
vertex 146.307602 63.504822 124.605957
vertex 128.617371 66.721199 124.605957
endloop
endfacet
facet normal -0.707153 0.000000 -0.707060
outer loop
vertex 128.617371 81.189713 124.605957
vertex 151.130280 63.504822 102.090050
vertex 128.617371 66.721199 124.605957
endloop
endfacet
facet normal -0.178884 -0.983870 0.000000
outer loop
vertex 146.307602 63.504822 124.605957
vertex 128.617371 66.721199 153.526291
vertex 128.617371 66.721199 124.605957
endloop
endfacet
facet normal -1.000000 0.000000 0.000000
outer loop
vertex 128.617371 66.721199 153.526291
vertex 128.617371 81.189713 124.605957
vertex 128.617371 66.721199 124.605957
endloop
endfacet
facet normal -1.000000 0.000000 0.000000
outer loop
vertex 128.617371 81.189713 124.605957
vertex 128.617371 66.721199 153.526291
vertex 128.617371 81.189713 153.526291
endloop
endfacet
facet normal 0.000000 1.000000 0.000000
outer loop
vertex 151.130280 81.189713 172.815750
vertex 128.617371 81.189713 124.605957
vertex 128.617371 81.189713 153.526291
endloop
endfacet
facet normal -0.650649 0.000000 0.759378
outer loop
vertex 128.617371 66.721199 153.526291
vertex 151.130280 81.189713 172.815750
vertex 128.617371 81.189713 153.526291
endloop
endfacet
facet normal 0.216911 -0.976191 0.000000
outer loop
vertex 186.489517 63.504822 172.815750
vertex 200.964630 66.721199 124.605957
vertex 200.964630 66.721199 153.526291
endloop
endfacet
facet normal 0.799840 0.000000 0.600213
outer loop
vertex 200.964630 81.189713 153.526291
vertex 186.489517 63.504822 172.815750
vertex 200.964630 66.721199 153.526291
endloop
endfacet
facet normal 1.000000 0.000000 0.000000
outer loop
vertex 200.964630 66.721199 124.605957
vertex 200.964630 81.189713 153.526291
vertex 200.964630 66.721199 153.526291
endloop
endfacet
facet normal 0.841168 0.000000 -0.540773
outer loop
vertex 200.964630 66.721199 124.605957
vertex 186.489517 81.189713 102.090050
vertex 200.964630 81.189713 124.605957
endloop
endfacet
facet normal 0.000000 1.000000 0.000000
outer loop
vertex 186.489517 81.189713 102.090050
vertex 200.964630 81.189713 153.526291
vertex 200.964630 81.189713 124.605957
endloop
endfacet
endsolid Exported from Blender-2.83.0
