solid Exported from Blender-2.83.0
facet normal 0.447367 0.894351 0.000000
outer loop
vertex 197.742432 13.662290 274.106964
vertex 184.879593 20.096462 229.106308
vertex 184.879593 20.096462 296.617188
endloop
endfacet
facet normal 0.000000 -1.000000 0.000000
outer loop
vertex 128.617371 -0.803858 246.791977
vertex 151.135788 -0.803858 229.106308
vertex 197.742432 -0.803858 246.791977
endloop
endfacet
facet normal 0.000000 -1.000000 -0.000000
outer loop
vertex 128.617371 -0.803858 246.791977
vertex 197.742432 -0.803858 246.791977
vertex 151.135788 -0.803858 296.617188
endloop
endfacet
facet normal 0.000000 0.000000 -1.000000
outer loop
vertex 151.135788 -0.803858 229.106308
vertex 152.739426 20.096462 229.106308
vertex 184.879593 20.096462 229.106308
endloop
endfacet
facet normal -0.000001 0.000000 1.000000
outer loop
vertex 151.135788 -0.803858 296.617188
vertex 186.483215 18.486385 296.617188
vertex 152.739426 20.096462 296.617188
endloop
endfacet
facet normal -0.257723 0.966219 0.000000
outer loop
vertex 152.739426 20.096462 229.106308
vertex 128.617371 13.662290 274.106964
vertex 152.739426 20.096462 296.617188
endloop
endfacet
facet normal -0.688804 0.052850 0.723019
outer loop
vertex 128.617371 13.662290 274.106964
vertex 151.135788 -0.803858 296.617188
vertex 152.739426 20.096462 296.617188
endloop
endfacet
facet normal 0.000000 1.000000 0.000000
outer loop
vertex 184.879593 20.096462 229.106308
vertex 152.739426 20.096462 229.106308
vertex 152.739426 20.096462 296.617188
endloop
endfacet
facet normal 0.000000 0.000000 1.000000
outer loop
vertex 186.483215 18.486385 296.617188
vertex 151.135788 -0.803858 296.617188
vertex 186.483215 -0.803858 296.617188
endloop
endfacet
facet normal 0.000000 -1.000000 -0.000000
outer loop
vertex 151.135788 -0.803858 296.617188
vertex 197.742432 -0.803858 246.791977
vertex 186.483215 -0.803858 296.617188
endloop
endfacet
facet normal 0.894362 0.000000 0.447343
outer loop
vertex 186.483215 18.486385 296.617188
vertex 186.483215 -0.803858 296.617188
vertex 197.742432 13.662290 274.106964
endloop
endfacet
facet normal 0.000000 -1.000000 0.000000
outer loop
vertex 197.742432 -0.803858 246.791977
vertex 151.135788 -0.803858 229.106308
vertex 186.483215 -0.803858 229.106308
endloop
endfacet
facet normal 0.000000 0.000000 -1.000000
outer loop
vertex 151.135788 -0.803858 229.106308
vertex 184.879593 20.096462 229.106308
vertex 186.483215 -0.803858 229.106308
endloop
endfacet
facet normal -0.617663 0.000000 -0.786443
outer loop
vertex 151.135788 -0.803858 229.106308
vertex 128.617371 -0.803858 246.791977
vertex 128.617371 13.662290 246.791977
endloop
endfacet
facet normal -0.598595 0.045929 -0.799734
outer loop
vertex 152.739426 20.096462 229.106308
vertex 151.135788 -0.803858 229.106308
vertex 128.617371 13.662290 246.791977
endloop
endfacet
facet normal -1.000000 0.000000 0.000000
outer loop
vertex 128.617371 -0.803858 246.791977
vertex 128.617371 13.662290 274.106964
vertex 128.617371 13.662290 246.791977
endloop
endfacet
facet normal -0.257723 0.966219 0.000000
outer loop
vertex 128.617371 13.662290 274.106964
vertex 152.739426 20.096462 229.106308
vertex 128.617371 13.662290 246.791977
endloop
endfacet
facet normal 0.000000 -1.000000 0.000000
outer loop
vertex 128.617371 -0.803858 246.791977
vertex 151.135788 -0.803858 296.617188
vertex 128.617371 -0.803858 274.106964
endloop
endfacet
facet normal -1.000000 0.000000 0.000000
outer loop
vertex 128.617371 13.662290 274.106964
vertex 128.617371 -0.803858 246.791977
vertex 128.617371 -0.803858 274.106964
endloop
endfacet
facet normal -0.706978 0.000000 0.707235
outer loop
vertex 151.135788 -0.803858 296.617188
vertex 128.617371 13.662290 274.106964
vertex 128.617371 -0.803858 274.106964
endloop
endfacet
facet normal 0.447367 0.894350 0.000000
outer loop
vertex 184.879593 20.096462 229.106308
vertex 197.742432 13.662290 274.106964
vertex 197.742432 13.662290 246.791977
endloop
endfacet
facet normal 1.000000 0.000000 0.000000
outer loop
vertex 197.742432 13.662290 274.106964
vertex 197.742432 -0.803858 246.791977
vertex 197.742432 13.662290 246.791977
endloop
endfacet
facet normal 0.843560 0.000000 -0.537035
outer loop
vertex 197.742432 -0.803858 246.791977
vertex 186.483215 -0.803858 229.106308
vertex 197.742432 13.662290 246.791977
endloop
endfacet
facet normal 0.817852 0.062752 -0.571997
outer loop
vertex 186.483215 -0.803858 229.106308
vertex 184.879593 20.096462 229.106308
vertex 197.742432 13.662290 246.791977
endloop
endfacet
facet normal 0.000000 -1.000000 0.000000
outer loop
vertex 186.483215 -0.803858 296.617188
vertex 197.742432 -0.803858 246.791977
vertex 197.742432 -0.803858 274.106964
endloop
endfacet
facet normal 1.000000 0.000000 0.000000
outer loop
vertex 197.742432 -0.803858 246.791977
vertex 197.742432 13.662290 274.106964
vertex 197.742432 -0.803858 274.106964
endloop
endfacet
facet normal 0.894362 0.000000 0.447344
outer loop
vertex 197.742432 13.662290 274.106964
vertex 186.483215 -0.803858 296.617188
vertex 197.742432 -0.803858 274.106964
endloop
endfacet
facet normal 0.000000 0.000000 1.000000
outer loop
vertex 152.739426 20.096462 296.617188
vertex 186.483215 18.486385 296.617188
vertex 184.879593 20.096462 296.617188
endloop
endfacet
facet normal 0.000000 1.000000 0.000000
outer loop
vertex 184.879593 20.096462 229.106308
vertex 152.739426 20.096462 296.617188
vertex 184.879593 20.096462 296.617188
endloop
endfacet
facet normal 0.694346 0.691554 0.199092
outer loop
vertex 186.483215 18.486385 296.617188
vertex 197.742432 13.662290 274.106964
vertex 184.879593 20.096462 296.617188
endloop
endfacet
endsolid Exported from Blender-2.83.0
