solid Exported from Blender-2.83.0
facet normal 0.000000 -1.000000 0.000000
outer loop
vertex 83.607895 -0.803858 343.237213
vertex 128.610764 -0.803858 335.198792
vertex 118.962570 -0.803858 343.237213
endloop
endfacet
facet normal 1.000000 0.000000 0.000000
outer loop
vertex 128.610764 13.662290 335.198792
vertex 128.610764 -0.803858 335.198792
vertex 128.610764 13.662290 246.796844
endloop
endfacet
facet normal 0.000000 -1.000000 0.000000
outer loop
vertex 128.610764 -0.803858 335.198792
vertex 61.099854 -0.803858 246.796844
vertex 118.962570 -0.803858 237.138275
endloop
endfacet
facet normal 0.000000 -1.000000 0.000000
outer loop
vertex 61.099854 -0.803858 246.796844
vertex 128.610764 -0.803858 335.198792
vertex 61.099854 -0.803858 335.198792
endloop
endfacet
facet normal -1.000000 0.000000 0.000000
outer loop
vertex 61.099854 13.662290 335.198792
vertex 61.099854 -0.803858 246.796844
vertex 61.099854 -0.803858 335.198792
endloop
endfacet
facet normal 0.496331 0.868134 0.000000
outer loop
vertex 128.610764 13.662290 335.198792
vertex 128.610764 13.662290 246.796844
vertex 117.356743 20.096462 343.237213
endloop
endfacet
facet normal -1.000000 0.000000 0.000000
outer loop
vertex 61.099854 -0.803858 246.796844
vertex 61.099854 13.662290 335.198792
vertex 61.099854 13.662290 246.796844
endloop
endfacet
facet normal -0.257805 0.966197 0.000000
outer loop
vertex 61.099854 13.662290 335.198792
vertex 85.213722 20.096462 237.138275
vertex 61.099854 13.662290 246.796844
endloop
endfacet
facet normal 0.000000 0.000000 -1.000000
outer loop
vertex 118.962570 -0.803858 237.138275
vertex 85.213722 20.096462 237.138275
vertex 117.356743 20.096462 237.138275
endloop
endfacet
facet normal 0.667126 0.051257 -0.743180
outer loop
vertex 128.610764 13.662290 246.796844
vertex 118.962570 -0.803858 237.138275
vertex 117.356743 20.096462 237.138275
endloop
endfacet
facet normal 0.496332 0.868133 0.000000
outer loop
vertex 117.356743 20.096462 343.237213
vertex 128.610764 13.662290 246.796844
vertex 117.356743 20.096462 237.138275
endloop
endfacet
facet normal 0.000000 1.000000 0.000000
outer loop
vertex 85.213722 20.096462 237.138275
vertex 117.356743 20.096462 343.237213
vertex 117.356743 20.096462 237.138275
endloop
endfacet
facet normal -0.257805 0.966197 0.000000
outer loop
vertex 85.213722 20.096462 237.138275
vertex 61.099854 13.662290 335.198792
vertex 85.213722 20.096462 343.237213
endloop
endfacet
facet normal 0.000000 1.000000 0.000000
outer loop
vertex 117.356743 20.096462 343.237213
vertex 85.213722 20.096462 237.138275
vertex 85.213722 20.096462 343.237213
endloop
endfacet
facet normal 0.000000 0.000000 1.000000
outer loop
vertex 117.356743 20.096462 343.237213
vertex 85.213722 20.096462 343.237213
vertex 83.607895 -0.803858 343.237213
endloop
endfacet
facet normal 0.000000 -1.000000 0.000000
outer loop
vertex 61.099854 -0.803858 335.198792
vertex 128.610764 -0.803858 335.198792
vertex 83.607895 -0.803858 343.237213
endloop
endfacet
facet normal -0.336331 0.000000 0.941744
outer loop
vertex 61.099854 13.662290 335.198792
vertex 61.099854 -0.803858 335.198792
vertex 83.607895 -0.803858 343.237213
endloop
endfacet
facet normal -0.322083 0.024746 0.946388
outer loop
vertex 85.213722 20.096462 343.237213
vertex 61.099854 13.662290 335.198792
vertex 83.607895 -0.803858 343.237213
endloop
endfacet
facet normal 1.000000 0.000000 0.000000
outer loop
vertex 128.610764 13.662290 246.796844
vertex 128.610764 -0.803858 335.198792
vertex 128.610764 -0.803858 246.796844
endloop
endfacet
facet normal 0.000000 -1.000000 0.000000
outer loop
vertex 128.610764 -0.803858 335.198792
vertex 118.962570 -0.803858 237.138275
vertex 128.610764 -0.803858 246.796844
endloop
endfacet
facet normal 0.707486 0.000000 -0.706727
outer loop
vertex 118.962570 -0.803858 237.138275
vertex 128.610764 13.662290 246.796844
vertex 128.610764 -0.803858 246.796844
endloop
endfacet
facet normal 0.000000 -1.000000 0.000000
outer loop
vertex 118.962570 -0.803858 237.138275
vertex 61.099854 -0.803858 246.796844
vertex 83.607895 -0.803858 237.138275
endloop
endfacet
facet normal 0.000000 0.000000 -1.000000
outer loop
vertex 85.213722 20.096462 237.138275
vertex 118.962570 -0.803858 237.138275
vertex 83.607895 -0.803858 237.138275
endloop
endfacet
facet normal -0.394342 0.000000 -0.918964
outer loop
vertex 61.099854 -0.803858 246.796844
vertex 61.099854 13.662290 246.796844
vertex 83.607895 -0.803858 237.138275
endloop
endfacet
facet normal -0.378340 0.029069 -0.925210
outer loop
vertex 61.099854 13.662290 246.796844
vertex 85.213722 20.096462 237.138275
vertex 83.607895 -0.803858 237.138275
endloop
endfacet
facet normal 0.640103 0.000000 0.768289
outer loop
vertex 128.610764 -0.803858 335.198792
vertex 128.610764 13.662290 335.198792
vertex 118.962570 -0.803858 343.237213
endloop
endfacet
facet normal 0.597873 0.045937 0.800274
outer loop
vertex 128.610764 13.662290 335.198792
vertex 117.356743 20.096462 343.237213
vertex 118.962570 -0.803858 343.237213
endloop
endfacet
facet normal 0.000000 0.000000 1.000000
outer loop
vertex 117.356743 20.096462 343.237213
vertex 83.607895 -0.803858 343.237213
vertex 118.962570 -0.803858 343.237213
endloop
endfacet
endsolid Exported from Blender-2.83.0
