solid Exported from Blender-2.83.0
facet normal 0.000000 -1.000000 0.000000
outer loop
vertex -218.647629 -0.803858 185.691315
vertex -199.358810 -0.803858 192.122192
vertex -218.647629 -0.803858 192.122192
endloop
endfacet
facet normal 0.000000 0.000000 -1.000000
outer loop
vertex -199.358810 -0.803858 185.691315
vertex -218.647629 -0.803858 185.691315
vertex -217.038971 18.486858 185.691315
endloop
endfacet
facet normal -0.996541 0.083101 0.000000
outer loop
vertex -218.647629 -0.803858 185.691315
vertex -217.038971 18.486858 192.122192
vertex -217.038971 18.486858 185.691315
endloop
endfacet
facet normal 0.000000 -1.000000 0.000000
outer loop
vertex -218.647629 -0.803858 185.691315
vertex -199.358810 -0.803858 185.691315
vertex -199.358810 -0.803858 192.122192
endloop
endfacet
facet normal -0.000000 0.000000 -1.000000
outer loop
vertex -199.358810 -0.803858 185.691315
vertex -217.038971 18.486858 185.691315
vertex -199.358810 13.662291 185.691315
endloop
endfacet
facet normal 0.263255 0.964726 0.000000
outer loop
vertex -217.038971 18.486858 185.691315
vertex -217.038971 18.486858 192.122192
vertex -199.358810 13.662291 185.691315
endloop
endfacet
facet normal 0.405203 0.371374 0.835399
outer loop
vertex -217.038971 18.486858 192.122192
vertex -199.358810 -0.803858 192.122192
vertex -199.358810 13.662291 185.691315
endloop
endfacet
facet normal 1.000000 0.000000 0.000000
outer loop
vertex -199.358810 -0.803858 192.122192
vertex -199.358810 -0.803858 185.691315
vertex -199.358810 13.662291 185.691315
endloop
endfacet
facet normal -0.996541 0.083103 0.000000
outer loop
vertex -217.038971 18.486858 192.122192
vertex -218.647629 -0.803858 185.691315
vertex -218.647629 -0.803858 192.122192
endloop
endfacet
facet normal 0.000000 0.000000 1.000000
outer loop
vertex -199.358810 -0.803858 192.122192
vertex -217.038971 18.486858 192.122192
vertex -218.647629 -0.803858 192.122192
endloop
endfacet
endsolid Exported from Blender-2.83.0
