solid Exported from Blender-2.83.0
facet normal 0.515762 -0.300661 0.802242
outer loop
vertex -218.654388 60.292694 36.173634
vertex -229.900543 41.000717 36.173634
vertex -207.399734 66.716797 31.345604
endloop
endfacet
facet normal 1.000000 0.000000 0.000000
outer loop
vertex -207.399734 81.189713 -0.796623
vertex -207.399734 81.189713 31.345604
vertex -207.399734 41.000717 -0.796623
endloop
endfacet
facet normal 0.000000 1.000000 0.000000
outer loop
vertex -207.399734 81.189713 31.345604
vertex -207.399734 81.189713 -0.796623
vertex -250.803848 81.189713 -0.796623
endloop
endfacet
facet normal 0.000000 0.000000 -1.000000
outer loop
vertex -207.399734 81.189713 -0.796623
vertex -207.399734 41.000717 -0.796623
vertex -250.803848 81.189713 -0.796623
endloop
endfacet
facet normal -1.000000 0.000000 0.000000
outer loop
vertex -250.803848 81.189713 -0.796623
vertex -250.803848 41.000717 36.173634
vertex -250.803848 81.189713 36.173634
endloop
endfacet
facet normal 0.000000 1.000000 0.000000
outer loop
vertex -207.399734 81.189713 31.345604
vertex -250.803848 81.189713 -0.796623
vertex -250.803848 81.189713 36.173634
endloop
endfacet
facet normal 0.000000 -1.000000 0.000000
outer loop
vertex -207.399734 41.000717 -0.796623
vertex -250.803848 41.000717 36.173634
vertex -250.803848 41.000717 -0.796623
endloop
endfacet
facet normal -1.000000 0.000000 0.000000
outer loop
vertex -250.803848 41.000717 36.173634
vertex -250.803848 81.189713 -0.796623
vertex -250.803848 41.000717 -0.796623
endloop
endfacet
facet normal 0.000000 0.000000 -1.000000
outer loop
vertex -250.803848 81.189713 -0.796623
vertex -207.399734 41.000717 -0.796623
vertex -250.803848 41.000717 -0.796623
endloop
endfacet
facet normal 1.000000 0.000001 0.000000
outer loop
vertex -207.399734 41.000717 -0.796623
vertex -207.399734 81.189713 31.345604
vertex -207.399734 41.000717 20.093472
endloop
endfacet
facet normal 0.000000 -1.000000 0.000000
outer loop
vertex -250.803848 41.000717 36.173634
vertex -207.399734 41.000717 -0.796623
vertex -207.399734 41.000717 20.093472
endloop
endfacet
facet normal 0.000000 0.000000 1.000000
outer loop
vertex -250.803848 81.189713 36.173634
vertex -250.803848 41.000717 36.173634
vertex -218.654388 60.292694 36.173634
endloop
endfacet
facet normal 0.000000 -1.000000 0.000000
outer loop
vertex -250.803848 41.000717 36.173634
vertex -207.399734 41.000717 20.093472
vertex -229.900543 41.000717 36.173634
endloop
endfacet
facet normal 0.000000 0.000000 1.000000
outer loop
vertex -218.654388 60.292694 36.173634
vertex -250.803848 41.000717 36.173634
vertex -229.900543 41.000717 36.173634
endloop
endfacet
facet normal 0.000000 1.000000 0.000000
outer loop
vertex -207.399734 81.189713 31.345604
vertex -250.803848 81.189713 36.173634
vertex -218.654388 81.189713 36.173634
endloop
endfacet
facet normal 0.394237 0.000000 0.919009
outer loop
vertex -218.654388 60.292694 36.173634
vertex -207.399734 81.189713 31.345604
vertex -218.654388 81.189713 36.173634
endloop
endfacet
facet normal 0.000000 0.000000 1.000000
outer loop
vertex -250.803848 81.189713 36.173634
vertex -218.654388 60.292694 36.173634
vertex -218.654388 81.189713 36.173634
endloop
endfacet
facet normal 1.000000 0.000000 0.000000
outer loop
vertex -207.399734 41.000717 20.093472
vertex -207.399734 81.189713 31.345604
vertex -207.399734 66.716797 31.345604
endloop
endfacet
facet normal 0.394237 0.000000 0.919009
outer loop
vertex -207.399734 81.189713 31.345604
vertex -218.654388 60.292694 36.173634
vertex -207.399734 66.716797 31.345604
endloop
endfacet
facet normal 0.547760 -0.335373 0.766475
outer loop
vertex -229.900543 41.000717 36.173634
vertex -207.399734 41.000717 20.093472
vertex -207.399734 66.716797 31.345604
endloop
endfacet
endsolid Exported from Blender-2.83.0
