solid Exported from Blender-2.83.0
facet normal 0.000000 1.000000 0.000000
outer loop
vertex -250.803864 40.992691 192.142639
vertex -229.903793 40.992691 401.125366
vertex -229.903793 40.992691 192.142639
endloop
endfacet
facet normal 0.771926 0.635713 0.000000
outer loop
vertex -229.903793 40.992691 401.125366
vertex -207.401932 13.669376 401.125366
vertex -207.401932 13.669376 192.142639
endloop
endfacet
facet normal 0.000001 0.000000 -1.000000
outer loop
vertex -207.401932 13.669376 192.142639
vertex -250.803864 -0.796148 192.142639
vertex -250.803864 40.992691 192.142639
endloop
endfacet
facet normal 0.000000 0.000000 1.000000
outer loop
vertex -207.401932 13.669376 401.125366
vertex -229.903793 40.992691 401.125366
vertex -250.803864 -0.796148 401.125366
endloop
endfacet
facet normal -1.000000 0.000000 0.000000
outer loop
vertex -250.803864 40.992691 192.142639
vertex -250.803864 -0.796148 192.142639
vertex -250.803864 -0.796148 401.125366
endloop
endfacet
facet normal -0.000094 -1.000000 0.000000
outer loop
vertex -250.803864 -0.796148 401.125366
vertex -250.803864 -0.796148 192.142639
vertex -207.401932 -0.800240 192.142639
endloop
endfacet
facet normal 1.000000 0.000000 0.000000
outer loop
vertex -207.401932 13.669376 192.142639
vertex -207.401932 13.669376 401.125366
vertex -207.401932 -0.800240 192.142639
endloop
endfacet
facet normal 0.000000 0.000000 -1.000000
outer loop
vertex -250.803864 -0.796148 192.142639
vertex -207.401932 13.669376 192.142639
vertex -207.401932 -0.800240 192.142639
endloop
endfacet
facet normal 0.000000 1.000000 0.000000
outer loop
vertex -229.903793 40.992691 401.125366
vertex -250.803864 40.992691 192.142639
vertex -250.803864 40.992691 401.125366
endloop
endfacet
facet normal 0.000000 0.000000 1.000000
outer loop
vertex -250.803864 -0.796148 401.125366
vertex -229.903793 40.992691 401.125366
vertex -250.803864 40.992691 401.125366
endloop
endfacet
facet normal -1.000000 0.000000 0.000000
outer loop
vertex -250.803864 40.992691 192.142639
vertex -250.803864 -0.796148 401.125366
vertex -250.803864 40.992691 401.125366
endloop
endfacet
facet normal 0.000001 0.000000 1.000000
outer loop
vertex -207.401932 13.669376 401.125366
vertex -250.803864 -0.796148 401.125366
vertex -207.401932 -0.800240 401.125366
endloop
endfacet
facet normal -0.000094 -1.000000 0.000000
outer loop
vertex -250.803864 -0.796148 401.125366
vertex -207.401932 -0.800240 192.142639
vertex -207.401932 -0.800240 401.125366
endloop
endfacet
facet normal 1.000000 0.000000 0.000000
outer loop
vertex -207.401932 -0.800240 192.142639
vertex -207.401932 13.669376 401.125366
vertex -207.401932 -0.800240 401.125366
endloop
endfacet
facet normal 0.771926 0.635712 0.000000
outer loop
vertex -229.903793 40.992691 401.125366
vertex -207.401932 13.669376 192.142639
vertex -229.903793 40.992691 192.142639
endloop
endfacet
facet normal 0.000000 0.000000 -1.000000
outer loop
vertex -207.401932 13.669376 192.142639
vertex -250.803864 40.992691 192.142639
vertex -229.903793 40.992691 192.142639
endloop
endfacet
endsolid Exported from Blender-2.83.0
