solid Exported from Blender-2.83.0
facet normal -0.495985 0.000000 -0.868331
outer loop
vertex 151.130280 81.187828 172.831482
vertex 128.617371 66.721680 185.690689
vertex 128.617371 81.187828 185.690689
endloop
endfacet
facet normal 0.000000 0.000000 1.000000
outer loop
vertex 151.130280 81.185944 230.697952
vertex 151.130280 61.898998 230.697952
vertex 186.489517 61.898998 230.697952
endloop
endfacet
facet normal 0.000000 -1.000000 0.000000
outer loop
vertex 151.130280 61.898998 230.697952
vertex 149.522720 61.898998 192.131638
vertex 186.489517 61.898998 230.697952
endloop
endfacet
facet normal -0.675660 0.000000 0.737213
outer loop
vertex 151.130280 61.898998 230.697952
vertex 151.130280 81.185944 230.697952
vertex 131.839569 66.723564 213.017944
endloop
endfacet
facet normal 0.000000 -0.996552 -0.082973
outer loop
vertex 149.522720 61.898998 192.131638
vertex 151.130280 63.505928 172.831482
vertex 186.489517 63.505928 172.831482
endloop
endfacet
facet normal 0.664145 0.000000 -0.747604
outer loop
vertex 186.489517 81.187828 172.831482
vertex 200.964630 66.721680 185.690689
vertex 186.489517 63.505928 172.831482
endloop
endfacet
facet normal 0.000000 0.000000 -1.000000
outer loop
vertex 151.130280 63.505928 172.831482
vertex 186.489517 81.187828 172.831482
vertex 186.489517 63.505928 172.831482
endloop
endfacet
facet normal 0.000000 1.000000 0.000049
outer loop
vertex 128.617371 81.187828 192.120300
vertex 151.130280 81.185944 230.697952
vertex 186.489517 81.185944 230.697952
endloop
endfacet
facet normal 0.000000 0.000000 1.000000
outer loop
vertex 151.130280 81.185944 230.697952
vertex 186.489517 61.898998 230.697952
vertex 186.489517 81.185944 230.697952
endloop
endfacet
facet normal 0.773751 0.000000 0.633490
outer loop
vertex 186.489517 61.898998 230.697952
vertex 200.964630 81.185944 213.017944
vertex 186.489517 81.185944 230.697952
endloop
endfacet
facet normal 0.000000 0.000000 -1.000000
outer loop
vertex 186.489517 81.187828 172.831482
vertex 151.130280 63.505928 172.831482
vertex 151.130280 81.187828 172.831482
endloop
endfacet
facet normal 0.000000 1.000000 0.000001
outer loop
vertex 128.617371 81.187828 192.120300
vertex 186.489517 81.187828 172.831482
vertex 151.130280 81.187828 172.831482
endloop
endfacet
facet normal -0.195096 -0.975926 -0.097504
outer loop
vertex 151.130280 63.505928 172.831482
vertex 149.522720 61.898998 192.131638
vertex 128.617371 66.721680 185.690689
endloop
endfacet
facet normal -0.227551 -0.973720 0.009485
outer loop
vertex 149.522720 61.898998 192.131638
vertex 151.130280 61.898998 230.697952
vertex 128.617371 66.721680 185.690689
endloop
endfacet
facet normal -0.991777 -0.051977 0.116945
outer loop
vertex 131.839569 66.723564 213.017944
vertex 128.617371 81.187828 192.120300
vertex 128.617371 66.721680 185.690689
endloop
endfacet
facet normal -0.269913 -0.962356 0.031892
outer loop
vertex 151.130280 61.898998 230.697952
vertex 131.839569 66.723564 213.017944
vertex 128.617371 66.721680 185.690689
endloop
endfacet
facet normal -0.495983 0.000000 -0.868332
outer loop
vertex 151.130280 81.187828 172.831482
vertex 151.130280 63.505928 172.831482
vertex 128.617371 66.721680 185.690689
endloop
endfacet
facet normal 1.000000 0.000000 0.000000
outer loop
vertex 200.964630 81.185944 213.017944
vertex 200.964630 66.721680 185.690689
vertex 200.964630 81.187828 185.690689
endloop
endfacet
facet normal 0.664146 0.000000 -0.747603
outer loop
vertex 200.964630 66.721680 185.690689
vertex 186.489517 81.187828 172.831482
vertex 200.964630 81.187828 185.690689
endloop
endfacet
facet normal 0.000000 1.000000 0.000000
outer loop
vertex 186.489517 81.187828 172.831482
vertex 128.617371 81.187828 192.120300
vertex 200.964630 81.187828 185.690689
endloop
endfacet
facet normal 0.000084 1.000000 0.000070
outer loop
vertex 186.489517 81.185944 230.697952
vertex 200.964630 81.185944 213.017944
vertex 200.964630 81.187828 185.690689
endloop
endfacet
facet normal 0.000004 1.000000 0.000043
outer loop
vertex 128.617371 81.187828 192.120300
vertex 186.489517 81.185944 230.697952
vertex 200.964630 81.187828 185.690689
endloop
endfacet
facet normal 1.000000 0.000000 0.000000
outer loop
vertex 200.964630 66.721680 185.690689
vertex 200.964630 81.185944 213.017944
vertex 200.964630 66.723564 213.017944
endloop
endfacet
facet normal 0.773750 0.000000 0.633491
outer loop
vertex 200.964630 81.185944 213.017944
vertex 186.489517 61.898998 230.697952
vertex 200.964630 66.723564 213.017944
endloop
endfacet
facet normal -0.000096 1.000000 0.000105
outer loop
vertex 151.130280 81.185944 230.697952
vertex 128.617371 81.187828 192.120300
vertex 131.839569 81.185944 213.017944
endloop
endfacet
facet normal -0.988321 0.000000 0.152389
outer loop
vertex 128.617371 81.187828 192.120300
vertex 131.839569 66.723564 213.017944
vertex 131.839569 81.185944 213.017944
endloop
endfacet
facet normal -0.675659 0.000000 0.737214
outer loop
vertex 131.839569 66.723564 213.017944
vertex 151.130280 81.185944 230.697952
vertex 131.839569 81.185944 213.017944
endloop
endfacet
facet normal 0.000000 -1.000000 0.000000
outer loop
vertex 186.489517 61.898998 230.697952
vertex 149.522720 61.898998 192.131638
vertex 188.089996 61.898998 192.131638
endloop
endfacet
facet normal 0.000000 -0.996552 -0.082973
outer loop
vertex 149.522720 61.898998 192.131638
vertex 186.489517 63.505928 172.831482
vertex 188.089996 61.898998 192.131638
endloop
endfacet
facet normal 0.302842 -0.947351 -0.103989
outer loop
vertex 186.489517 63.505928 172.831482
vertex 200.964630 66.721680 185.690689
vertex 188.089996 61.898998 192.131638
endloop
endfacet
facet normal 0.350814 -0.936445 0.000064
outer loop
vertex 200.964630 66.721680 185.690689
vertex 200.964630 66.723564 213.017944
vertex 188.089996 61.898998 192.131638
endloop
endfacet
facet normal 0.331241 -0.943446 0.013746
outer loop
vertex 200.964630 66.723564 213.017944
vertex 186.489517 61.898998 230.697952
vertex 188.089996 61.898998 192.131638
endloop
endfacet
facet normal 0.000000 1.000000 0.000000
outer loop
vertex 128.617371 81.187828 192.120300
vertex 151.130280 81.187828 172.831482
vertex 128.617371 81.187828 185.690689
endloop
endfacet
facet normal -1.000000 0.000000 0.000000
outer loop
vertex 128.617371 66.721680 185.690689
vertex 128.617371 81.187828 192.120300
vertex 128.617371 81.187828 185.690689
endloop
endfacet
endsolid Exported from Blender-2.83.0
