solid Exported from Blender-2.83.0
facet normal 0.000000 0.000000 -1.000000
outer loop
vertex -202.572342 66.723564 307.880493
vertex -218.649521 81.187820 307.880493
vertex -202.572342 81.187820 307.880493
endloop
endfacet
facet normal 0.000000 -1.000000 0.000000
outer loop
vertex -218.649521 61.898994 307.880493
vertex -217.039597 61.898994 307.880493
vertex -218.649521 61.898994 335.206329
endloop
endfacet
facet normal 0.000000 0.000000 -1.000000
outer loop
vertex -217.039597 61.898994 307.880493
vertex -218.649521 61.898994 307.880493
vertex -218.649521 81.187820 307.880493
endloop
endfacet
facet normal -1.000000 0.000000 0.000000
outer loop
vertex -218.649521 61.898994 307.880493
vertex -218.649521 61.898994 335.206329
vertex -218.649521 81.187820 307.880493
endloop
endfacet
facet normal -0.000003 0.000000 -1.000000
outer loop
vertex -217.039597 61.898994 307.880493
vertex -218.649521 81.187820 307.880493
vertex -202.572342 66.723564 307.880493
endloop
endfacet
facet normal 0.000000 0.000000 1.000000
outer loop
vertex -218.649521 61.898994 335.206329
vertex -202.572342 81.187820 335.206329
vertex -218.649521 81.187820 335.206329
endloop
endfacet
facet normal 0.000000 1.000000 0.000000
outer loop
vertex -202.572342 81.187820 335.206329
vertex -218.649521 81.187820 307.880493
vertex -218.649521 81.187820 335.206329
endloop
endfacet
facet normal -1.000000 0.000000 0.000000
outer loop
vertex -218.649521 81.187820 307.880493
vertex -218.649521 61.898994 335.206329
vertex -218.649521 81.187820 335.206329
endloop
endfacet
facet normal 0.287385 -0.957666 0.016932
outer loop
vertex -218.649521 61.898994 335.206329
vertex -217.039597 61.898994 307.880493
vertex -202.572342 66.723564 335.206329
endloop
endfacet
facet normal -0.000002 0.000000 1.000000
outer loop
vertex -202.572342 81.187820 335.206329
vertex -218.649521 61.898994 335.206329
vertex -202.572342 66.723564 335.206329
endloop
endfacet
facet normal 0.316354 -0.948641 0.000000
outer loop
vertex -217.039597 61.898994 307.880493
vertex -202.572342 66.723564 307.880493
vertex -202.572342 66.723564 335.206329
endloop
endfacet
facet normal 1.000000 0.000000 0.000000
outer loop
vertex -202.572342 66.723564 307.880493
vertex -202.572342 81.187820 335.206329
vertex -202.572342 66.723564 335.206329
endloop
endfacet
facet normal 0.000000 1.000000 0.000000
outer loop
vertex -218.649521 81.187820 307.880493
vertex -202.572342 81.187820 335.206329
vertex -202.572342 81.187820 307.880493
endloop
endfacet
facet normal 1.000000 0.000000 0.000000
outer loop
vertex -202.572342 81.187820 335.206329
vertex -202.572342 66.723564 307.880493
vertex -202.572342 81.187820 307.880493
endloop
endfacet
endsolid Exported from Blender-2.83.0
