solid Exported from Blender-2.83.0
facet normal 0.447367 0.894350 0.000000
outer loop
vertex 197.742432 13.662290 213.019501
vertex 184.879593 20.096462 192.129425
vertex 184.879593 20.096462 229.099670
endloop
endfacet
facet normal 0.000000 -1.000000 0.000000
outer loop
vertex 128.617371 -0.803858 213.019501
vertex 128.617371 -0.803858 192.129425
vertex 197.742432 -0.803858 192.129425
endloop
endfacet
facet normal 0.000000 0.000000 -1.000000
outer loop
vertex 197.742432 -0.803858 192.129425
vertex 128.617371 -0.803858 192.129425
vertex 152.739426 20.096462 192.129425
endloop
endfacet
facet normal 0.000000 -1.000000 -0.000000
outer loop
vertex 128.617371 -0.803858 213.019501
vertex 197.742432 -0.803858 192.129425
vertex 186.483215 -0.803858 229.099670
endloop
endfacet
facet normal 0.000000 0.000000 1.000000
outer loop
vertex 186.483215 -0.803858 229.099670
vertex 186.483215 18.486385 229.099670
vertex 152.739426 20.096462 229.099670
endloop
endfacet
facet normal 0.000000 0.000000 -1.000000
outer loop
vertex 197.742432 -0.803858 192.129425
vertex 152.739426 20.096462 192.129425
vertex 184.879593 20.096462 192.129425
endloop
endfacet
facet normal 0.000000 1.000000 0.000000
outer loop
vertex 152.739426 20.096462 192.129425
vertex 152.739426 20.096462 229.099670
vertex 184.879593 20.096462 192.129425
endloop
endfacet
facet normal -1.000000 0.000000 0.000000
outer loop
vertex 128.617371 -0.803858 192.129425
vertex 128.617371 -0.803858 213.019501
vertex 128.617371 13.662290 213.019501
endloop
endfacet
facet normal -0.257724 0.966219 0.000000
outer loop
vertex 152.739426 20.096462 229.099670
vertex 152.739426 20.096462 192.129425
vertex 128.617371 13.662290 213.019501
endloop
endfacet
facet normal -0.562094 0.043128 0.825948
outer loop
vertex 152.739426 20.096462 229.099670
vertex 128.617371 13.662290 213.019501
vertex 151.135788 -0.803858 229.099670
endloop
endfacet
facet normal 0.000000 -1.000000 0.000000
outer loop
vertex 128.617371 -0.803858 213.019501
vertex 186.483215 -0.803858 229.099670
vertex 151.135788 -0.803858 229.099670
endloop
endfacet
facet normal 0.000000 0.000000 1.000000
outer loop
vertex 186.483215 -0.803858 229.099670
vertex 152.739426 20.096462 229.099670
vertex 151.135788 -0.803858 229.099670
endloop
endfacet
facet normal -0.581133 0.000000 0.813809
outer loop
vertex 128.617371 13.662290 213.019501
vertex 128.617371 -0.803858 213.019501
vertex 151.135788 -0.803858 229.099670
endloop
endfacet
facet normal 0.819157 0.000000 0.573569
outer loop
vertex 186.483215 18.486385 229.099670
vertex 186.483215 -0.803858 229.099670
vertex 197.742432 13.662290 213.019501
endloop
endfacet
facet normal 0.000000 0.000000 -1.000000
outer loop
vertex 152.739426 20.096462 192.129425
vertex 128.617371 -0.803858 192.129425
vertex 128.617371 13.662290 192.129425
endloop
endfacet
facet normal -1.000000 0.000000 0.000000
outer loop
vertex 128.617371 -0.803858 192.129425
vertex 128.617371 13.662290 213.019501
vertex 128.617371 13.662290 192.129425
endloop
endfacet
facet normal -0.257723 0.966219 0.000000
outer loop
vertex 128.617371 13.662290 213.019501
vertex 152.739426 20.096462 192.129425
vertex 128.617371 13.662290 192.129425
endloop
endfacet
facet normal 0.000000 0.000000 -1.000000
outer loop
vertex 197.742432 -0.803858 192.129425
vertex 184.879593 20.096462 192.129425
vertex 197.742432 13.662290 192.129425
endloop
endfacet
facet normal 1.000000 0.000000 0.000000
outer loop
vertex 197.742432 13.662290 213.019501
vertex 197.742432 -0.803858 192.129425
vertex 197.742432 13.662290 192.129425
endloop
endfacet
facet normal 0.447366 0.894351 0.000000
outer loop
vertex 184.879593 20.096462 192.129425
vertex 197.742432 13.662290 213.019501
vertex 197.742432 13.662290 192.129425
endloop
endfacet
facet normal 0.000000 -1.000000 0.000000
outer loop
vertex 186.483215 -0.803858 229.099670
vertex 197.742432 -0.803858 192.129425
vertex 197.742432 -0.803858 213.019501
endloop
endfacet
facet normal 0.819158 0.000000 0.573568
outer loop
vertex 197.742432 13.662290 213.019501
vertex 186.483215 -0.803858 229.099670
vertex 197.742432 -0.803858 213.019501
endloop
endfacet
facet normal 1.000000 0.000000 0.000000
outer loop
vertex 197.742432 -0.803858 192.129425
vertex 197.742432 13.662290 213.019501
vertex 197.742432 -0.803858 213.019501
endloop
endfacet
facet normal 0.000000 0.000000 1.000000
outer loop
vertex 152.739426 20.096462 229.099670
vertex 186.483215 18.486385 229.099670
vertex 184.879593 20.096462 229.099670
endloop
endfacet
facet normal 0.000000 1.000000 0.000000
outer loop
vertex 184.879593 20.096462 192.129425
vertex 152.739426 20.096462 229.099670
vertex 184.879593 20.096462 229.099670
endloop
endfacet
facet normal 0.681501 0.678769 0.273549
outer loop
vertex 186.483215 18.486385 229.099670
vertex 197.742432 13.662290 213.019501
vertex 184.879593 20.096462 229.099670
endloop
endfacet
endsolid Exported from Blender-2.83.0
