solid Exported from Blender-2.83.0
facet normal -0.922940 0.384943 0.000000
outer loop
vertex -175.234863 40.994740 401.125366
vertex -183.279739 21.706224 32.958191
vertex -183.279739 21.706224 401.125366
endloop
endfacet
facet normal 0.000000 0.000000 1.000000
outer loop
vertex -154.340836 21.706224 401.125366
vertex -162.385712 40.994740 401.125366
vertex -183.279739 20.098507 401.125366
endloop
endfacet
facet normal 0.000000 0.000000 -1.000000
outer loop
vertex -154.340836 20.098507 32.958191
vertex -183.279739 21.706224 32.958191
vertex -175.234863 40.994740 32.958191
endloop
endfacet
facet normal 0.000000 0.000000 -1.000000
outer loop
vertex -154.340836 20.098507 32.958191
vertex -175.234863 40.994740 32.958191
vertex -162.385712 40.994740 32.958191
endloop
endfacet
facet normal 0.922941 0.384941 0.000000
outer loop
vertex -162.385712 40.994740 401.125366
vertex -154.340836 21.706224 401.125366
vertex -162.385712 40.994740 32.958191
endloop
endfacet
facet normal 0.000000 1.000000 0.000000
outer loop
vertex -175.234863 40.994740 32.958191
vertex -162.385712 40.994740 401.125366
vertex -162.385712 40.994740 32.958191
endloop
endfacet
facet normal 0.000000 0.000000 1.000000
outer loop
vertex -183.279739 20.098507 401.125366
vertex -162.385712 40.994740 401.125366
vertex -175.234863 40.994740 401.125366
endloop
endfacet
facet normal 0.000000 1.000000 0.000000
outer loop
vertex -162.385712 40.994740 401.125366
vertex -175.234863 40.994740 32.958191
vertex -175.234863 40.994740 401.125366
endloop
endfacet
facet normal -0.922942 0.384940 0.000000
outer loop
vertex -175.234863 40.994740 32.958191
vertex -183.279739 21.706224 32.958191
vertex -175.234863 40.994740 401.125366
endloop
endfacet
facet normal 0.000000 0.000000 1.000000
outer loop
vertex -154.340836 21.706224 401.125366
vertex -183.279739 20.098507 401.125366
vertex -154.340836 20.098507 401.125366
endloop
endfacet
facet normal 0.000000 -1.000000 0.000000
outer loop
vertex -183.279739 20.098507 401.125366
vertex -154.340836 20.098507 32.958191
vertex -154.340836 20.098507 401.125366
endloop
endfacet
facet normal 1.000000 0.000000 0.000000
outer loop
vertex -154.340836 20.098507 32.958191
vertex -154.340836 21.706224 401.125366
vertex -154.340836 20.098507 401.125366
endloop
endfacet
facet normal -1.000000 0.000000 0.000000
outer loop
vertex -183.279739 20.098507 401.125366
vertex -183.279739 21.706224 32.958191
vertex -183.279739 20.098507 32.958191
endloop
endfacet
facet normal 0.000000 0.000000 -1.000000
outer loop
vertex -183.279739 21.706224 32.958191
vertex -154.340836 20.098507 32.958191
vertex -183.279739 20.098507 32.958191
endloop
endfacet
facet normal 0.000000 -1.000000 0.000000
outer loop
vertex -154.340836 20.098507 32.958191
vertex -183.279739 20.098507 401.125366
vertex -183.279739 20.098507 32.958191
endloop
endfacet
facet normal 1.000000 0.000000 0.000000
outer loop
vertex -154.340836 21.706224 401.125366
vertex -154.340836 20.098507 32.958191
vertex -154.340836 21.706224 32.958191
endloop
endfacet
facet normal 0.000000 0.000000 -1.000000
outer loop
vertex -154.340836 20.098507 32.958191
vertex -162.385712 40.994740 32.958191
vertex -154.340836 21.706224 32.958191
endloop
endfacet
facet normal 0.922941 0.384941 0.000000
outer loop
vertex -162.385712 40.994740 32.958191
vertex -154.340836 21.706224 401.125366
vertex -154.340836 21.706224 32.958191
endloop
endfacet
facet normal -1.000000 0.000000 0.000000
outer loop
vertex -183.279739 21.706224 32.958191
vertex -183.279739 20.098507 401.125366
vertex -183.279739 21.706224 401.125366
endloop
endfacet
facet normal 0.000076 0.000000 1.000000
outer loop
vertex -183.279739 20.098507 401.125366
vertex -175.234863 40.994740 401.125366
vertex -183.279739 21.706224 401.125366
endloop
endfacet
endsolid Exported from Blender-2.83.0
