solid Exported from Blender-2.83.0
facet normal 0.000000 0.000000 -1.000000
outer loop
vertex -202.572342 66.723564 246.787231
vertex -218.649521 81.187820 246.787231
vertex -202.572342 81.187820 246.787231
endloop
endfacet
facet normal 0.000000 -1.000000 0.000000
outer loop
vertex -218.649521 61.898994 246.787231
vertex -217.039597 61.898994 246.787231
vertex -218.649521 61.898994 274.113098
endloop
endfacet
facet normal 0.000000 0.000000 -1.000000
outer loop
vertex -217.039597 61.898994 246.787231
vertex -218.649521 61.898994 246.787231
vertex -218.649521 81.187820 246.787231
endloop
endfacet
facet normal -1.000000 0.000000 0.000000
outer loop
vertex -218.649521 61.898994 246.787231
vertex -218.649521 61.898994 274.113098
vertex -218.649521 81.187820 246.787231
endloop
endfacet
facet normal 0.000000 0.000000 -1.000000
outer loop
vertex -217.039597 61.898994 246.787231
vertex -218.649521 81.187820 246.787231
vertex -202.572342 66.723564 246.787231
endloop
endfacet
facet normal 0.000000 0.000000 1.000000
outer loop
vertex -218.649521 61.898994 274.113098
vertex -202.572342 81.187820 274.113098
vertex -218.649521 81.187820 274.113098
endloop
endfacet
facet normal 0.000000 1.000000 0.000000
outer loop
vertex -202.572342 81.187820 274.113098
vertex -218.649521 81.187820 246.787231
vertex -218.649521 81.187820 274.113098
endloop
endfacet
facet normal -1.000000 0.000000 0.000000
outer loop
vertex -218.649521 81.187820 246.787231
vertex -218.649521 61.898994 274.113098
vertex -218.649521 81.187820 274.113098
endloop
endfacet
facet normal 0.287384 -0.957666 0.016931
outer loop
vertex -218.649521 61.898994 274.113098
vertex -217.039597 61.898994 246.787231
vertex -202.572342 66.723564 274.113098
endloop
endfacet
facet normal 0.000000 0.000000 1.000000
outer loop
vertex -202.572342 81.187820 274.113098
vertex -218.649521 61.898994 274.113098
vertex -202.572342 66.723564 274.113098
endloop
endfacet
facet normal 0.316355 -0.948641 0.000000
outer loop
vertex -217.039597 61.898994 246.787231
vertex -202.572342 66.723564 246.787231
vertex -202.572342 66.723564 274.113098
endloop
endfacet
facet normal 1.000000 0.000000 0.000000
outer loop
vertex -202.572342 66.723564 246.787231
vertex -202.572342 81.187820 274.113098
vertex -202.572342 66.723564 274.113098
endloop
endfacet
facet normal 0.000000 1.000000 0.000000
outer loop
vertex -218.649521 81.187820 246.787231
vertex -202.572342 81.187820 274.113098
vertex -202.572342 81.187820 246.787231
endloop
endfacet
facet normal 1.000000 0.000000 0.000000
outer loop
vertex -202.572342 81.187820 274.113098
vertex -202.572342 66.723564 246.787231
vertex -202.572342 81.187820 246.787231
endloop
endfacet
endsolid Exported from Blender-2.83.0
