solid Exported from Blender-2.83.0
facet normal 0.000000 0.000000 1.000000
outer loop
vertex 249.195679 40.994740 192.122192
vertex 250.800720 -0.795679 192.122192
vertex 250.800720 40.994740 192.122192
endloop
endfacet
facet normal 0.000000 0.000000 -1.000000
outer loop
vertex 218.652679 -0.795679 32.958191
vertex 218.652679 18.493780 32.958191
vertex 250.800720 -0.795679 32.958191
endloop
endfacet
facet normal -1.000000 0.000000 0.000000
outer loop
vertex 218.652679 18.493780 32.958191
vertex 218.652679 -0.795679 32.958191
vertex 218.652679 -0.795679 192.122192
endloop
endfacet
facet normal 0.000000 -1.000000 0.000000
outer loop
vertex 218.652679 -0.795679 32.958191
vertex 250.800720 -0.795679 32.958191
vertex 218.652679 -0.795679 192.122192
endloop
endfacet
facet normal -0.000000 0.000000 -1.000000
outer loop
vertex 250.800720 -0.795679 32.958191
vertex 218.652679 18.493780 32.958191
vertex 250.800720 40.994740 32.958191
endloop
endfacet
facet normal 1.000000 0.000000 0.000000
outer loop
vertex 250.800720 -0.795679 32.958191
vertex 250.800720 40.994740 32.958191
vertex 250.800720 -0.795679 192.122192
endloop
endfacet
facet normal 0.000000 0.000000 1.000000
outer loop
vertex 249.195679 40.994740 192.122192
vertex 218.652679 -0.795679 192.122192
vertex 250.800720 -0.795679 192.122192
endloop
endfacet
facet normal 0.000000 -1.000000 0.000000
outer loop
vertex 218.652679 -0.795679 192.122192
vertex 250.800720 -0.795679 32.958191
vertex 250.800720 -0.795679 192.122192
endloop
endfacet
facet normal -0.000001 0.000000 1.000000
outer loop
vertex 218.652679 -0.795679 192.122192
vertex 249.195679 40.994740 192.122192
vertex 229.906845 40.990646 192.122192
endloop
endfacet
facet normal -0.000196 1.000000 -0.000002
outer loop
vertex 249.195679 40.994740 192.122192
vertex 250.800720 40.994740 32.958191
vertex 229.906845 40.990646 32.958191
endloop
endfacet
facet normal 0.000000 0.000000 -1.000000
outer loop
vertex 250.800720 40.994740 32.958191
vertex 218.652679 18.493780 32.958191
vertex 229.906845 40.990646 32.958191
endloop
endfacet
facet normal -0.000212 1.000000 0.000000
outer loop
vertex 229.906845 40.990646 192.122192
vertex 249.195679 40.994740 192.122192
vertex 229.906845 40.990646 32.958191
endloop
endfacet
facet normal -0.894335 0.447397 0.000000
outer loop
vertex 218.652679 18.493780 32.958191
vertex 229.906845 40.990646 192.122192
vertex 229.906845 40.990646 32.958191
endloop
endfacet
facet normal -1.000000 0.000000 0.000000
outer loop
vertex 218.652679 18.493780 32.958191
vertex 218.652679 -0.795679 192.122192
vertex 218.652679 18.493780 192.122192
endloop
endfacet
facet normal 0.000004 0.000000 1.000000
outer loop
vertex 218.652679 -0.795679 192.122192
vertex 229.906845 40.990646 192.122192
vertex 218.652679 18.493780 192.122192
endloop
endfacet
facet normal -0.894337 0.447394 0.000000
outer loop
vertex 229.906845 40.990646 192.122192
vertex 218.652679 18.493780 32.958191
vertex 218.652679 18.493780 192.122192
endloop
endfacet
facet normal 0.000000 1.000000 0.000000
outer loop
vertex 250.800720 40.994740 32.958191
vertex 249.195679 40.994740 192.122192
vertex 250.800720 40.994740 192.122192
endloop
endfacet
facet normal 1.000000 0.000000 0.000000
outer loop
vertex 250.800720 -0.795679 192.122192
vertex 250.800720 40.994740 32.958191
vertex 250.800720 40.994740 192.122192
endloop
endfacet
endsolid Exported from Blender-2.83.0
