solid Exported from Blender-2.83.0
facet normal 0.831854 0.000000 -0.554995
outer loop
vertex 128.617371 66.722931 124.606087
vertex 118.969025 81.189713 110.144653
vertex 128.617371 81.189713 124.606087
endloop
endfacet
facet normal 0.000000 0.000000 1.000000
outer loop
vertex 128.617371 66.722931 192.122192
vertex 128.617371 81.189713 192.122192
vertex 69.131836 81.189713 192.122192
endloop
endfacet
facet normal 0.000000 1.000000 0.000000
outer loop
vertex 69.131836 81.189713 192.122192
vertex 128.617371 81.189713 192.122192
vertex 118.969025 81.189713 110.144653
endloop
endfacet
facet normal 0.000000 0.000000 1.000000
outer loop
vertex 128.617371 66.722931 192.122192
vertex 69.131836 81.189713 192.122192
vertex 88.434357 55.468750 192.122192
endloop
endfacet
facet normal 0.000000 0.000000 -1.000000
outer loop
vertex 83.607269 60.292690 110.144653
vertex 118.969025 81.189713 110.144653
vertex 114.141937 55.468750 110.144653
endloop
endfacet
facet normal 0.000000 1.000000 0.000000
outer loop
vertex 69.131836 81.189713 192.122192
vertex 118.969025 81.189713 110.144653
vertex 69.131836 81.189713 124.606087
endloop
endfacet
facet normal 0.000000 0.000000 1.000000
outer loop
vertex 88.434357 55.468750 192.122192
vertex 69.131836 81.189713 192.122192
vertex 69.131836 66.722931 192.122192
endloop
endfacet
facet normal -1.000000 0.000000 0.000000
outer loop
vertex 69.131836 81.189713 192.122192
vertex 69.131836 81.189713 124.606087
vertex 69.131836 66.722931 192.122192
endloop
endfacet
facet normal 1.000000 0.000000 0.000000
outer loop
vertex 128.617371 81.189713 192.122192
vertex 128.617371 66.722931 192.122192
vertex 128.617371 66.722931 124.606087
endloop
endfacet
facet normal 0.752474 -0.141218 -0.643304
outer loop
vertex 114.141937 55.468750 110.144653
vertex 118.969025 81.189713 110.144653
vertex 128.617371 66.722931 124.606087
endloop
endfacet
facet normal 0.613788 -0.789471 0.000000
outer loop
vertex 128.617371 66.722931 192.122192
vertex 114.141937 55.468750 110.144653
vertex 128.617371 66.722931 124.606087
endloop
endfacet
facet normal 0.000000 0.000000 1.000000
outer loop
vertex 128.617371 66.722931 192.122192
vertex 88.434357 55.468750 192.122192
vertex 114.141937 55.468750 192.122192
endloop
endfacet
facet normal 0.613788 -0.789471 0.000000
outer loop
vertex 114.141937 55.468750 110.144653
vertex 128.617371 66.722931 192.122192
vertex 114.141937 55.468750 192.122192
endloop
endfacet
facet normal 0.000000 -1.000000 0.000000
outer loop
vertex 88.434357 55.468750 192.122192
vertex 114.141937 55.468750 110.144653
vertex 114.141937 55.468750 192.122192
endloop
endfacet
facet normal -0.706765 0.000000 -0.707449
outer loop
vertex 69.131836 81.189713 124.606087
vertex 83.607269 60.292690 110.144653
vertex 69.131836 66.722931 124.606087
endloop
endfacet
facet normal -0.503683 -0.863888 0.000000
outer loop
vertex 88.434357 55.468750 192.122192
vertex 69.131836 66.722931 192.122192
vertex 69.131836 66.722931 124.606087
endloop
endfacet
facet normal -1.000000 0.000000 0.000000
outer loop
vertex 69.131836 66.722931 192.122192
vertex 69.131836 81.189713 124.606087
vertex 69.131836 66.722931 124.606087
endloop
endfacet
facet normal 0.000000 0.000000 -1.000000
outer loop
vertex 83.607269 60.292690 110.144653
vertex 114.141937 55.468750 110.144653
vertex 88.434357 55.468750 110.144653
endloop
endfacet
facet normal 0.000000 -1.000000 0.000000
outer loop
vertex 114.141937 55.468750 110.144653
vertex 88.434357 55.468750 192.122192
vertex 88.434357 55.468750 110.144653
endloop
endfacet
facet normal -0.657884 -0.658313 -0.365804
outer loop
vertex 69.131836 66.722931 124.606087
vertex 83.607269 60.292690 110.144653
vertex 88.434357 55.468750 110.144653
endloop
endfacet
facet normal -0.503683 -0.863888 0.000000
outer loop
vertex 88.434357 55.468750 192.122192
vertex 69.131836 66.722931 124.606087
vertex 88.434357 55.468750 110.144653
endloop
endfacet
facet normal 0.000000 0.000000 -1.000000
outer loop
vertex 118.969025 81.189713 110.144653
vertex 83.607269 60.292690 110.144653
vertex 83.607269 81.189713 110.144653
endloop
endfacet
facet normal -0.706764 0.000000 -0.707449
outer loop
vertex 83.607269 60.292690 110.144653
vertex 69.131836 81.189713 124.606087
vertex 83.607269 81.189713 110.144653
endloop
endfacet
facet normal 0.000000 1.000000 0.000000
outer loop
vertex 69.131836 81.189713 124.606087
vertex 118.969025 81.189713 110.144653
vertex 83.607269 81.189713 110.144653
endloop
endfacet
facet normal 0.000000 1.000000 0.000000
outer loop
vertex 118.969025 81.189713 110.144653
vertex 128.617371 81.189713 192.122192
vertex 128.617371 81.189713 124.606087
endloop
endfacet
facet normal 1.000000 0.000000 0.000000
outer loop
vertex 128.617371 81.189713 192.122192
vertex 128.617371 66.722931 124.606087
vertex 128.617371 81.189713 124.606087
endloop
endfacet
endsolid Exported from Blender-2.83.0
