solid Exported from Blender-2.83.0
facet normal 0.000000 1.000000 0.000000
outer loop
vertex -3.215431 81.187820 307.891663
vertex 51.434982 81.187820 304.662384
vertex 16.077328 81.187820 304.662384
endloop
endfacet
facet normal 0.000000 0.000000 1.000000
outer loop
vertex 65.916397 66.723564 401.125397
vertex 65.916397 81.187820 401.125397
vertex -3.215431 81.187820 401.125397
endloop
endfacet
facet normal 1.000000 0.000000 0.000000
outer loop
vertex 65.916397 81.187820 401.125397
vertex 65.916397 66.723564 401.125397
vertex 65.916397 81.187820 307.891663
endloop
endfacet
facet normal 0.000000 1.000000 0.000000
outer loop
vertex -3.215431 81.187820 401.125397
vertex 65.916397 81.187820 401.125397
vertex 65.916397 81.187820 307.891663
endloop
endfacet
facet normal 0.000000 1.000000 0.000000
outer loop
vertex -3.215431 81.187820 401.125397
vertex 65.916397 81.187820 307.891663
vertex -3.215431 81.187820 307.891663
endloop
endfacet
facet normal 0.000000 0.000000 1.000000
outer loop
vertex 65.916397 66.723564 401.125397
vertex -3.215431 81.187820 401.125397
vertex -3.215431 66.723564 401.125397
endloop
endfacet
facet normal -1.000000 0.000000 0.000000
outer loop
vertex -3.215431 81.187820 401.125397
vertex -3.215431 81.187820 307.891663
vertex -3.215431 66.723564 401.125397
endloop
endfacet
facet normal 1.000000 0.000000 0.000000
outer loop
vertex 65.916397 81.187820 307.891663
vertex 65.916397 66.723564 401.125397
vertex 65.916397 66.723564 307.891663
endloop
endfacet
facet normal 0.000000 0.000000 1.000000
outer loop
vertex 65.916397 66.723564 401.125397
vertex -3.215431 66.723564 401.125397
vertex 53.045532 61.898994 401.125397
endloop
endfacet
facet normal 0.350995 -0.936377 0.000000
outer loop
vertex 65.916397 66.723564 307.891663
vertex 65.916397 66.723564 401.125397
vertex 53.045532 61.898994 401.125397
endloop
endfacet
facet normal -0.165083 0.000000 -0.986280
outer loop
vertex -3.215431 81.187820 307.891663
vertex 16.077328 61.898994 304.662384
vertex -3.215431 66.723564 307.891663
endloop
endfacet
facet normal -1.000000 0.000000 0.000000
outer loop
vertex -3.215431 66.723564 401.125397
vertex -3.215431 81.187820 307.891663
vertex -3.215431 66.723564 307.891663
endloop
endfacet
facet normal -0.263133 -0.964760 0.000000
outer loop
vertex -3.215431 66.723564 401.125397
vertex -3.215431 66.723564 307.891663
vertex 14.473547 61.898994 401.125397
endloop
endfacet
facet normal 0.000000 -1.000000 -0.000000
outer loop
vertex 16.077328 61.898994 304.662384
vertex 53.045532 61.898994 401.125397
vertex 14.473547 61.898994 401.125397
endloop
endfacet
facet normal 0.000000 0.000000 1.000000
outer loop
vertex 53.045532 61.898994 401.125397
vertex -3.215431 66.723564 401.125397
vertex 14.473547 61.898994 401.125397
endloop
endfacet
facet normal -0.243236 -0.969959 -0.004044
outer loop
vertex -3.215431 66.723564 307.891663
vertex 16.077328 61.898994 304.662384
vertex 14.473547 61.898994 401.125397
endloop
endfacet
facet normal 0.217645 0.000000 -0.976028
outer loop
vertex 65.916397 81.187820 307.891663
vertex 65.916397 66.723564 307.891663
vertex 51.434982 61.898994 304.662384
endloop
endfacet
facet normal 0.000000 -1.000000 0.000000
outer loop
vertex 53.045532 61.898994 401.125397
vertex 16.077328 61.898994 304.662384
vertex 51.434982 61.898994 304.662384
endloop
endfacet
facet normal 0.317135 -0.948366 -0.005295
outer loop
vertex 65.916397 66.723564 307.891663
vertex 53.045532 61.898994 401.125397
vertex 51.434982 61.898994 304.662384
endloop
endfacet
facet normal 0.000000 1.000000 -0.000003
outer loop
vertex -3.215431 81.187820 307.891663
vertex 65.916397 81.187820 307.891663
vertex 51.434982 81.187820 304.662384
endloop
endfacet
facet normal 0.000000 0.000000 -1.000000
outer loop
vertex 51.434982 61.898994 304.662384
vertex 16.077328 61.898994 304.662384
vertex 51.434982 81.187820 304.662384
endloop
endfacet
facet normal 0.217652 0.000000 -0.976026
outer loop
vertex 65.916397 81.187820 307.891663
vertex 51.434982 61.898994 304.662384
vertex 51.434982 81.187820 304.662384
endloop
endfacet
facet normal -0.165089 0.000000 -0.986279
outer loop
vertex 16.077328 61.898994 304.662384
vertex -3.215431 81.187820 307.891663
vertex 16.077328 81.187820 304.662384
endloop
endfacet
facet normal 0.000000 0.000000 -1.000000
outer loop
vertex 51.434982 81.187820 304.662384
vertex 16.077328 61.898994 304.662384
vertex 16.077328 81.187820 304.662384
endloop
endfacet
endsolid Exported from Blender-2.83.0
