solid Exported from Blender-2.83.0
facet normal 0.000000 0.000000 1.000000
outer loop
vertex 217.040207 81.189713 401.122223
vertex 213.823837 63.504822 401.122223
vertex 217.040207 63.504822 401.122223
endloop
endfacet
facet normal 0.000000 -1.000000 0.000000
outer loop
vertex 213.823837 63.504822 368.974243
vertex 217.040207 63.504822 368.974243
vertex 213.823837 63.504822 401.122223
endloop
endfacet
facet normal 0.000000 0.000000 -1.000000
outer loop
vertex 217.040207 63.504822 368.974243
vertex 213.823837 63.504822 368.974243
vertex 217.040207 81.189713 368.974243
endloop
endfacet
facet normal -0.242675 -0.970107 0.000000
outer loop
vertex 213.823837 63.504822 368.974243
vertex 213.823837 63.504822 401.122223
vertex 200.966217 66.721199 368.974243
endloop
endfacet
facet normal -0.000001 0.000000 -1.000000
outer loop
vertex 217.040207 81.189713 368.974243
vertex 213.823837 63.504822 368.974243
vertex 200.966217 66.721199 368.974243
endloop
endfacet
facet normal 0.000000 0.000000 1.000000
outer loop
vertex 200.966217 81.189713 401.122223
vertex 213.823837 63.504822 401.122223
vertex 217.040207 81.189713 401.122223
endloop
endfacet
facet normal 0.000000 1.000000 0.000000
outer loop
vertex 217.040207 81.189713 368.974243
vertex 200.966217 81.189713 401.122223
vertex 217.040207 81.189713 401.122223
endloop
endfacet
facet normal 1.000000 0.000000 0.000000
outer loop
vertex 217.040207 63.504822 368.974243
vertex 217.040207 81.189713 368.974243
vertex 217.040207 81.189713 401.122223
endloop
endfacet
facet normal 0.000000 1.000000 0.000000
outer loop
vertex 200.966217 81.189713 401.122223
vertex 217.040207 81.189713 368.974243
vertex 200.966217 81.189713 368.974243
endloop
endfacet
facet normal -1.000000 0.000000 0.000000
outer loop
vertex 200.966217 66.721199 368.974243
vertex 200.966217 81.189713 401.122223
vertex 200.966217 81.189713 368.974243
endloop
endfacet
facet normal 0.000000 0.000000 -1.000000
outer loop
vertex 217.040207 81.189713 368.974243
vertex 200.966217 66.721199 368.974243
vertex 200.966217 81.189713 368.974243
endloop
endfacet
facet normal -0.000005 0.000000 1.000000
outer loop
vertex 213.823837 63.504822 401.122223
vertex 200.966217 81.189713 401.122223
vertex 200.966217 66.721199 401.122223
endloop
endfacet
facet normal -0.242676 -0.970107 0.000000
outer loop
vertex 200.966217 66.721199 368.974243
vertex 213.823837 63.504822 401.122223
vertex 200.966217 66.721199 401.122223
endloop
endfacet
facet normal -1.000000 0.000000 0.000000
outer loop
vertex 200.966217 81.189713 401.122223
vertex 200.966217 66.721199 368.974243
vertex 200.966217 66.721199 401.122223
endloop
endfacet
facet normal 0.000000 -1.000000 0.000000
outer loop
vertex 213.823837 63.504822 401.122223
vertex 217.040207 63.504822 368.974243
vertex 217.040207 63.504822 401.122223
endloop
endfacet
facet normal 1.000000 0.000000 0.000000
outer loop
vertex 217.040207 63.504822 368.974243
vertex 217.040207 81.189713 401.122223
vertex 217.040207 63.504822 401.122223
endloop
endfacet
endsolid Exported from Blender-2.83.0
