solid Exported from Blender-2.83.0
facet normal -0.371449 0.928454 0.000000
outer loop
vertex -65.916397 13.662290 63.529999
vertex -49.833878 20.096462 192.122192
vertex -49.833878 20.096462 31.381950
endloop
endfacet
facet normal 0.000004 0.000000 1.000000
outer loop
vertex -6.430870 13.664335 192.122192
vertex -8.043781 15.272367 192.122192
vertex -65.916397 -0.803858 192.122192
endloop
endfacet
facet normal -0.000000 0.000000 1.000000
outer loop
vertex -65.916397 -0.803858 192.122192
vertex -8.043781 15.272367 192.122192
vertex -49.833878 20.096462 192.122192
endloop
endfacet
facet normal -0.000000 0.000000 -1.000000
outer loop
vertex -16.085041 -0.803858 31.381950
vertex -51.440964 18.486385 31.381950
vertex -17.686306 20.096462 31.381950
endloop
endfacet
facet normal 0.000000 0.000000 1.000000
outer loop
vertex -6.430870 13.664335 192.122192
vertex -65.916397 -0.803858 192.122192
vertex -6.430870 -0.803858 192.122192
endloop
endfacet
facet normal 0.000000 -1.000000 0.000000
outer loop
vertex -65.916397 -0.803858 192.122192
vertex -16.085041 -0.803858 31.381950
vertex -6.430870 -0.803858 192.122192
endloop
endfacet
facet normal 0.000000 -1.000000 0.000000
outer loop
vertex -16.085041 -0.803858 31.381950
vertex -65.916397 -0.803858 192.122192
vertex -65.916397 -0.803858 63.529999
endloop
endfacet
facet normal 0.000001 0.000000 1.000000
outer loop
vertex -65.916397 -0.803858 192.122192
vertex -49.833878 20.096462 192.122192
vertex -65.916397 13.662290 192.122192
endloop
endfacet
facet normal -1.000000 0.000000 0.000000
outer loop
vertex -65.916397 -0.803858 63.529999
vertex -65.916397 -0.803858 192.122192
vertex -65.916397 13.662290 192.122192
endloop
endfacet
facet normal 0.706035 0.708177 0.000000
outer loop
vertex -8.043781 15.272367 192.122192
vertex -6.430870 13.664335 192.122192
vertex -6.430870 13.664335 63.514263
endloop
endfacet
facet normal 0.505695 0.862701 -0.004445
outer loop
vertex -17.686306 20.096462 31.381950
vertex -8.043781 15.272367 192.122192
vertex -6.430870 13.664335 63.514263
endloop
endfacet
facet normal 0.945731 0.072457 -0.316770
outer loop
vertex -16.085041 -0.803858 31.381950
vertex -17.686306 20.096462 31.381950
vertex -6.430870 13.664335 63.514263
endloop
endfacet
facet normal 1.000000 0.000000 0.000000
outer loop
vertex -6.430870 13.664335 192.122192
vertex -6.430870 -0.803858 192.122192
vertex -6.430870 13.664335 63.514263
endloop
endfacet
facet normal -0.911828 0.000000 -0.410573
outer loop
vertex -51.440964 18.486385 31.381950
vertex -65.916397 -0.803858 63.529999
vertex -65.916397 13.662290 63.529999
endloop
endfacet
facet normal -0.371449 0.928454 0.000000
outer loop
vertex -65.916397 13.662290 192.122192
vertex -49.833878 20.096462 192.122192
vertex -65.916397 13.662290 63.529999
endloop
endfacet
facet normal -1.000000 0.000000 0.000000
outer loop
vertex -65.916397 -0.803858 63.529999
vertex -65.916397 13.662290 192.122192
vertex -65.916397 13.662290 63.529999
endloop
endfacet
facet normal 0.000000 0.000000 1.000000
outer loop
vertex -49.833878 20.096462 192.122192
vertex -8.043781 15.272367 192.122192
vertex -17.686306 20.096462 192.122192
endloop
endfacet
facet normal 0.447424 0.894322 0.000000
outer loop
vertex -8.043781 15.272367 192.122192
vertex -17.686306 20.096462 31.381950
vertex -17.686306 20.096462 192.122192
endloop
endfacet
facet normal 0.000000 1.000000 0.000000
outer loop
vertex -17.686306 20.096462 31.381950
vertex -49.833878 20.096462 192.122192
vertex -17.686306 20.096462 192.122192
endloop
endfacet
facet normal 0.000000 0.000000 -1.000000
outer loop
vertex -51.440964 18.486385 31.381950
vertex -16.085041 -0.803858 31.381950
vertex -51.440964 -0.803858 31.381950
endloop
endfacet
facet normal -0.911828 0.000000 -0.410572
outer loop
vertex -65.916397 -0.803858 63.529999
vertex -51.440964 18.486385 31.381950
vertex -51.440964 -0.803858 31.381950
endloop
endfacet
facet normal 0.000000 -1.000000 -0.000000
outer loop
vertex -16.085041 -0.803858 31.381950
vertex -65.916397 -0.803858 63.529999
vertex -51.440964 -0.803858 31.381950
endloop
endfacet
facet normal 0.000000 -1.000000 0.000000
outer loop
vertex -6.430870 -0.803858 192.122192
vertex -16.085041 -0.803858 31.381950
vertex -6.430870 -0.803858 63.514263
endloop
endfacet
facet normal 0.957707 0.000000 -0.287744
outer loop
vertex -16.085041 -0.803858 31.381950
vertex -6.430870 13.664335 63.514263
vertex -6.430870 -0.803858 63.514263
endloop
endfacet
facet normal 1.000000 0.000000 0.000000
outer loop
vertex -6.430870 13.664335 63.514263
vertex -6.430870 -0.803858 192.122192
vertex -6.430870 -0.803858 63.514263
endloop
endfacet
facet normal 0.000000 0.000000 -1.000000
outer loop
vertex -17.686306 20.096462 31.381950
vertex -51.440964 18.486385 31.381950
vertex -49.833878 20.096462 31.381950
endloop
endfacet
facet normal 0.000000 1.000000 0.000000
outer loop
vertex -49.833878 20.096462 192.122192
vertex -17.686306 20.096462 31.381950
vertex -49.833878 20.096462 31.381950
endloop
endfacet
facet normal -0.692281 0.690993 -0.208026
outer loop
vertex -51.440964 18.486385 31.381950
vertex -65.916397 13.662290 63.529999
vertex -49.833878 20.096462 31.381950
endloop
endfacet
endsolid Exported from Blender-2.83.0
