solid Exported from Blender-2.83.0
facet normal -1.000000 0.000000 0.000000
outer loop
vertex -188.099121 61.894424 192.122192
vertex -188.099121 63.504818 192.122192
vertex -188.099121 61.894424 63.513954
endloop
endfacet
facet normal 0.000000 0.000000 1.000000
outer loop
vertex -149.521454 61.894424 192.122192
vertex -149.521454 63.504818 192.122192
vertex -188.099121 63.504818 192.122192
endloop
endfacet
facet normal 0.000000 0.000000 1.000000
outer loop
vertex -149.521454 61.894424 192.122192
vertex -188.099121 63.504818 192.122192
vertex -175.237381 41.001186 192.122192
endloop
endfacet
facet normal 0.000000 0.000000 -1.000000
outer loop
vertex -162.383194 41.001186 34.565918
vertex -186.490463 60.286236 34.565918
vertex -151.130112 63.504818 34.565918
endloop
endfacet
facet normal 0.000000 1.000000 0.000000
outer loop
vertex -188.099121 63.504818 192.122192
vertex -149.521454 63.504818 192.122192
vertex -151.130112 63.504818 34.565918
endloop
endfacet
facet normal 0.000000 0.000000 1.000000
outer loop
vertex -149.521454 61.894424 192.122192
vertex -175.237381 41.001186 192.122192
vertex -162.383194 41.001186 192.122192
endloop
endfacet
facet normal 0.851579 -0.524226 0.000000
outer loop
vertex -162.383194 41.001186 34.565918
vertex -149.521454 61.894424 192.122192
vertex -162.383194 41.001186 192.122192
endloop
endfacet
facet normal 0.000000 -1.000000 0.000000
outer loop
vertex -175.237381 41.001186 192.122192
vertex -162.383194 41.001186 34.565918
vertex -162.383194 41.001186 192.122192
endloop
endfacet
facet normal 0.000000 -1.000000 0.000000
outer loop
vertex -162.383194 41.001186 34.565918
vertex -175.237381 41.001186 192.122192
vertex -175.237381 41.001186 34.565918
endloop
endfacet
facet normal 0.000000 0.000000 -1.000000
outer loop
vertex -186.490463 60.286236 34.565918
vertex -162.383194 41.001186 34.565918
vertex -175.237381 41.001186 34.565918
endloop
endfacet
facet normal 0.000000 0.000000 -1.000000
outer loop
vertex -151.130112 63.504818 34.565918
vertex -186.490463 60.286236 34.565918
vertex -186.490463 63.504818 34.565918
endloop
endfacet
facet normal 0.000000 1.000000 0.000000
outer loop
vertex -188.099121 63.504818 192.122192
vertex -151.130112 63.504818 34.565918
vertex -186.490463 63.504818 34.565918
endloop
endfacet
facet normal 1.000000 0.000000 0.000000
outer loop
vertex -149.521454 63.504818 192.122192
vertex -149.521454 61.894424 192.122192
vertex -149.521454 61.894424 63.513954
endloop
endfacet
facet normal 0.851579 -0.524226 0.000000
outer loop
vertex -149.521454 61.894424 192.122192
vertex -162.383194 41.001186 34.565918
vertex -149.521454 61.894424 63.513954
endloop
endfacet
facet normal 0.891929 -0.446016 -0.074377
outer loop
vertex -162.383194 41.001186 34.565918
vertex -151.130112 63.504818 34.565918
vertex -149.521454 61.894424 63.513954
endloop
endfacet
facet normal 0.774999 0.631913 -0.007913
outer loop
vertex -151.130112 63.504818 34.565918
vertex -149.521454 63.504818 192.122192
vertex -149.521454 61.894424 63.513954
endloop
endfacet
facet normal -0.000024 0.000000 1.000000
outer loop
vertex -175.237381 41.001186 192.122192
vertex -188.099121 63.504818 192.122192
vertex -188.099121 61.894424 192.122192
endloop
endfacet
facet normal -0.851579 -0.524226 0.000000
outer loop
vertex -175.237381 41.001186 34.565918
vertex -175.237381 41.001186 192.122192
vertex -188.099121 61.894424 192.122192
endloop
endfacet
facet normal -0.851578 -0.524228 0.000000
outer loop
vertex -175.237381 41.001186 34.565918
vertex -188.099121 61.894424 192.122192
vertex -188.099121 61.894424 63.513954
endloop
endfacet
facet normal -0.863538 -0.503887 -0.019994
outer loop
vertex -186.490463 60.286236 34.565918
vertex -175.237381 41.001186 34.565918
vertex -188.099121 61.894424 63.513954
endloop
endfacet
facet normal -0.998460 0.000000 -0.055485
outer loop
vertex -186.490463 63.504818 34.565918
vertex -186.490463 60.286236 34.565918
vertex -188.099121 61.894424 63.513954
endloop
endfacet
facet normal -0.774993 0.631921 -0.007913
outer loop
vertex -188.099121 63.504818 192.122192
vertex -186.490463 63.504818 34.565918
vertex -188.099121 61.894424 63.513954
endloop
endfacet
endsolid Exported from Blender-2.83.0
