solid Exported from Blender-2.83.0
facet normal 0.000000 1.000000 -0.000001
outer loop
vertex -202.565582 81.187820 307.889465
vertex -151.134537 81.187820 298.231506
vertex -186.488724 81.187820 298.231506
endloop
endfacet
facet normal 0.000000 0.000000 1.000000
outer loop
vertex -133.440521 66.723564 401.115356
vertex -133.440521 81.187820 401.115356
vertex -202.565582 81.187820 401.115356
endloop
endfacet
facet normal 1.000000 0.000000 0.000000
outer loop
vertex -133.440521 81.187820 401.115356
vertex -133.440521 66.723564 401.115356
vertex -133.440521 81.187820 307.889465
endloop
endfacet
facet normal 0.000000 1.000000 0.000000
outer loop
vertex -202.565582 81.187820 401.115356
vertex -133.440521 81.187820 401.115356
vertex -133.440521 81.187820 307.889465
endloop
endfacet
facet normal 0.000000 1.000000 0.000000
outer loop
vertex -202.565582 81.187820 401.115356
vertex -133.440521 81.187820 307.889465
vertex -202.565582 81.187820 307.889465
endloop
endfacet
facet normal 0.000000 0.000000 1.000000
outer loop
vertex -133.440521 66.723564 401.115356
vertex -202.565582 81.187820 401.115356
vertex -202.565582 66.723564 401.115356
endloop
endfacet
facet normal -1.000000 0.000000 0.000000
outer loop
vertex -202.565582 81.187820 401.115356
vertex -202.565582 81.187820 307.889465
vertex -202.565582 66.723564 401.115356
endloop
endfacet
facet normal 1.000000 0.000000 0.000000
outer loop
vertex -133.440521 81.187820 307.889465
vertex -133.440521 66.723564 401.115356
vertex -133.440521 66.723564 307.889465
endloop
endfacet
facet normal 0.000000 0.000000 1.000000
outer loop
vertex -133.440521 66.723564 401.115356
vertex -202.565582 66.723564 401.115356
vertex -149.524139 61.898994 401.115356
endloop
endfacet
facet normal 0.287320 -0.957835 0.000000
outer loop
vertex -133.440521 66.723564 307.889465
vertex -133.440521 66.723564 401.115356
vertex -149.524139 61.898994 401.115356
endloop
endfacet
facet normal 0.265169 -0.964193 -0.004151
outer loop
vertex -133.440521 66.723564 307.889465
vertex -149.524139 61.898994 401.115356
vertex -151.134537 61.898994 298.231506
endloop
endfacet
facet normal 0.479106 0.000000 -0.877757
outer loop
vertex -133.440521 81.187820 307.889465
vertex -133.440521 66.723564 307.889465
vertex -151.134537 61.898994 298.231506
endloop
endfacet
facet normal 0.000000 -1.000000 0.000000
outer loop
vertex -149.524139 61.898994 401.115356
vertex -186.488724 61.898994 298.231506
vertex -151.134537 61.898994 298.231506
endloop
endfacet
facet normal -0.514959 0.000000 -0.857215
outer loop
vertex -202.565582 81.187820 307.889465
vertex -186.488724 61.898994 298.231506
vertex -202.565582 66.723564 307.889465
endloop
endfacet
facet normal -1.000000 0.000000 0.000000
outer loop
vertex -202.565582 66.723564 401.115356
vertex -202.565582 81.187820 307.889465
vertex -202.565582 66.723564 307.889465
endloop
endfacet
facet normal -0.316237 -0.948680 0.000000
outer loop
vertex -202.565582 66.723564 401.115356
vertex -202.565582 66.723564 307.889465
vertex -188.092346 61.898994 401.115356
endloop
endfacet
facet normal 0.000000 -1.000000 0.000000
outer loop
vertex -186.488724 61.898994 298.231506
vertex -149.524139 61.898994 401.115356
vertex -188.092346 61.898994 401.115356
endloop
endfacet
facet normal 0.000000 0.000000 1.000000
outer loop
vertex -149.524139 61.898994 401.115356
vertex -202.565582 66.723564 401.115356
vertex -188.092346 61.898994 401.115356
endloop
endfacet
facet normal -0.289916 -0.957041 -0.004519
outer loop
vertex -202.565582 66.723564 307.889465
vertex -186.488724 61.898994 298.231506
vertex -188.092346 61.898994 401.115356
endloop
endfacet
facet normal 0.000000 1.000000 0.000000
outer loop
vertex -202.565582 81.187820 307.889465
vertex -133.440521 81.187820 307.889465
vertex -151.134537 81.187820 298.231506
endloop
endfacet
facet normal 0.000000 0.000000 -1.000000
outer loop
vertex -151.134537 61.898994 298.231506
vertex -186.488724 61.898994 298.231506
vertex -151.134537 81.187820 298.231506
endloop
endfacet
facet normal 0.479108 0.000000 -0.877756
outer loop
vertex -133.440521 81.187820 307.889465
vertex -151.134537 61.898994 298.231506
vertex -151.134537 81.187820 298.231506
endloop
endfacet
facet normal -0.514961 0.000000 -0.857214
outer loop
vertex -186.488724 61.898994 298.231506
vertex -202.565582 81.187820 307.889465
vertex -186.488724 81.187820 298.231506
endloop
endfacet
facet normal 0.000000 0.000000 -1.000000
outer loop
vertex -151.134537 81.187820 298.231506
vertex -186.488724 61.898994 298.231506
vertex -186.488724 81.187820 298.231506
endloop
endfacet
endsolid Exported from Blender-2.83.0
