solid Exported from Blender-2.83.0
facet normal -0.907950 0.419078 0.000000
outer loop
vertex 229.904907 40.992691 401.125366
vertex 220.259903 20.096462 192.142639
vertex 220.259903 20.096462 401.125366
endloop
endfacet
facet normal 0.000000 0.000000 -1.000000
outer loop
vertex 220.259903 -0.799767 192.142639
vertex 220.259903 20.096462 192.142639
vertex 250.803391 -0.799767 192.142639
endloop
endfacet
facet normal -1.000000 0.000000 0.000000
outer loop
vertex 220.259903 20.096462 192.142639
vertex 220.259903 -0.799767 192.142639
vertex 220.259903 -0.799767 401.125366
endloop
endfacet
facet normal 0.000000 -1.000000 0.000000
outer loop
vertex 220.259903 -0.799767 192.142639
vertex 250.803391 -0.799767 192.142639
vertex 220.259903 -0.799767 401.125366
endloop
endfacet
facet normal 0.000000 0.000000 -1.000000
outer loop
vertex 250.803391 -0.799767 192.142639
vertex 220.259903 20.096462 192.142639
vertex 250.803391 40.992691 192.142639
endloop
endfacet
facet normal 1.000000 0.000000 0.000000
outer loop
vertex 250.803391 40.992691 401.125366
vertex 250.803391 -0.799767 192.142639
vertex 250.803391 40.992691 192.142639
endloop
endfacet
facet normal 0.000000 0.000000 1.000000
outer loop
vertex 220.259903 -0.799767 401.125366
vertex 250.803391 40.992691 401.125366
vertex 229.904907 40.992691 401.125366
endloop
endfacet
facet normal 0.000000 1.000000 0.000000
outer loop
vertex 250.803391 40.992691 401.125366
vertex 250.803391 40.992691 192.142639
vertex 229.904907 40.992691 401.125366
endloop
endfacet
facet normal 1.000000 0.000000 0.000000
outer loop
vertex 250.803391 -0.799767 192.142639
vertex 250.803391 40.992691 401.125366
vertex 250.803391 -0.799767 401.125366
endloop
endfacet
facet normal 0.000000 0.000000 1.000000
outer loop
vertex 250.803391 40.992691 401.125366
vertex 220.259903 -0.799767 401.125366
vertex 250.803391 -0.799767 401.125366
endloop
endfacet
facet normal 0.000000 -1.000000 0.000000
outer loop
vertex 220.259903 -0.799767 401.125366
vertex 250.803391 -0.799767 192.142639
vertex 250.803391 -0.799767 401.125366
endloop
endfacet
facet normal 0.000000 0.000000 -1.000000
outer loop
vertex 250.803391 40.992691 192.142639
vertex 220.259903 20.096462 192.142639
vertex 229.904907 40.992691 192.142639
endloop
endfacet
facet normal -0.907949 0.419081 0.000000
outer loop
vertex 220.259903 20.096462 192.142639
vertex 229.904907 40.992691 401.125366
vertex 229.904907 40.992691 192.142639
endloop
endfacet
facet normal 0.000000 1.000000 0.000000
outer loop
vertex 229.904907 40.992691 401.125366
vertex 250.803391 40.992691 192.142639
vertex 229.904907 40.992691 192.142639
endloop
endfacet
facet normal -1.000000 0.000000 0.000000
outer loop
vertex 220.259903 20.096462 192.142639
vertex 220.259903 -0.799767 401.125366
vertex 220.259903 20.096462 401.125366
endloop
endfacet
facet normal 0.000000 0.000000 1.000000
outer loop
vertex 220.259903 -0.799767 401.125366
vertex 229.904907 40.992691 401.125366
vertex 220.259903 20.096462 401.125366
endloop
endfacet
endsolid Exported from Blender-2.83.0
