solid Exported from Blender-2.83.0
facet normal 0.000000 1.000000 0.000000
outer loop
vertex -152.743652 20.096462 169.608017
vertex -184.876587 20.096462 106.913193
vertex -184.876587 20.096462 169.608017
endloop
endfacet
facet normal 0.000000 -1.000000 0.000000
outer loop
vertex -199.356903 -0.803858 124.605949
vertex -186.489182 -0.803858 106.913193
vertex -131.839386 -0.803858 153.529266
endloop
endfacet
facet normal 0.000000 -1.000000 -0.000000
outer loop
vertex -199.356903 -0.803858 124.605949
vertex -131.839386 -0.803858 153.529266
vertex -186.489182 -0.803858 169.608017
endloop
endfacet
facet normal 0.000000 0.000000 1.000000
outer loop
vertex -151.131042 18.486385 169.608017
vertex -186.489182 18.486385 169.608017
vertex -186.489182 -0.803858 169.608017
endloop
endfacet
facet normal 0.000000 0.000000 -1.000000
outer loop
vertex -152.743652 20.096462 106.913193
vertex -186.489182 -0.803858 106.913193
vertex -184.876587 20.096462 106.913193
endloop
endfacet
facet normal 0.000000 -1.000000 -0.000000
outer loop
vertex -131.839386 -0.803858 153.529266
vertex -186.489182 -0.803858 106.913193
vertex -151.131042 -0.803858 106.913193
endloop
endfacet
facet normal 0.000000 0.000000 -1.000000
outer loop
vertex -186.489182 -0.803858 106.913193
vertex -152.743652 20.096462 106.913193
vertex -151.131042 -0.803858 106.913193
endloop
endfacet
facet normal 0.654222 0.050478 -0.754617
outer loop
vertex -151.131042 -0.803858 106.913193
vertex -152.743652 20.096462 106.913193
vertex -131.839386 13.662290 124.605949
endloop
endfacet
facet normal -0.780757 0.000000 0.624835
outer loop
vertex -186.489182 -0.803858 169.608017
vertex -186.489182 18.486385 169.608017
vertex -199.356903 13.662290 153.529266
endloop
endfacet
facet normal 0.640240 0.000000 0.768175
outer loop
vertex -131.839386 -0.803858 153.529266
vertex -151.131042 18.486385 169.608017
vertex -151.131042 -0.803858 169.608017
endloop
endfacet
facet normal 0.000000 -1.000000 0.000000
outer loop
vertex -186.489182 -0.803858 169.608017
vertex -131.839386 -0.803858 153.529266
vertex -151.131042 -0.803858 169.608017
endloop
endfacet
facet normal 0.000000 0.000000 1.000000
outer loop
vertex -151.131042 18.486385 169.608017
vertex -186.489182 -0.803858 169.608017
vertex -151.131042 -0.803858 169.608017
endloop
endfacet
facet normal 0.640239 0.000000 0.768175
outer loop
vertex -151.131042 18.486385 169.608017
vertex -131.839386 -0.803858 153.529266
vertex -131.839386 13.662290 153.529266
endloop
endfacet
facet normal 0.294173 0.955752 0.000000
outer loop
vertex -131.839386 13.662290 124.605949
vertex -152.743652 20.096462 106.913193
vertex -131.839386 13.662290 153.529266
endloop
endfacet
facet normal 1.000000 0.000000 0.000000
outer loop
vertex -131.839386 -0.803858 153.529266
vertex -131.839386 13.662290 124.605949
vertex -131.839386 13.662290 153.529266
endloop
endfacet
facet normal 0.000000 0.000000 1.000000
outer loop
vertex -186.489182 18.486385 169.608017
vertex -151.131042 18.486385 169.608017
vertex -152.743652 20.096462 169.608017
endloop
endfacet
facet normal 0.000000 1.000000 0.000000
outer loop
vertex -152.743652 20.096462 106.913193
vertex -184.876587 20.096462 106.913193
vertex -152.743652 20.096462 169.608017
endloop
endfacet
facet normal 0.596348 0.597282 0.536306
outer loop
vertex -151.131042 18.486385 169.608017
vertex -131.839386 13.662290 153.529266
vertex -152.743652 20.096462 169.608017
endloop
endfacet
facet normal 0.294173 0.955752 0.000000
outer loop
vertex -131.839386 13.662290 153.529266
vertex -152.743652 20.096462 106.913193
vertex -152.743652 20.096462 169.608017
endloop
endfacet
facet normal 0.000000 -1.000000 0.000000
outer loop
vertex -131.839386 -0.803858 153.529266
vertex -151.131042 -0.803858 106.913193
vertex -131.839386 -0.803858 124.605949
endloop
endfacet
facet normal 0.675906 0.000000 -0.736988
outer loop
vertex -151.131042 -0.803858 106.913193
vertex -131.839386 13.662290 124.605949
vertex -131.839386 -0.803858 124.605949
endloop
endfacet
facet normal 1.000000 0.000000 0.000000
outer loop
vertex -131.839386 13.662290 124.605949
vertex -131.839386 -0.803858 153.529266
vertex -131.839386 -0.803858 124.605949
endloop
endfacet
facet normal -0.808730 0.000000 -0.588180
outer loop
vertex -186.489182 -0.803858 106.913193
vertex -199.356903 -0.803858 124.605949
vertex -199.356903 13.662290 124.605949
endloop
endfacet
facet normal -0.783106 0.060422 -0.618946
outer loop
vertex -184.876587 20.096462 106.913193
vertex -186.489182 -0.803858 106.913193
vertex -199.356903 13.662290 124.605949
endloop
endfacet
facet normal -1.000000 0.000000 0.000000
outer loop
vertex -199.356903 -0.803858 124.605949
vertex -199.356903 13.662290 153.529266
vertex -199.356903 13.662290 124.605949
endloop
endfacet
facet normal -0.406059 0.913847 0.000000
outer loop
vertex -199.356903 13.662290 153.529266
vertex -184.876587 20.096462 106.913193
vertex -199.356903 13.662290 124.605949
endloop
endfacet
facet normal 0.000000 -1.000000 0.000000
outer loop
vertex -199.356903 -0.803858 124.605949
vertex -186.489182 -0.803858 169.608017
vertex -199.356903 -0.803858 153.529266
endloop
endfacet
facet normal -1.000000 0.000000 0.000000
outer loop
vertex -199.356903 13.662290 153.529266
vertex -199.356903 -0.803858 124.605949
vertex -199.356903 -0.803858 153.529266
endloop
endfacet
facet normal -0.780756 0.000000 0.624836
outer loop
vertex -186.489182 -0.803858 169.608017
vertex -199.356903 13.662290 153.529266
vertex -199.356903 -0.803858 153.529266
endloop
endfacet
facet normal -0.666238 0.667270 0.332981
outer loop
vertex -199.356903 13.662290 153.529266
vertex -186.489182 18.486385 169.608017
vertex -184.876587 20.096462 169.608017
endloop
endfacet
facet normal -0.406057 0.913847 0.000000
outer loop
vertex -184.876587 20.096462 106.913193
vertex -199.356903 13.662290 153.529266
vertex -184.876587 20.096462 169.608017
endloop
endfacet
facet normal 0.000000 0.000000 1.000000
outer loop
vertex -186.489182 18.486385 169.608017
vertex -152.743652 20.096462 169.608017
vertex -184.876587 20.096462 169.608017
endloop
endfacet
endsolid Exported from Blender-2.83.0
