solid Exported from Blender-2.83.0
facet normal -1.000000 0.000000 -0.000127
outer loop
vertex 200.966217 66.721680 213.020447
vertex 200.969681 81.185944 185.691315
vertex 200.969681 66.723564 185.691315
endloop
endfacet
facet normal 0.000000 0.000000 -1.000000
outer loop
vertex 218.649506 61.898998 185.691315
vertex 217.039734 61.898998 185.691315
vertex 218.649506 81.185944 185.691315
endloop
endfacet
facet normal 0.998270 0.000000 0.058801
outer loop
vertex 217.039734 81.187828 213.020447
vertex 218.649506 61.898998 185.691315
vertex 218.649506 81.185944 185.691315
endloop
endfacet
facet normal 0.000000 1.000000 -0.000069
outer loop
vertex 217.039734 81.187828 213.020447
vertex 218.649506 81.185944 185.691315
vertex 200.969681 81.185944 185.691315
endloop
endfacet
facet normal 0.000000 0.000000 -1.000000
outer loop
vertex 218.649506 81.185944 185.691315
vertex 217.039734 61.898998 185.691315
vertex 200.969681 81.185944 185.691315
endloop
endfacet
facet normal 0.998270 0.000000 0.058801
outer loop
vertex 218.649506 61.898998 185.691315
vertex 217.039734 81.187828 213.020447
vertex 217.039734 63.505928 213.020447
endloop
endfacet
facet normal 0.000000 -0.998276 0.058697
outer loop
vertex 217.039734 61.898998 185.691315
vertex 218.649506 61.898998 185.691315
vertex 217.039734 63.505928 213.020447
endloop
endfacet
facet normal -0.195853 -0.978943 0.057561
outer loop
vertex 200.966217 66.721680 213.020447
vertex 217.039734 61.898998 185.691315
vertex 217.039734 63.505928 213.020447
endloop
endfacet
facet normal 0.000001 0.000000 1.000000
outer loop
vertex 217.039734 81.187828 213.020447
vertex 200.966217 66.721680 213.020447
vertex 217.039734 63.505928 213.020447
endloop
endfacet
facet normal 0.000000 1.000000 -0.000069
outer loop
vertex 217.039734 81.187828 213.020447
vertex 200.969681 81.185944 185.691315
vertex 200.966217 81.187828 213.020447
endloop
endfacet
facet normal -1.000000 0.000000 -0.000127
outer loop
vertex 200.969681 81.185944 185.691315
vertex 200.966217 66.721680 213.020447
vertex 200.966217 81.187828 213.020447
endloop
endfacet
facet normal 0.000000 0.000000 1.000000
outer loop
vertex 200.966217 66.721680 213.020447
vertex 217.039734 81.187828 213.020447
vertex 200.966217 81.187828 213.020447
endloop
endfacet
facet normal -0.000001 0.000000 -1.000000
outer loop
vertex 200.969681 81.185944 185.691315
vertex 217.039734 61.898998 185.691315
vertex 200.969681 66.723564 185.691315
endloop
endfacet
facet normal -0.287542 -0.957768 -0.000102
outer loop
vertex 217.039734 61.898998 185.691315
vertex 200.966217 66.721680 213.020447
vertex 200.969681 66.723564 185.691315
endloop
endfacet
endsolid Exported from Blender-2.83.0
