solid Exported from Blender-2.83.0
facet normal 0.228908 -0.962034 -0.148635
outer loop
vertex 51.441597 63.505928 179.261719
vertex 69.131836 66.721680 185.691956
vertex 53.042076 61.898998 192.127228
endloop
endfacet
facet normal 0.993120 0.000000 0.117100
outer loop
vertex 69.131836 81.187828 185.691956
vertex 65.909637 81.185944 213.019196
vertex 69.131836 66.721680 185.691956
endloop
endfacet
facet normal -1.000000 0.000000 0.000000
outer loop
vertex -3.215431 81.185944 213.019196
vertex -3.215431 81.187828 185.691956
vertex -3.215431 66.723564 213.019196
endloop
endfacet
facet normal -0.000063 1.000000 0.000069
outer loop
vertex -3.215431 81.187828 185.691956
vertex -3.215431 81.185944 213.019196
vertex 16.082367 81.185944 230.703613
endloop
endfacet
facet normal 0.000000 1.000000 0.000042
outer loop
vertex 69.131836 81.187828 185.691956
vertex -3.215431 81.187828 185.691956
vertex 16.082367 81.185944 230.703613
endloop
endfacet
facet normal -0.675616 0.000000 0.737254
outer loop
vertex -3.215431 81.185944 213.019196
vertex -3.215431 66.723564 213.019196
vertex 16.082367 81.185944 230.703613
endloop
endfacet
facet normal -0.675615 0.000000 0.737254
outer loop
vertex 16.082367 81.185944 230.703613
vertex -3.215431 66.723564 213.019196
vertex 16.082367 61.898998 230.703613
endloop
endfacet
facet normal 0.000000 -1.000000 0.000000
outer loop
vertex 14.474808 61.898998 192.127228
vertex 51.434517 61.898998 230.703613
vertex 16.082367 61.898998 230.703613
endloop
endfacet
facet normal -0.251559 -0.967785 0.010483
outer loop
vertex -3.215431 66.723564 213.019196
vertex 14.474808 61.898998 192.127228
vertex 16.082367 61.898998 230.703613
endloop
endfacet
facet normal 0.000000 0.000000 1.000000
outer loop
vertex 51.434517 61.898998 230.703613
vertex 16.082367 81.185944 230.703613
vertex 16.082367 61.898998 230.703613
endloop
endfacet
facet normal 0.773827 0.000000 0.633396
outer loop
vertex 51.434517 61.898998 230.703613
vertex 65.909637 81.185944 213.019196
vertex 51.434517 81.185944 230.703613
endloop
endfacet
facet normal 0.000098 1.000000 0.000081
outer loop
vertex 65.909637 81.185944 213.019196
vertex 69.131836 81.187828 185.691956
vertex 51.434517 81.185944 230.703613
endloop
endfacet
facet normal 0.000000 0.000000 1.000000
outer loop
vertex 16.082367 81.185944 230.703613
vertex 51.434517 61.898998 230.703613
vertex 51.434517 81.185944 230.703613
endloop
endfacet
facet normal 0.000000 1.000000 0.000042
outer loop
vertex 69.131836 81.187828 185.691956
vertex 16.082367 81.185944 230.703613
vertex 51.434517 81.185944 230.703613
endloop
endfacet
facet normal 0.341622 0.000000 -0.939838
outer loop
vertex 69.131836 81.187828 185.691956
vertex 69.131836 66.721680 185.691956
vertex 51.441597 81.187828 179.261719
endloop
endfacet
facet normal 0.000000 1.000000 0.000001
outer loop
vertex -3.215431 81.187828 185.691956
vertex 69.131836 81.187828 185.691956
vertex 51.441597 81.187828 179.261719
endloop
endfacet
facet normal 0.000000 -0.992290 -0.123939
outer loop
vertex 14.474808 61.898998 192.127228
vertex 16.082367 63.505928 179.261719
vertex 51.441597 63.505928 179.261719
endloop
endfacet
facet normal 0.000000 0.000000 -1.000000
outer loop
vertex 16.082367 63.505928 179.261719
vertex 51.441597 81.187828 179.261719
vertex 51.441597 63.505928 179.261719
endloop
endfacet
facet normal 0.341622 0.000000 -0.939837
outer loop
vertex 51.441597 81.187828 179.261719
vertex 69.131836 66.721680 185.691956
vertex 51.441597 63.505928 179.261719
endloop
endfacet
facet normal -0.210043 -0.966582 -0.146972
outer loop
vertex 16.082367 63.505928 179.261719
vertex 14.474808 61.898998 192.127228
vertex -3.215431 66.721680 185.691956
endloop
endfacet
facet normal -0.316123 0.000000 -0.948718
outer loop
vertex -3.215431 81.187828 185.691956
vertex 16.082367 63.505928 179.261719
vertex -3.215431 66.721680 185.691956
endloop
endfacet
facet normal -0.263042 -0.964784 0.000066
outer loop
vertex 14.474808 61.898998 192.127228
vertex -3.215431 66.723564 213.019196
vertex -3.215431 66.721680 185.691956
endloop
endfacet
facet normal -1.000000 0.000000 0.000000
outer loop
vertex -3.215431 66.723564 213.019196
vertex -3.215431 81.187828 185.691956
vertex -3.215431 66.721680 185.691956
endloop
endfacet
facet normal 0.773827 0.000000 0.633397
outer loop
vertex 65.909637 81.185944 213.019196
vertex 51.434517 61.898998 230.703613
vertex 65.909637 66.723564 213.019196
endloop
endfacet
facet normal 0.993120 0.000000 0.117100
outer loop
vertex 69.131836 66.721680 185.691956
vertex 65.909637 81.185944 213.019196
vertex 65.909637 66.723564 213.019196
endloop
endfacet
facet normal 0.362602 -0.930960 0.042819
outer loop
vertex 51.434517 61.898998 230.703613
vertex 69.131836 66.721680 185.691956
vertex 65.909637 66.723564 213.019196
endloop
endfacet
facet normal -0.316123 0.000000 -0.948718
outer loop
vertex 16.082367 63.505928 179.261719
vertex -3.215431 81.187828 185.691956
vertex 16.082367 81.187828 179.261719
endloop
endfacet
facet normal 0.000000 0.000000 -1.000000
outer loop
vertex 51.441597 81.187828 179.261719
vertex 16.082367 63.505928 179.261719
vertex 16.082367 81.187828 179.261719
endloop
endfacet
facet normal 0.000000 1.000000 0.000000
outer loop
vertex -3.215431 81.187828 185.691956
vertex 51.441597 81.187828 179.261719
vertex 16.082367 81.187828 179.261719
endloop
endfacet
facet normal 0.000000 -1.000000 0.000000
outer loop
vertex 51.434517 61.898998 230.703613
vertex 14.474808 61.898998 192.127228
vertex 53.042076 61.898998 192.127228
endloop
endfacet
facet normal 0.291550 -0.956478 0.012150
outer loop
vertex 69.131836 66.721680 185.691956
vertex 51.434517 61.898998 230.703613
vertex 53.042076 61.898998 192.127228
endloop
endfacet
facet normal 0.000000 -0.992290 -0.123939
outer loop
vertex 14.474808 61.898998 192.127228
vertex 51.441597 63.505928 179.261719
vertex 53.042076 61.898998 192.127228
endloop
endfacet
endsolid Exported from Blender-2.83.0
