solid Exported from Blender-2.71 (sub 0)
facet normal 0.071237 -0.000000 0.997459
outer loop
vertex 0.094153 -6.958819 -0.092016
vertex -0.314354 6.171019 -0.062841
vertex -0.314354 -6.958819 -0.062841
endloop
endfacet
facet normal -0.000000 -1.000000 -0.000000
outer loop
vertex -1.014480 -6.958819 -0.179540
vertex 0.094153 -6.958819 -0.179540
vertex -1.014480 -6.958819 -0.062841
endloop
endfacet
facet normal 0.000000 0.000000 -1.000000
outer loop
vertex 0.094153 -6.958819 -0.179540
vertex -1.014480 -6.958819 -0.179540
vertex -1.014480 6.171019 -0.179540
endloop
endfacet
facet normal -1.000000 -0.000000 -0.000000
outer loop
vertex -1.014480 -6.958819 -0.179540
vertex -1.014480 -6.958819 -0.062841
vertex -1.014480 6.171019 -0.179540
endloop
endfacet
facet normal 0.000000 1.000000 0.000000
outer loop
vertex -1.014480 6.171019 -0.179540
vertex -0.314354 6.171019 -0.062841
vertex 0.094153 6.171019 -0.179540
endloop
endfacet
facet normal -0.000000 -0.000000 -1.000000
outer loop
vertex 0.094153 -6.958819 -0.179540
vertex -1.014480 6.171019 -0.179540
vertex 0.094153 6.171019 -0.179540
endloop
endfacet
facet normal -0.000000 -1.000000 -0.000000
outer loop
vertex -1.014480 -6.958819 -0.062841
vertex 0.094153 -6.958819 -0.179540
vertex 0.094153 -6.958819 -0.092016
endloop
endfacet
facet normal 1.000000 0.000000 0.000000
outer loop
vertex 0.094153 -6.958819 -0.179540
vertex 0.094153 6.171019 -0.179540
vertex 0.094153 -6.958819 -0.092016
endloop
endfacet
facet normal -0.000000 0.000000 1.000000
outer loop
vertex -1.014480 -6.958819 -0.062841
vertex -0.314354 6.171019 -0.062841
vertex -1.014480 6.171019 -0.062841
endloop
endfacet
facet normal -0.000000 1.000000 0.000000
outer loop
vertex -0.314354 6.171019 -0.062841
vertex -1.014480 6.171019 -0.179540
vertex -1.014480 6.171019 -0.062841
endloop
endfacet
facet normal -1.000000 -0.000000 -0.000000
outer loop
vertex -1.014480 6.171019 -0.179540
vertex -1.014480 -6.958819 -0.062841
vertex -1.014480 6.171019 -0.062841
endloop
endfacet
facet normal 0.000000 1.000000 0.000000
outer loop
vertex 0.094153 6.171019 -0.179540
vertex -0.314354 6.171019 -0.062841
vertex 0.094153 6.171019 -0.092016
endloop
endfacet
facet normal 0.071237 0.000000 0.997459
outer loop
vertex -0.314354 6.171019 -0.062841
vertex 0.094153 -6.958819 -0.092016
vertex 0.094153 6.171019 -0.092016
endloop
endfacet
facet normal 1.000000 0.000000 0.000000
outer loop
vertex 0.094153 -6.958819 -0.092016
vertex 0.094153 6.171019 -0.179540
vertex 0.094153 6.171019 -0.092016
endloop
endfacet
facet normal 0.000000 -0.000000 1.000000
outer loop
vertex -0.314354 6.171019 -0.062841
vertex -1.014480 -6.958819 -0.062841
vertex -0.314354 -6.958819 -0.062841
endloop
endfacet
facet normal -0.000000 -1.000000 -0.000000
outer loop
vertex -1.014480 -6.958819 -0.062841
vertex 0.094153 -6.958819 -0.092016
vertex -0.314354 -6.958819 -0.062841
endloop
endfacet
endsolid Exported from Blender-2.71 (sub 0)
