solid Exported from Blender-2.71 (sub 0)
facet normal 0.023852 0.124864 0.991887
outer loop
vertex 1.027762 5.966668 0.229187
vertex 0.998562 2.727906 0.637602
vertex 0.998562 -5.614476 1.687786
endloop
endfacet
facet normal 1.000000 -0.000000 0.000000
outer loop
vertex 1.027830 -6.316208 1.775224
vertex 1.027830 -6.782743 1.833702
vertex 1.027830 -6.958819 -0.062830
endloop
endfacet
facet normal 0.000000 0.000000 -1.000000
outer loop
vertex 0.327572 6.171019 -0.062830
vertex 1.027830 -6.958819 -0.062830
vertex 0.327641 -6.958819 -0.062830
endloop
endfacet
facet normal 0.000000 -1.000000 0.000000
outer loop
vertex 1.027830 -6.958819 -0.062830
vertex 0.327641 -6.958819 1.833702
vertex 0.327641 -6.958819 -0.062830
endloop
endfacet
facet normal -1.000000 -0.000005 -0.000000
outer loop
vertex 0.327641 -6.958819 -0.062830
vertex 0.327641 -6.958819 1.833702
vertex 0.327572 5.966668 0.229001
endloop
endfacet
facet normal -1.000000 -0.000005 -0.000004
outer loop
vertex 0.327572 6.171019 -0.062830
vertex 0.327641 -6.958819 -0.062830
vertex 0.327572 5.966668 0.229001
endloop
endfacet
facet normal 1.000000 0.000005 -0.000002
outer loop
vertex 1.027830 -6.316208 1.775224
vertex 1.027830 -6.958819 -0.062830
vertex 1.027762 6.171019 -0.062644
endloop
endfacet
facet normal 0.000266 0.000014 -1.000000
outer loop
vertex 1.027830 -6.958819 -0.062830
vertex 0.327572 6.171019 -0.062830
vertex 1.027762 6.171019 -0.062644
endloop
endfacet
facet normal 1.000000 0.000005 0.000000
outer loop
vertex 1.027762 6.171019 0.200041
vertex 1.027830 -6.316208 1.775224
vertex 1.027762 6.171019 -0.062644
endloop
endfacet
facet normal 0.000000 1.000000 -0.000000
outer loop
vertex 0.327572 6.171019 -0.062830
vertex 1.027762 6.171019 0.200041
vertex 1.027762 6.171019 -0.062644
endloop
endfacet
facet normal 1.000000 -0.000000 0.000000
outer loop
vertex 1.027830 -6.958819 -0.062830
vertex 1.027830 -6.782743 1.833702
vertex 1.027830 -6.958819 1.833702
endloop
endfacet
facet normal -0.000000 -1.000000 -0.000000
outer loop
vertex 0.327641 -6.958819 1.833702
vertex 1.027830 -6.958819 -0.062830
vertex 1.027830 -6.958819 1.833702
endloop
endfacet
facet normal 0.000000 -0.000000 1.000000
outer loop
vertex 1.027830 -6.782743 1.833702
vertex 0.327641 -6.958819 1.833702
vertex 1.027830 -6.958819 1.833702
endloop
endfacet
facet normal -0.000000 0.000000 1.000000
outer loop
vertex 0.327641 -6.958819 1.833702
vertex 1.027830 -6.782743 1.833702
vertex 0.327641 -6.782743 1.833702
endloop
endfacet
facet normal -1.000000 0.000000 0.000043
outer loop
vertex 0.327572 5.966668 0.229001
vertex 0.327641 -6.958819 1.833702
vertex 0.327641 -6.782743 1.833702
endloop
endfacet
facet normal -0.000000 1.000000 0.000000
outer loop
vertex 1.027762 6.171019 0.200041
vertex 0.327572 6.171019 -0.062830
vertex 0.327572 6.171019 0.199855
endloop
endfacet
facet normal -0.000263 0.141198 0.989981
outer loop
vertex 0.327572 5.966668 0.229001
vertex 1.027762 6.171019 0.200041
vertex 0.327572 6.171019 0.199855
endloop
endfacet
facet normal -1.000000 -0.000000 -0.000000
outer loop
vertex 0.327572 6.171019 -0.062830
vertex 0.327572 5.966668 0.229001
vertex 0.327572 6.171019 0.199855
endloop
endfacet
facet normal 0.000000 0.123937 0.992290
outer loop
vertex 0.327641 -6.782743 1.833702
vertex 1.027830 -6.782743 1.833702
vertex 0.356773 -5.614476 1.687786
endloop
endfacet
facet normal -0.038366 0.124787 0.991441
outer loop
vertex 0.327572 5.966668 0.229001
vertex 0.327641 -6.782743 1.833702
vertex 0.356773 -5.614476 1.687786
endloop
endfacet
facet normal 1.000000 0.000047 0.000330
outer loop
vertex 1.027830 -6.316208 1.775224
vertex 1.027762 6.171019 0.200041
vertex 1.027762 5.966668 0.229187
endloop
endfacet
facet normal -0.000263 0.141198 0.989981
outer loop
vertex 1.027762 6.171019 0.200041
vertex 0.327572 5.966668 0.229001
vertex 1.027762 5.966668 0.229187
endloop
endfacet
facet normal 0.000000 0.125111 0.992143
outer loop
vertex 0.998562 2.727906 0.637602
vertex 1.027762 5.966668 0.229187
vertex 0.356773 2.727906 0.637602
endloop
endfacet
facet normal -0.030162 0.124843 0.991718
outer loop
vertex 0.327572 5.966668 0.229001
vertex 0.356773 -5.614476 1.687786
vertex 0.356773 2.727906 0.637602
endloop
endfacet
facet normal -0.000000 0.124900 0.992169
outer loop
vertex 0.356773 -5.614476 1.687786
vertex 0.998562 2.727906 0.637602
vertex 0.356773 2.727906 0.637602
endloop
endfacet
facet normal -0.000264 0.125165 0.992136
outer loop
vertex 1.027762 5.966668 0.229187
vertex 0.327572 5.966668 0.229001
vertex 0.356773 2.727906 0.637602
endloop
endfacet
facet normal 0.017653 0.124353 0.992081
outer loop
vertex 1.027830 -6.782743 1.833702
vertex 1.027830 -6.316208 1.775224
vertex 0.998562 -5.614476 1.687786
endloop
endfacet
facet normal 0.000000 0.123937 0.992290
outer loop
vertex 0.356773 -5.614476 1.687786
vertex 1.027830 -6.782743 1.833702
vertex 0.998562 -5.614476 1.687786
endloop
endfacet
facet normal 0.000000 0.124900 0.992169
outer loop
vertex 0.998562 2.727906 0.637602
vertex 0.356773 -5.614476 1.687786
vertex 0.998562 -5.614476 1.687786
endloop
endfacet
facet normal 0.030111 0.124827 0.991721
outer loop
vertex 1.027830 -6.316208 1.775224
vertex 1.027762 5.966668 0.229187
vertex 0.998562 -5.614476 1.687786
endloop
endfacet
endsolid Exported from Blender-2.71 (sub 0)
