solid Exported from Blender-2.71 (sub 0)
facet normal 0.000000 -0.999259 0.038499
outer loop
vertex 1.027830 6.200244 0.958380
vertex -1.014589 6.171019 0.199841
vertex 1.027830 6.171019 0.199841
endloop
endfacet
facet normal -1.000000 -0.000000 -0.000000
outer loop
vertex -1.014589 6.171019 -0.179540
vertex -1.014589 6.171019 0.199841
vertex -1.014589 6.958808 -0.179540
endloop
endfacet
facet normal 0.000000 -1.000000 0.000000
outer loop
vertex -1.014589 6.171019 0.199841
vertex -1.014589 6.171019 -0.179540
vertex 1.027830 6.171019 -0.179540
endloop
endfacet
facet normal -0.000000 -0.000000 -1.000000
outer loop
vertex -1.014589 6.171019 -0.179540
vertex -1.014589 6.958808 -0.179540
vertex 1.027830 6.171019 -0.179540
endloop
endfacet
facet normal -1.000000 0.000000 -0.000000
outer loop
vertex -1.014589 6.958808 -0.179540
vertex -1.014589 6.171019 0.199841
vertex -1.014589 6.200244 0.958380
endloop
endfacet
facet normal 0.000000 1.000000 -0.000000
outer loop
vertex -1.014589 6.958808 -0.179540
vertex 1.027830 6.958808 0.958380
vertex 1.027830 6.958808 -0.179540
endloop
endfacet
facet normal 1.000000 0.000000 -0.000000
outer loop
vertex 1.027830 6.958808 0.958380
vertex 1.027830 6.171019 -0.179540
vertex 1.027830 6.958808 -0.179540
endloop
endfacet
facet normal -0.000000 -0.000000 -1.000000
outer loop
vertex 1.027830 6.171019 -0.179540
vertex -1.014589 6.958808 -0.179540
vertex 1.027830 6.958808 -0.179540
endloop
endfacet
facet normal 1.000000 -0.000000 0.000000
outer loop
vertex 1.027830 6.171019 -0.179540
vertex 1.027830 6.958808 0.958380
vertex 1.027830 6.200244 0.958380
endloop
endfacet
facet normal 0.000000 -0.999259 0.038499
outer loop
vertex -1.014589 6.200244 0.958380
vertex -1.014589 6.171019 0.199841
vertex 1.027830 6.200244 0.958380
endloop
endfacet
facet normal 0.000000 -0.000000 1.000000
outer loop
vertex 1.027830 6.958808 0.958380
vertex -1.014589 6.200244 0.958380
vertex 1.027830 6.200244 0.958380
endloop
endfacet
facet normal -0.000000 1.000000 0.000000
outer loop
vertex 1.027830 6.958808 0.958380
vertex -1.014589 6.958808 -0.179540
vertex -1.014589 6.958808 0.958380
endloop
endfacet
facet normal -1.000000 -0.000000 -0.000000
outer loop
vertex -1.014589 6.958808 -0.179540
vertex -1.014589 6.200244 0.958380
vertex -1.014589 6.958808 0.958380
endloop
endfacet
facet normal -0.000000 0.000000 1.000000
outer loop
vertex -1.014589 6.200244 0.958380
vertex 1.027830 6.958808 0.958380
vertex -1.014589 6.958808 0.958380
endloop
endfacet
facet normal -0.000000 -1.000000 -0.000000
outer loop
vertex -1.014589 6.171019 0.199841
vertex 1.027830 6.171019 -0.179540
vertex 1.027830 6.171019 0.199841
endloop
endfacet
facet normal 1.000000 -0.000000 0.000000
outer loop
vertex 1.027830 6.171019 -0.179540
vertex 1.027830 6.200244 0.958380
vertex 1.027830 6.171019 0.199841
endloop
endfacet
endsolid Exported from Blender-2.71 (sub 0)
